%
M48
M72
T01C0.0197
T02C0.0236
T03C0.0310
T04C0.0394
T05C0.0465
T06C0.1250
%
T01
X3330Y2150
X5330Y4100
X7730Y5300
X9380Y6300
X9380Y7300
X12930Y7200
X13630Y6050
X14080Y5850
X13830Y4500
X11530Y3750
X11380Y4500
X13280Y2850
X17750Y4150
X18170Y4710
X16480Y5800
X16730Y6850
X17880Y7250
X18080Y8250
X18580Y8250
X16280Y8250
X14490Y7930
X20380Y4100
X22080Y5250
X22580Y4700
X24080Y4550
X24330Y4150
X24080Y3750
X23180Y2900
X25280Y2300
X25880Y2600
X25630Y3050
X27380Y3700
X27480Y4200
X28430Y3750
X27980Y3300
X27730Y2500
X28930Y4150
X29780Y4350
X31280Y3650
X31730Y4250
X29730Y5500
X29080Y6050
X27530Y6600
X25970Y7060
X23630Y7650
X21580Y8400
X21730Y9550
X22380Y9600
X22380Y11350
X21080Y12000
X20830Y12300
X20580Y12000
X20330Y12300
X20080Y12000
X20080Y12600
X20580Y12600
X21080Y12600
X24150Y13600
X25780Y13650
X26180Y13100
X27030Y14500
X26730Y14950
X31530Y12900
X32380Y12700
X32730Y13150
X33880Y12900
X34230Y13350
X34530Y12600
X34680Y11350
X34280Y11350
X32830Y11400
X32130Y11350
X31730Y11350
X34130Y10350
X26530Y11500
X20980Y16100
X20130Y16100
X19330Y15350
X17230Y17460
X15730Y17330
X15430Y16540
X13830Y15500
X13830Y14800
X13830Y14100
X13630Y13400
X12380Y13650
X11130Y13650
X10730Y14500
X11130Y15350
X12330Y15550
X12530Y15300
X12730Y15550
X12930Y15300
X11480Y17050
X11080Y17050
X9580Y15600
X9480Y14700
X6530Y15950
X5230Y16850
X4380Y17100
X4110Y20490
X9280Y20400
X12430Y19300
X14280Y20550
X15430Y19100
X16550Y19100
X17230Y19050
X17830Y18950
X19080Y18600
X19680Y18150
X19980Y17850
X20280Y18150
X24130Y19400
X24290Y21230
X29030Y18200
X29780Y19000
X30180Y18750
X29480Y20400
X34430Y17800
X31880Y16550
X23430Y6200
X24330Y4950
X26130Y4400
X27230Y5266
X21430Y6150
X18530Y2700
X8530Y3350
X3330Y5700
T02
X11200Y6250
X11210Y6790
X12350Y7230
X21180Y14490
X21180Y14900
X21480Y15200
X21780Y15480
X22080Y15200
X21780Y14900
X22380Y14900
X22680Y15200
X22970Y15500
X22380Y15500
X22980Y14900
X25640Y10980
X25890Y10690
X26130Y10980
X24460Y9440
X24090Y9490
X24140Y9120
X24510Y9080
X24870Y9040
X24910Y8680
X24540Y8710
X27100Y7020
X28850Y6830
X29120Y7210
X28810Y7520
X29120Y7830
X29430Y8140
X29430Y7520
T03
X32830Y7445
X32830Y6855
X34330Y6855
X34330Y7445
X34330Y5545
X34330Y4955
X32830Y4955
X32830Y5545
X15830Y4500
X15830Y3910
X15830Y3320
T04
X15780Y1900
X14780Y1900
X13780Y1900
X12780Y1900
X11780Y1900
X10780Y1900
X9780Y1900
X8780Y1900
X8780Y900
X9780Y900
X10780Y900
X11780Y900
X12780Y900
X13780Y900
X14780Y900
X15780Y900
X16780Y900
X17780Y900
X18780Y900
X19780Y900
X20780Y900
X21780Y900
X22780Y900
X23780Y900
X24780Y900
X25780Y900
X26780Y900
X27780Y900
X28780Y900
X29780Y900
X30780Y900
X30780Y1900
X29780Y1900
X28780Y1900
X27780Y1900
X26780Y1900
X25780Y1900
X24780Y1900
X23780Y1900
X22780Y1900
X21780Y1900
X20780Y1900
X19780Y1900
X18780Y1900
X17780Y1900
X16780Y1900
X28530Y10750
X29530Y10750
X30530Y10750
X30530Y11750
X29530Y11750
X28530Y11750
X28530Y12750
X29530Y12750
X30530Y12750
X30530Y13750
X29530Y13750
X28530Y13750
X28530Y14750
X29530Y14750
X30530Y14750
X30530Y15750
X29530Y15750
X28530Y15750
X28530Y16750
X29530Y16750
X30530Y16750
X30530Y17750
X29530Y17750
X28530Y17750
X28780Y19900
X27780Y19900
X26780Y19900
X25780Y19900
X24780Y19900
X23780Y19900
X22780Y19900
X21780Y19900
X20780Y19900
X19780Y19900
X18780Y19900
X17780Y19900
X16780Y19900
X15780Y19900
X14780Y19900
X13780Y19900
X12780Y19900
X11780Y19900
X10780Y19900
X9780Y19900
X8780Y19900
X8780Y20900
X9780Y20900
X10780Y20900
X11780Y20900
X12780Y20900
X13780Y20900
X14780Y20900
X15780Y20900
X16780Y20900
X17780Y20900
X18780Y20900
X19780Y20900
X20780Y20900
X21780Y20900
X22780Y20900
X23780Y20900
X24780Y20900
X25780Y20900
X26780Y20900
X27780Y20900
X28780Y20900
X29780Y20900
X30780Y20900
X30780Y19900
X29780Y19900
X25080Y17950
X24080Y17950
X23080Y17950
T05
X14100Y11150
X11699Y11150
X12880Y9260
T06
X6780Y1400
X32780Y2650
X32780Y19150
X6780Y20400
M30
