G75*
%MOIN*%
%OFA0B0*%
%FSLAX25Y25*%
%IPPOS*%
%LPD*%
%AMOC8*
5,1,8,0,0,1.08239X$1,22.5*
%
%ADD10C,0.06299*%
%ADD11C,0.16500*%
%ADD12C,0.07874*%
%ADD13R,0.06299X0.06299*%
%ADD14R,0.05100X0.05100*%
%ADD15C,0.05100*%
%ADD16C,0.01600*%
%ADD17C,0.01000*%
%ADD18C,0.03569*%
%ADD19C,0.03200*%
%ADD20C,0.03962*%
%ADD21C,0.01200*%
%ADD22C,0.02400*%
%ADD23C,0.08600*%
%ADD24C,0.07000*%
%ADD25C,0.00800*%
D10*
X0087800Y0009000D03*
X0097800Y0009000D03*
X0107800Y0009000D03*
X0117800Y0009000D03*
X0127800Y0009000D03*
X0137800Y0009000D03*
X0147800Y0009000D03*
X0157800Y0009000D03*
X0167800Y0009000D03*
X0177800Y0009000D03*
X0187800Y0009000D03*
X0197800Y0009000D03*
X0207800Y0009000D03*
X0217800Y0009000D03*
X0227800Y0009000D03*
X0237800Y0009000D03*
X0247800Y0009000D03*
X0257800Y0009000D03*
X0267800Y0009000D03*
X0277800Y0009000D03*
X0287800Y0009000D03*
X0297800Y0009000D03*
X0307800Y0009000D03*
X0307800Y0019000D03*
X0297800Y0019000D03*
X0287800Y0019000D03*
X0277800Y0019000D03*
X0267800Y0019000D03*
X0257800Y0019000D03*
X0247800Y0019000D03*
X0237800Y0019000D03*
X0227800Y0019000D03*
X0217800Y0019000D03*
X0207800Y0019000D03*
X0197800Y0019000D03*
X0187800Y0019000D03*
X0177800Y0019000D03*
X0167800Y0019000D03*
X0157800Y0019000D03*
X0147800Y0019000D03*
X0137800Y0019000D03*
X0127800Y0019000D03*
X0117800Y0019000D03*
X0107800Y0019000D03*
X0097800Y0019000D03*
X0087800Y0019000D03*
X0285300Y0117500D03*
X0295300Y0117500D03*
X0305300Y0117500D03*
X0305300Y0127500D03*
X0295300Y0127500D03*
X0285300Y0127500D03*
X0285300Y0137500D03*
X0295300Y0137500D03*
X0305300Y0137500D03*
X0305300Y0147500D03*
X0295300Y0147500D03*
X0285300Y0147500D03*
X0285300Y0157500D03*
X0295300Y0157500D03*
X0305300Y0157500D03*
X0305300Y0167500D03*
X0295300Y0167500D03*
X0285300Y0167500D03*
X0285300Y0177500D03*
X0295300Y0177500D03*
X0305300Y0177500D03*
X0307800Y0199000D03*
X0297800Y0199000D03*
X0287800Y0199000D03*
X0277800Y0199000D03*
X0267800Y0199000D03*
X0257800Y0199000D03*
X0247800Y0199000D03*
X0237800Y0199000D03*
X0227800Y0199000D03*
X0217800Y0199000D03*
X0207800Y0199000D03*
X0197800Y0199000D03*
X0187800Y0199000D03*
X0177800Y0199000D03*
X0167800Y0199000D03*
X0157800Y0199000D03*
X0147800Y0199000D03*
X0137800Y0199000D03*
X0127800Y0199000D03*
X0117800Y0199000D03*
X0107800Y0199000D03*
X0097800Y0199000D03*
X0087800Y0199000D03*
X0087800Y0209000D03*
X0097800Y0209000D03*
X0107800Y0209000D03*
X0117800Y0209000D03*
X0127800Y0209000D03*
X0137800Y0209000D03*
X0147800Y0209000D03*
X0157800Y0209000D03*
X0167800Y0209000D03*
X0177800Y0209000D03*
X0187800Y0209000D03*
X0197800Y0209000D03*
X0207800Y0209000D03*
X0217800Y0209000D03*
X0227800Y0209000D03*
X0237800Y0209000D03*
X0247800Y0209000D03*
X0257800Y0209000D03*
X0267800Y0209000D03*
X0277800Y0209000D03*
X0287800Y0209000D03*
X0297800Y0209000D03*
X0307800Y0209000D03*
X0240800Y0179500D03*
X0230800Y0179500D03*
X0295300Y0107500D03*
X0305300Y0107500D03*
D11*
X0327800Y0026500D03*
X0067800Y0014000D03*
X0327800Y0191500D03*
X0067800Y0204000D03*
D12*
X0116989Y0115437D02*
X0116989Y0107563D01*
X0141005Y0107563D02*
X0141005Y0115437D01*
X0132737Y0092602D02*
X0124863Y0092602D01*
D13*
X0250800Y0179500D03*
X0285300Y0107500D03*
D14*
X0328300Y0074450D03*
X0343300Y0074450D03*
X0343300Y0055450D03*
X0328300Y0055450D03*
X0158300Y0045000D03*
D15*
X0158300Y0039100D03*
X0158300Y0033200D03*
X0328300Y0049550D03*
X0343300Y0049550D03*
X0343300Y0068550D03*
X0328300Y0068550D03*
D16*
X0332166Y0067039D02*
X0339434Y0067039D01*
X0339150Y0067725D02*
X0339782Y0066199D01*
X0340949Y0065032D01*
X0342475Y0064400D01*
X0344125Y0064400D01*
X0345158Y0064828D01*
X0342430Y0062100D01*
X0322850Y0062100D01*
X0322031Y0062139D01*
X0321988Y0062100D01*
X0321930Y0062100D01*
X0321350Y0061520D01*
X0319678Y0060000D01*
X0295300Y0060000D01*
X0295341Y0057827D01*
X0294431Y0056917D01*
X0293916Y0055673D01*
X0293916Y0054327D01*
X0294431Y0053083D01*
X0295383Y0052131D01*
X0295449Y0052104D01*
X0295512Y0048758D01*
X0292900Y0051370D01*
X0292900Y0057814D01*
X0293669Y0058583D01*
X0294184Y0059827D01*
X0294184Y0061173D01*
X0293669Y0062417D01*
X0292717Y0063369D01*
X0291473Y0063884D01*
X0290127Y0063884D01*
X0288883Y0063369D01*
X0287931Y0062417D01*
X0287416Y0061173D01*
X0287416Y0059827D01*
X0287931Y0058583D01*
X0288700Y0057814D01*
X0288700Y0049630D01*
X0289930Y0048400D01*
X0291700Y0046630D01*
X0291700Y0043886D01*
X0291217Y0044369D01*
X0289973Y0044884D01*
X0288627Y0044884D01*
X0287383Y0044369D01*
X0286431Y0043417D01*
X0285916Y0042173D01*
X0285916Y0040827D01*
X0286431Y0039583D01*
X0287200Y0038814D01*
X0287200Y0035870D01*
X0286430Y0035100D01*
X0282486Y0035100D01*
X0281717Y0035869D01*
X0280473Y0036384D01*
X0279127Y0036384D01*
X0278835Y0036263D01*
X0278846Y0037076D01*
X0279900Y0038130D01*
X0279900Y0062905D01*
X0279970Y0063676D01*
X0279900Y0063760D01*
X0279900Y0063870D01*
X0279352Y0064418D01*
X0279198Y0064603D01*
X0279288Y0071700D01*
X0281277Y0071700D01*
X0282159Y0072065D01*
X0282835Y0072741D01*
X0312767Y0102673D01*
X0312777Y0102677D01*
X0313104Y0103010D01*
X0313435Y0103341D01*
X0313439Y0103350D01*
X0313446Y0103358D01*
X0313621Y0103791D01*
X0313800Y0104223D01*
X0313800Y0104233D01*
X0313804Y0104243D01*
X0313800Y0104710D01*
X0313800Y0105177D01*
X0313796Y0105187D01*
X0313777Y0107373D01*
X0314200Y0107800D01*
X0314270Y0115947D01*
X0315833Y0117600D01*
X0325806Y0117600D01*
X0325900Y0117506D01*
X0325900Y0116386D01*
X0325431Y0115917D01*
X0324916Y0114673D01*
X0324916Y0113327D01*
X0325431Y0112083D01*
X0326383Y0111131D01*
X0327627Y0110616D01*
X0328973Y0110616D01*
X0330217Y0111131D01*
X0331169Y0112083D01*
X0331684Y0113327D01*
X0331684Y0114673D01*
X0331169Y0115917D01*
X0330700Y0116386D01*
X0330700Y0118977D01*
X0330484Y0119500D01*
X0348250Y0119500D01*
X0348250Y0104020D01*
X0346670Y0105600D01*
X0343986Y0105600D01*
X0343217Y0106369D01*
X0341973Y0106884D01*
X0340627Y0106884D01*
X0339383Y0106369D01*
X0338431Y0105417D01*
X0337916Y0104173D01*
X0337916Y0102827D01*
X0338431Y0101583D01*
X0339383Y0100631D01*
X0340627Y0100116D01*
X0341973Y0100116D01*
X0343217Y0100631D01*
X0343986Y0101400D01*
X0344930Y0101400D01*
X0345700Y0100630D01*
X0345700Y0078600D01*
X0340087Y0078600D01*
X0339150Y0077663D01*
X0339150Y0071237D01*
X0339695Y0070692D01*
X0339150Y0069375D01*
X0339150Y0067725D01*
X0339150Y0068637D02*
X0332450Y0068637D01*
X0332450Y0069375D02*
X0332450Y0067725D01*
X0331818Y0066199D01*
X0330651Y0065032D01*
X0329125Y0064400D01*
X0327475Y0064400D01*
X0325949Y0065032D01*
X0324782Y0066199D01*
X0324150Y0067725D01*
X0324150Y0069375D01*
X0324695Y0070692D01*
X0324150Y0071237D01*
X0324150Y0077663D01*
X0325087Y0078600D01*
X0331513Y0078600D01*
X0332450Y0077663D01*
X0332450Y0071237D01*
X0331905Y0070692D01*
X0332450Y0069375D01*
X0332094Y0070236D02*
X0339506Y0070236D01*
X0339150Y0071834D02*
X0332450Y0071834D01*
X0332450Y0073433D02*
X0339150Y0073433D01*
X0339150Y0075032D02*
X0332450Y0075032D01*
X0332450Y0076630D02*
X0339150Y0076630D01*
X0339716Y0078229D02*
X0331884Y0078229D01*
X0324716Y0078229D02*
X0288323Y0078229D01*
X0289921Y0079827D02*
X0345700Y0079827D01*
X0345700Y0081426D02*
X0291520Y0081426D01*
X0293118Y0083024D02*
X0345700Y0083024D01*
X0345700Y0084623D02*
X0294717Y0084623D01*
X0296315Y0086221D02*
X0345700Y0086221D01*
X0345700Y0087820D02*
X0297914Y0087820D01*
X0299512Y0089418D02*
X0345700Y0089418D01*
X0345700Y0091017D02*
X0301111Y0091017D01*
X0302709Y0092615D02*
X0345700Y0092615D01*
X0345700Y0094214D02*
X0304308Y0094214D01*
X0305906Y0095812D02*
X0345700Y0095812D01*
X0345700Y0097411D02*
X0307505Y0097411D01*
X0309103Y0099009D02*
X0345700Y0099009D01*
X0345700Y0100608D02*
X0343161Y0100608D01*
X0339439Y0100608D02*
X0310702Y0100608D01*
X0312300Y0102206D02*
X0338173Y0102206D01*
X0337916Y0103805D02*
X0313627Y0103805D01*
X0313794Y0105403D02*
X0338425Y0105403D01*
X0346867Y0105403D02*
X0348250Y0105403D01*
X0348250Y0107002D02*
X0313780Y0107002D01*
X0314207Y0108600D02*
X0348250Y0108600D01*
X0348250Y0110199D02*
X0314220Y0110199D01*
X0314234Y0111797D02*
X0325717Y0111797D01*
X0324916Y0113396D02*
X0314248Y0113396D01*
X0314261Y0114994D02*
X0325049Y0114994D01*
X0325900Y0116593D02*
X0314881Y0116593D01*
X0314800Y0120000D02*
X0311300Y0116300D01*
X0311400Y0104700D01*
X0280800Y0074100D01*
X0274900Y0074100D01*
X0271000Y0070200D01*
X0279270Y0070236D02*
X0324506Y0070236D01*
X0324150Y0071834D02*
X0281602Y0071834D01*
X0283527Y0073433D02*
X0324150Y0073433D01*
X0324150Y0075032D02*
X0285126Y0075032D01*
X0286724Y0076630D02*
X0324150Y0076630D01*
X0324150Y0068637D02*
X0279249Y0068637D01*
X0279229Y0067039D02*
X0324434Y0067039D01*
X0325541Y0065440D02*
X0279208Y0065440D01*
X0279900Y0063842D02*
X0290025Y0063842D01*
X0291575Y0063842D02*
X0344172Y0063842D01*
X0342574Y0062243D02*
X0293741Y0062243D01*
X0294184Y0060645D02*
X0320388Y0060645D01*
X0331059Y0065440D02*
X0340541Y0065440D01*
X0295318Y0059046D02*
X0293861Y0059046D01*
X0292900Y0057448D02*
X0294962Y0057448D01*
X0293989Y0055849D02*
X0292900Y0055849D01*
X0292900Y0054251D02*
X0293947Y0054251D01*
X0294862Y0052652D02*
X0292900Y0052652D01*
X0293216Y0051054D02*
X0295469Y0051054D01*
X0295499Y0049455D02*
X0294814Y0049455D01*
X0290473Y0047857D02*
X0279900Y0047857D01*
X0279900Y0049455D02*
X0288875Y0049455D01*
X0288700Y0051054D02*
X0279900Y0051054D01*
X0279900Y0052652D02*
X0288700Y0052652D01*
X0288700Y0054251D02*
X0279900Y0054251D01*
X0279900Y0055849D02*
X0288700Y0055849D01*
X0288700Y0057448D02*
X0279900Y0057448D01*
X0279900Y0059046D02*
X0287739Y0059046D01*
X0287416Y0060645D02*
X0279900Y0060645D01*
X0279900Y0062243D02*
X0287859Y0062243D01*
X0291700Y0046258D02*
X0279900Y0046258D01*
X0279900Y0044660D02*
X0288085Y0044660D01*
X0286284Y0043061D02*
X0279900Y0043061D01*
X0279900Y0041463D02*
X0285916Y0041463D01*
X0286314Y0039864D02*
X0279900Y0039864D01*
X0279900Y0038266D02*
X0287200Y0038266D01*
X0287200Y0036667D02*
X0278840Y0036667D01*
X0290515Y0044660D02*
X0291700Y0044660D01*
X0330883Y0111797D02*
X0348250Y0111797D01*
X0348250Y0113396D02*
X0331684Y0113396D01*
X0331551Y0114994D02*
X0348250Y0114994D01*
X0348250Y0116593D02*
X0330700Y0116593D01*
X0330700Y0118191D02*
X0348250Y0118191D01*
X0328300Y0118500D02*
X0328300Y0114000D01*
X0328300Y0118500D02*
X0326800Y0120000D01*
X0314800Y0120000D01*
X0177500Y0041500D02*
X0177500Y0034500D01*
X0171500Y0028500D01*
X0139500Y0028500D01*
X0135300Y0024300D01*
X0123100Y0024300D01*
X0117800Y0019000D01*
X0117800Y0009000D01*
X0107800Y0009000D02*
X0107800Y0019000D01*
X0097800Y0019000D02*
X0097800Y0009000D01*
D17*
X0059805Y0008490D02*
X0027710Y0008490D01*
X0027949Y0007755D02*
X0027152Y0010209D01*
X0027050Y0011500D01*
X0027050Y0081500D01*
X0027076Y0081694D01*
X0027270Y0082030D01*
X0027606Y0082224D01*
X0027800Y0082250D01*
X0084143Y0082250D01*
X0086624Y0083278D01*
X0087346Y0084000D01*
X0087800Y0084000D01*
X0087800Y0084454D01*
X0088522Y0085176D01*
X0089550Y0087657D01*
X0089550Y0149843D01*
X0088522Y0152324D01*
X0086624Y0154222D01*
X0086624Y0154222D01*
X0084143Y0155250D01*
X0027800Y0155250D01*
X0027606Y0155276D01*
X0027270Y0155470D01*
X0027076Y0155806D01*
X0027050Y0156000D01*
X0027050Y0206500D01*
X0027152Y0207791D01*
X0027949Y0210245D01*
X0029466Y0212334D01*
X0031555Y0213851D01*
X0034009Y0214648D01*
X0035300Y0214750D01*
X0087800Y0214750D01*
X0087800Y0209484D01*
X0087316Y0209484D01*
X0087316Y0208516D01*
X0087800Y0208516D01*
X0087800Y0199484D01*
X0087316Y0199484D01*
X0087316Y0198516D01*
X0087800Y0198516D01*
X0087800Y0192000D01*
X0119800Y0192000D01*
X0119800Y0186000D01*
X0152500Y0186000D01*
X0152500Y0167962D01*
X0151685Y0167147D01*
X0151216Y0166013D01*
X0151216Y0164786D01*
X0151685Y0163653D01*
X0152553Y0162785D01*
X0153686Y0162316D01*
X0154913Y0162316D01*
X0156047Y0162785D01*
X0156915Y0163653D01*
X0157384Y0164786D01*
X0157384Y0166013D01*
X0156915Y0167147D01*
X0156100Y0167962D01*
X0156100Y0170459D01*
X0156686Y0170216D01*
X0157913Y0170216D01*
X0159047Y0170685D01*
X0159915Y0171553D01*
X0160384Y0172686D01*
X0160384Y0173913D01*
X0159915Y0175047D01*
X0159100Y0175862D01*
X0159100Y0186000D01*
X0170500Y0186000D01*
X0170500Y0177162D01*
X0169685Y0176347D01*
X0169216Y0175213D01*
X0169216Y0173986D01*
X0169685Y0172853D01*
X0170553Y0171985D01*
X0171686Y0171516D01*
X0172913Y0171516D01*
X0174047Y0171985D01*
X0174915Y0172853D01*
X0175384Y0173986D01*
X0175384Y0175213D01*
X0174915Y0176347D01*
X0174100Y0177162D01*
X0174100Y0186000D01*
X0177500Y0186000D01*
X0177500Y0164654D01*
X0181504Y0160651D01*
X0181504Y0160645D01*
X0182029Y0160125D01*
X0182554Y0159600D01*
X0182560Y0159600D01*
X0182563Y0159596D01*
X0183304Y0159600D01*
X0184046Y0159600D01*
X0184049Y0159604D01*
X0198510Y0159676D01*
X0198685Y0159253D01*
X0199553Y0158385D01*
X0200686Y0157916D01*
X0201913Y0157916D01*
X0203047Y0158385D01*
X0203862Y0159200D01*
X0205454Y0159200D01*
X0201554Y0155300D01*
X0195862Y0155300D01*
X0195047Y0156115D01*
X0193913Y0156584D01*
X0192686Y0156584D01*
X0191553Y0156115D01*
X0190685Y0155247D01*
X0190216Y0154113D01*
X0190216Y0152886D01*
X0190685Y0151753D01*
X0191553Y0150885D01*
X0192686Y0150416D01*
X0193913Y0150416D01*
X0195047Y0150885D01*
X0195862Y0151700D01*
X0203046Y0151700D01*
X0209261Y0157916D01*
X0210413Y0157916D01*
X0211547Y0158385D01*
X0212415Y0159253D01*
X0212884Y0160386D01*
X0212884Y0161539D01*
X0214046Y0162700D01*
X0226546Y0162700D01*
X0227600Y0163754D01*
X0233000Y0169154D01*
X0233000Y0147746D01*
X0221539Y0136285D01*
X0198281Y0135800D01*
X0197554Y0135800D01*
X0197539Y0135785D01*
X0197517Y0135784D01*
X0197014Y0135260D01*
X0193054Y0131300D01*
X0192000Y0130246D01*
X0192000Y0115754D01*
X0197054Y0110700D01*
X0222000Y0110700D01*
X0222000Y0098562D01*
X0221185Y0097747D01*
X0220716Y0096613D01*
X0220716Y0095386D01*
X0221185Y0094253D01*
X0222053Y0093385D01*
X0223186Y0092916D01*
X0224413Y0092916D01*
X0225547Y0093385D01*
X0226415Y0094253D01*
X0226884Y0095386D01*
X0226884Y0096613D01*
X0226415Y0097747D01*
X0225600Y0098562D01*
X0225600Y0110700D01*
X0236700Y0110700D01*
X0236700Y0092386D01*
X0237553Y0090328D01*
X0242604Y0085277D01*
X0242618Y0085241D01*
X0243541Y0084318D01*
X0243577Y0084304D01*
X0244628Y0083253D01*
X0246686Y0082400D01*
X0248914Y0082400D01*
X0250972Y0083253D01*
X0252547Y0084828D01*
X0253400Y0086886D01*
X0253400Y0089114D01*
X0252547Y0091172D01*
X0251496Y0092223D01*
X0251482Y0092259D01*
X0250559Y0093182D01*
X0250523Y0093196D01*
X0247900Y0095820D01*
X0247900Y0110700D01*
X0255046Y0110700D01*
X0256100Y0111754D01*
X0256100Y0183500D01*
X0293754Y0183500D01*
X0294554Y0182700D01*
X0304504Y0182700D01*
X0305784Y0181291D01*
X0305784Y0177984D01*
X0304816Y0177984D01*
X0304816Y0177016D01*
X0305784Y0177016D01*
X0305784Y0172869D01*
X0306389Y0172965D01*
X0307085Y0173191D01*
X0307737Y0173523D01*
X0308329Y0173953D01*
X0308847Y0174471D01*
X0309277Y0175063D01*
X0309609Y0175715D01*
X0309835Y0176411D01*
X0309892Y0176773D01*
X0313500Y0172804D01*
X0313500Y0131562D01*
X0312685Y0130747D01*
X0312216Y0129613D01*
X0312216Y0128386D01*
X0312685Y0127253D01*
X0313553Y0126385D01*
X0314686Y0125916D01*
X0314800Y0125916D01*
X0314800Y0122101D01*
X0314771Y0122100D01*
X0313930Y0122100D01*
X0313906Y0122076D01*
X0313872Y0122075D01*
X0313295Y0121464D01*
X0312821Y0120991D01*
X0312208Y0120388D01*
X0312207Y0120377D01*
X0312200Y0120370D01*
X0312200Y0120307D01*
X0309788Y0117758D01*
X0309193Y0117152D01*
X0309193Y0117128D01*
X0309177Y0117111D01*
X0309179Y0117016D01*
X0305784Y0117016D01*
X0305784Y0112869D01*
X0306389Y0112965D01*
X0307085Y0113191D01*
X0307737Y0113523D01*
X0308329Y0113953D01*
X0308847Y0114471D01*
X0309211Y0114973D01*
X0309255Y0109967D01*
X0308847Y0110529D01*
X0308329Y0111047D01*
X0307737Y0111477D01*
X0307085Y0111809D01*
X0306389Y0112035D01*
X0305784Y0112131D01*
X0305784Y0107984D01*
X0304816Y0107984D01*
X0304816Y0107016D01*
X0305784Y0107016D01*
X0305784Y0102869D01*
X0306389Y0102965D01*
X0306477Y0102994D01*
X0279912Y0076200D01*
X0274030Y0076200D01*
X0271311Y0073481D01*
X0270347Y0073481D01*
X0269141Y0072982D01*
X0268218Y0072059D01*
X0267719Y0070853D01*
X0267719Y0069547D01*
X0268218Y0068341D01*
X0269141Y0067418D01*
X0270347Y0066919D01*
X0271653Y0066919D01*
X0272485Y0067264D01*
X0272216Y0066613D01*
X0272216Y0065386D01*
X0272685Y0064253D01*
X0273553Y0063385D01*
X0274686Y0062916D01*
X0275527Y0062916D01*
X0276000Y0062348D01*
X0276000Y0056846D01*
X0275046Y0057800D01*
X0188046Y0057800D01*
X0187600Y0058246D01*
X0187600Y0079938D01*
X0188415Y0080753D01*
X0188884Y0081886D01*
X0188884Y0083113D01*
X0188415Y0084247D01*
X0187547Y0085115D01*
X0186413Y0085584D01*
X0185186Y0085584D01*
X0184053Y0085115D01*
X0183185Y0084247D01*
X0182716Y0083113D01*
X0182716Y0081886D01*
X0183185Y0080753D01*
X0184000Y0079938D01*
X0184000Y0069846D01*
X0181884Y0071961D01*
X0181884Y0073113D01*
X0181415Y0074247D01*
X0180547Y0075115D01*
X0179413Y0075584D01*
X0178186Y0075584D01*
X0177053Y0075115D01*
X0176185Y0074247D01*
X0175716Y0073113D01*
X0175716Y0071886D01*
X0176185Y0070753D01*
X0177053Y0069885D01*
X0178186Y0069416D01*
X0179339Y0069416D01*
X0181000Y0067754D01*
X0181000Y0056000D01*
X0157803Y0056000D01*
X0156884Y0055619D01*
X0156181Y0054916D01*
X0155800Y0053997D01*
X0155800Y0048850D01*
X0155212Y0048850D01*
X0154450Y0048088D01*
X0154450Y0047147D01*
X0154384Y0047119D01*
X0153681Y0046416D01*
X0147264Y0040000D01*
X0117162Y0040000D01*
X0117047Y0040115D01*
X0115913Y0040584D01*
X0114686Y0040584D01*
X0113553Y0040115D01*
X0112685Y0039247D01*
X0112216Y0038113D01*
X0112216Y0037951D01*
X0098764Y0024500D01*
X0092800Y0024500D01*
X0092800Y0003250D01*
X0035300Y0003250D01*
X0034009Y0003352D01*
X0031555Y0004149D01*
X0029466Y0005666D01*
X0027949Y0007755D01*
X0028141Y0007491D02*
X0060803Y0007491D01*
X0061802Y0006493D02*
X0028866Y0006493D01*
X0029704Y0005494D02*
X0063380Y0005494D01*
X0062390Y0005904D02*
X0065900Y0004450D01*
X0069700Y0004450D01*
X0073210Y0005904D01*
X0075896Y0008590D01*
X0077350Y0012100D01*
X0077350Y0015900D01*
X0075896Y0019410D01*
X0073210Y0022096D01*
X0069700Y0023550D01*
X0065900Y0023550D01*
X0062390Y0022096D01*
X0059704Y0019410D01*
X0058250Y0015900D01*
X0058250Y0012100D01*
X0059704Y0008590D01*
X0062390Y0005904D01*
X0065790Y0004496D02*
X0031078Y0004496D01*
X0033562Y0003497D02*
X0092800Y0003497D01*
X0092800Y0004496D02*
X0088983Y0004496D01*
X0088889Y0004465D02*
X0089585Y0004691D01*
X0090237Y0005023D01*
X0090829Y0005453D01*
X0091347Y0005971D01*
X0091777Y0006563D01*
X0092109Y0007215D01*
X0092335Y0007911D01*
X0092431Y0008516D01*
X0088284Y0008516D01*
X0088284Y0004369D01*
X0088889Y0004465D01*
X0088284Y0004496D02*
X0087316Y0004496D01*
X0087316Y0004369D02*
X0086711Y0004465D01*
X0086015Y0004691D01*
X0085363Y0005023D01*
X0084771Y0005453D01*
X0084253Y0005971D01*
X0083823Y0006563D01*
X0083491Y0007215D01*
X0083265Y0007911D01*
X0083169Y0008516D01*
X0087316Y0008516D01*
X0088284Y0008516D01*
X0088284Y0009484D01*
X0092431Y0009484D01*
X0092335Y0010089D01*
X0092109Y0010785D01*
X0091777Y0011437D01*
X0091347Y0012029D01*
X0090829Y0012547D01*
X0090237Y0012977D01*
X0089585Y0013309D01*
X0088889Y0013535D01*
X0088284Y0013631D01*
X0088284Y0009484D01*
X0087316Y0009484D01*
X0087316Y0008516D01*
X0087316Y0004369D01*
X0086617Y0004496D02*
X0069810Y0004496D01*
X0072220Y0005494D02*
X0084730Y0005494D01*
X0083875Y0006493D02*
X0073798Y0006493D01*
X0074797Y0007491D02*
X0083401Y0007491D01*
X0083173Y0008490D02*
X0075795Y0008490D01*
X0076268Y0009488D02*
X0083170Y0009488D01*
X0083169Y0009484D02*
X0087316Y0009484D01*
X0087316Y0013631D01*
X0086711Y0013535D01*
X0086015Y0013309D01*
X0085363Y0012977D01*
X0084771Y0012547D01*
X0084253Y0012029D01*
X0083823Y0011437D01*
X0083491Y0010785D01*
X0083265Y0010089D01*
X0083169Y0009484D01*
X0083394Y0010487D02*
X0076682Y0010487D01*
X0077095Y0011485D02*
X0083858Y0011485D01*
X0084708Y0012484D02*
X0077350Y0012484D01*
X0077350Y0013482D02*
X0086548Y0013482D01*
X0087316Y0013482D02*
X0088284Y0013482D01*
X0089052Y0013482D02*
X0092800Y0013482D01*
X0092800Y0012484D02*
X0090892Y0012484D01*
X0091742Y0011485D02*
X0092800Y0011485D01*
X0092800Y0010487D02*
X0092206Y0010487D01*
X0092430Y0009488D02*
X0092800Y0009488D01*
X0092800Y0008490D02*
X0092427Y0008490D01*
X0092199Y0007491D02*
X0092800Y0007491D01*
X0092800Y0006493D02*
X0091725Y0006493D01*
X0090870Y0005494D02*
X0092800Y0005494D01*
X0088284Y0005494D02*
X0087316Y0005494D01*
X0087316Y0006493D02*
X0088284Y0006493D01*
X0088284Y0007491D02*
X0087316Y0007491D01*
X0087316Y0008490D02*
X0088284Y0008490D01*
X0088284Y0009488D02*
X0087316Y0009488D01*
X0087316Y0010487D02*
X0088284Y0010487D01*
X0088284Y0011485D02*
X0087316Y0011485D01*
X0087316Y0012484D02*
X0088284Y0012484D01*
X0088284Y0014369D02*
X0088889Y0014465D01*
X0089585Y0014691D01*
X0090237Y0015023D01*
X0090829Y0015453D01*
X0091347Y0015971D01*
X0091777Y0016563D01*
X0092109Y0017215D01*
X0092335Y0017911D01*
X0092431Y0018516D01*
X0088284Y0018516D01*
X0088284Y0014369D01*
X0088284Y0014481D02*
X0087316Y0014481D01*
X0087316Y0014369D02*
X0087316Y0018516D01*
X0088284Y0018516D01*
X0088284Y0019484D01*
X0092431Y0019484D01*
X0092335Y0020089D01*
X0092109Y0020785D01*
X0091777Y0021437D01*
X0091347Y0022029D01*
X0090829Y0022547D01*
X0090237Y0022977D01*
X0089585Y0023309D01*
X0088889Y0023535D01*
X0088284Y0023631D01*
X0088284Y0019484D01*
X0087316Y0019484D01*
X0087316Y0018516D01*
X0083169Y0018516D01*
X0083265Y0017911D01*
X0083491Y0017215D01*
X0083823Y0016563D01*
X0084253Y0015971D01*
X0084771Y0015453D01*
X0085363Y0015023D01*
X0086015Y0014691D01*
X0086711Y0014465D01*
X0087316Y0014369D01*
X0086663Y0014481D02*
X0077350Y0014481D01*
X0077350Y0015479D02*
X0084745Y0015479D01*
X0083885Y0016478D02*
X0077111Y0016478D01*
X0076697Y0017476D02*
X0083406Y0017476D01*
X0083176Y0018475D02*
X0076283Y0018475D01*
X0075833Y0019473D02*
X0087316Y0019473D01*
X0087316Y0019484D02*
X0083169Y0019484D01*
X0083265Y0020089D01*
X0083491Y0020785D01*
X0083823Y0021437D01*
X0084253Y0022029D01*
X0084771Y0022547D01*
X0085363Y0022977D01*
X0086015Y0023309D01*
X0086711Y0023535D01*
X0087316Y0023631D01*
X0087316Y0019484D01*
X0088284Y0019473D02*
X0092800Y0019473D01*
X0092800Y0018475D02*
X0092424Y0018475D01*
X0092194Y0017476D02*
X0092800Y0017476D01*
X0092800Y0016478D02*
X0091715Y0016478D01*
X0090855Y0015479D02*
X0092800Y0015479D01*
X0092800Y0014481D02*
X0088937Y0014481D01*
X0088284Y0015479D02*
X0087316Y0015479D01*
X0087316Y0016478D02*
X0088284Y0016478D01*
X0088284Y0017476D02*
X0087316Y0017476D01*
X0087316Y0018475D02*
X0088284Y0018475D01*
X0088284Y0020472D02*
X0087316Y0020472D01*
X0087316Y0021470D02*
X0088284Y0021470D01*
X0088284Y0022469D02*
X0087316Y0022469D01*
X0087316Y0023467D02*
X0088284Y0023467D01*
X0089098Y0023467D02*
X0092800Y0023467D01*
X0092800Y0022469D02*
X0090907Y0022469D01*
X0091752Y0021470D02*
X0092800Y0021470D01*
X0092800Y0020472D02*
X0092211Y0020472D01*
X0092800Y0024466D02*
X0027050Y0024466D01*
X0027050Y0025464D02*
X0099729Y0025464D01*
X0100727Y0026463D02*
X0027050Y0026463D01*
X0027050Y0027461D02*
X0101726Y0027461D01*
X0102724Y0028460D02*
X0027050Y0028460D01*
X0027050Y0029458D02*
X0103723Y0029458D01*
X0104721Y0030457D02*
X0086013Y0030457D01*
X0085913Y0030416D02*
X0087047Y0030885D01*
X0087915Y0031753D01*
X0088384Y0032886D01*
X0088384Y0034113D01*
X0087915Y0035247D01*
X0087047Y0036115D01*
X0085913Y0036584D01*
X0084686Y0036584D01*
X0083553Y0036115D01*
X0082738Y0035300D01*
X0061546Y0035300D01*
X0056384Y0040461D01*
X0056384Y0041613D01*
X0055915Y0042747D01*
X0055047Y0043615D01*
X0053913Y0044084D01*
X0052686Y0044084D01*
X0051553Y0043615D01*
X0050685Y0042747D01*
X0050216Y0041613D01*
X0050216Y0040386D01*
X0050685Y0039253D01*
X0051553Y0038385D01*
X0052686Y0037916D01*
X0053839Y0037916D01*
X0060054Y0031700D01*
X0082738Y0031700D01*
X0083553Y0030885D01*
X0084686Y0030416D01*
X0085913Y0030416D01*
X0084587Y0030457D02*
X0027050Y0030457D01*
X0027050Y0031455D02*
X0082983Y0031455D01*
X0085300Y0033500D02*
X0060800Y0033500D01*
X0053300Y0041000D01*
X0050558Y0042439D02*
X0027050Y0042439D01*
X0027050Y0043437D02*
X0051376Y0043437D01*
X0050216Y0041440D02*
X0027050Y0041440D01*
X0027050Y0040442D02*
X0050216Y0040442D01*
X0050606Y0039443D02*
X0027050Y0039443D01*
X0027050Y0038445D02*
X0051493Y0038445D01*
X0054308Y0037446D02*
X0027050Y0037446D01*
X0027050Y0036448D02*
X0055307Y0036448D01*
X0056305Y0035449D02*
X0027050Y0035449D01*
X0027050Y0034451D02*
X0057304Y0034451D01*
X0058302Y0033452D02*
X0027050Y0033452D01*
X0027050Y0032454D02*
X0059301Y0032454D01*
X0061396Y0035449D02*
X0082888Y0035449D01*
X0084357Y0036448D02*
X0060398Y0036448D01*
X0059399Y0037446D02*
X0111711Y0037446D01*
X0112353Y0038445D02*
X0058401Y0038445D01*
X0057402Y0039443D02*
X0112882Y0039443D01*
X0114343Y0040442D02*
X0056404Y0040442D01*
X0056384Y0041440D02*
X0148705Y0041440D01*
X0147706Y0040442D02*
X0116257Y0040442D01*
X0113800Y0044000D02*
X0114300Y0044500D01*
X0113800Y0045000D02*
X0113800Y0044000D01*
X0110712Y0036448D02*
X0086243Y0036448D01*
X0087712Y0035449D02*
X0109714Y0035449D01*
X0108715Y0034451D02*
X0088245Y0034451D01*
X0088384Y0033452D02*
X0107717Y0033452D01*
X0106718Y0032454D02*
X0088205Y0032454D01*
X0087617Y0031455D02*
X0105720Y0031455D01*
X0108797Y0027461D02*
X0129892Y0027461D01*
X0129716Y0027886D02*
X0130185Y0026753D01*
X0130538Y0026400D01*
X0122230Y0026400D01*
X0121000Y0025170D01*
X0120330Y0024500D01*
X0105836Y0024500D01*
X0115751Y0034416D01*
X0115913Y0034416D01*
X0117047Y0034885D01*
X0117162Y0035000D01*
X0148797Y0035000D01*
X0149716Y0035381D01*
X0154353Y0040018D01*
X0154250Y0039499D01*
X0154250Y0039375D01*
X0158025Y0039375D01*
X0158025Y0038825D01*
X0154250Y0038825D01*
X0154250Y0038701D01*
X0154406Y0037919D01*
X0154711Y0037182D01*
X0155154Y0036518D01*
X0155664Y0036009D01*
X0155036Y0035381D01*
X0154450Y0033966D01*
X0154450Y0032800D01*
X0134554Y0032800D01*
X0133500Y0031746D01*
X0133339Y0031584D01*
X0132186Y0031584D01*
X0131053Y0031115D01*
X0130185Y0030247D01*
X0129716Y0029113D01*
X0129716Y0027886D01*
X0129716Y0028460D02*
X0109795Y0028460D01*
X0110794Y0029458D02*
X0129859Y0029458D01*
X0130395Y0030457D02*
X0111792Y0030457D01*
X0112791Y0031455D02*
X0131875Y0031455D01*
X0134208Y0032454D02*
X0113789Y0032454D01*
X0114788Y0033452D02*
X0154450Y0033452D01*
X0154651Y0034451D02*
X0115998Y0034451D01*
X0121294Y0025464D02*
X0106800Y0025464D01*
X0107798Y0026463D02*
X0130475Y0026463D01*
X0132800Y0028500D02*
X0135300Y0031000D01*
X0156300Y0031000D01*
X0158300Y0033000D01*
X0158300Y0033200D01*
X0160936Y0036009D02*
X0161564Y0035381D01*
X0162150Y0033966D01*
X0162150Y0032434D01*
X0161564Y0031019D01*
X0161145Y0030600D01*
X0170630Y0030600D01*
X0175400Y0035370D01*
X0175400Y0039238D01*
X0174885Y0039753D01*
X0174416Y0040886D01*
X0174416Y0042113D01*
X0174885Y0043247D01*
X0175753Y0044115D01*
X0176886Y0044584D01*
X0178113Y0044584D01*
X0179247Y0044115D01*
X0180115Y0043247D01*
X0180584Y0042113D01*
X0180584Y0040886D01*
X0180115Y0039753D01*
X0179600Y0039238D01*
X0179600Y0033630D01*
X0178370Y0032400D01*
X0172370Y0026400D01*
X0140370Y0026400D01*
X0138470Y0024500D01*
X0150754Y0024500D01*
X0151554Y0025300D01*
X0182666Y0025300D01*
X0182216Y0026386D01*
X0182216Y0027539D01*
X0181500Y0028254D01*
X0181500Y0044016D01*
X0181086Y0044016D01*
X0179953Y0044485D01*
X0179085Y0045353D01*
X0178616Y0046486D01*
X0178616Y0047713D01*
X0179085Y0048847D01*
X0179953Y0049715D01*
X0181086Y0050184D01*
X0182313Y0050184D01*
X0183447Y0049715D01*
X0184315Y0048847D01*
X0184784Y0047713D01*
X0184784Y0046793D01*
X0185046Y0046564D01*
X0185051Y0046495D01*
X0185100Y0046446D01*
X0185100Y0045760D01*
X0185146Y0045076D01*
X0185100Y0045024D01*
X0185100Y0030084D01*
X0185913Y0030084D01*
X0187047Y0029615D01*
X0187915Y0028747D01*
X0188384Y0027613D01*
X0188384Y0026386D01*
X0187934Y0025300D01*
X0210054Y0025300D01*
X0212054Y0027300D01*
X0229166Y0027300D01*
X0228716Y0028386D01*
X0228716Y0029397D01*
X0228474Y0029621D01*
X0228474Y0029621D01*
X0218096Y0039200D01*
X0206362Y0039200D01*
X0205547Y0038385D01*
X0204413Y0037916D01*
X0203186Y0037916D01*
X0202053Y0038385D01*
X0201185Y0039253D01*
X0200716Y0040386D01*
X0200716Y0041613D01*
X0201185Y0042747D01*
X0202053Y0043615D01*
X0203186Y0044084D01*
X0204413Y0044084D01*
X0205547Y0043615D01*
X0206362Y0042800D01*
X0218764Y0042800D01*
X0219473Y0042828D01*
X0219504Y0042800D01*
X0219546Y0042800D01*
X0220047Y0042298D01*
X0230946Y0032238D01*
X0230988Y0032238D01*
X0231155Y0032071D01*
X0231186Y0032084D01*
X0232413Y0032084D01*
X0233547Y0031615D01*
X0234415Y0030747D01*
X0234884Y0029613D01*
X0234884Y0028386D01*
X0234434Y0027300D01*
X0242604Y0027300D01*
X0247557Y0031803D01*
X0248054Y0032300D01*
X0248104Y0032300D01*
X0248141Y0032333D01*
X0248843Y0032300D01*
X0253738Y0032300D01*
X0254553Y0033115D01*
X0255686Y0033584D01*
X0256670Y0033584D01*
X0254554Y0035700D01*
X0243362Y0035700D01*
X0242547Y0034885D01*
X0241413Y0034416D01*
X0240186Y0034416D01*
X0239053Y0034885D01*
X0238185Y0035753D01*
X0237716Y0036886D01*
X0237716Y0038113D01*
X0238185Y0039247D01*
X0239053Y0040115D01*
X0240186Y0040584D01*
X0240341Y0040584D01*
X0240216Y0040886D01*
X0240216Y0042113D01*
X0240341Y0042416D01*
X0240186Y0042416D01*
X0239053Y0042885D01*
X0238185Y0043753D01*
X0237716Y0044886D01*
X0237716Y0046113D01*
X0238185Y0047247D01*
X0239053Y0048115D01*
X0240186Y0048584D01*
X0240341Y0048584D01*
X0240216Y0048886D01*
X0240216Y0050113D01*
X0240599Y0051039D01*
X0223519Y0051004D01*
X0223415Y0050753D01*
X0222547Y0049885D01*
X0221413Y0049416D01*
X0220186Y0049416D01*
X0219053Y0049885D01*
X0218185Y0050753D01*
X0218083Y0051000D01*
X0160800Y0051000D01*
X0160800Y0048850D01*
X0161388Y0048850D01*
X0162150Y0048088D01*
X0162150Y0041912D01*
X0161636Y0041397D01*
X0161889Y0041018D01*
X0162194Y0040281D01*
X0162350Y0039499D01*
X0162350Y0039375D01*
X0158575Y0039375D01*
X0158575Y0038825D01*
X0162350Y0038825D01*
X0162350Y0038701D01*
X0162194Y0037919D01*
X0161889Y0037182D01*
X0161446Y0036518D01*
X0160936Y0036009D01*
X0161375Y0036448D02*
X0175400Y0036448D01*
X0175400Y0037446D02*
X0161999Y0037446D01*
X0162299Y0038445D02*
X0175400Y0038445D01*
X0175195Y0039443D02*
X0162350Y0039443D01*
X0162128Y0040442D02*
X0174600Y0040442D01*
X0174416Y0041440D02*
X0161679Y0041440D01*
X0162150Y0042439D02*
X0174551Y0042439D01*
X0175076Y0043437D02*
X0162150Y0043437D01*
X0162150Y0044436D02*
X0176529Y0044436D01*
X0178471Y0044436D02*
X0180072Y0044436D01*
X0179924Y0043437D02*
X0181500Y0043437D01*
X0181500Y0042439D02*
X0180449Y0042439D01*
X0180584Y0041440D02*
X0181500Y0041440D01*
X0181500Y0040442D02*
X0180400Y0040442D01*
X0179805Y0039443D02*
X0181500Y0039443D01*
X0181500Y0038445D02*
X0179600Y0038445D01*
X0179600Y0037446D02*
X0181500Y0037446D01*
X0181500Y0036448D02*
X0179600Y0036448D01*
X0179600Y0035449D02*
X0181500Y0035449D01*
X0181500Y0034451D02*
X0179600Y0034451D01*
X0179422Y0033452D02*
X0181500Y0033452D01*
X0181500Y0032454D02*
X0178424Y0032454D01*
X0177425Y0031455D02*
X0181500Y0031455D01*
X0181500Y0030457D02*
X0176427Y0030457D01*
X0175428Y0029458D02*
X0181500Y0029458D01*
X0181500Y0028460D02*
X0174430Y0028460D01*
X0173431Y0027461D02*
X0182216Y0027461D01*
X0182216Y0026463D02*
X0172433Y0026463D01*
X0171485Y0031455D02*
X0161745Y0031455D01*
X0162150Y0032454D02*
X0172484Y0032454D01*
X0173483Y0033452D02*
X0162150Y0033452D01*
X0161949Y0034451D02*
X0174481Y0034451D01*
X0175400Y0035449D02*
X0161495Y0035449D01*
X0155225Y0036448D02*
X0150783Y0036448D01*
X0149785Y0035449D02*
X0155105Y0035449D01*
X0154601Y0037446D02*
X0151782Y0037446D01*
X0152780Y0038445D02*
X0154301Y0038445D01*
X0154250Y0039443D02*
X0153779Y0039443D01*
X0150702Y0043437D02*
X0055224Y0043437D01*
X0056042Y0042439D02*
X0149703Y0042439D01*
X0151700Y0044436D02*
X0027050Y0044436D01*
X0027050Y0045434D02*
X0152699Y0045434D01*
X0153697Y0046433D02*
X0027050Y0046433D01*
X0027050Y0047432D02*
X0154450Y0047432D01*
X0154792Y0048430D02*
X0027050Y0048430D01*
X0027050Y0049429D02*
X0155800Y0049429D01*
X0155800Y0050427D02*
X0027050Y0050427D01*
X0027050Y0051426D02*
X0155800Y0051426D01*
X0155800Y0052424D02*
X0027050Y0052424D01*
X0027050Y0053423D02*
X0155800Y0053423D01*
X0155976Y0054421D02*
X0027050Y0054421D01*
X0027050Y0055420D02*
X0140177Y0055420D01*
X0140186Y0055416D02*
X0141413Y0055416D01*
X0142547Y0055885D01*
X0143415Y0056753D01*
X0143884Y0057886D01*
X0143884Y0059113D01*
X0143415Y0060247D01*
X0142600Y0061062D01*
X0142600Y0061246D01*
X0141546Y0062300D01*
X0132384Y0071461D01*
X0132384Y0072613D01*
X0131915Y0073747D01*
X0131047Y0074615D01*
X0129913Y0075084D01*
X0128686Y0075084D01*
X0127553Y0074615D01*
X0126685Y0073747D01*
X0126216Y0072613D01*
X0126216Y0071386D01*
X0126685Y0070253D01*
X0127138Y0069800D01*
X0114840Y0069800D01*
X0113959Y0070682D01*
X0112753Y0071181D01*
X0111447Y0071181D01*
X0110241Y0070682D01*
X0109318Y0069759D01*
X0108819Y0068553D01*
X0108819Y0067247D01*
X0109318Y0066041D01*
X0110241Y0065118D01*
X0111447Y0064619D01*
X0112753Y0064619D01*
X0113959Y0065118D01*
X0114840Y0066000D01*
X0128113Y0066000D01*
X0133216Y0060897D01*
X0133216Y0059886D01*
X0133685Y0058753D01*
X0134553Y0057885D01*
X0135686Y0057416D01*
X0136913Y0057416D01*
X0137765Y0057768D01*
X0138185Y0056753D01*
X0139053Y0055885D01*
X0140186Y0055416D01*
X0141423Y0055420D02*
X0156684Y0055420D01*
X0160800Y0050427D02*
X0218511Y0050427D01*
X0220156Y0049429D02*
X0183733Y0049429D01*
X0184487Y0048430D02*
X0239814Y0048430D01*
X0240216Y0049429D02*
X0221444Y0049429D01*
X0223089Y0050427D02*
X0240346Y0050427D01*
X0243300Y0049500D02*
X0260800Y0049500D01*
X0269800Y0040500D01*
X0269800Y0036200D01*
X0272500Y0033500D01*
X0274300Y0033500D01*
X0282800Y0025000D01*
X0282800Y0014000D01*
X0277800Y0009000D01*
X0267800Y0009000D02*
X0262800Y0013500D01*
X0262800Y0030000D01*
X0255300Y0037500D01*
X0240800Y0037500D01*
X0237716Y0037446D02*
X0225303Y0037446D01*
X0224222Y0038445D02*
X0237853Y0038445D01*
X0238382Y0039443D02*
X0223140Y0039443D01*
X0222058Y0040442D02*
X0239843Y0040442D01*
X0240216Y0041440D02*
X0220977Y0041440D01*
X0219907Y0042439D02*
X0240130Y0042439D01*
X0238501Y0043437D02*
X0205724Y0043437D01*
X0203800Y0041000D02*
X0218800Y0041000D01*
X0230242Y0030438D01*
X0231680Y0029000D01*
X0231800Y0029000D01*
X0230242Y0030438D01*
X0228650Y0029458D02*
X0187203Y0029458D01*
X0188034Y0028460D02*
X0228716Y0028460D01*
X0229099Y0027461D02*
X0188384Y0027461D01*
X0188384Y0026463D02*
X0211217Y0026463D01*
X0210219Y0025464D02*
X0188002Y0025464D01*
X0185300Y0027000D02*
X0183300Y0029000D01*
X0183300Y0045700D01*
X0181700Y0047100D01*
X0178913Y0048430D02*
X0161808Y0048430D01*
X0162150Y0047432D02*
X0178616Y0047432D01*
X0178638Y0046433D02*
X0162150Y0046433D01*
X0162150Y0045434D02*
X0179051Y0045434D01*
X0179667Y0049429D02*
X0160800Y0049429D01*
X0178800Y0053500D02*
X0182800Y0053500D01*
X0182800Y0068500D01*
X0178800Y0072500D01*
X0175919Y0071396D02*
X0132450Y0071396D01*
X0132384Y0072394D02*
X0175716Y0072394D01*
X0175831Y0073393D02*
X0132061Y0073393D01*
X0131270Y0074391D02*
X0176330Y0074391D01*
X0177717Y0075390D02*
X0027050Y0075390D01*
X0027050Y0076388D02*
X0184000Y0076388D01*
X0184000Y0075390D02*
X0179883Y0075390D01*
X0181270Y0074391D02*
X0184000Y0074391D01*
X0184000Y0073393D02*
X0181769Y0073393D01*
X0181884Y0072394D02*
X0184000Y0072394D01*
X0184000Y0071396D02*
X0182450Y0071396D01*
X0183448Y0070397D02*
X0184000Y0070397D01*
X0187600Y0070397D02*
X0267719Y0070397D01*
X0267780Y0069399D02*
X0187600Y0069399D01*
X0187600Y0068400D02*
X0268194Y0068400D01*
X0269182Y0067402D02*
X0187600Y0067402D01*
X0187600Y0066403D02*
X0272216Y0066403D01*
X0272216Y0065405D02*
X0187600Y0065405D01*
X0187600Y0064406D02*
X0272622Y0064406D01*
X0273530Y0063408D02*
X0187600Y0063408D01*
X0187600Y0062409D02*
X0275949Y0062409D01*
X0276000Y0061411D02*
X0187600Y0061411D01*
X0187600Y0060412D02*
X0276000Y0060412D01*
X0276000Y0059414D02*
X0187600Y0059414D01*
X0187600Y0058415D02*
X0276000Y0058415D01*
X0276000Y0057417D02*
X0275429Y0057417D01*
X0274300Y0056000D02*
X0275800Y0054500D01*
X0275800Y0044500D01*
X0274800Y0043500D01*
X0274800Y0042000D01*
X0277800Y0039000D02*
X0275800Y0037000D01*
X0273800Y0037000D01*
X0277800Y0039000D02*
X0277800Y0063000D01*
X0275300Y0066000D01*
X0267944Y0071396D02*
X0187600Y0071396D01*
X0187600Y0072394D02*
X0268554Y0072394D01*
X0270134Y0073393D02*
X0187600Y0073393D01*
X0187600Y0074391D02*
X0272221Y0074391D01*
X0273220Y0075390D02*
X0187600Y0075390D01*
X0187600Y0076388D02*
X0280099Y0076388D01*
X0281089Y0077387D02*
X0187600Y0077387D01*
X0187600Y0078385D02*
X0282079Y0078385D01*
X0283069Y0079384D02*
X0187600Y0079384D01*
X0188044Y0080382D02*
X0284059Y0080382D01*
X0285049Y0081381D02*
X0188675Y0081381D01*
X0188884Y0082379D02*
X0286039Y0082379D01*
X0287029Y0083378D02*
X0251098Y0083378D01*
X0252096Y0084376D02*
X0288019Y0084376D01*
X0289009Y0085375D02*
X0252774Y0085375D01*
X0253188Y0086373D02*
X0289999Y0086373D01*
X0290989Y0087372D02*
X0253400Y0087372D01*
X0253400Y0088370D02*
X0291979Y0088370D01*
X0292969Y0089369D02*
X0253294Y0089369D01*
X0252881Y0090368D02*
X0293959Y0090368D01*
X0294949Y0091366D02*
X0252354Y0091366D01*
X0251376Y0092365D02*
X0295939Y0092365D01*
X0296929Y0093363D02*
X0250357Y0093363D01*
X0249358Y0094362D02*
X0297919Y0094362D01*
X0298909Y0095360D02*
X0248360Y0095360D01*
X0247900Y0096359D02*
X0299899Y0096359D01*
X0300889Y0097357D02*
X0247900Y0097357D01*
X0247900Y0098356D02*
X0301879Y0098356D01*
X0302869Y0099354D02*
X0247900Y0099354D01*
X0247900Y0100353D02*
X0303859Y0100353D01*
X0304849Y0101351D02*
X0247900Y0101351D01*
X0247900Y0102350D02*
X0305839Y0102350D01*
X0305784Y0103348D02*
X0304816Y0103348D01*
X0304816Y0102869D02*
X0304816Y0107016D01*
X0300669Y0107016D01*
X0300765Y0106411D01*
X0300991Y0105715D01*
X0301323Y0105063D01*
X0301753Y0104471D01*
X0302271Y0103953D01*
X0302863Y0103523D01*
X0303515Y0103191D01*
X0304211Y0102965D01*
X0304816Y0102869D01*
X0304816Y0104347D02*
X0305784Y0104347D01*
X0305784Y0105345D02*
X0304816Y0105345D01*
X0304816Y0106344D02*
X0305784Y0106344D01*
X0304816Y0107342D02*
X0299750Y0107342D01*
X0299750Y0106615D02*
X0299072Y0104979D01*
X0297820Y0103728D01*
X0296185Y0103050D01*
X0294415Y0103050D01*
X0292779Y0103728D01*
X0291528Y0104979D01*
X0290850Y0106615D01*
X0290850Y0108385D01*
X0291528Y0110020D01*
X0292779Y0111272D01*
X0294415Y0111950D01*
X0296185Y0111950D01*
X0297820Y0111272D01*
X0299072Y0110020D01*
X0299750Y0108385D01*
X0299750Y0106615D01*
X0299637Y0106344D02*
X0300787Y0106344D01*
X0301180Y0105345D02*
X0299224Y0105345D01*
X0298439Y0104347D02*
X0301878Y0104347D01*
X0303207Y0103348D02*
X0296904Y0103348D01*
X0293696Y0103348D02*
X0289286Y0103348D01*
X0288988Y0103050D02*
X0289750Y0103812D01*
X0289750Y0111188D01*
X0288988Y0111950D01*
X0281612Y0111950D01*
X0280850Y0111188D01*
X0280850Y0103812D01*
X0281612Y0103050D01*
X0288988Y0103050D01*
X0289750Y0104347D02*
X0292161Y0104347D01*
X0291376Y0105345D02*
X0289750Y0105345D01*
X0289750Y0106344D02*
X0290963Y0106344D01*
X0290850Y0107342D02*
X0289750Y0107342D01*
X0289750Y0108341D02*
X0290850Y0108341D01*
X0291246Y0109339D02*
X0289750Y0109339D01*
X0289750Y0110338D02*
X0291845Y0110338D01*
X0292934Y0111336D02*
X0289601Y0111336D01*
X0287820Y0113728D02*
X0289072Y0114979D01*
X0289750Y0116615D01*
X0289750Y0118385D01*
X0289072Y0120020D01*
X0287820Y0121272D01*
X0286185Y0121950D01*
X0284415Y0121950D01*
X0282779Y0121272D01*
X0281528Y0120020D01*
X0280850Y0118385D01*
X0280850Y0116615D01*
X0281528Y0114979D01*
X0282779Y0113728D01*
X0284415Y0113050D01*
X0286185Y0113050D01*
X0287820Y0113728D01*
X0288424Y0114332D02*
X0292176Y0114332D01*
X0292779Y0113728D02*
X0291528Y0114979D01*
X0290850Y0116615D01*
X0290850Y0118385D01*
X0291528Y0120020D01*
X0292779Y0121272D01*
X0294415Y0121950D01*
X0296185Y0121950D01*
X0297820Y0121272D01*
X0299072Y0120020D01*
X0299750Y0118385D01*
X0299750Y0116615D01*
X0299072Y0114979D01*
X0297820Y0113728D01*
X0296185Y0113050D01*
X0294415Y0113050D01*
X0292779Y0113728D01*
X0293732Y0113333D02*
X0286868Y0113333D01*
X0289217Y0115330D02*
X0291382Y0115330D01*
X0290969Y0116329D02*
X0289631Y0116329D01*
X0289750Y0117327D02*
X0290850Y0117327D01*
X0290850Y0118326D02*
X0289750Y0118326D01*
X0289361Y0119324D02*
X0291239Y0119324D01*
X0291830Y0120323D02*
X0288770Y0120323D01*
X0287702Y0121321D02*
X0292898Y0121321D01*
X0293768Y0123318D02*
X0286832Y0123318D01*
X0286185Y0123050D02*
X0287820Y0123728D01*
X0289072Y0124979D01*
X0289750Y0126615D01*
X0289750Y0128385D01*
X0289072Y0130020D01*
X0287820Y0131272D01*
X0286185Y0131950D01*
X0284415Y0131950D01*
X0282779Y0131272D01*
X0281528Y0130020D01*
X0280850Y0128385D01*
X0280850Y0126615D01*
X0281528Y0124979D01*
X0282779Y0123728D01*
X0284415Y0123050D01*
X0286185Y0123050D01*
X0283768Y0123318D02*
X0267100Y0123318D01*
X0267100Y0122320D02*
X0314800Y0122320D01*
X0314800Y0123318D02*
X0307335Y0123318D01*
X0307085Y0123191D02*
X0307737Y0123523D01*
X0308329Y0123953D01*
X0308847Y0124471D01*
X0309277Y0125063D01*
X0309609Y0125715D01*
X0309835Y0126411D01*
X0309931Y0127016D01*
X0305784Y0127016D01*
X0305784Y0122869D01*
X0306389Y0122965D01*
X0307085Y0123191D01*
X0305784Y0123318D02*
X0304816Y0123318D01*
X0304816Y0122869D02*
X0304816Y0127016D01*
X0305784Y0127016D01*
X0305784Y0127984D01*
X0309931Y0127984D01*
X0309835Y0128589D01*
X0309609Y0129285D01*
X0309277Y0129937D01*
X0308847Y0130529D01*
X0308329Y0131047D01*
X0307737Y0131477D01*
X0307085Y0131809D01*
X0306389Y0132035D01*
X0305784Y0132131D01*
X0305784Y0127984D01*
X0304816Y0127984D01*
X0304816Y0127016D01*
X0300669Y0127016D01*
X0300765Y0126411D01*
X0300991Y0125715D01*
X0301323Y0125063D01*
X0301753Y0124471D01*
X0302271Y0123953D01*
X0302863Y0123523D01*
X0303515Y0123191D01*
X0304211Y0122965D01*
X0304816Y0122869D01*
X0304816Y0122131D02*
X0304211Y0122035D01*
X0303515Y0121809D01*
X0302863Y0121477D01*
X0302271Y0121047D01*
X0301753Y0120529D01*
X0301323Y0119937D01*
X0300991Y0119285D01*
X0300765Y0118589D01*
X0300669Y0117984D01*
X0304816Y0117984D01*
X0304816Y0117016D01*
X0305784Y0117016D01*
X0305784Y0117984D01*
X0304816Y0117984D01*
X0304816Y0122131D01*
X0304816Y0121321D02*
X0305784Y0121321D01*
X0305784Y0122131D02*
X0305784Y0117984D01*
X0309931Y0117984D01*
X0309835Y0118589D01*
X0309609Y0119285D01*
X0309277Y0119937D01*
X0308847Y0120529D01*
X0308329Y0121047D01*
X0307737Y0121477D01*
X0307085Y0121809D01*
X0306389Y0122035D01*
X0305784Y0122131D01*
X0305784Y0120323D02*
X0304816Y0120323D01*
X0304816Y0119324D02*
X0305784Y0119324D01*
X0305784Y0118326D02*
X0304816Y0118326D01*
X0304816Y0117327D02*
X0299750Y0117327D01*
X0300669Y0117016D02*
X0300765Y0116411D01*
X0300991Y0115715D01*
X0301323Y0115063D01*
X0301753Y0114471D01*
X0302271Y0113953D01*
X0302863Y0113523D01*
X0303515Y0113191D01*
X0304211Y0112965D01*
X0304816Y0112869D01*
X0304816Y0117016D01*
X0300669Y0117016D01*
X0300792Y0116329D02*
X0299631Y0116329D01*
X0299217Y0115330D02*
X0301187Y0115330D01*
X0301893Y0114332D02*
X0298424Y0114332D01*
X0296868Y0113333D02*
X0303236Y0113333D01*
X0303515Y0111809D02*
X0302863Y0111477D01*
X0302271Y0111047D01*
X0301753Y0110529D01*
X0301323Y0109937D01*
X0300991Y0109285D01*
X0300765Y0108589D01*
X0300669Y0107984D01*
X0304816Y0107984D01*
X0304816Y0112131D01*
X0304211Y0112035D01*
X0303515Y0111809D01*
X0302670Y0111336D02*
X0297666Y0111336D01*
X0298755Y0110338D02*
X0301615Y0110338D01*
X0301019Y0109339D02*
X0299354Y0109339D01*
X0299750Y0108341D02*
X0300726Y0108341D01*
X0304816Y0108341D02*
X0305784Y0108341D01*
X0305784Y0109339D02*
X0304816Y0109339D01*
X0304816Y0110338D02*
X0305784Y0110338D01*
X0305784Y0111336D02*
X0304816Y0111336D01*
X0304816Y0113333D02*
X0305784Y0113333D01*
X0305784Y0114332D02*
X0304816Y0114332D01*
X0304816Y0115330D02*
X0305784Y0115330D01*
X0305784Y0116329D02*
X0304816Y0116329D01*
X0305784Y0117327D02*
X0309365Y0117327D01*
X0309877Y0118326D02*
X0310326Y0118326D01*
X0309589Y0119324D02*
X0311270Y0119324D01*
X0312200Y0120323D02*
X0308996Y0120323D01*
X0307951Y0121321D02*
X0313152Y0121321D01*
X0314800Y0124317D02*
X0308692Y0124317D01*
X0309405Y0125315D02*
X0314800Y0125315D01*
X0313725Y0126314D02*
X0309803Y0126314D01*
X0309879Y0128311D02*
X0312247Y0128311D01*
X0312216Y0129309D02*
X0309596Y0129309D01*
X0309007Y0130308D02*
X0312503Y0130308D01*
X0313245Y0131306D02*
X0307971Y0131306D01*
X0307085Y0133191D02*
X0306389Y0132965D01*
X0305784Y0132869D01*
X0305784Y0137016D01*
X0304816Y0137016D01*
X0304816Y0132869D01*
X0304211Y0132965D01*
X0303515Y0133191D01*
X0302863Y0133523D01*
X0302271Y0133953D01*
X0301753Y0134471D01*
X0301323Y0135063D01*
X0300991Y0135715D01*
X0300765Y0136411D01*
X0300669Y0137016D01*
X0304816Y0137016D01*
X0304816Y0137984D01*
X0300669Y0137984D01*
X0300765Y0138589D01*
X0300991Y0139285D01*
X0301323Y0139937D01*
X0301753Y0140529D01*
X0302271Y0141047D01*
X0302863Y0141477D01*
X0303515Y0141809D01*
X0304211Y0142035D01*
X0304816Y0142131D01*
X0304816Y0137984D01*
X0305784Y0137984D01*
X0309931Y0137984D01*
X0309835Y0138589D01*
X0309609Y0139285D01*
X0309277Y0139937D01*
X0308847Y0140529D01*
X0308329Y0141047D01*
X0307737Y0141477D01*
X0307085Y0141809D01*
X0306389Y0142035D01*
X0305784Y0142131D01*
X0305784Y0137984D01*
X0305784Y0137016D01*
X0309931Y0137016D01*
X0309835Y0136411D01*
X0309609Y0135715D01*
X0309277Y0135063D01*
X0308847Y0134471D01*
X0308329Y0133953D01*
X0307737Y0133523D01*
X0307085Y0133191D01*
X0307306Y0133303D02*
X0313500Y0133303D01*
X0313500Y0132305D02*
X0267100Y0132305D01*
X0267100Y0133303D02*
X0283804Y0133303D01*
X0284415Y0133050D02*
X0286185Y0133050D01*
X0287820Y0133728D01*
X0289072Y0134979D01*
X0289750Y0136615D01*
X0289750Y0138385D01*
X0289072Y0140020D01*
X0287820Y0141272D01*
X0286185Y0141950D01*
X0284415Y0141950D01*
X0282779Y0141272D01*
X0281528Y0140020D01*
X0280850Y0138385D01*
X0280850Y0136615D01*
X0281528Y0134979D01*
X0282779Y0133728D01*
X0284415Y0133050D01*
X0282862Y0131306D02*
X0267100Y0131306D01*
X0267100Y0130308D02*
X0281815Y0130308D01*
X0281233Y0129309D02*
X0267100Y0129309D01*
X0267100Y0128311D02*
X0280850Y0128311D01*
X0280850Y0127312D02*
X0267100Y0127312D01*
X0267100Y0126314D02*
X0280975Y0126314D01*
X0281389Y0125315D02*
X0267100Y0125315D01*
X0267100Y0124317D02*
X0282190Y0124317D01*
X0288410Y0124317D02*
X0292190Y0124317D01*
X0292779Y0123728D02*
X0291528Y0124979D01*
X0290850Y0126615D01*
X0290850Y0128385D01*
X0291528Y0130020D01*
X0292779Y0131272D01*
X0294415Y0131950D01*
X0296185Y0131950D01*
X0297820Y0131272D01*
X0299072Y0130020D01*
X0299750Y0128385D01*
X0299750Y0126615D01*
X0299072Y0124979D01*
X0297820Y0123728D01*
X0296185Y0123050D01*
X0294415Y0123050D01*
X0292779Y0123728D01*
X0291389Y0125315D02*
X0289211Y0125315D01*
X0289625Y0126314D02*
X0290975Y0126314D01*
X0290850Y0127312D02*
X0289750Y0127312D01*
X0289750Y0128311D02*
X0290850Y0128311D01*
X0291233Y0129309D02*
X0289367Y0129309D01*
X0288785Y0130308D02*
X0291815Y0130308D01*
X0292862Y0131306D02*
X0287738Y0131306D01*
X0286796Y0133303D02*
X0293804Y0133303D01*
X0294415Y0133050D02*
X0296185Y0133050D01*
X0297820Y0133728D01*
X0299072Y0134979D01*
X0299750Y0136615D01*
X0299750Y0138385D01*
X0299072Y0140020D01*
X0297820Y0141272D01*
X0296185Y0141950D01*
X0294415Y0141950D01*
X0292779Y0141272D01*
X0291528Y0140020D01*
X0290850Y0138385D01*
X0290850Y0136615D01*
X0291528Y0134979D01*
X0292779Y0133728D01*
X0294415Y0133050D01*
X0296796Y0133303D02*
X0303294Y0133303D01*
X0303515Y0131809D02*
X0302863Y0131477D01*
X0302271Y0131047D01*
X0301753Y0130529D01*
X0301323Y0129937D01*
X0300991Y0129285D01*
X0300765Y0128589D01*
X0300669Y0127984D01*
X0304816Y0127984D01*
X0304816Y0132131D01*
X0304211Y0132035D01*
X0303515Y0131809D01*
X0302629Y0131306D02*
X0297738Y0131306D01*
X0298785Y0130308D02*
X0301593Y0130308D01*
X0301004Y0129309D02*
X0299367Y0129309D01*
X0299750Y0128311D02*
X0300721Y0128311D01*
X0299750Y0127312D02*
X0304816Y0127312D01*
X0305784Y0127312D02*
X0312661Y0127312D01*
X0315300Y0129000D02*
X0315300Y0173500D01*
X0305300Y0184500D01*
X0295300Y0184500D01*
X0293800Y0186000D01*
X0256300Y0186000D01*
X0248800Y0193000D01*
X0246800Y0193000D01*
X0242800Y0197000D01*
X0242800Y0201500D01*
X0239800Y0204000D01*
X0235300Y0204000D01*
X0232800Y0201500D01*
X0232800Y0197000D01*
X0229800Y0194000D01*
X0182800Y0194000D01*
X0177800Y0199000D01*
X0178300Y0194000D02*
X0152800Y0194000D01*
X0147800Y0199000D01*
X0144300Y0204000D02*
X0142800Y0205500D01*
X0144300Y0204000D02*
X0162800Y0204000D01*
X0167800Y0209000D01*
X0178300Y0194000D02*
X0180300Y0192000D01*
X0239300Y0192000D01*
X0241300Y0194000D01*
X0242117Y0191000D02*
X0248305Y0191000D01*
X0254300Y0185404D01*
X0254300Y0112500D01*
X0226724Y0112500D01*
X0226884Y0112886D01*
X0226884Y0114113D01*
X0226415Y0115247D01*
X0225547Y0116115D01*
X0224413Y0116584D01*
X0223186Y0116584D01*
X0222053Y0116115D01*
X0221185Y0115247D01*
X0220716Y0114113D01*
X0220716Y0112886D01*
X0220876Y0112500D01*
X0197800Y0112500D01*
X0193800Y0116500D01*
X0193800Y0129500D01*
X0198300Y0134000D01*
X0222300Y0134500D01*
X0234800Y0147000D01*
X0234800Y0170454D01*
X0235100Y0170754D01*
X0235100Y0171075D01*
X0235243Y0171362D01*
X0235234Y0171389D01*
X0239194Y0175349D01*
X0239915Y0175050D01*
X0241685Y0175050D01*
X0243320Y0175728D01*
X0244572Y0176979D01*
X0245250Y0178615D01*
X0245250Y0180385D01*
X0244572Y0182020D01*
X0243320Y0183272D01*
X0241685Y0183950D01*
X0239915Y0183950D01*
X0238279Y0183272D01*
X0237028Y0182020D01*
X0236350Y0180385D01*
X0236350Y0178615D01*
X0236649Y0177894D01*
X0235100Y0176346D01*
X0235100Y0178254D01*
X0235250Y0178615D01*
X0235250Y0180385D01*
X0235100Y0180746D01*
X0235100Y0190200D01*
X0240046Y0190200D01*
X0240761Y0190916D01*
X0241913Y0190916D01*
X0242117Y0191000D01*
X0240064Y0190219D02*
X0249142Y0190219D01*
X0250212Y0189220D02*
X0235100Y0189220D01*
X0235100Y0188222D02*
X0251282Y0188222D01*
X0252351Y0187223D02*
X0235100Y0187223D01*
X0235100Y0186225D02*
X0253421Y0186225D01*
X0254300Y0185226D02*
X0235100Y0185226D01*
X0235100Y0184228D02*
X0254300Y0184228D01*
X0254300Y0183229D02*
X0243364Y0183229D01*
X0244362Y0182231D02*
X0254300Y0182231D01*
X0254300Y0181232D02*
X0244899Y0181232D01*
X0245250Y0180234D02*
X0254300Y0180234D01*
X0254300Y0179235D02*
X0245250Y0179235D01*
X0245093Y0178237D02*
X0254300Y0178237D01*
X0254300Y0177238D02*
X0244679Y0177238D01*
X0243832Y0176239D02*
X0254300Y0176239D01*
X0254300Y0175241D02*
X0242145Y0175241D01*
X0239455Y0175241D02*
X0239087Y0175241D01*
X0238088Y0174242D02*
X0254300Y0174242D01*
X0254300Y0173244D02*
X0237090Y0173244D01*
X0236091Y0172245D02*
X0254300Y0172245D01*
X0254300Y0171247D02*
X0235186Y0171247D01*
X0234800Y0170248D02*
X0254300Y0170248D01*
X0254300Y0169250D02*
X0234800Y0169250D01*
X0234800Y0168251D02*
X0254300Y0168251D01*
X0254300Y0167253D02*
X0234800Y0167253D01*
X0234800Y0166254D02*
X0254300Y0166254D01*
X0254300Y0165256D02*
X0234800Y0165256D01*
X0234800Y0164257D02*
X0254300Y0164257D01*
X0254300Y0163259D02*
X0234800Y0163259D01*
X0234800Y0162260D02*
X0254300Y0162260D01*
X0254300Y0161262D02*
X0234800Y0161262D01*
X0234800Y0160263D02*
X0254300Y0160263D01*
X0254300Y0159265D02*
X0234800Y0159265D01*
X0234800Y0158266D02*
X0254300Y0158266D01*
X0254300Y0157268D02*
X0234800Y0157268D01*
X0234800Y0156269D02*
X0254300Y0156269D01*
X0254300Y0155271D02*
X0234800Y0155271D01*
X0234800Y0154272D02*
X0254300Y0154272D01*
X0254300Y0153274D02*
X0234800Y0153274D01*
X0234800Y0152275D02*
X0254300Y0152275D01*
X0254300Y0151277D02*
X0234800Y0151277D01*
X0234800Y0150278D02*
X0254300Y0150278D01*
X0254300Y0149280D02*
X0234800Y0149280D01*
X0234800Y0148281D02*
X0254300Y0148281D01*
X0254300Y0147283D02*
X0234800Y0147283D01*
X0234084Y0146284D02*
X0254300Y0146284D01*
X0254300Y0145286D02*
X0233086Y0145286D01*
X0232087Y0144287D02*
X0254300Y0144287D01*
X0254300Y0143289D02*
X0231089Y0143289D01*
X0230090Y0142290D02*
X0254300Y0142290D01*
X0254300Y0141292D02*
X0229092Y0141292D01*
X0228093Y0140293D02*
X0254300Y0140293D01*
X0254300Y0139295D02*
X0227095Y0139295D01*
X0226096Y0138296D02*
X0254300Y0138296D01*
X0254300Y0137298D02*
X0225098Y0137298D01*
X0224099Y0136299D02*
X0254300Y0136299D01*
X0254300Y0135301D02*
X0223101Y0135301D01*
X0221553Y0136299D02*
X0138363Y0136299D01*
X0138047Y0136615D02*
X0136913Y0137084D01*
X0135686Y0137084D01*
X0134553Y0136615D01*
X0133738Y0135800D01*
X0132046Y0135800D01*
X0114384Y0153461D01*
X0114384Y0154113D01*
X0113915Y0155247D01*
X0113047Y0156115D01*
X0111913Y0156584D01*
X0110686Y0156584D01*
X0109553Y0156115D01*
X0108685Y0155247D01*
X0108216Y0154113D01*
X0108216Y0152886D01*
X0108685Y0151753D01*
X0109138Y0151300D01*
X0102588Y0151300D01*
X0098863Y0155335D01*
X0098884Y0155386D01*
X0098884Y0156613D01*
X0098415Y0157747D01*
X0097547Y0158615D01*
X0096413Y0159084D01*
X0095186Y0159084D01*
X0094053Y0158615D01*
X0093185Y0157747D01*
X0092716Y0156613D01*
X0092716Y0155386D01*
X0093185Y0154253D01*
X0094053Y0153385D01*
X0095186Y0152916D01*
X0096197Y0152916D01*
X0100000Y0148796D01*
X0100000Y0148754D01*
X0100502Y0148253D01*
X0100983Y0147731D01*
X0101025Y0147730D01*
X0101054Y0147700D01*
X0101764Y0147700D01*
X0102473Y0147672D01*
X0102504Y0147700D01*
X0105759Y0147700D01*
X0105553Y0147615D01*
X0104738Y0146800D01*
X0097884Y0146800D01*
X0097884Y0147613D01*
X0097415Y0148747D01*
X0096547Y0149615D01*
X0095413Y0150084D01*
X0094186Y0150084D01*
X0093053Y0149615D01*
X0092185Y0148747D01*
X0091716Y0147613D01*
X0091716Y0146386D01*
X0092185Y0145253D01*
X0093053Y0144385D01*
X0094186Y0143916D01*
X0095339Y0143916D01*
X0096054Y0143200D01*
X0104738Y0143200D01*
X0105553Y0142385D01*
X0106686Y0141916D01*
X0107913Y0141916D01*
X0109047Y0142385D01*
X0109915Y0143253D01*
X0110384Y0144386D01*
X0110384Y0145613D01*
X0109915Y0146747D01*
X0109047Y0147615D01*
X0108841Y0147700D01*
X0109574Y0147700D01*
X0120716Y0136971D01*
X0120716Y0135886D01*
X0121185Y0134753D01*
X0122053Y0133885D01*
X0123186Y0133416D01*
X0124413Y0133416D01*
X0125547Y0133885D01*
X0126415Y0134753D01*
X0126879Y0135875D01*
X0129500Y0133254D01*
X0130554Y0132200D01*
X0133738Y0132200D01*
X0134553Y0131385D01*
X0135686Y0130916D01*
X0136913Y0130916D01*
X0138047Y0131385D01*
X0138915Y0132253D01*
X0139384Y0133386D01*
X0139384Y0134613D01*
X0138915Y0135747D01*
X0138047Y0136615D01*
X0139100Y0135301D02*
X0197053Y0135301D01*
X0196056Y0134302D02*
X0139384Y0134302D01*
X0139350Y0133303D02*
X0195058Y0133303D01*
X0194059Y0132305D02*
X0138936Y0132305D01*
X0137857Y0131306D02*
X0193061Y0131306D01*
X0192062Y0130308D02*
X0089550Y0130308D01*
X0089550Y0131306D02*
X0134743Y0131306D01*
X0136300Y0134000D02*
X0131300Y0134000D01*
X0111800Y0153500D01*
X0111300Y0153500D01*
X0108469Y0152275D02*
X0101688Y0152275D01*
X0100766Y0153274D02*
X0108216Y0153274D01*
X0108282Y0154272D02*
X0099844Y0154272D01*
X0098923Y0155271D02*
X0108709Y0155271D01*
X0109926Y0156269D02*
X0098884Y0156269D01*
X0098613Y0157268D02*
X0203522Y0157268D01*
X0202760Y0158266D02*
X0204521Y0158266D01*
X0204800Y0161000D02*
X0201300Y0161000D01*
X0198484Y0162260D02*
X0182440Y0162260D01*
X0183300Y0161400D02*
X0179300Y0165400D01*
X0179300Y0186576D01*
X0180047Y0186885D01*
X0180862Y0187700D01*
X0186554Y0187700D01*
X0187716Y0186539D01*
X0187716Y0185386D01*
X0188185Y0184253D01*
X0189053Y0183385D01*
X0190186Y0182916D01*
X0191413Y0182916D01*
X0192547Y0183385D01*
X0193415Y0184253D01*
X0193884Y0185386D01*
X0193884Y0186613D01*
X0193415Y0187747D01*
X0192547Y0188615D01*
X0191413Y0189084D01*
X0190261Y0189084D01*
X0189146Y0190200D01*
X0233300Y0190200D01*
X0233300Y0183281D01*
X0231685Y0183950D01*
X0229915Y0183950D01*
X0228279Y0183272D01*
X0227028Y0182020D01*
X0226350Y0180385D01*
X0226350Y0178615D01*
X0227028Y0176979D01*
X0228279Y0175728D01*
X0229000Y0175429D01*
X0229000Y0173246D01*
X0225054Y0169300D01*
X0210554Y0169300D01*
X0209500Y0168246D01*
X0204054Y0162800D01*
X0203862Y0162800D01*
X0203047Y0163615D01*
X0201913Y0164084D01*
X0200686Y0164084D01*
X0199553Y0163615D01*
X0198685Y0162747D01*
X0198216Y0161613D01*
X0198216Y0161475D01*
X0183300Y0161400D01*
X0181890Y0160263D02*
X0027050Y0160263D01*
X0027050Y0159265D02*
X0198680Y0159265D01*
X0199840Y0158266D02*
X0097895Y0158266D01*
X0095800Y0156000D02*
X0101800Y0149500D01*
X0110300Y0149500D01*
X0123800Y0136500D01*
X0126642Y0135301D02*
X0127454Y0135301D01*
X0128452Y0134302D02*
X0125964Y0134302D01*
X0129451Y0133303D02*
X0089550Y0133303D01*
X0089550Y0132305D02*
X0130449Y0132305D01*
X0131547Y0136299D02*
X0134237Y0136299D01*
X0130548Y0137298D02*
X0222552Y0137298D01*
X0223550Y0138296D02*
X0129550Y0138296D01*
X0128551Y0139295D02*
X0224549Y0139295D01*
X0225548Y0140293D02*
X0127552Y0140293D01*
X0126554Y0141292D02*
X0226546Y0141292D01*
X0227545Y0142290D02*
X0125555Y0142290D01*
X0124557Y0143289D02*
X0228543Y0143289D01*
X0229542Y0144287D02*
X0123558Y0144287D01*
X0122560Y0145286D02*
X0230540Y0145286D01*
X0231539Y0146284D02*
X0121561Y0146284D01*
X0120563Y0147283D02*
X0232537Y0147283D01*
X0233000Y0148281D02*
X0119564Y0148281D01*
X0118566Y0149280D02*
X0233000Y0149280D01*
X0233000Y0150278D02*
X0117567Y0150278D01*
X0116569Y0151277D02*
X0191162Y0151277D01*
X0190469Y0152275D02*
X0115570Y0152275D01*
X0114572Y0153274D02*
X0190216Y0153274D01*
X0190282Y0154272D02*
X0114318Y0154272D01*
X0113891Y0155271D02*
X0190709Y0155271D01*
X0191926Y0156269D02*
X0112674Y0156269D01*
X0099554Y0149280D02*
X0096882Y0149280D01*
X0097608Y0148281D02*
X0100473Y0148281D01*
X0098632Y0150278D02*
X0089370Y0150278D01*
X0089550Y0149280D02*
X0092718Y0149280D01*
X0091992Y0148281D02*
X0089550Y0148281D01*
X0089550Y0147283D02*
X0091716Y0147283D01*
X0091758Y0146284D02*
X0089550Y0146284D01*
X0089550Y0145286D02*
X0092172Y0145286D01*
X0093290Y0144287D02*
X0089550Y0144287D01*
X0089550Y0143289D02*
X0095966Y0143289D01*
X0096800Y0145000D02*
X0094800Y0147000D01*
X0096800Y0145000D02*
X0107300Y0145000D01*
X0110106Y0146284D02*
X0111045Y0146284D01*
X0110384Y0145286D02*
X0112081Y0145286D01*
X0113118Y0144287D02*
X0110343Y0144287D01*
X0109929Y0143289D02*
X0114155Y0143289D01*
X0115192Y0142290D02*
X0108817Y0142290D01*
X0105783Y0142290D02*
X0089550Y0142290D01*
X0089550Y0141292D02*
X0116229Y0141292D01*
X0117266Y0140293D02*
X0089550Y0140293D01*
X0089550Y0139295D02*
X0118303Y0139295D01*
X0119340Y0138296D02*
X0089550Y0138296D01*
X0089550Y0137298D02*
X0120377Y0137298D01*
X0120716Y0136299D02*
X0089550Y0136299D01*
X0089550Y0135301D02*
X0120958Y0135301D01*
X0121636Y0134302D02*
X0089550Y0134302D01*
X0089550Y0129309D02*
X0192000Y0129309D01*
X0192000Y0128311D02*
X0089550Y0128311D01*
X0089550Y0127312D02*
X0192000Y0127312D01*
X0192000Y0126314D02*
X0089550Y0126314D01*
X0089550Y0125315D02*
X0192000Y0125315D01*
X0192000Y0124317D02*
X0089550Y0124317D01*
X0089550Y0123318D02*
X0192000Y0123318D01*
X0192000Y0122320D02*
X0089550Y0122320D01*
X0089550Y0121321D02*
X0192000Y0121321D01*
X0192000Y0120323D02*
X0142894Y0120323D01*
X0142046Y0120674D02*
X0139963Y0120674D01*
X0138038Y0119877D01*
X0136565Y0118404D01*
X0135768Y0116479D01*
X0135768Y0106521D01*
X0136565Y0104596D01*
X0138038Y0103123D01*
X0139963Y0102326D01*
X0140332Y0102326D01*
X0159716Y0083030D01*
X0159716Y0081886D01*
X0160185Y0080753D01*
X0161053Y0079885D01*
X0162186Y0079416D01*
X0163413Y0079416D01*
X0164547Y0079885D01*
X0165415Y0080753D01*
X0165884Y0081886D01*
X0165884Y0083113D01*
X0165415Y0084247D01*
X0164547Y0085115D01*
X0163413Y0085584D01*
X0162253Y0085584D01*
X0144302Y0103454D01*
X0145444Y0104596D01*
X0146242Y0106521D01*
X0146242Y0116479D01*
X0145444Y0118404D01*
X0143971Y0119877D01*
X0142046Y0120674D01*
X0144524Y0119324D02*
X0192000Y0119324D01*
X0192000Y0118326D02*
X0145477Y0118326D01*
X0145890Y0117327D02*
X0192000Y0117327D01*
X0192000Y0116329D02*
X0146242Y0116329D01*
X0146242Y0115330D02*
X0192424Y0115330D01*
X0193423Y0114332D02*
X0146242Y0114332D01*
X0146242Y0113333D02*
X0194421Y0113333D01*
X0195420Y0112335D02*
X0146242Y0112335D01*
X0146242Y0111336D02*
X0196418Y0111336D01*
X0196967Y0113333D02*
X0220716Y0113333D01*
X0220806Y0114332D02*
X0195968Y0114332D01*
X0194970Y0115330D02*
X0221269Y0115330D01*
X0222570Y0116329D02*
X0193971Y0116329D01*
X0193800Y0117327D02*
X0254300Y0117327D01*
X0254300Y0116329D02*
X0225030Y0116329D01*
X0226331Y0115330D02*
X0254300Y0115330D01*
X0254300Y0114332D02*
X0226794Y0114332D01*
X0226884Y0113333D02*
X0254300Y0113333D01*
X0256100Y0113333D02*
X0262652Y0113333D01*
X0262685Y0113253D02*
X0263553Y0112385D01*
X0264686Y0111916D01*
X0265913Y0111916D01*
X0267047Y0112385D01*
X0267915Y0113253D01*
X0268384Y0114386D01*
X0268384Y0115613D01*
X0267915Y0116747D01*
X0267100Y0117562D01*
X0267100Y0139254D01*
X0269761Y0141916D01*
X0270913Y0141916D01*
X0272047Y0142385D01*
X0272915Y0143253D01*
X0273384Y0144386D01*
X0273384Y0145613D01*
X0272915Y0146747D01*
X0272047Y0147615D01*
X0270913Y0148084D01*
X0270052Y0148084D01*
X0270384Y0148886D01*
X0270384Y0150113D01*
X0269915Y0151247D01*
X0269047Y0152115D01*
X0267913Y0152584D01*
X0266686Y0152584D01*
X0265553Y0152115D01*
X0264685Y0151247D01*
X0264216Y0150113D01*
X0264216Y0148961D01*
X0261054Y0145800D01*
X0260000Y0144746D01*
X0260000Y0133562D01*
X0259185Y0132747D01*
X0258716Y0131613D01*
X0258716Y0130386D01*
X0259185Y0129253D01*
X0260053Y0128385D01*
X0261186Y0127916D01*
X0262413Y0127916D01*
X0263500Y0128366D01*
X0263500Y0117562D01*
X0262685Y0116747D01*
X0262216Y0115613D01*
X0262216Y0114386D01*
X0262685Y0113253D01*
X0262238Y0114332D02*
X0256100Y0114332D01*
X0256100Y0115330D02*
X0262216Y0115330D01*
X0262512Y0116329D02*
X0256100Y0116329D01*
X0256100Y0117327D02*
X0263266Y0117327D01*
X0263500Y0118326D02*
X0256100Y0118326D01*
X0256100Y0119324D02*
X0263500Y0119324D01*
X0263500Y0120323D02*
X0256100Y0120323D01*
X0256100Y0121321D02*
X0263500Y0121321D01*
X0263500Y0122320D02*
X0256100Y0122320D01*
X0256100Y0123318D02*
X0263500Y0123318D01*
X0263500Y0124317D02*
X0256100Y0124317D01*
X0256100Y0125315D02*
X0263500Y0125315D01*
X0263500Y0126314D02*
X0256100Y0126314D01*
X0256100Y0127312D02*
X0263500Y0127312D01*
X0263500Y0128311D02*
X0263368Y0128311D01*
X0260232Y0128311D02*
X0256100Y0128311D01*
X0256100Y0129309D02*
X0259162Y0129309D01*
X0258748Y0130308D02*
X0256100Y0130308D01*
X0256100Y0131306D02*
X0258716Y0131306D01*
X0259002Y0132305D02*
X0256100Y0132305D01*
X0256100Y0133303D02*
X0259742Y0133303D01*
X0260000Y0134302D02*
X0256100Y0134302D01*
X0256100Y0135301D02*
X0260000Y0135301D01*
X0260000Y0136299D02*
X0256100Y0136299D01*
X0256100Y0137298D02*
X0260000Y0137298D01*
X0260000Y0138296D02*
X0256100Y0138296D01*
X0256100Y0139295D02*
X0260000Y0139295D01*
X0260000Y0140293D02*
X0256100Y0140293D01*
X0256100Y0141292D02*
X0260000Y0141292D01*
X0260000Y0142290D02*
X0256100Y0142290D01*
X0256100Y0143289D02*
X0260000Y0143289D01*
X0260000Y0144287D02*
X0256100Y0144287D01*
X0256100Y0145286D02*
X0260540Y0145286D01*
X0261539Y0146284D02*
X0256100Y0146284D01*
X0256100Y0147283D02*
X0262537Y0147283D01*
X0263536Y0148281D02*
X0256100Y0148281D01*
X0256100Y0149280D02*
X0264216Y0149280D01*
X0264284Y0150278D02*
X0256100Y0150278D01*
X0256100Y0151277D02*
X0264715Y0151277D01*
X0265940Y0152275D02*
X0256100Y0152275D01*
X0256100Y0153274D02*
X0283876Y0153274D01*
X0284415Y0153050D02*
X0286185Y0153050D01*
X0287820Y0153728D01*
X0289072Y0154979D01*
X0289750Y0156615D01*
X0289750Y0158385D01*
X0289072Y0160020D01*
X0287820Y0161272D01*
X0286185Y0161950D01*
X0284415Y0161950D01*
X0282779Y0161272D01*
X0281528Y0160020D01*
X0280850Y0158385D01*
X0280850Y0156615D01*
X0281528Y0154979D01*
X0282779Y0153728D01*
X0284415Y0153050D01*
X0284415Y0151950D02*
X0282779Y0151272D01*
X0281528Y0150020D01*
X0280850Y0148385D01*
X0280850Y0146615D01*
X0281528Y0144979D01*
X0282779Y0143728D01*
X0284415Y0143050D01*
X0286185Y0143050D01*
X0287820Y0143728D01*
X0289072Y0144979D01*
X0289750Y0146615D01*
X0289750Y0148385D01*
X0289072Y0150020D01*
X0287820Y0151272D01*
X0286185Y0151950D01*
X0284415Y0151950D01*
X0282790Y0151277D02*
X0269885Y0151277D01*
X0270316Y0150278D02*
X0281785Y0150278D01*
X0281221Y0149280D02*
X0270384Y0149280D01*
X0270133Y0148281D02*
X0280850Y0148281D01*
X0280850Y0147283D02*
X0272379Y0147283D01*
X0273106Y0146284D02*
X0280987Y0146284D01*
X0281401Y0145286D02*
X0273384Y0145286D01*
X0273343Y0144287D02*
X0282220Y0144287D01*
X0283840Y0143289D02*
X0272929Y0143289D01*
X0271817Y0142290D02*
X0313500Y0142290D01*
X0313500Y0141292D02*
X0307992Y0141292D01*
X0309018Y0140293D02*
X0313500Y0140293D01*
X0313500Y0139295D02*
X0309604Y0139295D01*
X0309881Y0138296D02*
X0313500Y0138296D01*
X0313500Y0137298D02*
X0305784Y0137298D01*
X0304816Y0137298D02*
X0299750Y0137298D01*
X0299750Y0138296D02*
X0300719Y0138296D01*
X0300996Y0139295D02*
X0299373Y0139295D01*
X0298800Y0140293D02*
X0301582Y0140293D01*
X0302608Y0141292D02*
X0297774Y0141292D01*
X0296760Y0143289D02*
X0303324Y0143289D01*
X0303515Y0143191D02*
X0304211Y0142965D01*
X0304816Y0142869D01*
X0304816Y0147016D01*
X0305784Y0147016D01*
X0305784Y0142869D01*
X0306389Y0142965D01*
X0307085Y0143191D01*
X0307737Y0143523D01*
X0308329Y0143953D01*
X0308847Y0144471D01*
X0309277Y0145063D01*
X0309609Y0145715D01*
X0309835Y0146411D01*
X0309931Y0147016D01*
X0305784Y0147016D01*
X0305784Y0147984D01*
X0309931Y0147984D01*
X0309835Y0148589D01*
X0309609Y0149285D01*
X0309277Y0149937D01*
X0308847Y0150529D01*
X0308329Y0151047D01*
X0307737Y0151477D01*
X0307085Y0151809D01*
X0306389Y0152035D01*
X0305784Y0152131D01*
X0305784Y0147984D01*
X0304816Y0147984D01*
X0304816Y0147016D01*
X0300669Y0147016D01*
X0300765Y0146411D01*
X0300991Y0145715D01*
X0301323Y0145063D01*
X0301753Y0144471D01*
X0302271Y0143953D01*
X0302863Y0143523D01*
X0303515Y0143191D01*
X0304816Y0143289D02*
X0305784Y0143289D01*
X0305784Y0144287D02*
X0304816Y0144287D01*
X0304816Y0145286D02*
X0305784Y0145286D01*
X0305784Y0146284D02*
X0304816Y0146284D01*
X0304816Y0147283D02*
X0299750Y0147283D01*
X0299750Y0146615D02*
X0299072Y0144979D01*
X0297820Y0143728D01*
X0296185Y0143050D01*
X0294415Y0143050D01*
X0292779Y0143728D01*
X0291528Y0144979D01*
X0290850Y0146615D01*
X0290850Y0148385D01*
X0291528Y0150020D01*
X0292779Y0151272D01*
X0294415Y0151950D01*
X0296185Y0151950D01*
X0297820Y0151272D01*
X0299072Y0150020D01*
X0299750Y0148385D01*
X0299750Y0146615D01*
X0299613Y0146284D02*
X0300806Y0146284D01*
X0301210Y0145286D02*
X0299199Y0145286D01*
X0298380Y0144287D02*
X0301937Y0144287D01*
X0300669Y0147984D02*
X0304816Y0147984D01*
X0304816Y0152131D01*
X0304211Y0152035D01*
X0303515Y0151809D01*
X0302863Y0151477D01*
X0302271Y0151047D01*
X0301753Y0150529D01*
X0301323Y0149937D01*
X0300991Y0149285D01*
X0300765Y0148589D01*
X0300669Y0147984D01*
X0300716Y0148281D02*
X0299750Y0148281D01*
X0299379Y0149280D02*
X0300989Y0149280D01*
X0301571Y0150278D02*
X0298814Y0150278D01*
X0297810Y0151277D02*
X0302588Y0151277D01*
X0303515Y0153191D02*
X0302863Y0153523D01*
X0302271Y0153953D01*
X0301753Y0154471D01*
X0301323Y0155063D01*
X0300991Y0155715D01*
X0300765Y0156411D01*
X0300669Y0157016D01*
X0304816Y0157016D01*
X0305784Y0157016D01*
X0305784Y0152869D01*
X0306389Y0152965D01*
X0307085Y0153191D01*
X0307737Y0153523D01*
X0308329Y0153953D01*
X0308847Y0154471D01*
X0309277Y0155063D01*
X0309609Y0155715D01*
X0309835Y0156411D01*
X0309931Y0157016D01*
X0305784Y0157016D01*
X0305784Y0157984D01*
X0309931Y0157984D01*
X0309835Y0158589D01*
X0309609Y0159285D01*
X0309277Y0159937D01*
X0308847Y0160529D01*
X0308329Y0161047D01*
X0307737Y0161477D01*
X0307085Y0161809D01*
X0306389Y0162035D01*
X0305784Y0162131D01*
X0305784Y0157984D01*
X0304816Y0157984D01*
X0304816Y0157016D01*
X0304816Y0152869D01*
X0304211Y0152965D01*
X0303515Y0153191D01*
X0303353Y0153274D02*
X0296724Y0153274D01*
X0296185Y0153050D02*
X0297820Y0153728D01*
X0299072Y0154979D01*
X0299750Y0156615D01*
X0299750Y0158385D01*
X0299072Y0160020D01*
X0297820Y0161272D01*
X0296185Y0161950D01*
X0294415Y0161950D01*
X0292779Y0161272D01*
X0291528Y0160020D01*
X0290850Y0158385D01*
X0290850Y0156615D01*
X0291528Y0154979D01*
X0292779Y0153728D01*
X0294415Y0153050D01*
X0296185Y0153050D01*
X0293876Y0153274D02*
X0286724Y0153274D01*
X0288365Y0154272D02*
X0292235Y0154272D01*
X0291407Y0155271D02*
X0289193Y0155271D01*
X0289606Y0156269D02*
X0290994Y0156269D01*
X0290850Y0157268D02*
X0289750Y0157268D01*
X0289750Y0158266D02*
X0290850Y0158266D01*
X0291215Y0159265D02*
X0289385Y0159265D01*
X0288829Y0160263D02*
X0291771Y0160263D01*
X0292769Y0161262D02*
X0287831Y0161262D01*
X0286688Y0163259D02*
X0293912Y0163259D01*
X0294415Y0163050D02*
X0296185Y0163050D01*
X0297820Y0163728D01*
X0299072Y0164979D01*
X0299750Y0166615D01*
X0299750Y0168385D01*
X0299072Y0170020D01*
X0297820Y0171272D01*
X0296185Y0171950D01*
X0294415Y0171950D01*
X0292779Y0171272D01*
X0291528Y0170020D01*
X0290850Y0168385D01*
X0290850Y0166615D01*
X0291528Y0164979D01*
X0292779Y0163728D01*
X0294415Y0163050D01*
X0296688Y0163259D02*
X0303382Y0163259D01*
X0303515Y0163191D02*
X0304211Y0162965D01*
X0304816Y0162869D01*
X0304816Y0167016D01*
X0305784Y0167016D01*
X0305784Y0162869D01*
X0306389Y0162965D01*
X0307085Y0163191D01*
X0307737Y0163523D01*
X0308329Y0163953D01*
X0308847Y0164471D01*
X0309277Y0165063D01*
X0309609Y0165715D01*
X0309835Y0166411D01*
X0309931Y0167016D01*
X0305784Y0167016D01*
X0305784Y0167984D01*
X0309931Y0167984D01*
X0309835Y0168589D01*
X0309609Y0169285D01*
X0309277Y0169937D01*
X0308847Y0170529D01*
X0308329Y0171047D01*
X0307737Y0171477D01*
X0307085Y0171809D01*
X0306389Y0172035D01*
X0305784Y0172131D01*
X0305784Y0167984D01*
X0304816Y0167984D01*
X0304816Y0167016D01*
X0300669Y0167016D01*
X0300765Y0166411D01*
X0300991Y0165715D01*
X0301323Y0165063D01*
X0301753Y0164471D01*
X0302271Y0163953D01*
X0302863Y0163523D01*
X0303515Y0163191D01*
X0304816Y0163259D02*
X0305784Y0163259D01*
X0305784Y0164257D02*
X0304816Y0164257D01*
X0304816Y0165256D02*
X0305784Y0165256D01*
X0305784Y0166254D02*
X0304816Y0166254D01*
X0304816Y0167253D02*
X0299750Y0167253D01*
X0299750Y0168251D02*
X0300711Y0168251D01*
X0300669Y0167984D02*
X0304816Y0167984D01*
X0304816Y0172131D01*
X0304211Y0172035D01*
X0303515Y0171809D01*
X0302863Y0171477D01*
X0302271Y0171047D01*
X0301753Y0170529D01*
X0301323Y0169937D01*
X0300991Y0169285D01*
X0300765Y0168589D01*
X0300669Y0167984D01*
X0300980Y0169250D02*
X0299391Y0169250D01*
X0298844Y0170248D02*
X0301550Y0170248D01*
X0302547Y0171247D02*
X0297846Y0171247D01*
X0296652Y0173244D02*
X0303411Y0173244D01*
X0303515Y0173191D02*
X0304211Y0172965D01*
X0304816Y0172869D01*
X0304816Y0177016D01*
X0300669Y0177016D01*
X0300765Y0176411D01*
X0300991Y0175715D01*
X0301323Y0175063D01*
X0301753Y0174471D01*
X0302271Y0173953D01*
X0302863Y0173523D01*
X0303515Y0173191D01*
X0304816Y0173244D02*
X0305784Y0173244D01*
X0305784Y0174242D02*
X0304816Y0174242D01*
X0304816Y0175241D02*
X0305784Y0175241D01*
X0305784Y0176239D02*
X0304816Y0176239D01*
X0304816Y0177238D02*
X0299750Y0177238D01*
X0299750Y0176615D02*
X0299750Y0178385D01*
X0299072Y0180020D01*
X0297820Y0181272D01*
X0296185Y0181950D01*
X0294415Y0181950D01*
X0292779Y0181272D01*
X0291528Y0180020D01*
X0290850Y0178385D01*
X0290850Y0176615D01*
X0291528Y0174979D01*
X0292779Y0173728D01*
X0294415Y0173050D01*
X0296185Y0173050D01*
X0297820Y0173728D01*
X0299072Y0174979D01*
X0299750Y0176615D01*
X0299594Y0176239D02*
X0300821Y0176239D01*
X0301233Y0175241D02*
X0299180Y0175241D01*
X0298335Y0174242D02*
X0301982Y0174242D01*
X0304816Y0171247D02*
X0305784Y0171247D01*
X0305784Y0170248D02*
X0304816Y0170248D01*
X0304816Y0169250D02*
X0305784Y0169250D01*
X0305784Y0168251D02*
X0304816Y0168251D01*
X0305784Y0167253D02*
X0313500Y0167253D01*
X0313500Y0168251D02*
X0309889Y0168251D01*
X0309620Y0169250D02*
X0313500Y0169250D01*
X0313500Y0170248D02*
X0309050Y0170248D01*
X0308053Y0171247D02*
X0313500Y0171247D01*
X0313500Y0172245D02*
X0256100Y0172245D01*
X0256100Y0171247D02*
X0282754Y0171247D01*
X0282779Y0171272D02*
X0281528Y0170020D01*
X0280850Y0168385D01*
X0280850Y0166615D01*
X0281528Y0164979D01*
X0282779Y0163728D01*
X0284415Y0163050D01*
X0286185Y0163050D01*
X0287820Y0163728D01*
X0289072Y0164979D01*
X0289750Y0166615D01*
X0289750Y0168385D01*
X0289072Y0170020D01*
X0287820Y0171272D01*
X0286185Y0171950D01*
X0284415Y0171950D01*
X0282779Y0171272D01*
X0281756Y0170248D02*
X0256100Y0170248D01*
X0256100Y0169250D02*
X0281209Y0169250D01*
X0280850Y0168251D02*
X0256100Y0168251D01*
X0256100Y0167253D02*
X0280850Y0167253D01*
X0281000Y0166254D02*
X0256100Y0166254D01*
X0256100Y0165256D02*
X0281413Y0165256D01*
X0282250Y0164257D02*
X0256100Y0164257D01*
X0256100Y0163259D02*
X0283912Y0163259D01*
X0282769Y0161262D02*
X0256100Y0161262D01*
X0256100Y0162260D02*
X0313500Y0162260D01*
X0313500Y0161262D02*
X0308033Y0161262D01*
X0309040Y0160263D02*
X0313500Y0160263D01*
X0313500Y0159265D02*
X0309615Y0159265D01*
X0309886Y0158266D02*
X0313500Y0158266D01*
X0313500Y0157268D02*
X0305784Y0157268D01*
X0304816Y0157268D02*
X0299750Y0157268D01*
X0299750Y0158266D02*
X0300714Y0158266D01*
X0300669Y0157984D02*
X0304816Y0157984D01*
X0304816Y0162131D01*
X0304211Y0162035D01*
X0303515Y0161809D01*
X0302863Y0161477D01*
X0302271Y0161047D01*
X0301753Y0160529D01*
X0301323Y0159937D01*
X0300991Y0159285D01*
X0300765Y0158589D01*
X0300669Y0157984D01*
X0300985Y0159265D02*
X0299385Y0159265D01*
X0298829Y0160263D02*
X0301560Y0160263D01*
X0302567Y0161262D02*
X0297831Y0161262D01*
X0298350Y0164257D02*
X0301967Y0164257D01*
X0301225Y0165256D02*
X0299187Y0165256D01*
X0299600Y0166254D02*
X0300816Y0166254D01*
X0307218Y0163259D02*
X0313500Y0163259D01*
X0313500Y0164257D02*
X0308633Y0164257D01*
X0309375Y0165256D02*
X0313500Y0165256D01*
X0313500Y0166254D02*
X0309784Y0166254D01*
X0305784Y0161262D02*
X0304816Y0161262D01*
X0304816Y0160263D02*
X0305784Y0160263D01*
X0305784Y0159265D02*
X0304816Y0159265D01*
X0304816Y0158266D02*
X0305784Y0158266D01*
X0305784Y0156269D02*
X0304816Y0156269D01*
X0304816Y0155271D02*
X0305784Y0155271D01*
X0305784Y0154272D02*
X0304816Y0154272D01*
X0304816Y0153274D02*
X0305784Y0153274D01*
X0307247Y0153274D02*
X0313500Y0153274D01*
X0313500Y0154272D02*
X0308648Y0154272D01*
X0309382Y0155271D02*
X0313500Y0155271D01*
X0313500Y0156269D02*
X0309789Y0156269D01*
X0308012Y0151277D02*
X0313500Y0151277D01*
X0313500Y0152275D02*
X0268660Y0152275D01*
X0267300Y0149500D02*
X0261800Y0144000D01*
X0261800Y0131000D01*
X0267100Y0134302D02*
X0282205Y0134302D01*
X0281395Y0135301D02*
X0267100Y0135301D01*
X0267100Y0136299D02*
X0280981Y0136299D01*
X0280850Y0137298D02*
X0267100Y0137298D01*
X0267100Y0138296D02*
X0280850Y0138296D01*
X0281227Y0139295D02*
X0267140Y0139295D01*
X0268139Y0140293D02*
X0281800Y0140293D01*
X0282826Y0141292D02*
X0269137Y0141292D01*
X0270300Y0145000D02*
X0265300Y0140000D01*
X0265300Y0115000D01*
X0268088Y0116329D02*
X0280969Y0116329D01*
X0280850Y0117327D02*
X0267334Y0117327D01*
X0267100Y0118326D02*
X0280850Y0118326D01*
X0281239Y0119324D02*
X0267100Y0119324D01*
X0267100Y0120323D02*
X0281830Y0120323D01*
X0282898Y0121321D02*
X0267100Y0121321D01*
X0268384Y0115330D02*
X0281382Y0115330D01*
X0282176Y0114332D02*
X0268362Y0114332D01*
X0267948Y0113333D02*
X0283732Y0113333D01*
X0280999Y0111336D02*
X0255682Y0111336D01*
X0256100Y0112335D02*
X0263675Y0112335D01*
X0266925Y0112335D02*
X0309234Y0112335D01*
X0309225Y0113333D02*
X0307364Y0113333D01*
X0308707Y0114332D02*
X0309217Y0114332D01*
X0309243Y0111336D02*
X0307930Y0111336D01*
X0308985Y0110338D02*
X0309251Y0110338D01*
X0300723Y0118326D02*
X0299750Y0118326D01*
X0299361Y0119324D02*
X0301011Y0119324D01*
X0301604Y0120323D02*
X0298770Y0120323D01*
X0297702Y0121321D02*
X0302649Y0121321D01*
X0303265Y0123318D02*
X0296832Y0123318D01*
X0298410Y0124317D02*
X0301908Y0124317D01*
X0301195Y0125315D02*
X0299211Y0125315D01*
X0299625Y0126314D02*
X0300796Y0126314D01*
X0304816Y0126314D02*
X0305784Y0126314D01*
X0305784Y0125315D02*
X0304816Y0125315D01*
X0304816Y0124317D02*
X0305784Y0124317D01*
X0305784Y0128311D02*
X0304816Y0128311D01*
X0304816Y0129309D02*
X0305784Y0129309D01*
X0305784Y0130308D02*
X0304816Y0130308D01*
X0304816Y0131306D02*
X0305784Y0131306D01*
X0305784Y0133303D02*
X0304816Y0133303D01*
X0304816Y0134302D02*
X0305784Y0134302D01*
X0305784Y0135301D02*
X0304816Y0135301D01*
X0304816Y0136299D02*
X0305784Y0136299D01*
X0305784Y0138296D02*
X0304816Y0138296D01*
X0304816Y0139295D02*
X0305784Y0139295D01*
X0305784Y0140293D02*
X0304816Y0140293D01*
X0304816Y0141292D02*
X0305784Y0141292D01*
X0307276Y0143289D02*
X0313500Y0143289D01*
X0313500Y0144287D02*
X0308663Y0144287D01*
X0309390Y0145286D02*
X0313500Y0145286D01*
X0313500Y0146284D02*
X0309794Y0146284D01*
X0309884Y0148281D02*
X0313500Y0148281D01*
X0313500Y0147283D02*
X0305784Y0147283D01*
X0305784Y0148281D02*
X0304816Y0148281D01*
X0304816Y0149280D02*
X0305784Y0149280D01*
X0305784Y0150278D02*
X0304816Y0150278D01*
X0304816Y0151277D02*
X0305784Y0151277D01*
X0309029Y0150278D02*
X0313500Y0150278D01*
X0313500Y0149280D02*
X0309611Y0149280D01*
X0301952Y0154272D02*
X0298365Y0154272D01*
X0299193Y0155271D02*
X0301217Y0155271D01*
X0300811Y0156269D02*
X0299606Y0156269D01*
X0292790Y0151277D02*
X0287810Y0151277D01*
X0288814Y0150278D02*
X0291785Y0150278D01*
X0291221Y0149280D02*
X0289379Y0149280D01*
X0289750Y0148281D02*
X0290850Y0148281D01*
X0290850Y0147283D02*
X0289750Y0147283D01*
X0289613Y0146284D02*
X0290987Y0146284D01*
X0291401Y0145286D02*
X0289199Y0145286D01*
X0288380Y0144287D02*
X0292220Y0144287D01*
X0293840Y0143289D02*
X0286760Y0143289D01*
X0287774Y0141292D02*
X0292826Y0141292D01*
X0291800Y0140293D02*
X0288800Y0140293D01*
X0289373Y0139295D02*
X0291227Y0139295D01*
X0290850Y0138296D02*
X0289750Y0138296D01*
X0289750Y0137298D02*
X0290850Y0137298D01*
X0290981Y0136299D02*
X0289619Y0136299D01*
X0289205Y0135301D02*
X0291395Y0135301D01*
X0292205Y0134302D02*
X0288395Y0134302D01*
X0298395Y0134302D02*
X0301922Y0134302D01*
X0301202Y0135301D02*
X0299205Y0135301D01*
X0299619Y0136299D02*
X0300801Y0136299D01*
X0308678Y0134302D02*
X0313500Y0134302D01*
X0313500Y0135301D02*
X0309398Y0135301D01*
X0309799Y0136299D02*
X0313500Y0136299D01*
X0323800Y0127000D02*
X0323800Y0168000D01*
X0309300Y0183000D01*
X0309300Y0187000D01*
X0304300Y0192000D01*
X0300300Y0196500D01*
X0297800Y0199000D01*
X0302800Y0196500D02*
X0311300Y0188000D01*
X0311300Y0184000D01*
X0327300Y0167500D01*
X0327300Y0131500D01*
X0319800Y0124500D02*
X0321300Y0123000D01*
X0342300Y0123000D01*
X0345300Y0126000D01*
X0338800Y0129000D02*
X0338800Y0159500D01*
X0313300Y0185000D01*
X0313300Y0194000D01*
X0307800Y0199000D01*
X0302800Y0196500D02*
X0302800Y0204000D01*
X0297800Y0209000D01*
X0307800Y0209000D02*
X0315300Y0201500D01*
X0315300Y0186000D01*
X0342300Y0159500D01*
X0342300Y0133500D01*
X0319800Y0124500D02*
X0319800Y0164500D01*
X0318800Y0165500D01*
X0313100Y0173244D02*
X0307189Y0173244D01*
X0344300Y0177000D02*
X0344235Y0177893D01*
X0344149Y0178785D01*
X0344041Y0179675D01*
X0343912Y0180562D01*
X0343761Y0181445D01*
X0343588Y0182325D01*
X0343395Y0183200D01*
X0343180Y0184070D01*
X0342944Y0184935D01*
X0342688Y0185793D01*
X0342410Y0186646D01*
X0342112Y0187491D01*
X0341794Y0188328D01*
X0341455Y0189158D01*
X0341097Y0189980D01*
X0340718Y0190792D01*
X0340320Y0191595D01*
X0339903Y0192388D01*
X0339467Y0193171D01*
X0339011Y0193943D01*
X0338538Y0194704D01*
X0338045Y0195453D01*
X0337535Y0196189D01*
X0337007Y0196914D01*
X0336462Y0197625D01*
X0335900Y0198323D01*
X0335321Y0199007D01*
X0334725Y0199676D01*
X0334114Y0200332D01*
X0333486Y0200972D01*
X0332844Y0201596D01*
X0332186Y0202205D01*
X0331514Y0202798D01*
X0330828Y0203375D01*
X0330128Y0203934D01*
X0329415Y0204477D01*
X0328688Y0205002D01*
X0327949Y0205509D01*
X0327198Y0205998D01*
X0326436Y0206469D01*
X0325662Y0206921D01*
X0324878Y0207354D01*
X0324083Y0207769D01*
X0323278Y0208163D01*
X0322464Y0208539D01*
X0321642Y0208894D01*
X0320811Y0209229D01*
X0319972Y0209544D01*
X0319125Y0209839D01*
X0318272Y0210113D01*
X0317412Y0210366D01*
X0316547Y0210598D01*
X0315676Y0210810D01*
X0314800Y0211000D01*
X0308900Y0214000D01*
X0297800Y0190000D02*
X0266800Y0190000D01*
X0257800Y0199000D01*
X0262700Y0203900D02*
X0245300Y0203900D01*
X0242900Y0206300D01*
X0242900Y0212300D01*
X0247800Y0199000D02*
X0258800Y0188000D01*
X0294800Y0188000D01*
X0296300Y0186500D01*
X0300800Y0186500D01*
X0301800Y0187500D01*
X0303515Y0181809D02*
X0302863Y0181477D01*
X0302271Y0181047D01*
X0301753Y0180529D01*
X0301323Y0179937D01*
X0300991Y0179285D01*
X0300765Y0178589D01*
X0300669Y0177984D01*
X0304816Y0177984D01*
X0304816Y0182131D01*
X0304211Y0182035D01*
X0303515Y0181809D01*
X0302526Y0181232D02*
X0297861Y0181232D01*
X0298859Y0180234D02*
X0301539Y0180234D01*
X0300975Y0179235D02*
X0299398Y0179235D01*
X0299750Y0178237D02*
X0300709Y0178237D01*
X0304816Y0178237D02*
X0305784Y0178237D01*
X0305784Y0179235D02*
X0304816Y0179235D01*
X0304816Y0180234D02*
X0305784Y0180234D01*
X0305784Y0181232D02*
X0304816Y0181232D01*
X0304930Y0182231D02*
X0256100Y0182231D01*
X0256100Y0183229D02*
X0294025Y0183229D01*
X0292739Y0181232D02*
X0287861Y0181232D01*
X0287820Y0181272D02*
X0286185Y0181950D01*
X0284415Y0181950D01*
X0282779Y0181272D01*
X0281528Y0180020D01*
X0280850Y0178385D01*
X0280850Y0176615D01*
X0281528Y0174979D01*
X0282779Y0173728D01*
X0284415Y0173050D01*
X0286185Y0173050D01*
X0287820Y0173728D01*
X0289072Y0174979D01*
X0289750Y0176615D01*
X0289750Y0178385D01*
X0289072Y0180020D01*
X0287820Y0181272D01*
X0288859Y0180234D02*
X0291741Y0180234D01*
X0291202Y0179235D02*
X0289398Y0179235D01*
X0289750Y0178237D02*
X0290850Y0178237D01*
X0290850Y0177238D02*
X0289750Y0177238D01*
X0289594Y0176239D02*
X0291006Y0176239D01*
X0291419Y0175241D02*
X0289180Y0175241D01*
X0288335Y0174242D02*
X0292265Y0174242D01*
X0293948Y0173244D02*
X0286652Y0173244D01*
X0287846Y0171247D02*
X0292754Y0171247D01*
X0291756Y0170248D02*
X0288844Y0170248D01*
X0289391Y0169250D02*
X0291209Y0169250D01*
X0290850Y0168251D02*
X0289750Y0168251D01*
X0289750Y0167253D02*
X0290850Y0167253D01*
X0291000Y0166254D02*
X0289600Y0166254D01*
X0289187Y0165256D02*
X0291413Y0165256D01*
X0292250Y0164257D02*
X0288350Y0164257D01*
X0281771Y0160263D02*
X0256100Y0160263D01*
X0256100Y0159265D02*
X0281215Y0159265D01*
X0280850Y0158266D02*
X0256100Y0158266D01*
X0256100Y0157268D02*
X0280850Y0157268D01*
X0280994Y0156269D02*
X0256100Y0156269D01*
X0256100Y0155271D02*
X0281407Y0155271D01*
X0282235Y0154272D02*
X0256100Y0154272D01*
X0233000Y0154272D02*
X0205618Y0154272D01*
X0204619Y0153274D02*
X0233000Y0153274D01*
X0233000Y0152275D02*
X0203621Y0152275D01*
X0202300Y0153500D02*
X0209800Y0161000D01*
X0213300Y0164500D01*
X0225800Y0164500D01*
X0240800Y0179500D01*
X0236701Y0181232D02*
X0235100Y0181232D01*
X0235100Y0182231D02*
X0237238Y0182231D01*
X0238236Y0183229D02*
X0235100Y0183229D01*
X0233300Y0184228D02*
X0193389Y0184228D01*
X0193818Y0185226D02*
X0233300Y0185226D01*
X0233300Y0186225D02*
X0193884Y0186225D01*
X0193632Y0187223D02*
X0233300Y0187223D01*
X0233300Y0188222D02*
X0192940Y0188222D01*
X0190125Y0189220D02*
X0233300Y0189220D01*
X0228236Y0183229D02*
X0192170Y0183229D01*
X0189430Y0183229D02*
X0179300Y0183229D01*
X0179300Y0182231D02*
X0227238Y0182231D01*
X0226701Y0181232D02*
X0179300Y0181232D01*
X0179300Y0180234D02*
X0226350Y0180234D01*
X0226350Y0179235D02*
X0179300Y0179235D01*
X0179300Y0178237D02*
X0226507Y0178237D01*
X0226921Y0177238D02*
X0179300Y0177238D01*
X0179300Y0176239D02*
X0227768Y0176239D01*
X0229000Y0175241D02*
X0179300Y0175241D01*
X0179300Y0174242D02*
X0229000Y0174242D01*
X0228998Y0173244D02*
X0179300Y0173244D01*
X0179300Y0172245D02*
X0228000Y0172245D01*
X0227001Y0171247D02*
X0179300Y0171247D01*
X0179300Y0170248D02*
X0226003Y0170248D01*
X0225800Y0167500D02*
X0230800Y0172500D01*
X0230800Y0179500D01*
X0235250Y0179235D02*
X0236350Y0179235D01*
X0236350Y0180234D02*
X0235250Y0180234D01*
X0235100Y0178237D02*
X0236507Y0178237D01*
X0235992Y0177238D02*
X0235100Y0177238D01*
X0233000Y0168251D02*
X0232097Y0168251D01*
X0233000Y0167253D02*
X0231098Y0167253D01*
X0230100Y0166254D02*
X0233000Y0166254D01*
X0233000Y0165256D02*
X0229101Y0165256D01*
X0228103Y0164257D02*
X0233000Y0164257D01*
X0233000Y0163259D02*
X0227104Y0163259D01*
X0225800Y0167500D02*
X0211300Y0167500D01*
X0204800Y0161000D01*
X0204513Y0163259D02*
X0203403Y0163259D01*
X0205512Y0164257D02*
X0180443Y0164257D01*
X0181441Y0163259D02*
X0199197Y0163259D01*
X0206510Y0165256D02*
X0179444Y0165256D01*
X0179300Y0166254D02*
X0207509Y0166254D01*
X0208507Y0167253D02*
X0179300Y0167253D01*
X0179300Y0168251D02*
X0209506Y0168251D01*
X0210504Y0169250D02*
X0179300Y0169250D01*
X0177500Y0169250D02*
X0156100Y0169250D01*
X0156100Y0170248D02*
X0156608Y0170248D01*
X0157992Y0170248D02*
X0177500Y0170248D01*
X0177500Y0171247D02*
X0159609Y0171247D01*
X0160202Y0172245D02*
X0170293Y0172245D01*
X0169523Y0173244D02*
X0160384Y0173244D01*
X0160248Y0174242D02*
X0169216Y0174242D01*
X0169227Y0175241D02*
X0159721Y0175241D01*
X0159100Y0176239D02*
X0169641Y0176239D01*
X0170500Y0177238D02*
X0159100Y0177238D01*
X0159100Y0178237D02*
X0170500Y0178237D01*
X0170500Y0179235D02*
X0159100Y0179235D01*
X0159100Y0180234D02*
X0170500Y0180234D01*
X0170500Y0181232D02*
X0159100Y0181232D01*
X0159100Y0182231D02*
X0170500Y0182231D01*
X0170500Y0183229D02*
X0159100Y0183229D01*
X0159100Y0184228D02*
X0170500Y0184228D01*
X0170500Y0185226D02*
X0159100Y0185226D01*
X0157300Y0188900D02*
X0159400Y0191000D01*
X0165500Y0191000D01*
X0172300Y0190500D02*
X0172300Y0174600D01*
X0175077Y0173244D02*
X0177500Y0173244D01*
X0177500Y0174242D02*
X0175384Y0174242D01*
X0175373Y0175241D02*
X0177500Y0175241D01*
X0177500Y0176239D02*
X0174959Y0176239D01*
X0174100Y0177238D02*
X0177500Y0177238D01*
X0177500Y0178237D02*
X0174100Y0178237D01*
X0174100Y0179235D02*
X0177500Y0179235D01*
X0177500Y0180234D02*
X0174100Y0180234D01*
X0174100Y0181232D02*
X0177500Y0181232D01*
X0177500Y0182231D02*
X0174100Y0182231D01*
X0174100Y0183229D02*
X0177500Y0183229D01*
X0177500Y0184228D02*
X0174100Y0184228D01*
X0174100Y0185226D02*
X0177500Y0185226D01*
X0179300Y0185226D02*
X0187782Y0185226D01*
X0187716Y0186225D02*
X0179300Y0186225D01*
X0180385Y0187223D02*
X0187031Y0187223D01*
X0187300Y0189500D02*
X0178300Y0189500D01*
X0179300Y0184228D02*
X0188211Y0184228D01*
X0190800Y0186000D02*
X0187300Y0189500D01*
X0195300Y0204000D02*
X0211300Y0204000D01*
X0212800Y0205500D01*
X0212800Y0214000D01*
X0195300Y0204000D02*
X0193300Y0206000D01*
X0193300Y0212000D01*
X0157300Y0188900D02*
X0157300Y0173300D01*
X0152500Y0173244D02*
X0027050Y0173244D01*
X0027050Y0174242D02*
X0152500Y0174242D01*
X0152500Y0175241D02*
X0027050Y0175241D01*
X0027050Y0176239D02*
X0152500Y0176239D01*
X0152500Y0177238D02*
X0027050Y0177238D01*
X0027050Y0178237D02*
X0152500Y0178237D01*
X0152500Y0179235D02*
X0027050Y0179235D01*
X0027050Y0180234D02*
X0152500Y0180234D01*
X0152500Y0181232D02*
X0027050Y0181232D01*
X0027050Y0182231D02*
X0152500Y0182231D01*
X0152500Y0183229D02*
X0027050Y0183229D01*
X0027050Y0184228D02*
X0152500Y0184228D01*
X0152500Y0185226D02*
X0027050Y0185226D01*
X0027050Y0186225D02*
X0119800Y0186225D01*
X0119800Y0187223D02*
X0027050Y0187223D01*
X0027050Y0188222D02*
X0119800Y0188222D01*
X0119800Y0189220D02*
X0027050Y0189220D01*
X0027050Y0190219D02*
X0119800Y0190219D01*
X0119800Y0191217D02*
X0027050Y0191217D01*
X0027050Y0192216D02*
X0087800Y0192216D01*
X0087800Y0193214D02*
X0027050Y0193214D01*
X0027050Y0194213D02*
X0087800Y0194213D01*
X0087316Y0194369D02*
X0087316Y0198516D01*
X0083169Y0198516D01*
X0083265Y0197911D01*
X0083491Y0197215D01*
X0083823Y0196563D01*
X0084253Y0195971D01*
X0084771Y0195453D01*
X0085363Y0195023D01*
X0086015Y0194691D01*
X0086711Y0194465D01*
X0087316Y0194369D01*
X0087316Y0195211D02*
X0087800Y0195211D01*
X0087800Y0196210D02*
X0087316Y0196210D01*
X0087316Y0197208D02*
X0087800Y0197208D01*
X0087800Y0198207D02*
X0087316Y0198207D01*
X0087316Y0199205D02*
X0076151Y0199205D01*
X0075896Y0198590D02*
X0077350Y0202100D01*
X0077350Y0205900D01*
X0075896Y0209410D01*
X0073210Y0212096D01*
X0069700Y0213550D01*
X0065900Y0213550D01*
X0062390Y0212096D01*
X0059704Y0209410D01*
X0058250Y0205900D01*
X0058250Y0202100D01*
X0059704Y0198590D01*
X0062390Y0195904D01*
X0065900Y0194450D01*
X0069700Y0194450D01*
X0073210Y0195904D01*
X0075896Y0198590D01*
X0075512Y0198207D02*
X0083218Y0198207D01*
X0083495Y0197208D02*
X0074514Y0197208D01*
X0073515Y0196210D02*
X0084080Y0196210D01*
X0085104Y0195211D02*
X0071537Y0195211D01*
X0076564Y0200204D02*
X0083302Y0200204D01*
X0083265Y0200089D02*
X0083169Y0199484D01*
X0087316Y0199484D01*
X0087316Y0203631D01*
X0086711Y0203535D01*
X0086015Y0203309D01*
X0085363Y0202977D01*
X0084771Y0202547D01*
X0084253Y0202029D01*
X0083823Y0201437D01*
X0083491Y0200785D01*
X0083265Y0200089D01*
X0083704Y0201202D02*
X0076978Y0201202D01*
X0077350Y0202201D02*
X0084425Y0202201D01*
X0085800Y0203199D02*
X0077350Y0203199D01*
X0077350Y0204198D02*
X0087800Y0204198D01*
X0087316Y0204369D02*
X0087316Y0208516D01*
X0083169Y0208516D01*
X0083265Y0207911D01*
X0083491Y0207215D01*
X0083823Y0206563D01*
X0084253Y0205971D01*
X0084771Y0205453D01*
X0085363Y0205023D01*
X0086015Y0204691D01*
X0086711Y0204465D01*
X0087316Y0204369D01*
X0087316Y0205196D02*
X0087800Y0205196D01*
X0087800Y0206195D02*
X0087316Y0206195D01*
X0087316Y0207193D02*
X0087800Y0207193D01*
X0087800Y0208192D02*
X0087316Y0208192D01*
X0087316Y0209190D02*
X0075987Y0209190D01*
X0076401Y0208192D02*
X0083220Y0208192D01*
X0083502Y0207193D02*
X0076814Y0207193D01*
X0077228Y0206195D02*
X0084091Y0206195D01*
X0085125Y0205196D02*
X0077350Y0205196D01*
X0075117Y0210189D02*
X0083297Y0210189D01*
X0083265Y0210089D02*
X0083169Y0209484D01*
X0087316Y0209484D01*
X0087316Y0213631D01*
X0086711Y0213535D01*
X0086015Y0213309D01*
X0085363Y0212977D01*
X0084771Y0212547D01*
X0084253Y0212029D01*
X0083823Y0211437D01*
X0083491Y0210785D01*
X0083265Y0210089D01*
X0083696Y0211187D02*
X0074118Y0211187D01*
X0072993Y0212186D02*
X0084410Y0212186D01*
X0085771Y0213184D02*
X0070582Y0213184D01*
X0065018Y0213184D02*
X0030637Y0213184D01*
X0029359Y0212186D02*
X0062607Y0212186D01*
X0061482Y0211187D02*
X0028634Y0211187D01*
X0027931Y0210189D02*
X0060483Y0210189D01*
X0059613Y0209190D02*
X0027606Y0209190D01*
X0027282Y0208192D02*
X0059199Y0208192D01*
X0058786Y0207193D02*
X0027105Y0207193D01*
X0027050Y0206195D02*
X0058372Y0206195D01*
X0058250Y0205196D02*
X0027050Y0205196D01*
X0027050Y0204198D02*
X0058250Y0204198D01*
X0058250Y0203199D02*
X0027050Y0203199D01*
X0027050Y0202201D02*
X0058250Y0202201D01*
X0058622Y0201202D02*
X0027050Y0201202D01*
X0027050Y0200204D02*
X0059036Y0200204D01*
X0059449Y0199205D02*
X0027050Y0199205D01*
X0027050Y0198207D02*
X0060088Y0198207D01*
X0061086Y0197208D02*
X0027050Y0197208D01*
X0027050Y0196210D02*
X0062085Y0196210D01*
X0064063Y0195211D02*
X0027050Y0195211D01*
X0032577Y0214183D02*
X0087800Y0214183D01*
X0087800Y0213184D02*
X0087316Y0213184D01*
X0087316Y0212186D02*
X0087800Y0212186D01*
X0087800Y0211187D02*
X0087316Y0211187D01*
X0087316Y0210189D02*
X0087800Y0210189D01*
X0092800Y0204000D02*
X0122800Y0204000D01*
X0127800Y0199000D01*
X0132800Y0195500D02*
X0130300Y0193000D01*
X0124300Y0193000D01*
X0132800Y0195500D02*
X0132800Y0211500D01*
X0154300Y0191000D02*
X0154300Y0165400D01*
X0157165Y0164257D02*
X0177897Y0164257D01*
X0177500Y0165256D02*
X0157384Y0165256D01*
X0157284Y0166254D02*
X0177500Y0166254D01*
X0177500Y0167253D02*
X0156809Y0167253D01*
X0156100Y0168251D02*
X0177500Y0168251D01*
X0177500Y0172245D02*
X0174307Y0172245D01*
X0178896Y0163259D02*
X0156521Y0163259D01*
X0152079Y0163259D02*
X0027050Y0163259D01*
X0027050Y0164257D02*
X0151435Y0164257D01*
X0151216Y0165256D02*
X0027050Y0165256D01*
X0027050Y0166254D02*
X0151316Y0166254D01*
X0151791Y0167253D02*
X0027050Y0167253D01*
X0027050Y0168251D02*
X0152500Y0168251D01*
X0152500Y0169250D02*
X0027050Y0169250D01*
X0027050Y0170248D02*
X0152500Y0170248D01*
X0152500Y0171247D02*
X0027050Y0171247D01*
X0027050Y0172245D02*
X0152500Y0172245D01*
X0179894Y0162260D02*
X0027050Y0162260D01*
X0027050Y0161262D02*
X0180893Y0161262D01*
X0193300Y0153500D02*
X0202300Y0153500D01*
X0202524Y0156269D02*
X0194674Y0156269D01*
X0195438Y0151277D02*
X0233000Y0151277D01*
X0233000Y0155271D02*
X0206616Y0155271D01*
X0207615Y0156269D02*
X0233000Y0156269D01*
X0233000Y0157268D02*
X0208613Y0157268D01*
X0211260Y0158266D02*
X0233000Y0158266D01*
X0233000Y0159265D02*
X0212420Y0159265D01*
X0212833Y0160263D02*
X0233000Y0160263D01*
X0233000Y0161262D02*
X0212884Y0161262D01*
X0213606Y0162260D02*
X0233000Y0162260D01*
X0256100Y0173244D02*
X0283948Y0173244D01*
X0282265Y0174242D02*
X0256100Y0174242D01*
X0256100Y0175241D02*
X0281419Y0175241D01*
X0281006Y0176239D02*
X0256100Y0176239D01*
X0256100Y0177238D02*
X0280850Y0177238D01*
X0280850Y0178237D02*
X0256100Y0178237D01*
X0256100Y0179235D02*
X0281202Y0179235D01*
X0281741Y0180234D02*
X0256100Y0180234D01*
X0256100Y0181232D02*
X0282739Y0181232D01*
X0290300Y0182000D02*
X0290300Y0180000D01*
X0308618Y0174242D02*
X0312192Y0174242D01*
X0311285Y0175241D02*
X0309367Y0175241D01*
X0309779Y0176239D02*
X0310377Y0176239D01*
X0344300Y0177000D02*
X0344300Y0178000D01*
X0267800Y0209000D02*
X0262700Y0203900D01*
X0254300Y0134302D02*
X0212796Y0134302D01*
X0197603Y0133303D02*
X0254300Y0133303D01*
X0254300Y0132305D02*
X0196605Y0132305D01*
X0195606Y0131306D02*
X0254300Y0131306D01*
X0254300Y0130308D02*
X0194608Y0130308D01*
X0193800Y0129309D02*
X0254300Y0129309D01*
X0254300Y0128311D02*
X0193800Y0128311D01*
X0193800Y0127312D02*
X0254300Y0127312D01*
X0254300Y0126314D02*
X0193800Y0126314D01*
X0193800Y0125315D02*
X0254300Y0125315D01*
X0254300Y0124317D02*
X0193800Y0124317D01*
X0193800Y0123318D02*
X0254300Y0123318D01*
X0254300Y0122320D02*
X0193800Y0122320D01*
X0193800Y0121321D02*
X0254300Y0121321D01*
X0254300Y0120323D02*
X0193800Y0120323D01*
X0193800Y0119324D02*
X0254300Y0119324D01*
X0254300Y0118326D02*
X0193800Y0118326D01*
X0222000Y0110338D02*
X0146242Y0110338D01*
X0146242Y0109339D02*
X0222000Y0109339D01*
X0222000Y0108341D02*
X0146242Y0108341D01*
X0146242Y0107342D02*
X0222000Y0107342D01*
X0222000Y0106344D02*
X0146168Y0106344D01*
X0145755Y0105345D02*
X0222000Y0105345D01*
X0222000Y0104347D02*
X0145195Y0104347D01*
X0144408Y0103348D02*
X0222000Y0103348D01*
X0222000Y0102350D02*
X0145411Y0102350D01*
X0146414Y0101351D02*
X0222000Y0101351D01*
X0222000Y0100353D02*
X0147417Y0100353D01*
X0148420Y0099354D02*
X0222000Y0099354D01*
X0221794Y0098356D02*
X0149423Y0098356D01*
X0150426Y0097357D02*
X0221024Y0097357D01*
X0220716Y0096359D02*
X0151429Y0096359D01*
X0152432Y0095360D02*
X0220727Y0095360D01*
X0221140Y0094362D02*
X0153435Y0094362D01*
X0154439Y0093363D02*
X0222107Y0093363D01*
X0223800Y0096000D02*
X0223800Y0113500D01*
X0225600Y0110338D02*
X0236700Y0110338D01*
X0236700Y0109339D02*
X0225600Y0109339D01*
X0225600Y0108341D02*
X0236700Y0108341D01*
X0236700Y0107342D02*
X0225600Y0107342D01*
X0225600Y0106344D02*
X0236700Y0106344D01*
X0236700Y0105345D02*
X0225600Y0105345D01*
X0225600Y0104347D02*
X0236700Y0104347D01*
X0236700Y0103348D02*
X0225600Y0103348D01*
X0225600Y0102350D02*
X0236700Y0102350D01*
X0236700Y0101351D02*
X0225600Y0101351D01*
X0225600Y0100353D02*
X0236700Y0100353D01*
X0236700Y0099354D02*
X0225600Y0099354D01*
X0225806Y0098356D02*
X0236700Y0098356D01*
X0236700Y0097357D02*
X0226576Y0097357D01*
X0226884Y0096359D02*
X0236700Y0096359D01*
X0236700Y0095360D02*
X0226873Y0095360D01*
X0226460Y0094362D02*
X0236700Y0094362D01*
X0236700Y0093363D02*
X0225493Y0093363D01*
X0217800Y0095500D02*
X0217300Y0095500D01*
X0236709Y0092365D02*
X0155442Y0092365D01*
X0156445Y0091366D02*
X0237123Y0091366D01*
X0237536Y0090368D02*
X0157448Y0090368D01*
X0158451Y0089369D02*
X0238511Y0089369D01*
X0239510Y0088370D02*
X0159454Y0088370D01*
X0160457Y0087372D02*
X0240508Y0087372D01*
X0241507Y0086373D02*
X0161460Y0086373D01*
X0163919Y0085375D02*
X0184681Y0085375D01*
X0183315Y0084376D02*
X0165285Y0084376D01*
X0165775Y0083378D02*
X0182825Y0083378D01*
X0182716Y0082379D02*
X0165884Y0082379D01*
X0165675Y0081381D02*
X0182925Y0081381D01*
X0183556Y0080382D02*
X0165044Y0080382D01*
X0162800Y0082500D02*
X0140905Y0104295D01*
X0141005Y0111500D01*
X0135768Y0111336D02*
X0117489Y0111336D01*
X0117489Y0111000D02*
X0117489Y0112000D01*
X0122426Y0112000D01*
X0122426Y0115865D01*
X0122292Y0116710D01*
X0122028Y0117524D01*
X0121639Y0118287D01*
X0121136Y0118979D01*
X0120531Y0119584D01*
X0119839Y0120087D01*
X0119076Y0120476D01*
X0118262Y0120740D01*
X0117489Y0120863D01*
X0117489Y0112000D01*
X0116489Y0112000D01*
X0116489Y0120863D01*
X0115716Y0120740D01*
X0114902Y0120476D01*
X0114139Y0120087D01*
X0113447Y0119584D01*
X0112842Y0118979D01*
X0112339Y0118287D01*
X0111950Y0117524D01*
X0111686Y0116710D01*
X0111552Y0115865D01*
X0111552Y0112000D01*
X0116489Y0112000D01*
X0116489Y0111000D01*
X0117489Y0111000D01*
X0122426Y0111000D01*
X0122426Y0107135D01*
X0122292Y0106290D01*
X0122028Y0105476D01*
X0121639Y0104713D01*
X0121136Y0104021D01*
X0120531Y0103416D01*
X0119839Y0102913D01*
X0119076Y0102524D01*
X0118262Y0102260D01*
X0117489Y0102137D01*
X0117489Y0111000D01*
X0117489Y0110338D02*
X0116489Y0110338D01*
X0116489Y0111000D02*
X0116489Y0102137D01*
X0115716Y0102260D01*
X0114902Y0102524D01*
X0114139Y0102913D01*
X0113447Y0103416D01*
X0112842Y0104021D01*
X0112339Y0104713D01*
X0111950Y0105476D01*
X0111686Y0106290D01*
X0111552Y0107135D01*
X0111552Y0111000D01*
X0116489Y0111000D01*
X0116489Y0111336D02*
X0089550Y0111336D01*
X0089550Y0110338D02*
X0111552Y0110338D01*
X0111552Y0109339D02*
X0089550Y0109339D01*
X0089550Y0108341D02*
X0111552Y0108341D01*
X0111552Y0107342D02*
X0089550Y0107342D01*
X0089550Y0106344D02*
X0111677Y0106344D01*
X0112017Y0105345D02*
X0089550Y0105345D01*
X0089550Y0104347D02*
X0112605Y0104347D01*
X0113540Y0103348D02*
X0089550Y0103348D01*
X0089550Y0102350D02*
X0115439Y0102350D01*
X0116489Y0102350D02*
X0117489Y0102350D01*
X0117489Y0103348D02*
X0116489Y0103348D01*
X0116489Y0104347D02*
X0117489Y0104347D01*
X0117489Y0105345D02*
X0116489Y0105345D01*
X0116489Y0106344D02*
X0117489Y0106344D01*
X0117489Y0107342D02*
X0116489Y0107342D01*
X0116489Y0108341D02*
X0117489Y0108341D01*
X0117489Y0109339D02*
X0116489Y0109339D01*
X0116489Y0112335D02*
X0117489Y0112335D01*
X0117489Y0113333D02*
X0116489Y0113333D01*
X0116489Y0114332D02*
X0117489Y0114332D01*
X0117489Y0115330D02*
X0116489Y0115330D01*
X0116489Y0116329D02*
X0117489Y0116329D01*
X0117489Y0117327D02*
X0116489Y0117327D01*
X0116489Y0118326D02*
X0117489Y0118326D01*
X0117489Y0119324D02*
X0116489Y0119324D01*
X0116489Y0120323D02*
X0117489Y0120323D01*
X0119376Y0120323D02*
X0139115Y0120323D01*
X0137486Y0119324D02*
X0120791Y0119324D01*
X0121611Y0118326D02*
X0136533Y0118326D01*
X0136119Y0117327D02*
X0122092Y0117327D01*
X0122352Y0116329D02*
X0135768Y0116329D01*
X0135768Y0115330D02*
X0122426Y0115330D01*
X0122426Y0114332D02*
X0135768Y0114332D01*
X0135768Y0113333D02*
X0122426Y0113333D01*
X0122426Y0112335D02*
X0135768Y0112335D01*
X0135768Y0110338D02*
X0122426Y0110338D01*
X0122426Y0109339D02*
X0135768Y0109339D01*
X0135768Y0108341D02*
X0122426Y0108341D01*
X0122426Y0107342D02*
X0135768Y0107342D01*
X0135841Y0106344D02*
X0122301Y0106344D01*
X0121961Y0105345D02*
X0136255Y0105345D01*
X0136815Y0104347D02*
X0121373Y0104347D01*
X0120438Y0103348D02*
X0137813Y0103348D01*
X0139906Y0102350D02*
X0118538Y0102350D01*
X0122013Y0097252D02*
X0122776Y0097641D01*
X0123590Y0097905D01*
X0124435Y0098039D01*
X0128300Y0098039D01*
X0128300Y0093102D01*
X0128300Y0092102D01*
X0129300Y0092102D01*
X0129300Y0087165D01*
X0133165Y0087165D01*
X0134010Y0087299D01*
X0134824Y0087564D01*
X0135587Y0087952D01*
X0136279Y0088455D01*
X0136884Y0089060D01*
X0137387Y0089753D01*
X0137776Y0090515D01*
X0138040Y0091329D01*
X0138163Y0092102D01*
X0129300Y0092102D01*
X0129300Y0093102D01*
X0138163Y0093102D01*
X0138040Y0093876D01*
X0137776Y0094689D01*
X0137387Y0095452D01*
X0136884Y0096144D01*
X0136279Y0096749D01*
X0135587Y0097252D01*
X0134824Y0097641D01*
X0134010Y0097905D01*
X0133165Y0098039D01*
X0129300Y0098039D01*
X0129300Y0093102D01*
X0128300Y0093102D01*
X0119437Y0093102D01*
X0119560Y0093876D01*
X0119824Y0094689D01*
X0120213Y0095452D01*
X0120716Y0096144D01*
X0121321Y0096749D01*
X0122013Y0097252D01*
X0122219Y0097357D02*
X0089550Y0097357D01*
X0089550Y0096359D02*
X0120930Y0096359D01*
X0120166Y0095360D02*
X0089550Y0095360D01*
X0089550Y0094362D02*
X0119718Y0094362D01*
X0119479Y0093363D02*
X0089550Y0093363D01*
X0089550Y0092365D02*
X0128300Y0092365D01*
X0128300Y0092102D02*
X0119437Y0092102D01*
X0119560Y0091329D01*
X0119824Y0090515D01*
X0120213Y0089753D01*
X0120716Y0089060D01*
X0121321Y0088455D01*
X0122013Y0087952D01*
X0122776Y0087564D01*
X0123590Y0087299D01*
X0124435Y0087165D01*
X0128300Y0087165D01*
X0128300Y0092102D01*
X0128300Y0091366D02*
X0129300Y0091366D01*
X0129300Y0090368D02*
X0128300Y0090368D01*
X0128300Y0089369D02*
X0129300Y0089369D01*
X0129300Y0088370D02*
X0128300Y0088370D01*
X0128300Y0087372D02*
X0129300Y0087372D01*
X0134234Y0087372D02*
X0155354Y0087372D01*
X0154351Y0088370D02*
X0136162Y0088370D01*
X0137108Y0089369D02*
X0153348Y0089369D01*
X0152345Y0090368D02*
X0137700Y0090368D01*
X0138046Y0091366D02*
X0151342Y0091366D01*
X0150339Y0092365D02*
X0129300Y0092365D01*
X0129300Y0093363D02*
X0128300Y0093363D01*
X0128300Y0094362D02*
X0129300Y0094362D01*
X0129300Y0095360D02*
X0128300Y0095360D01*
X0128300Y0096359D02*
X0129300Y0096359D01*
X0129300Y0097357D02*
X0128300Y0097357D01*
X0135381Y0097357D02*
X0145323Y0097357D01*
X0144320Y0098356D02*
X0089550Y0098356D01*
X0089550Y0099354D02*
X0143317Y0099354D01*
X0142314Y0100353D02*
X0089550Y0100353D01*
X0089550Y0101351D02*
X0141311Y0101351D01*
X0136670Y0096359D02*
X0146326Y0096359D01*
X0147329Y0095360D02*
X0137434Y0095360D01*
X0137882Y0094362D02*
X0148333Y0094362D01*
X0149336Y0093363D02*
X0138121Y0093363D01*
X0123366Y0087372D02*
X0089432Y0087372D01*
X0089550Y0088370D02*
X0121438Y0088370D01*
X0120492Y0089369D02*
X0089550Y0089369D01*
X0089550Y0090368D02*
X0119900Y0090368D01*
X0119554Y0091366D02*
X0089550Y0091366D01*
X0089018Y0086373D02*
X0156357Y0086373D01*
X0157360Y0085375D02*
X0088605Y0085375D01*
X0088522Y0085176D02*
X0088522Y0085176D01*
X0087800Y0084376D02*
X0158364Y0084376D01*
X0159367Y0083378D02*
X0086724Y0083378D01*
X0086624Y0083278D02*
X0086624Y0083278D01*
X0084455Y0082379D02*
X0159716Y0082379D01*
X0159925Y0081381D02*
X0027050Y0081381D01*
X0027050Y0080382D02*
X0160556Y0080382D01*
X0167300Y0071000D02*
X0167300Y0068500D01*
X0176541Y0070397D02*
X0133448Y0070397D01*
X0134447Y0069399D02*
X0179356Y0069399D01*
X0180354Y0068400D02*
X0135445Y0068400D01*
X0136444Y0067402D02*
X0181000Y0067402D01*
X0181000Y0066403D02*
X0137442Y0066403D01*
X0138441Y0065405D02*
X0181000Y0065405D01*
X0181000Y0064406D02*
X0139439Y0064406D01*
X0140438Y0063408D02*
X0181000Y0063408D01*
X0181000Y0062409D02*
X0141436Y0062409D01*
X0142435Y0061411D02*
X0181000Y0061411D01*
X0181000Y0060412D02*
X0143250Y0060412D01*
X0143760Y0059414D02*
X0181000Y0059414D01*
X0181000Y0058415D02*
X0143884Y0058415D01*
X0143690Y0057417D02*
X0181000Y0057417D01*
X0181000Y0056418D02*
X0143080Y0056418D01*
X0140800Y0058500D02*
X0140800Y0060500D01*
X0129300Y0072000D01*
X0126539Y0073393D02*
X0027050Y0073393D01*
X0027050Y0074391D02*
X0127330Y0074391D01*
X0126216Y0072394D02*
X0027050Y0072394D01*
X0027050Y0071396D02*
X0126216Y0071396D01*
X0126625Y0070397D02*
X0114243Y0070397D01*
X0109957Y0070397D02*
X0027050Y0070397D01*
X0027050Y0069399D02*
X0109169Y0069399D01*
X0108819Y0068400D02*
X0027050Y0068400D01*
X0027050Y0067402D02*
X0108819Y0067402D01*
X0109169Y0066403D02*
X0027050Y0066403D01*
X0027050Y0065405D02*
X0109955Y0065405D01*
X0114245Y0065405D02*
X0128708Y0065405D01*
X0129707Y0064406D02*
X0027050Y0064406D01*
X0027050Y0063408D02*
X0130705Y0063408D01*
X0131704Y0062409D02*
X0027050Y0062409D01*
X0027050Y0061411D02*
X0132702Y0061411D01*
X0133216Y0060412D02*
X0027050Y0060412D01*
X0027050Y0059414D02*
X0133412Y0059414D01*
X0134023Y0058415D02*
X0027050Y0058415D01*
X0027050Y0057417D02*
X0135684Y0057417D01*
X0136916Y0057417D02*
X0137910Y0057417D01*
X0138520Y0056418D02*
X0027050Y0056418D01*
X0027050Y0077387D02*
X0184000Y0077387D01*
X0184000Y0078385D02*
X0027050Y0078385D01*
X0027050Y0079384D02*
X0184000Y0079384D01*
X0185800Y0082500D02*
X0185800Y0057500D01*
X0187300Y0056000D01*
X0274300Y0056000D01*
X0284300Y0045500D02*
X0290800Y0046000D01*
X0293800Y0047500D02*
X0290800Y0050500D01*
X0290800Y0060500D01*
X0297300Y0055000D02*
X0312800Y0055000D01*
X0312800Y0036500D01*
X0297800Y0043500D02*
X0296800Y0042500D01*
X0296800Y0027500D01*
X0302800Y0021500D01*
X0302800Y0006000D01*
X0292800Y0006000D02*
X0292800Y0022500D01*
X0294300Y0024000D01*
X0294300Y0039000D01*
X0293800Y0039500D01*
X0293800Y0047500D01*
X0289300Y0041500D02*
X0289300Y0035000D01*
X0287300Y0033000D01*
X0279800Y0033000D01*
X0272500Y0026800D02*
X0272500Y0024300D01*
X0277800Y0019000D01*
X0277300Y0025000D02*
X0261300Y0041000D01*
X0261300Y0044000D01*
X0254300Y0041500D02*
X0264800Y0031000D01*
X0264800Y0021500D01*
X0267800Y0019000D01*
X0258800Y0026000D02*
X0255800Y0026000D01*
X0255300Y0026500D01*
X0248800Y0026500D01*
X0245800Y0023500D01*
X0214800Y0023500D01*
X0212800Y0021500D01*
X0212800Y0015500D01*
X0211300Y0014000D01*
X0164800Y0014000D01*
X0160300Y0018500D01*
X0158300Y0018500D01*
X0157800Y0019000D01*
X0152300Y0023500D02*
X0147800Y0019000D01*
X0152300Y0023500D02*
X0210800Y0023500D01*
X0212800Y0025500D01*
X0243300Y0025500D01*
X0248800Y0030500D01*
X0256300Y0030500D01*
X0253892Y0032454D02*
X0230712Y0032454D01*
X0229630Y0033452D02*
X0255368Y0033452D01*
X0255804Y0034451D02*
X0241498Y0034451D01*
X0240102Y0034451D02*
X0228549Y0034451D01*
X0227467Y0035449D02*
X0238489Y0035449D01*
X0237897Y0036448D02*
X0226385Y0036448D01*
X0224323Y0033452D02*
X0185100Y0033452D01*
X0185100Y0032454D02*
X0225405Y0032454D01*
X0226486Y0031455D02*
X0185100Y0031455D01*
X0185100Y0030457D02*
X0227568Y0030457D01*
X0223241Y0034451D02*
X0185100Y0034451D01*
X0185100Y0035449D02*
X0222159Y0035449D01*
X0221078Y0036448D02*
X0185100Y0036448D01*
X0185100Y0037446D02*
X0219996Y0037446D01*
X0218914Y0038445D02*
X0205607Y0038445D01*
X0201993Y0038445D02*
X0185100Y0038445D01*
X0185100Y0039443D02*
X0201106Y0039443D01*
X0200716Y0040442D02*
X0185100Y0040442D01*
X0185100Y0041440D02*
X0200716Y0041440D01*
X0201058Y0042439D02*
X0185100Y0042439D01*
X0185100Y0043437D02*
X0201876Y0043437D01*
X0185100Y0044436D02*
X0237902Y0044436D01*
X0237716Y0045434D02*
X0185122Y0045434D01*
X0185100Y0046433D02*
X0237848Y0046433D01*
X0238370Y0047432D02*
X0184784Y0047432D01*
X0182598Y0025464D02*
X0139434Y0025464D01*
X0137800Y0019000D02*
X0142800Y0014000D01*
X0142800Y0006000D01*
X0086502Y0023467D02*
X0069899Y0023467D01*
X0072310Y0022469D02*
X0084693Y0022469D01*
X0083848Y0021470D02*
X0073835Y0021470D01*
X0074834Y0020472D02*
X0083389Y0020472D01*
X0065701Y0023467D02*
X0027050Y0023467D01*
X0027050Y0022469D02*
X0063290Y0022469D01*
X0061764Y0021470D02*
X0027050Y0021470D01*
X0027050Y0020472D02*
X0060766Y0020472D01*
X0059767Y0019473D02*
X0027050Y0019473D01*
X0027050Y0018475D02*
X0059317Y0018475D01*
X0058903Y0017476D02*
X0027050Y0017476D01*
X0027050Y0016478D02*
X0058489Y0016478D01*
X0058250Y0015479D02*
X0027050Y0015479D01*
X0027050Y0014481D02*
X0058250Y0014481D01*
X0058250Y0013482D02*
X0027050Y0013482D01*
X0027050Y0012484D02*
X0058250Y0012484D01*
X0058505Y0011485D02*
X0027051Y0011485D01*
X0027130Y0010487D02*
X0058918Y0010487D01*
X0059332Y0009488D02*
X0027386Y0009488D01*
X0138300Y0045000D02*
X0138800Y0045500D01*
X0140300Y0045500D01*
X0144900Y0079300D02*
X0145300Y0080000D01*
X0186919Y0085375D02*
X0242505Y0085375D01*
X0243483Y0084376D02*
X0188285Y0084376D01*
X0188775Y0083378D02*
X0244502Y0083378D01*
X0247900Y0103348D02*
X0281314Y0103348D01*
X0280850Y0104347D02*
X0247900Y0104347D01*
X0247900Y0105345D02*
X0280850Y0105345D01*
X0280850Y0106344D02*
X0247900Y0106344D01*
X0247900Y0107342D02*
X0280850Y0107342D01*
X0280850Y0108341D02*
X0247900Y0108341D01*
X0247900Y0109339D02*
X0280850Y0109339D01*
X0280850Y0110338D02*
X0247900Y0110338D01*
X0317300Y0055000D02*
X0322800Y0060000D01*
X0343300Y0060000D01*
X0347800Y0064500D01*
X0347800Y0101500D01*
X0345800Y0103500D01*
X0341300Y0103500D01*
X0317300Y0055000D02*
X0312800Y0055000D01*
X0272500Y0026800D02*
X0253800Y0045500D01*
X0240800Y0045500D01*
X0243300Y0041500D02*
X0254300Y0041500D01*
X0254805Y0035449D02*
X0243111Y0035449D01*
X0247175Y0031455D02*
X0233706Y0031455D01*
X0234535Y0030457D02*
X0246077Y0030457D01*
X0244978Y0029458D02*
X0234884Y0029458D01*
X0234884Y0028460D02*
X0243880Y0028460D01*
X0242782Y0027461D02*
X0234501Y0027461D01*
X0252800Y0023000D02*
X0252800Y0016000D01*
X0250800Y0014000D01*
X0220800Y0014000D01*
X0217800Y0011000D01*
X0217800Y0009000D01*
X0225300Y0044500D02*
X0225800Y0047000D01*
X0220800Y0052500D02*
X0221300Y0053500D01*
X0114602Y0120323D02*
X0089550Y0120323D01*
X0089550Y0119324D02*
X0113187Y0119324D01*
X0112367Y0118326D02*
X0089550Y0118326D01*
X0089550Y0117327D02*
X0111886Y0117327D01*
X0111625Y0116329D02*
X0089550Y0116329D01*
X0089550Y0115330D02*
X0111552Y0115330D01*
X0111552Y0114332D02*
X0089550Y0114332D01*
X0089550Y0113333D02*
X0111552Y0113333D01*
X0111552Y0112335D02*
X0089550Y0112335D01*
X0111300Y0136500D02*
X0109800Y0138500D01*
X0109300Y0138500D01*
X0109379Y0147283D02*
X0110008Y0147283D01*
X0105221Y0147283D02*
X0097884Y0147283D01*
X0097710Y0151277D02*
X0088956Y0151277D01*
X0088542Y0152275D02*
X0096789Y0152275D01*
X0094322Y0153274D02*
X0087572Y0153274D01*
X0088522Y0152324D02*
X0088522Y0152324D01*
X0086503Y0154272D02*
X0093177Y0154272D01*
X0092764Y0155271D02*
X0027642Y0155271D01*
X0027050Y0156269D02*
X0092716Y0156269D01*
X0092987Y0157268D02*
X0027050Y0157268D01*
X0027050Y0158266D02*
X0093704Y0158266D01*
X0087800Y0200204D02*
X0087316Y0200204D01*
X0087316Y0201202D02*
X0087800Y0201202D01*
X0087800Y0202201D02*
X0087316Y0202201D01*
X0087316Y0203199D02*
X0087800Y0203199D01*
D18*
X0092800Y0204000D03*
X0124300Y0193000D03*
X0142800Y0205500D03*
X0154300Y0191000D03*
X0165500Y0191000D03*
X0172300Y0190500D03*
X0178300Y0189500D03*
X0190800Y0186000D03*
X0196800Y0181500D03*
X0199800Y0178500D03*
X0202800Y0181500D03*
X0201300Y0161000D03*
X0209800Y0161000D03*
X0193300Y0153500D03*
X0172300Y0174600D03*
X0157300Y0173300D03*
X0154300Y0165400D03*
X0138300Y0155000D03*
X0138300Y0148000D03*
X0138300Y0141000D03*
X0136300Y0134000D03*
X0123800Y0136500D03*
X0111300Y0136500D03*
X0107300Y0145000D03*
X0111300Y0153500D03*
X0123300Y0155500D03*
X0125300Y0153000D03*
X0127300Y0155500D03*
X0129300Y0153000D03*
X0114800Y0170500D03*
X0110800Y0170500D03*
X0095800Y0156000D03*
X0094800Y0147000D03*
X0065300Y0159500D03*
X0052300Y0168500D03*
X0043800Y0171000D03*
X0041100Y0204900D03*
X0200800Y0126000D03*
X0203300Y0123000D03*
X0200800Y0120000D03*
X0205800Y0120000D03*
X0208300Y0123000D03*
X0205800Y0126000D03*
X0210800Y0126000D03*
X0210800Y0120000D03*
X0223800Y0113500D03*
X0223800Y0096000D03*
X0217300Y0095500D03*
X0215800Y0084000D03*
X0236300Y0076500D03*
X0259700Y0070600D03*
X0275300Y0066000D03*
X0290800Y0060500D03*
X0297300Y0055000D03*
X0297800Y0043500D03*
X0289300Y0041500D03*
X0284300Y0037500D03*
X0279800Y0033000D03*
X0273800Y0037000D03*
X0274800Y0042000D03*
X0261300Y0044000D03*
X0272300Y0052661D03*
X0243300Y0049500D03*
X0240800Y0045500D03*
X0243300Y0041500D03*
X0240800Y0037500D03*
X0231800Y0029000D03*
X0252800Y0023000D03*
X0258800Y0026000D03*
X0256300Y0030500D03*
X0277300Y0025000D03*
X0312800Y0036500D03*
X0317300Y0042500D03*
X0234300Y0062000D03*
X0220800Y0052500D03*
X0225800Y0047000D03*
X0214300Y0061500D03*
X0203800Y0041000D03*
X0181700Y0047100D03*
X0177500Y0041500D03*
X0185300Y0027000D03*
X0138300Y0045000D03*
X0140800Y0058500D03*
X0136300Y0060500D03*
X0129300Y0072000D03*
X0144900Y0079300D03*
X0162800Y0082500D03*
X0180800Y0082500D03*
X0185800Y0082500D03*
X0178800Y0072500D03*
X0167300Y0068500D03*
X0164800Y0058000D03*
X0132800Y0028500D03*
X0115300Y0037500D03*
X0113800Y0045000D03*
X0093800Y0063000D03*
X0093800Y0073000D03*
X0077300Y0053000D03*
X0053300Y0041000D03*
X0033300Y0057000D03*
X0085300Y0033500D03*
X0033300Y0021500D03*
X0241500Y0136000D03*
X0257800Y0136500D03*
X0261800Y0131000D03*
X0270300Y0145000D03*
X0267300Y0149500D03*
X0315300Y0129000D03*
X0323800Y0127000D03*
X0327300Y0131500D03*
X0338800Y0129000D03*
X0342300Y0133500D03*
X0345300Y0126000D03*
X0346800Y0113500D03*
X0342800Y0113500D03*
X0328300Y0114000D03*
X0321300Y0113500D03*
X0317300Y0113500D03*
X0341300Y0103500D03*
X0265300Y0115000D03*
X0318800Y0165500D03*
X0344300Y0178000D03*
X0301800Y0187500D03*
X0297800Y0190000D03*
X0290300Y0182000D03*
X0294800Y0204000D03*
X0242900Y0212300D03*
X0241300Y0194000D03*
D19*
X0256400Y0109800D02*
X0261300Y0109800D01*
X0336750Y0042500D02*
X0343300Y0049550D01*
X0336750Y0042500D02*
X0317300Y0042500D01*
D20*
X0288500Y0068300D03*
X0291200Y0072100D03*
X0288100Y0075200D03*
X0291200Y0078300D03*
X0294300Y0081400D03*
X0294300Y0075200D03*
X0271000Y0070200D03*
X0249100Y0086800D03*
X0248700Y0090400D03*
X0245100Y0090800D03*
X0245400Y0087100D03*
X0241400Y0091200D03*
X0240900Y0094900D03*
X0244600Y0094400D03*
X0258900Y0106900D03*
X0261300Y0109800D03*
X0256400Y0109800D03*
X0211800Y0144900D03*
X0211800Y0149000D03*
X0214800Y0152000D03*
X0217800Y0154800D03*
X0220800Y0152000D03*
X0217800Y0149000D03*
X0223800Y0149000D03*
X0226800Y0152000D03*
X0229700Y0155000D03*
X0223800Y0155000D03*
X0229800Y0149000D03*
X0123500Y0072300D03*
X0112100Y0067900D03*
X0112000Y0062500D03*
D21*
X0110300Y0060700D01*
X0110300Y0057100D01*
X0110700Y0056700D01*
X0114100Y0056700D01*
X0112100Y0067900D02*
X0128900Y0067900D01*
X0136300Y0060500D01*
X0123500Y0072300D02*
X0123500Y0073100D01*
X0123100Y0073500D01*
X0214300Y0061500D02*
X0215300Y0062500D01*
X0231800Y0063500D02*
X0233300Y0062000D01*
X0234300Y0062000D01*
D22*
X0221300Y0053500D02*
X0271361Y0053600D01*
X0272300Y0052661D01*
X0284300Y0045500D02*
X0284300Y0037500D01*
X0284300Y0045500D02*
X0284300Y0066000D01*
X0221300Y0053500D02*
X0178800Y0053500D01*
X0158300Y0053500D01*
X0158300Y0045000D01*
X0155800Y0045000D01*
X0148300Y0037500D01*
X0115300Y0037500D01*
X0097800Y0020000D01*
X0097800Y0019000D01*
X0162800Y0057500D02*
X0164300Y0057500D01*
X0164800Y0058000D01*
X0200800Y0126000D02*
X0200800Y0128500D01*
X0241500Y0136000D02*
X0245800Y0136000D01*
X0257800Y0136500D02*
X0258300Y0139000D01*
D23*
X0242300Y0133000D02*
X0242300Y0093500D01*
X0247800Y0088000D01*
D24*
X0242300Y0133000D02*
X0241500Y0136000D01*
D25*
X0294800Y0204000D02*
X0292900Y0205900D01*
X0292900Y0211500D01*
X0290900Y0213500D01*
X0252300Y0213500D01*
X0247800Y0209000D01*
X0214300Y0215300D02*
X0212800Y0214000D01*
X0214300Y0215300D02*
X0298000Y0215300D01*
X0299300Y0214000D01*
X0308900Y0214000D01*
X0207800Y0209000D02*
X0201300Y0215300D01*
X0136600Y0215300D01*
X0132800Y0211500D01*
X0137800Y0209000D02*
X0141800Y0213500D01*
X0191800Y0213500D01*
X0193300Y0212000D01*
X0157800Y0009000D02*
X0162300Y0004400D01*
X0291300Y0004400D01*
X0292800Y0006000D01*
X0299800Y0002700D02*
X0302800Y0006000D01*
X0299800Y0002700D02*
X0145800Y0002700D01*
X0142800Y0006000D01*
M02*
