G75*
%MOIN*%
%OFA0B0*%
%FSLAX25Y25*%
%IPPOS*%
%LPD*%
%AMOC8*
5,1,8,0,0,1.08239X$1,22.5*
%
%ADD10C,0.00500*%
%ADD11C,0.00050*%
D10*
X0025300Y0011500D02*
X0025300Y0081500D01*
X0025302Y0081598D01*
X0025308Y0081696D01*
X0025317Y0081794D01*
X0025331Y0081891D01*
X0025348Y0081988D01*
X0025369Y0082084D01*
X0025394Y0082179D01*
X0025422Y0082273D01*
X0025455Y0082365D01*
X0025490Y0082457D01*
X0025530Y0082547D01*
X0025572Y0082635D01*
X0025619Y0082722D01*
X0025668Y0082806D01*
X0025721Y0082889D01*
X0025777Y0082969D01*
X0025837Y0083048D01*
X0025899Y0083124D01*
X0025964Y0083197D01*
X0026032Y0083268D01*
X0026103Y0083336D01*
X0026176Y0083401D01*
X0026252Y0083463D01*
X0026331Y0083523D01*
X0026411Y0083579D01*
X0026494Y0083632D01*
X0026578Y0083681D01*
X0026665Y0083728D01*
X0026753Y0083770D01*
X0026843Y0083810D01*
X0026935Y0083845D01*
X0027027Y0083878D01*
X0027121Y0083906D01*
X0027216Y0083931D01*
X0027312Y0083952D01*
X0027409Y0083969D01*
X0027506Y0083983D01*
X0027604Y0083992D01*
X0027702Y0083998D01*
X0027800Y0084000D01*
X0082800Y0084000D01*
X0087800Y0089000D02*
X0087800Y0148500D01*
X0087798Y0148640D01*
X0087792Y0148780D01*
X0087782Y0148920D01*
X0087769Y0149060D01*
X0087751Y0149199D01*
X0087729Y0149338D01*
X0087704Y0149475D01*
X0087675Y0149613D01*
X0087642Y0149749D01*
X0087605Y0149884D01*
X0087564Y0150018D01*
X0087519Y0150151D01*
X0087471Y0150283D01*
X0087419Y0150413D01*
X0087364Y0150542D01*
X0087305Y0150669D01*
X0087242Y0150795D01*
X0087176Y0150919D01*
X0087107Y0151040D01*
X0087034Y0151160D01*
X0086957Y0151278D01*
X0086878Y0151393D01*
X0086795Y0151507D01*
X0086709Y0151617D01*
X0086620Y0151726D01*
X0086528Y0151832D01*
X0086433Y0151935D01*
X0086336Y0152036D01*
X0086235Y0152133D01*
X0086132Y0152228D01*
X0086026Y0152320D01*
X0085917Y0152409D01*
X0085807Y0152495D01*
X0085693Y0152578D01*
X0085578Y0152657D01*
X0085460Y0152734D01*
X0085340Y0152807D01*
X0085219Y0152876D01*
X0085095Y0152942D01*
X0084969Y0153005D01*
X0084842Y0153064D01*
X0084713Y0153119D01*
X0084583Y0153171D01*
X0084451Y0153219D01*
X0084318Y0153264D01*
X0084184Y0153305D01*
X0084049Y0153342D01*
X0083913Y0153375D01*
X0083775Y0153404D01*
X0083638Y0153429D01*
X0083499Y0153451D01*
X0083360Y0153469D01*
X0083220Y0153482D01*
X0083080Y0153492D01*
X0082940Y0153498D01*
X0082800Y0153500D01*
X0027800Y0153500D01*
X0027702Y0153502D01*
X0027604Y0153508D01*
X0027506Y0153517D01*
X0027409Y0153531D01*
X0027312Y0153548D01*
X0027216Y0153569D01*
X0027121Y0153594D01*
X0027027Y0153622D01*
X0026935Y0153655D01*
X0026843Y0153690D01*
X0026753Y0153730D01*
X0026665Y0153772D01*
X0026578Y0153819D01*
X0026494Y0153868D01*
X0026411Y0153921D01*
X0026331Y0153977D01*
X0026252Y0154037D01*
X0026176Y0154099D01*
X0026103Y0154164D01*
X0026032Y0154232D01*
X0025964Y0154303D01*
X0025899Y0154376D01*
X0025837Y0154452D01*
X0025777Y0154531D01*
X0025721Y0154611D01*
X0025668Y0154694D01*
X0025619Y0154778D01*
X0025572Y0154865D01*
X0025530Y0154953D01*
X0025490Y0155043D01*
X0025455Y0155135D01*
X0025422Y0155227D01*
X0025394Y0155321D01*
X0025369Y0155416D01*
X0025348Y0155512D01*
X0025331Y0155609D01*
X0025317Y0155706D01*
X0025308Y0155804D01*
X0025302Y0155902D01*
X0025300Y0156000D01*
X0025300Y0206500D01*
X0025303Y0206742D01*
X0025312Y0206983D01*
X0025326Y0207224D01*
X0025347Y0207465D01*
X0025373Y0207705D01*
X0025405Y0207945D01*
X0025443Y0208184D01*
X0025486Y0208421D01*
X0025536Y0208658D01*
X0025591Y0208893D01*
X0025651Y0209127D01*
X0025718Y0209359D01*
X0025789Y0209590D01*
X0025867Y0209819D01*
X0025950Y0210046D01*
X0026038Y0210271D01*
X0026132Y0210494D01*
X0026231Y0210714D01*
X0026336Y0210932D01*
X0026445Y0211147D01*
X0026560Y0211360D01*
X0026680Y0211570D01*
X0026805Y0211776D01*
X0026935Y0211980D01*
X0027070Y0212181D01*
X0027210Y0212378D01*
X0027354Y0212572D01*
X0027503Y0212762D01*
X0027657Y0212948D01*
X0027815Y0213131D01*
X0027977Y0213310D01*
X0028144Y0213485D01*
X0028315Y0213656D01*
X0028490Y0213823D01*
X0028669Y0213985D01*
X0028852Y0214143D01*
X0029038Y0214297D01*
X0029228Y0214446D01*
X0029422Y0214590D01*
X0029619Y0214730D01*
X0029820Y0214865D01*
X0030024Y0214995D01*
X0030230Y0215120D01*
X0030440Y0215240D01*
X0030653Y0215355D01*
X0030868Y0215464D01*
X0031086Y0215569D01*
X0031306Y0215668D01*
X0031529Y0215762D01*
X0031754Y0215850D01*
X0031981Y0215933D01*
X0032210Y0216011D01*
X0032441Y0216082D01*
X0032673Y0216149D01*
X0032907Y0216209D01*
X0033142Y0216264D01*
X0033379Y0216314D01*
X0033616Y0216357D01*
X0033855Y0216395D01*
X0034095Y0216427D01*
X0034335Y0216453D01*
X0034576Y0216474D01*
X0034817Y0216488D01*
X0035058Y0216497D01*
X0035300Y0216500D01*
X0300300Y0216500D01*
X0301508Y0216485D01*
X0302716Y0216442D01*
X0303922Y0216369D01*
X0305126Y0216267D01*
X0306327Y0216135D01*
X0307524Y0215975D01*
X0308718Y0215786D01*
X0309906Y0215569D01*
X0311089Y0215322D01*
X0312266Y0215047D01*
X0313435Y0214744D01*
X0314597Y0214412D01*
X0315751Y0214053D01*
X0316895Y0213666D01*
X0318030Y0213251D01*
X0319155Y0212809D01*
X0320268Y0212340D01*
X0321370Y0211844D01*
X0322460Y0211321D01*
X0323536Y0210773D01*
X0324599Y0210198D01*
X0325648Y0209598D01*
X0326682Y0208973D01*
X0327701Y0208324D01*
X0328703Y0207649D01*
X0329689Y0206951D01*
X0330658Y0206229D01*
X0331609Y0205484D01*
X0332542Y0204716D01*
X0333456Y0203926D01*
X0334351Y0203113D01*
X0335226Y0202280D01*
X0336080Y0201426D01*
X0336913Y0200551D01*
X0337726Y0199656D01*
X0338516Y0198742D01*
X0339284Y0197809D01*
X0340029Y0196858D01*
X0340751Y0195889D01*
X0341449Y0194903D01*
X0342124Y0193901D01*
X0342773Y0192882D01*
X0343398Y0191848D01*
X0343998Y0190799D01*
X0344573Y0189736D01*
X0345121Y0188660D01*
X0345644Y0187570D01*
X0346140Y0186468D01*
X0346609Y0185355D01*
X0347051Y0184230D01*
X0347466Y0183095D01*
X0347853Y0181951D01*
X0348212Y0180797D01*
X0348544Y0179635D01*
X0348847Y0178466D01*
X0349122Y0177289D01*
X0349369Y0176106D01*
X0349586Y0174918D01*
X0349775Y0173724D01*
X0349935Y0172527D01*
X0350067Y0171326D01*
X0350169Y0170122D01*
X0350242Y0168916D01*
X0350285Y0167708D01*
X0350300Y0166500D01*
X0350300Y0051500D01*
X0350285Y0050292D01*
X0350242Y0049084D01*
X0350169Y0047878D01*
X0350067Y0046674D01*
X0349935Y0045473D01*
X0349775Y0044276D01*
X0349586Y0043082D01*
X0349369Y0041894D01*
X0349122Y0040711D01*
X0348847Y0039534D01*
X0348544Y0038365D01*
X0348212Y0037203D01*
X0347853Y0036049D01*
X0347466Y0034905D01*
X0347051Y0033770D01*
X0346609Y0032645D01*
X0346140Y0031532D01*
X0345644Y0030430D01*
X0345121Y0029340D01*
X0344573Y0028264D01*
X0343998Y0027201D01*
X0343398Y0026152D01*
X0342773Y0025118D01*
X0342124Y0024099D01*
X0341449Y0023097D01*
X0340751Y0022111D01*
X0340029Y0021142D01*
X0339284Y0020191D01*
X0338516Y0019258D01*
X0337726Y0018344D01*
X0336913Y0017449D01*
X0336080Y0016574D01*
X0335226Y0015720D01*
X0334351Y0014887D01*
X0333456Y0014074D01*
X0332542Y0013284D01*
X0331609Y0012516D01*
X0330658Y0011771D01*
X0329689Y0011049D01*
X0328703Y0010351D01*
X0327701Y0009676D01*
X0326682Y0009027D01*
X0325648Y0008402D01*
X0324599Y0007802D01*
X0323536Y0007227D01*
X0322460Y0006679D01*
X0321370Y0006156D01*
X0320268Y0005660D01*
X0319155Y0005191D01*
X0318030Y0004749D01*
X0316895Y0004334D01*
X0315751Y0003947D01*
X0314597Y0003588D01*
X0313435Y0003256D01*
X0312266Y0002953D01*
X0311089Y0002678D01*
X0309906Y0002431D01*
X0308718Y0002214D01*
X0307524Y0002025D01*
X0306327Y0001865D01*
X0305126Y0001733D01*
X0303922Y0001631D01*
X0302716Y0001558D01*
X0301508Y0001515D01*
X0300300Y0001500D01*
X0035300Y0001500D01*
X0035058Y0001503D01*
X0034817Y0001512D01*
X0034576Y0001526D01*
X0034335Y0001547D01*
X0034095Y0001573D01*
X0033855Y0001605D01*
X0033616Y0001643D01*
X0033379Y0001686D01*
X0033142Y0001736D01*
X0032907Y0001791D01*
X0032673Y0001851D01*
X0032441Y0001918D01*
X0032210Y0001989D01*
X0031981Y0002067D01*
X0031754Y0002150D01*
X0031529Y0002238D01*
X0031306Y0002332D01*
X0031086Y0002431D01*
X0030868Y0002536D01*
X0030653Y0002645D01*
X0030440Y0002760D01*
X0030230Y0002880D01*
X0030024Y0003005D01*
X0029820Y0003135D01*
X0029619Y0003270D01*
X0029422Y0003410D01*
X0029228Y0003554D01*
X0029038Y0003703D01*
X0028852Y0003857D01*
X0028669Y0004015D01*
X0028490Y0004177D01*
X0028315Y0004344D01*
X0028144Y0004515D01*
X0027977Y0004690D01*
X0027815Y0004869D01*
X0027657Y0005052D01*
X0027503Y0005238D01*
X0027354Y0005428D01*
X0027210Y0005622D01*
X0027070Y0005819D01*
X0026935Y0006020D01*
X0026805Y0006224D01*
X0026680Y0006430D01*
X0026560Y0006640D01*
X0026445Y0006853D01*
X0026336Y0007068D01*
X0026231Y0007286D01*
X0026132Y0007506D01*
X0026038Y0007729D01*
X0025950Y0007954D01*
X0025867Y0008181D01*
X0025789Y0008410D01*
X0025718Y0008641D01*
X0025651Y0008873D01*
X0025591Y0009107D01*
X0025536Y0009342D01*
X0025486Y0009579D01*
X0025443Y0009816D01*
X0025405Y0010055D01*
X0025373Y0010295D01*
X0025347Y0010535D01*
X0025326Y0010776D01*
X0025312Y0011017D01*
X0025303Y0011258D01*
X0025300Y0011500D01*
D11*
X0082824Y0083776D02*
X0082824Y0084226D01*
X0082825Y0084225D02*
X0082960Y0084228D01*
X0083096Y0084234D01*
X0083231Y0084244D01*
X0083366Y0084259D01*
X0083500Y0084277D01*
X0083633Y0084298D01*
X0083767Y0084324D01*
X0083899Y0084353D01*
X0084030Y0084386D01*
X0084161Y0084423D01*
X0084290Y0084463D01*
X0084418Y0084507D01*
X0084545Y0084555D01*
X0084670Y0084606D01*
X0084794Y0084661D01*
X0084916Y0084720D01*
X0085037Y0084781D01*
X0085156Y0084846D01*
X0085272Y0084915D01*
X0085387Y0084987D01*
X0085500Y0085062D01*
X0085611Y0085140D01*
X0085719Y0085221D01*
X0085825Y0085305D01*
X0085929Y0085393D01*
X0086030Y0085483D01*
X0086128Y0085576D01*
X0086224Y0085672D01*
X0086317Y0085770D01*
X0086407Y0085871D01*
X0086495Y0085975D01*
X0086579Y0086081D01*
X0086660Y0086189D01*
X0086738Y0086300D01*
X0086813Y0086413D01*
X0086885Y0086528D01*
X0086954Y0086644D01*
X0087019Y0086763D01*
X0087080Y0086884D01*
X0087139Y0087006D01*
X0087194Y0087130D01*
X0087245Y0087255D01*
X0087293Y0087382D01*
X0087337Y0087510D01*
X0087377Y0087639D01*
X0087414Y0087770D01*
X0087447Y0087901D01*
X0087476Y0088033D01*
X0087502Y0088167D01*
X0087523Y0088300D01*
X0087541Y0088434D01*
X0087556Y0088569D01*
X0087566Y0088704D01*
X0087572Y0088840D01*
X0087575Y0088975D01*
X0088024Y0088976D01*
X0088025Y0088975D01*
X0088022Y0088832D01*
X0088016Y0088689D01*
X0088005Y0088546D01*
X0087991Y0088404D01*
X0087973Y0088262D01*
X0087950Y0088121D01*
X0087924Y0087980D01*
X0087895Y0087840D01*
X0087861Y0087701D01*
X0087823Y0087563D01*
X0087782Y0087426D01*
X0087737Y0087290D01*
X0087688Y0087155D01*
X0087636Y0087022D01*
X0087580Y0086890D01*
X0087521Y0086760D01*
X0087457Y0086632D01*
X0087391Y0086505D01*
X0087321Y0086380D01*
X0087247Y0086257D01*
X0087171Y0086137D01*
X0087091Y0086018D01*
X0087007Y0085902D01*
X0086921Y0085788D01*
X0086831Y0085676D01*
X0086739Y0085567D01*
X0086643Y0085460D01*
X0086545Y0085356D01*
X0086444Y0085255D01*
X0086340Y0085157D01*
X0086233Y0085061D01*
X0086124Y0084969D01*
X0086012Y0084879D01*
X0085898Y0084793D01*
X0085782Y0084709D01*
X0085663Y0084629D01*
X0085543Y0084553D01*
X0085420Y0084479D01*
X0085295Y0084409D01*
X0085168Y0084343D01*
X0085040Y0084279D01*
X0084910Y0084220D01*
X0084778Y0084164D01*
X0084645Y0084112D01*
X0084510Y0084063D01*
X0084374Y0084018D01*
X0084237Y0083977D01*
X0084099Y0083939D01*
X0083960Y0083905D01*
X0083820Y0083876D01*
X0083679Y0083850D01*
X0083538Y0083827D01*
X0083396Y0083809D01*
X0083254Y0083795D01*
X0083111Y0083784D01*
X0082968Y0083778D01*
X0082825Y0083775D01*
X0082825Y0083822D01*
X0082967Y0083825D01*
X0083108Y0083831D01*
X0083250Y0083842D01*
X0083391Y0083856D01*
X0083532Y0083874D01*
X0083672Y0083896D01*
X0083811Y0083922D01*
X0083950Y0083951D01*
X0084088Y0083985D01*
X0084225Y0084022D01*
X0084360Y0084063D01*
X0084495Y0084107D01*
X0084628Y0084156D01*
X0084760Y0084207D01*
X0084891Y0084263D01*
X0085020Y0084322D01*
X0085147Y0084384D01*
X0085273Y0084450D01*
X0085396Y0084520D01*
X0085518Y0084593D01*
X0085638Y0084669D01*
X0085755Y0084748D01*
X0085870Y0084831D01*
X0085984Y0084916D01*
X0086094Y0085005D01*
X0086202Y0085097D01*
X0086308Y0085191D01*
X0086411Y0085289D01*
X0086511Y0085389D01*
X0086609Y0085492D01*
X0086703Y0085598D01*
X0086795Y0085706D01*
X0086884Y0085816D01*
X0086969Y0085930D01*
X0087052Y0086045D01*
X0087131Y0086162D01*
X0087207Y0086282D01*
X0087280Y0086404D01*
X0087350Y0086527D01*
X0087416Y0086653D01*
X0087478Y0086780D01*
X0087537Y0086909D01*
X0087593Y0087040D01*
X0087644Y0087172D01*
X0087693Y0087305D01*
X0087737Y0087440D01*
X0087778Y0087575D01*
X0087815Y0087712D01*
X0087849Y0087850D01*
X0087878Y0087989D01*
X0087904Y0088128D01*
X0087926Y0088268D01*
X0087944Y0088409D01*
X0087958Y0088550D01*
X0087969Y0088692D01*
X0087975Y0088833D01*
X0087978Y0088975D01*
X0087931Y0088975D01*
X0087928Y0088835D01*
X0087922Y0088694D01*
X0087912Y0088554D01*
X0087897Y0088414D01*
X0087879Y0088275D01*
X0087858Y0088136D01*
X0087832Y0087998D01*
X0087803Y0087860D01*
X0087770Y0087724D01*
X0087733Y0087588D01*
X0087692Y0087454D01*
X0087648Y0087320D01*
X0087600Y0087188D01*
X0087549Y0087057D01*
X0087494Y0086928D01*
X0087436Y0086800D01*
X0087374Y0086674D01*
X0087308Y0086550D01*
X0087239Y0086427D01*
X0087167Y0086307D01*
X0087092Y0086188D01*
X0087013Y0086072D01*
X0086932Y0085957D01*
X0086847Y0085845D01*
X0086759Y0085736D01*
X0086668Y0085629D01*
X0086574Y0085524D01*
X0086478Y0085422D01*
X0086378Y0085322D01*
X0086276Y0085226D01*
X0086171Y0085132D01*
X0086064Y0085041D01*
X0085955Y0084953D01*
X0085843Y0084868D01*
X0085728Y0084787D01*
X0085612Y0084708D01*
X0085493Y0084633D01*
X0085373Y0084561D01*
X0085250Y0084492D01*
X0085126Y0084426D01*
X0085000Y0084364D01*
X0084872Y0084306D01*
X0084743Y0084251D01*
X0084612Y0084200D01*
X0084480Y0084152D01*
X0084346Y0084108D01*
X0084212Y0084067D01*
X0084076Y0084030D01*
X0083940Y0083997D01*
X0083802Y0083968D01*
X0083664Y0083942D01*
X0083525Y0083921D01*
X0083386Y0083903D01*
X0083246Y0083888D01*
X0083106Y0083878D01*
X0082965Y0083872D01*
X0082825Y0083869D01*
X0082825Y0083916D01*
X0082967Y0083919D01*
X0083108Y0083925D01*
X0083250Y0083936D01*
X0083391Y0083950D01*
X0083531Y0083969D01*
X0083671Y0083991D01*
X0083810Y0084017D01*
X0083949Y0084047D01*
X0084086Y0084081D01*
X0084223Y0084119D01*
X0084358Y0084161D01*
X0084493Y0084206D01*
X0084626Y0084255D01*
X0084757Y0084308D01*
X0084887Y0084364D01*
X0085016Y0084424D01*
X0085142Y0084488D01*
X0085267Y0084555D01*
X0085390Y0084625D01*
X0085511Y0084699D01*
X0085630Y0084776D01*
X0085746Y0084857D01*
X0085861Y0084941D01*
X0085973Y0085027D01*
X0086082Y0085117D01*
X0086189Y0085210D01*
X0086293Y0085306D01*
X0086395Y0085405D01*
X0086494Y0085507D01*
X0086590Y0085611D01*
X0086683Y0085718D01*
X0086773Y0085827D01*
X0086859Y0085939D01*
X0086943Y0086054D01*
X0087024Y0086170D01*
X0087101Y0086289D01*
X0087175Y0086410D01*
X0087245Y0086533D01*
X0087312Y0086658D01*
X0087376Y0086784D01*
X0087436Y0086913D01*
X0087492Y0087043D01*
X0087545Y0087174D01*
X0087594Y0087307D01*
X0087639Y0087442D01*
X0087681Y0087577D01*
X0087719Y0087714D01*
X0087753Y0087851D01*
X0087783Y0087990D01*
X0087809Y0088129D01*
X0087831Y0088269D01*
X0087850Y0088409D01*
X0087864Y0088550D01*
X0087875Y0088692D01*
X0087881Y0088833D01*
X0087884Y0088975D01*
X0087837Y0088975D01*
X0087834Y0088835D01*
X0087828Y0088694D01*
X0087817Y0088554D01*
X0087803Y0088415D01*
X0087785Y0088276D01*
X0087763Y0088137D01*
X0087737Y0087999D01*
X0087707Y0087862D01*
X0087673Y0087725D01*
X0087636Y0087590D01*
X0087594Y0087456D01*
X0087550Y0087323D01*
X0087501Y0087191D01*
X0087449Y0087061D01*
X0087393Y0086932D01*
X0087334Y0086805D01*
X0087271Y0086679D01*
X0087204Y0086556D01*
X0087134Y0086434D01*
X0087061Y0086314D01*
X0086985Y0086196D01*
X0086905Y0086081D01*
X0086822Y0085968D01*
X0086736Y0085857D01*
X0086647Y0085748D01*
X0086555Y0085642D01*
X0086460Y0085539D01*
X0086362Y0085438D01*
X0086261Y0085340D01*
X0086158Y0085245D01*
X0086052Y0085153D01*
X0085943Y0085064D01*
X0085832Y0084978D01*
X0085719Y0084895D01*
X0085604Y0084815D01*
X0085486Y0084739D01*
X0085366Y0084666D01*
X0085244Y0084596D01*
X0085121Y0084529D01*
X0084995Y0084466D01*
X0084868Y0084407D01*
X0084739Y0084351D01*
X0084609Y0084299D01*
X0084477Y0084250D01*
X0084344Y0084206D01*
X0084210Y0084164D01*
X0084075Y0084127D01*
X0083938Y0084093D01*
X0083801Y0084063D01*
X0083663Y0084037D01*
X0083524Y0084015D01*
X0083385Y0083997D01*
X0083246Y0083983D01*
X0083106Y0083972D01*
X0082965Y0083966D01*
X0082825Y0083963D01*
X0082825Y0084010D01*
X0082964Y0084013D01*
X0083103Y0084019D01*
X0083242Y0084030D01*
X0083380Y0084044D01*
X0083518Y0084062D01*
X0083655Y0084084D01*
X0083792Y0084110D01*
X0083928Y0084139D01*
X0084063Y0084172D01*
X0084197Y0084209D01*
X0084330Y0084250D01*
X0084462Y0084295D01*
X0084592Y0084343D01*
X0084721Y0084395D01*
X0084849Y0084450D01*
X0084975Y0084509D01*
X0085099Y0084571D01*
X0085222Y0084637D01*
X0085342Y0084706D01*
X0085461Y0084779D01*
X0085577Y0084854D01*
X0085692Y0084933D01*
X0085804Y0085016D01*
X0085914Y0085101D01*
X0086021Y0085189D01*
X0086126Y0085280D01*
X0086229Y0085375D01*
X0086328Y0085472D01*
X0086425Y0085571D01*
X0086520Y0085674D01*
X0086611Y0085779D01*
X0086699Y0085886D01*
X0086784Y0085996D01*
X0086867Y0086108D01*
X0086946Y0086223D01*
X0087021Y0086339D01*
X0087094Y0086458D01*
X0087163Y0086578D01*
X0087229Y0086701D01*
X0087291Y0086825D01*
X0087350Y0086951D01*
X0087405Y0087079D01*
X0087457Y0087208D01*
X0087505Y0087338D01*
X0087550Y0087470D01*
X0087591Y0087603D01*
X0087628Y0087737D01*
X0087661Y0087872D01*
X0087690Y0088008D01*
X0087716Y0088145D01*
X0087738Y0088282D01*
X0087756Y0088420D01*
X0087770Y0088558D01*
X0087781Y0088697D01*
X0087787Y0088836D01*
X0087790Y0088975D01*
X0087743Y0088975D01*
X0087740Y0088835D01*
X0087734Y0088695D01*
X0087723Y0088555D01*
X0087708Y0088415D01*
X0087690Y0088276D01*
X0087667Y0088138D01*
X0087641Y0088000D01*
X0087610Y0087863D01*
X0087576Y0087727D01*
X0087538Y0087592D01*
X0087496Y0087458D01*
X0087451Y0087326D01*
X0087401Y0087194D01*
X0087348Y0087065D01*
X0087292Y0086936D01*
X0087231Y0086810D01*
X0087167Y0086685D01*
X0087100Y0086562D01*
X0087029Y0086441D01*
X0086955Y0086322D01*
X0086877Y0086205D01*
X0086796Y0086091D01*
X0086712Y0085978D01*
X0086625Y0085869D01*
X0086534Y0085761D01*
X0086441Y0085657D01*
X0086344Y0085555D01*
X0086245Y0085456D01*
X0086143Y0085359D01*
X0086039Y0085266D01*
X0085931Y0085175D01*
X0085822Y0085088D01*
X0085709Y0085004D01*
X0085595Y0084923D01*
X0085478Y0084845D01*
X0085359Y0084771D01*
X0085238Y0084700D01*
X0085115Y0084633D01*
X0084990Y0084569D01*
X0084864Y0084508D01*
X0084735Y0084452D01*
X0084606Y0084399D01*
X0084474Y0084349D01*
X0084342Y0084304D01*
X0084208Y0084262D01*
X0084073Y0084224D01*
X0083937Y0084190D01*
X0083800Y0084159D01*
X0083662Y0084133D01*
X0083524Y0084110D01*
X0083385Y0084092D01*
X0083245Y0084077D01*
X0083105Y0084066D01*
X0082965Y0084060D01*
X0082825Y0084057D01*
X0082825Y0084104D01*
X0082964Y0084107D01*
X0083103Y0084113D01*
X0083241Y0084124D01*
X0083379Y0084138D01*
X0083517Y0084157D01*
X0083654Y0084179D01*
X0083791Y0084205D01*
X0083926Y0084235D01*
X0084061Y0084269D01*
X0084195Y0084307D01*
X0084327Y0084348D01*
X0084459Y0084393D01*
X0084589Y0084442D01*
X0084717Y0084495D01*
X0084844Y0084551D01*
X0084970Y0084611D01*
X0085093Y0084674D01*
X0085215Y0084741D01*
X0085335Y0084811D01*
X0085453Y0084885D01*
X0085568Y0084962D01*
X0085682Y0085042D01*
X0085793Y0085125D01*
X0085902Y0085212D01*
X0086008Y0085301D01*
X0086112Y0085394D01*
X0086213Y0085489D01*
X0086311Y0085587D01*
X0086406Y0085688D01*
X0086499Y0085792D01*
X0086588Y0085898D01*
X0086675Y0086007D01*
X0086758Y0086118D01*
X0086838Y0086232D01*
X0086915Y0086347D01*
X0086989Y0086465D01*
X0087059Y0086585D01*
X0087126Y0086707D01*
X0087189Y0086830D01*
X0087249Y0086956D01*
X0087305Y0087083D01*
X0087358Y0087211D01*
X0087407Y0087341D01*
X0087452Y0087473D01*
X0087493Y0087605D01*
X0087531Y0087739D01*
X0087565Y0087874D01*
X0087595Y0088009D01*
X0087621Y0088146D01*
X0087643Y0088283D01*
X0087662Y0088421D01*
X0087676Y0088559D01*
X0087687Y0088697D01*
X0087693Y0088836D01*
X0087696Y0088975D01*
X0087649Y0088975D01*
X0087646Y0088837D01*
X0087640Y0088700D01*
X0087629Y0088563D01*
X0087615Y0088426D01*
X0087597Y0088290D01*
X0087575Y0088154D01*
X0087549Y0088019D01*
X0087519Y0087884D01*
X0087485Y0087751D01*
X0087448Y0087619D01*
X0087407Y0087487D01*
X0087362Y0087357D01*
X0087314Y0087228D01*
X0087262Y0087101D01*
X0087206Y0086975D01*
X0087147Y0086851D01*
X0087084Y0086729D01*
X0087018Y0086608D01*
X0086948Y0086489D01*
X0086876Y0086373D01*
X0086799Y0086258D01*
X0086720Y0086146D01*
X0086637Y0086036D01*
X0086552Y0085928D01*
X0086463Y0085823D01*
X0086372Y0085720D01*
X0086277Y0085620D01*
X0086180Y0085523D01*
X0086080Y0085428D01*
X0085977Y0085337D01*
X0085872Y0085248D01*
X0085764Y0085163D01*
X0085654Y0085080D01*
X0085542Y0085001D01*
X0085427Y0084924D01*
X0085311Y0084852D01*
X0085192Y0084782D01*
X0085071Y0084716D01*
X0084949Y0084653D01*
X0084825Y0084594D01*
X0084699Y0084538D01*
X0084572Y0084486D01*
X0084443Y0084438D01*
X0084313Y0084393D01*
X0084181Y0084352D01*
X0084049Y0084315D01*
X0083916Y0084281D01*
X0083781Y0084251D01*
X0083646Y0084225D01*
X0083510Y0084203D01*
X0083374Y0084185D01*
X0083237Y0084171D01*
X0083100Y0084160D01*
X0082963Y0084154D01*
X0082825Y0084151D01*
X0082825Y0084198D01*
X0082961Y0084201D01*
X0083097Y0084207D01*
X0083233Y0084218D01*
X0083369Y0084232D01*
X0083504Y0084250D01*
X0083638Y0084272D01*
X0083772Y0084297D01*
X0083905Y0084327D01*
X0084037Y0084360D01*
X0084168Y0084397D01*
X0084298Y0084438D01*
X0084427Y0084482D01*
X0084554Y0084530D01*
X0084681Y0084582D01*
X0084805Y0084637D01*
X0084928Y0084695D01*
X0085049Y0084757D01*
X0085169Y0084823D01*
X0085286Y0084892D01*
X0085402Y0084964D01*
X0085515Y0085039D01*
X0085627Y0085118D01*
X0085736Y0085200D01*
X0085842Y0085285D01*
X0085946Y0085372D01*
X0086048Y0085463D01*
X0086147Y0085557D01*
X0086243Y0085653D01*
X0086337Y0085752D01*
X0086428Y0085854D01*
X0086515Y0085958D01*
X0086600Y0086064D01*
X0086682Y0086173D01*
X0086761Y0086285D01*
X0086836Y0086398D01*
X0086908Y0086514D01*
X0086977Y0086631D01*
X0087043Y0086751D01*
X0087105Y0086872D01*
X0087163Y0086995D01*
X0087218Y0087119D01*
X0087270Y0087246D01*
X0087318Y0087373D01*
X0087362Y0087502D01*
X0087403Y0087632D01*
X0087440Y0087763D01*
X0087473Y0087895D01*
X0087503Y0088028D01*
X0087528Y0088162D01*
X0087550Y0088296D01*
X0087568Y0088431D01*
X0087582Y0088567D01*
X0087593Y0088703D01*
X0087599Y0088839D01*
X0087602Y0088975D01*
M02*
