G75*
%MOIN*%
%OFA0B0*%
%FSLAX25Y25*%
%IPPOS*%
%LPD*%
%AMOC8*
5,1,8,0,0,1.08239X$1,22.5*
%
%ADD10C,0.06299*%
%ADD11C,0.16500*%
%ADD12R,0.05500X0.01370*%
%ADD13R,0.02000X0.02400*%
%ADD14R,0.01370X0.05500*%
%ADD15R,0.04724X0.02362*%
%ADD16R,0.04724X0.02756*%
%ADD17R,0.03150X0.03150*%
%ADD18R,0.06300X0.22440*%
%ADD19R,0.04331X0.03937*%
%ADD20R,0.02400X0.02000*%
%ADD21C,0.07874*%
%ADD22R,0.22440X0.06300*%
%ADD23R,0.06299X0.09055*%
%ADD24R,0.11811X0.05512*%
%ADD25R,0.03150X0.04724*%
%ADD26R,0.04724X0.03150*%
%ADD27R,0.06299X0.06299*%
%ADD28R,0.05100X0.05100*%
%ADD29C,0.05100*%
%ADD30R,0.04724X0.07087*%
%ADD31R,0.02362X0.06102*%
%ADD32R,0.07087X0.04724*%
%ADD33R,0.06102X0.02362*%
%ADD34C,0.01200*%
%ADD35R,0.09450X0.06500*%
%ADD36R,0.02800X0.03900*%
%ADD37R,0.02362X0.04724*%
%ADD38R,0.08600X0.06000*%
%ADD39R,0.14500X0.10700*%
%ADD40R,0.32300X0.10200*%
%ADD41C,0.00591*%
%ADD42C,0.00850*%
%ADD43R,0.01000X0.05100*%
%ADD44R,0.02800X0.01000*%
%ADD45R,0.01969X0.01378*%
%ADD46C,0.02400*%
%ADD47C,0.03200*%
%ADD48C,0.04000*%
%ADD49C,0.03569*%
%ADD50C,0.01000*%
%ADD51C,0.00787*%
%ADD52C,0.03962*%
%ADD53C,0.00800*%
%ADD54C,0.01600*%
%ADD55C,0.08600*%
%ADD56C,0.07000*%
D10*
X0087800Y0009000D03*
X0097800Y0009000D03*
X0107800Y0009000D03*
X0117800Y0009000D03*
X0127800Y0009000D03*
X0137800Y0009000D03*
X0147800Y0009000D03*
X0157800Y0009000D03*
X0167800Y0009000D03*
X0177800Y0009000D03*
X0187800Y0009000D03*
X0197800Y0009000D03*
X0207800Y0009000D03*
X0217800Y0009000D03*
X0227800Y0009000D03*
X0237800Y0009000D03*
X0247800Y0009000D03*
X0257800Y0009000D03*
X0267800Y0009000D03*
X0277800Y0009000D03*
X0287800Y0009000D03*
X0297800Y0009000D03*
X0307800Y0009000D03*
X0307800Y0019000D03*
X0297800Y0019000D03*
X0287800Y0019000D03*
X0277800Y0019000D03*
X0267800Y0019000D03*
X0257800Y0019000D03*
X0247800Y0019000D03*
X0237800Y0019000D03*
X0227800Y0019000D03*
X0217800Y0019000D03*
X0207800Y0019000D03*
X0197800Y0019000D03*
X0187800Y0019000D03*
X0177800Y0019000D03*
X0167800Y0019000D03*
X0157800Y0019000D03*
X0147800Y0019000D03*
X0137800Y0019000D03*
X0127800Y0019000D03*
X0117800Y0019000D03*
X0107800Y0019000D03*
X0097800Y0019000D03*
X0087800Y0019000D03*
X0285300Y0117500D03*
X0295300Y0117500D03*
X0305300Y0117500D03*
X0305300Y0127500D03*
X0295300Y0127500D03*
X0285300Y0127500D03*
X0285300Y0137500D03*
X0295300Y0137500D03*
X0305300Y0137500D03*
X0305300Y0147500D03*
X0295300Y0147500D03*
X0285300Y0147500D03*
X0285300Y0157500D03*
X0295300Y0157500D03*
X0305300Y0157500D03*
X0305300Y0167500D03*
X0295300Y0167500D03*
X0285300Y0167500D03*
X0285300Y0177500D03*
X0295300Y0177500D03*
X0305300Y0177500D03*
X0307800Y0199000D03*
X0297800Y0199000D03*
X0287800Y0199000D03*
X0277800Y0199000D03*
X0267800Y0199000D03*
X0257800Y0199000D03*
X0247800Y0199000D03*
X0237800Y0199000D03*
X0227800Y0199000D03*
X0217800Y0199000D03*
X0207800Y0199000D03*
X0197800Y0199000D03*
X0187800Y0199000D03*
X0177800Y0199000D03*
X0167800Y0199000D03*
X0157800Y0199000D03*
X0147800Y0199000D03*
X0137800Y0199000D03*
X0127800Y0199000D03*
X0117800Y0199000D03*
X0107800Y0199000D03*
X0097800Y0199000D03*
X0087800Y0199000D03*
X0087800Y0209000D03*
X0097800Y0209000D03*
X0107800Y0209000D03*
X0117800Y0209000D03*
X0127800Y0209000D03*
X0137800Y0209000D03*
X0147800Y0209000D03*
X0157800Y0209000D03*
X0167800Y0209000D03*
X0177800Y0209000D03*
X0187800Y0209000D03*
X0197800Y0209000D03*
X0207800Y0209000D03*
X0217800Y0209000D03*
X0227800Y0209000D03*
X0237800Y0209000D03*
X0247800Y0209000D03*
X0257800Y0209000D03*
X0267800Y0209000D03*
X0277800Y0209000D03*
X0287800Y0209000D03*
X0297800Y0209000D03*
X0307800Y0209000D03*
X0240800Y0179500D03*
X0230800Y0179500D03*
X0295300Y0107500D03*
X0305300Y0107500D03*
D11*
X0327800Y0026500D03*
X0067800Y0014000D03*
X0327800Y0191500D03*
X0067800Y0204000D03*
D12*
X0282406Y0069575D03*
X0282406Y0067016D03*
X0282406Y0064457D03*
X0282406Y0061898D03*
X0282406Y0059339D03*
X0282406Y0056780D03*
X0282406Y0054220D03*
X0282406Y0051661D03*
X0282406Y0049102D03*
X0282406Y0046543D03*
X0282406Y0043984D03*
X0282406Y0041425D03*
X0311194Y0041425D03*
X0311194Y0043984D03*
X0311194Y0046543D03*
X0311194Y0049102D03*
X0311194Y0051661D03*
X0311194Y0054220D03*
X0311194Y0056780D03*
X0311194Y0059339D03*
X0311194Y0061898D03*
X0311194Y0064457D03*
X0311194Y0067016D03*
X0311194Y0069575D03*
D13*
X0263800Y0069800D03*
X0263800Y0074200D03*
X0208300Y0101800D03*
X0204300Y0101800D03*
X0200300Y0101800D03*
X0194300Y0103700D03*
X0200300Y0106200D03*
X0204300Y0106200D03*
X0208300Y0106200D03*
X0194300Y0107800D03*
X0194300Y0112200D03*
X0194300Y0099300D03*
X0176300Y0081700D03*
X0172300Y0081700D03*
X0172300Y0077300D03*
X0176300Y0077300D03*
X0164300Y0074700D03*
X0164300Y0070300D03*
X0164300Y0066700D03*
X0164300Y0062300D03*
X0146300Y0040700D03*
X0146300Y0036300D03*
X0123800Y0036800D03*
X0123800Y0041200D03*
X0127800Y0062800D03*
X0127800Y0067200D03*
X0193800Y0132800D03*
X0193800Y0137200D03*
X0192300Y0145300D03*
X0192300Y0149700D03*
X0192800Y0164300D03*
X0196800Y0164300D03*
X0196800Y0168700D03*
X0192800Y0168700D03*
X0201300Y0168700D03*
X0205800Y0168700D03*
X0209800Y0168700D03*
X0209800Y0164300D03*
X0205800Y0164300D03*
X0201300Y0164300D03*
X0208800Y0177800D03*
X0208800Y0182200D03*
X0278300Y0180200D03*
X0278300Y0175800D03*
X0098800Y0168700D03*
X0098800Y0164300D03*
X0088800Y0163700D03*
X0088800Y0159300D03*
X0083300Y0159300D03*
X0077800Y0159300D03*
X0077800Y0163700D03*
X0083300Y0163700D03*
X0071300Y0163700D03*
X0071300Y0159300D03*
X0035800Y0159300D03*
X0035800Y0163700D03*
X0035800Y0171800D03*
X0035800Y0176200D03*
X0287300Y0032200D03*
X0291300Y0032200D03*
X0291300Y0027800D03*
X0287300Y0027800D03*
D14*
X0319225Y0091106D03*
X0321784Y0091106D03*
X0324343Y0091106D03*
X0326902Y0091106D03*
X0329461Y0091106D03*
X0332020Y0091106D03*
X0334580Y0091106D03*
X0337139Y0091106D03*
X0339698Y0091106D03*
X0342257Y0091106D03*
X0344816Y0091106D03*
X0347375Y0091106D03*
X0347375Y0119894D03*
X0344816Y0119894D03*
X0342257Y0119894D03*
X0339698Y0119894D03*
X0337139Y0119894D03*
X0334580Y0119894D03*
X0332020Y0119894D03*
X0329461Y0119894D03*
X0326902Y0119894D03*
X0324343Y0119894D03*
X0321784Y0119894D03*
X0319225Y0119894D03*
D15*
X0099824Y0073000D03*
X0099824Y0068000D03*
X0099824Y0063000D03*
X0099824Y0058000D03*
X0077776Y0058000D03*
X0077776Y0063000D03*
X0077776Y0068000D03*
X0077776Y0073000D03*
D16*
X0080517Y0080000D03*
X0092017Y0088000D03*
X0095083Y0080000D03*
X0106583Y0088000D03*
X0106083Y0137000D03*
X0091517Y0137000D03*
D17*
X0090800Y0171547D03*
X0084300Y0171547D03*
X0077800Y0171547D03*
X0071300Y0171547D03*
X0071300Y0177453D03*
X0077800Y0177453D03*
X0084300Y0177453D03*
X0090800Y0177453D03*
X0099347Y0174500D03*
X0105253Y0174500D03*
X0031300Y0172047D03*
X0031300Y0177953D03*
X0031300Y0165453D03*
X0031300Y0159547D03*
D18*
X0124050Y0170500D03*
X0142550Y0170500D03*
D19*
X0144646Y0187000D03*
X0137954Y0187000D03*
D20*
X0116000Y0183500D03*
X0116000Y0179500D03*
X0111600Y0179500D03*
X0111600Y0183500D03*
X0129600Y0149000D03*
X0129600Y0145000D03*
X0129600Y0141000D03*
X0129600Y0137000D03*
X0134000Y0137000D03*
X0138600Y0137000D03*
X0143000Y0137000D03*
X0134000Y0141000D03*
X0134000Y0145000D03*
X0134000Y0149000D03*
X0200600Y0143000D03*
X0205000Y0143000D03*
X0218100Y0135000D03*
X0222500Y0135000D03*
X0253600Y0131000D03*
X0258000Y0131000D03*
X0274100Y0132500D03*
X0278500Y0132500D03*
X0278500Y0127500D03*
X0274100Y0127500D03*
X0274100Y0122500D03*
X0278500Y0122500D03*
X0278500Y0117500D03*
X0274100Y0117500D03*
X0274100Y0112500D03*
X0278500Y0112500D03*
X0278500Y0107500D03*
X0274100Y0107500D03*
X0274100Y0137500D03*
X0278500Y0137500D03*
X0278500Y0142500D03*
X0274100Y0142500D03*
X0274100Y0147500D03*
X0278500Y0147500D03*
X0278500Y0157500D03*
X0274100Y0157500D03*
X0274100Y0167000D03*
X0278500Y0167000D03*
X0208000Y0190000D03*
X0203600Y0190000D03*
X0199500Y0190000D03*
X0195100Y0190000D03*
X0156500Y0081000D03*
X0152100Y0081000D03*
X0138500Y0069500D03*
X0134100Y0069500D03*
X0134100Y0066000D03*
X0138500Y0066000D03*
D21*
X0132737Y0092602D02*
X0124863Y0092602D01*
X0116989Y0107563D02*
X0116989Y0115437D01*
X0141005Y0115437D02*
X0141005Y0107563D01*
D22*
X0062300Y0077750D03*
X0062300Y0059250D03*
D23*
X0033300Y0049598D03*
X0033300Y0036902D03*
X0033300Y0012098D03*
X0033300Y0074402D03*
X0048800Y0161598D03*
X0048800Y0186402D03*
X0036300Y0186598D03*
X0036300Y0211402D03*
D24*
X0290351Y0088000D03*
X0309249Y0088000D03*
D25*
X0252843Y0136500D03*
X0245757Y0136500D03*
X0148343Y0144500D03*
X0141257Y0144500D03*
X0141257Y0151500D03*
X0148343Y0151500D03*
X0088843Y0049000D03*
X0081757Y0049000D03*
X0089257Y0027500D03*
X0096343Y0027500D03*
D26*
X0095800Y0044957D03*
X0095800Y0052043D03*
X0213800Y0099457D03*
X0213800Y0106543D03*
X0114300Y0159457D03*
X0107300Y0159457D03*
X0107300Y0166543D03*
X0114300Y0166543D03*
D27*
X0250800Y0179500D03*
X0285300Y0107500D03*
D28*
X0328300Y0074450D03*
X0343300Y0074450D03*
X0343300Y0055450D03*
X0328300Y0055450D03*
X0158300Y0045000D03*
D29*
X0158300Y0039100D03*
X0158300Y0033200D03*
X0328300Y0049550D03*
X0343300Y0049550D03*
X0343300Y0068550D03*
X0328300Y0068550D03*
D30*
X0242603Y0075240D03*
X0220682Y0075240D03*
X0212603Y0075240D03*
X0190682Y0075240D03*
X0324682Y0139740D03*
X0346603Y0139740D03*
X0346603Y0158740D03*
X0324682Y0158740D03*
D31*
X0329800Y0167500D03*
X0333737Y0167500D03*
X0337674Y0167500D03*
X0341611Y0167500D03*
X0341611Y0148500D03*
X0337674Y0148500D03*
X0333737Y0148500D03*
X0329800Y0148500D03*
X0237611Y0084000D03*
X0233674Y0084000D03*
X0229737Y0084000D03*
X0225800Y0084000D03*
X0207611Y0084000D03*
X0203674Y0084000D03*
X0199737Y0084000D03*
X0195800Y0084000D03*
D32*
X0201560Y0061803D03*
X0222560Y0061803D03*
X0243560Y0061803D03*
X0264560Y0056803D03*
X0264560Y0034882D03*
X0243560Y0031882D03*
X0222560Y0031882D03*
X0201560Y0031882D03*
X0180560Y0031882D03*
X0140560Y0028382D03*
X0116560Y0028382D03*
X0116560Y0050303D03*
X0140560Y0050303D03*
X0180560Y0061803D03*
X0053540Y0051118D03*
X0053540Y0029197D03*
D33*
X0062300Y0034189D03*
X0062300Y0038126D03*
X0062300Y0042063D03*
X0062300Y0046000D03*
X0107800Y0045311D03*
X0107800Y0041374D03*
X0107800Y0037437D03*
X0107800Y0033500D03*
X0131800Y0033500D03*
X0131800Y0037437D03*
X0131800Y0041374D03*
X0131800Y0045311D03*
X0171800Y0044874D03*
X0171800Y0040937D03*
X0171800Y0037000D03*
X0171800Y0048811D03*
X0171800Y0052748D03*
X0171800Y0056685D03*
X0192800Y0056685D03*
X0192800Y0052748D03*
X0192800Y0048811D03*
X0192800Y0044874D03*
X0192800Y0040937D03*
X0192800Y0037000D03*
X0213800Y0037000D03*
X0213800Y0040937D03*
X0213800Y0044874D03*
X0213800Y0048811D03*
X0213800Y0052748D03*
X0213800Y0056685D03*
X0234800Y0056685D03*
X0234800Y0052748D03*
X0234800Y0048811D03*
X0234800Y0044874D03*
X0234800Y0040937D03*
X0234800Y0037000D03*
X0255800Y0040000D03*
X0255800Y0043937D03*
X0255800Y0047874D03*
X0255800Y0051811D03*
D34*
X0282406Y0056780D02*
X0294080Y0056780D01*
X0294800Y0057500D01*
X0319225Y0091106D02*
X0321784Y0091106D01*
X0329461Y0091106D02*
X0332020Y0091106D01*
X0334580Y0091106D02*
X0337139Y0091106D01*
X0344816Y0091106D02*
X0347375Y0091106D01*
X0216300Y0142976D02*
X0210676Y0142976D01*
X0206500Y0138800D01*
X0203200Y0138800D01*
X0203200Y0134124D01*
X0203300Y0134024D01*
X0203200Y0138800D02*
X0195400Y0138800D01*
X0193800Y0137200D01*
X0134000Y0149000D02*
X0134000Y0153800D01*
X0127300Y0160500D01*
X0125300Y0160500D01*
X0123800Y0162000D01*
X0123800Y0168874D01*
X0124050Y0170500D01*
X0123800Y0162000D02*
X0123800Y0161000D01*
X0119300Y0156500D01*
X0119300Y0149300D01*
X0117300Y0149300D02*
X0117300Y0153500D01*
X0114343Y0156457D01*
X0114300Y0159457D01*
X0121300Y0155672D02*
X0123508Y0157880D01*
X0127092Y0157880D01*
X0132000Y0152972D01*
X0132000Y0151180D01*
X0131800Y0150980D01*
X0131380Y0151400D01*
X0127820Y0151400D01*
X0127000Y0150580D01*
X0127000Y0149824D01*
X0125351Y0149000D01*
X0121300Y0149000D01*
X0121300Y0155672D01*
X0121736Y0156108D02*
X0128864Y0156108D01*
X0130062Y0154909D02*
X0121300Y0154909D01*
X0121300Y0153711D02*
X0131261Y0153711D01*
X0132000Y0152512D02*
X0121300Y0152512D01*
X0121300Y0151314D02*
X0127734Y0151314D01*
X0127000Y0150115D02*
X0121300Y0150115D01*
X0123000Y0143000D02*
X0126800Y0143000D01*
X0128800Y0141000D01*
X0129600Y0141000D01*
X0129600Y0137000D01*
X0131466Y0151314D02*
X0132000Y0151314D01*
X0127665Y0157306D02*
X0122935Y0157306D01*
X0092017Y0136500D02*
X0091517Y0137000D01*
X0083300Y0159300D02*
X0077800Y0159300D01*
X0041100Y0204900D02*
X0038900Y0207500D01*
X0036300Y0211402D01*
X0196000Y0186750D02*
X0196000Y0184850D01*
X0198500Y0184800D02*
X0198500Y0186800D01*
X0201100Y0186800D02*
X0201100Y0184800D01*
X0203600Y0184800D02*
X0203600Y0186800D01*
X0203600Y0175200D02*
X0203600Y0173200D01*
X0201100Y0173200D02*
X0201100Y0175200D01*
X0198500Y0175200D02*
X0198500Y0173200D01*
X0196000Y0173200D02*
X0196000Y0175200D01*
X0123500Y0072300D02*
X0123450Y0071350D01*
X0123450Y0069339D01*
X0125661Y0069339D01*
X0127800Y0067200D01*
X0124820Y0064220D01*
X0123450Y0064220D01*
X0123450Y0061661D02*
X0126661Y0061661D01*
X0127800Y0062800D01*
X0130900Y0062800D01*
X0134100Y0066000D01*
X0123488Y0069300D02*
X0123450Y0069339D01*
X0117150Y0066780D02*
X0113220Y0066780D01*
X0112100Y0067900D01*
X0117011Y0061700D02*
X0117100Y0061611D01*
X0117150Y0061661D01*
X0123250Y0057100D02*
X0123450Y0057300D01*
X0123800Y0041200D02*
X0124000Y0041000D01*
X0118800Y0041000D01*
X0115300Y0037500D01*
X0131800Y0041374D02*
X0131926Y0041500D01*
X0213800Y0056685D02*
X0214300Y0057185D01*
D35*
X0199800Y0180000D03*
D36*
X0201300Y0157200D03*
X0197600Y0157200D03*
X0205000Y0157200D03*
X0205000Y0147800D03*
X0201300Y0147800D03*
X0197600Y0147800D03*
D37*
X0216300Y0142976D03*
X0221300Y0142976D03*
X0226300Y0142976D03*
X0231300Y0142976D03*
X0213300Y0134024D03*
X0208300Y0134024D03*
X0203300Y0134024D03*
X0198300Y0134024D03*
X0198300Y0111976D03*
X0203300Y0111976D03*
X0208300Y0111976D03*
X0213300Y0111976D03*
X0216300Y0165024D03*
X0221300Y0165024D03*
X0226300Y0165024D03*
X0231300Y0165024D03*
D38*
X0258800Y0123750D03*
X0258800Y0109250D03*
D39*
X0205800Y0123000D03*
D40*
X0233800Y0126500D03*
X0233800Y0104500D03*
D41*
X0159592Y0075035D02*
X0157820Y0075035D01*
X0159592Y0075035D02*
X0159592Y0074839D01*
X0157820Y0074839D01*
X0157820Y0075035D01*
X0157820Y0073460D02*
X0159592Y0073460D01*
X0159592Y0073264D01*
X0157820Y0073264D01*
X0157820Y0073460D01*
X0157820Y0071885D02*
X0159592Y0071885D01*
X0159592Y0071689D01*
X0157820Y0071689D01*
X0157820Y0071885D01*
X0157820Y0070311D02*
X0159592Y0070311D01*
X0159592Y0070115D01*
X0157820Y0070115D01*
X0157820Y0070311D01*
X0157820Y0068736D02*
X0159592Y0068736D01*
X0159592Y0068540D01*
X0157820Y0068540D01*
X0157820Y0068736D01*
X0157820Y0067161D02*
X0159592Y0067161D01*
X0159592Y0066965D01*
X0157820Y0066965D01*
X0157820Y0067161D01*
X0156835Y0065980D02*
X0156835Y0064208D01*
X0156639Y0064208D01*
X0156639Y0065980D01*
X0156835Y0065980D01*
X0156835Y0064798D02*
X0156639Y0064798D01*
X0156639Y0065388D02*
X0156835Y0065388D01*
X0156835Y0065978D02*
X0156639Y0065978D01*
X0155260Y0065980D02*
X0155260Y0064208D01*
X0155064Y0064208D01*
X0155064Y0065980D01*
X0155260Y0065980D01*
X0155260Y0064798D02*
X0155064Y0064798D01*
X0155064Y0065388D02*
X0155260Y0065388D01*
X0155260Y0065978D02*
X0155064Y0065978D01*
X0153685Y0065980D02*
X0153685Y0064208D01*
X0153489Y0064208D01*
X0153489Y0065980D01*
X0153685Y0065980D01*
X0153685Y0064798D02*
X0153489Y0064798D01*
X0153489Y0065388D02*
X0153685Y0065388D01*
X0153685Y0065978D02*
X0153489Y0065978D01*
X0152111Y0065980D02*
X0152111Y0064208D01*
X0151915Y0064208D01*
X0151915Y0065980D01*
X0152111Y0065980D01*
X0152111Y0064798D02*
X0151915Y0064798D01*
X0151915Y0065388D02*
X0152111Y0065388D01*
X0152111Y0065978D02*
X0151915Y0065978D01*
X0150536Y0065980D02*
X0150536Y0064208D01*
X0150340Y0064208D01*
X0150340Y0065980D01*
X0150536Y0065980D01*
X0150536Y0064798D02*
X0150340Y0064798D01*
X0150340Y0065388D02*
X0150536Y0065388D01*
X0150536Y0065978D02*
X0150340Y0065978D01*
X0148961Y0065980D02*
X0148961Y0064208D01*
X0148765Y0064208D01*
X0148765Y0065980D01*
X0148961Y0065980D01*
X0148961Y0064798D02*
X0148765Y0064798D01*
X0148765Y0065388D02*
X0148961Y0065388D01*
X0148961Y0065978D02*
X0148765Y0065978D01*
X0147780Y0066965D02*
X0146008Y0066965D01*
X0146008Y0067161D01*
X0147780Y0067161D01*
X0147780Y0066965D01*
X0147780Y0068540D02*
X0146008Y0068540D01*
X0146008Y0068736D01*
X0147780Y0068736D01*
X0147780Y0068540D01*
X0147780Y0070115D02*
X0146008Y0070115D01*
X0146008Y0070311D01*
X0147780Y0070311D01*
X0147780Y0070115D01*
X0147780Y0071689D02*
X0146008Y0071689D01*
X0146008Y0071885D01*
X0147780Y0071885D01*
X0147780Y0071689D01*
X0147780Y0073264D02*
X0146008Y0073264D01*
X0146008Y0073460D01*
X0147780Y0073460D01*
X0147780Y0073264D01*
X0147780Y0074839D02*
X0146008Y0074839D01*
X0146008Y0075035D01*
X0147780Y0075035D01*
X0147780Y0074839D01*
X0148765Y0076020D02*
X0148765Y0077792D01*
X0148961Y0077792D01*
X0148961Y0076020D01*
X0148765Y0076020D01*
X0148765Y0076610D02*
X0148961Y0076610D01*
X0148961Y0077200D02*
X0148765Y0077200D01*
X0148765Y0077790D02*
X0148961Y0077790D01*
X0150340Y0077792D02*
X0150340Y0076020D01*
X0150340Y0077792D02*
X0150536Y0077792D01*
X0150536Y0076020D01*
X0150340Y0076020D01*
X0150340Y0076610D02*
X0150536Y0076610D01*
X0150536Y0077200D02*
X0150340Y0077200D01*
X0150340Y0077790D02*
X0150536Y0077790D01*
X0151915Y0077792D02*
X0151915Y0076020D01*
X0151915Y0077792D02*
X0152111Y0077792D01*
X0152111Y0076020D01*
X0151915Y0076020D01*
X0151915Y0076610D02*
X0152111Y0076610D01*
X0152111Y0077200D02*
X0151915Y0077200D01*
X0151915Y0077790D02*
X0152111Y0077790D01*
X0153489Y0077792D02*
X0153489Y0076020D01*
X0153489Y0077792D02*
X0153685Y0077792D01*
X0153685Y0076020D01*
X0153489Y0076020D01*
X0153489Y0076610D02*
X0153685Y0076610D01*
X0153685Y0077200D02*
X0153489Y0077200D01*
X0153489Y0077790D02*
X0153685Y0077790D01*
X0155064Y0077792D02*
X0155064Y0076020D01*
X0155064Y0077792D02*
X0155260Y0077792D01*
X0155260Y0076020D01*
X0155064Y0076020D01*
X0155064Y0076610D02*
X0155260Y0076610D01*
X0155260Y0077200D02*
X0155064Y0077200D01*
X0155064Y0077790D02*
X0155260Y0077790D01*
X0156639Y0077792D02*
X0156639Y0076020D01*
X0156639Y0077792D02*
X0156835Y0077792D01*
X0156835Y0076020D01*
X0156639Y0076020D01*
X0156639Y0076610D02*
X0156835Y0076610D01*
X0156835Y0077200D02*
X0156639Y0077200D01*
X0156639Y0077790D02*
X0156835Y0077790D01*
D42*
X0119375Y0151425D02*
X0119225Y0151425D01*
X0119375Y0151425D02*
X0119375Y0147175D01*
X0119225Y0147175D01*
X0119225Y0151425D01*
X0119225Y0148024D02*
X0119375Y0148024D01*
X0119375Y0148873D02*
X0119225Y0148873D01*
X0119225Y0149722D02*
X0119375Y0149722D01*
X0119375Y0150571D02*
X0119225Y0150571D01*
X0119225Y0151420D02*
X0119375Y0151420D01*
D43*
X0117300Y0149300D03*
X0115300Y0149300D03*
X0115300Y0140700D03*
X0117300Y0140700D03*
X0119300Y0140700D03*
D44*
X0123000Y0141000D03*
X0123000Y0143000D03*
X0123000Y0145000D03*
X0123000Y0147000D03*
X0123000Y0149000D03*
X0111600Y0149000D03*
X0111600Y0147000D03*
X0111600Y0145000D03*
X0111600Y0143000D03*
X0111600Y0141000D03*
D45*
X0117150Y0069339D03*
X0117150Y0066780D03*
X0117150Y0064220D03*
X0117150Y0061661D03*
X0123450Y0061661D03*
X0123450Y0064220D03*
X0123450Y0066780D03*
X0123450Y0069339D03*
D46*
X0095800Y0052043D02*
X0093800Y0054043D01*
X0093800Y0063000D01*
X0093757Y0062957D01*
X0093800Y0073000D02*
X0093800Y0077717D01*
X0095083Y0080000D01*
X0080517Y0080000D02*
X0073400Y0080000D01*
X0072300Y0078900D01*
X0072300Y0077900D01*
X0072150Y0077750D01*
X0062300Y0077750D01*
X0072300Y0077900D02*
X0072300Y0070100D01*
X0074600Y0068000D01*
X0077776Y0068000D01*
X0077776Y0063000D02*
X0074021Y0063000D01*
X0071089Y0060068D01*
X0062300Y0059445D02*
X0062300Y0059250D01*
X0062300Y0046000D01*
X0089257Y0027500D02*
X0089257Y0020543D01*
X0087800Y0019000D01*
X0096343Y0020457D02*
X0097800Y0019000D01*
X0096343Y0020457D02*
X0096343Y0027500D01*
X0092292Y0041977D02*
X0095272Y0044957D01*
X0095800Y0044957D01*
X0158300Y0039100D02*
X0164800Y0039100D01*
X0164800Y0052748D01*
X0171800Y0052748D01*
X0164800Y0052748D02*
X0164800Y0058000D01*
X0225800Y0051300D02*
X0225800Y0047000D01*
X0225800Y0051300D02*
X0231000Y0056500D01*
X0234615Y0056500D01*
X0234800Y0056685D02*
X0234300Y0056685D01*
X0234300Y0062000D01*
X0284300Y0041000D02*
X0284300Y0037500D01*
X0343300Y0068550D02*
X0343350Y0068600D01*
X0346100Y0068600D01*
X0347800Y0070300D01*
X0347800Y0080500D01*
X0346300Y0082000D01*
X0346800Y0113500D02*
X0342800Y0113500D01*
X0321300Y0113500D02*
X0319300Y0115819D01*
X0319300Y0116000D02*
X0317300Y0113500D01*
X0257800Y0136500D02*
X0255800Y0136500D01*
X0252843Y0136500D01*
X0245843Y0136043D02*
X0241500Y0136000D01*
X0245757Y0136500D02*
X0245843Y0136043D01*
X0237050Y0123750D02*
X0233800Y0126500D01*
X0205800Y0123000D02*
X0203800Y0123000D01*
X0200800Y0126000D01*
X0141257Y0143543D02*
X0141257Y0144500D01*
X0141257Y0145457D01*
X0141257Y0150543D02*
X0141257Y0151500D01*
X0142550Y0170500D02*
X0142500Y0170550D01*
X0142500Y0178300D01*
X0137954Y0182846D01*
X0137954Y0187000D01*
X0144646Y0187000D02*
X0148800Y0187000D01*
X0149800Y0186000D01*
X0114800Y0170500D02*
X0114800Y0167043D01*
X0114300Y0166543D01*
X0110800Y0166543D01*
X0107300Y0166543D01*
X0110800Y0166543D02*
X0110800Y0170500D01*
D47*
X0107300Y0159457D02*
X0114300Y0159457D01*
X0107550Y0098250D02*
X0106583Y0097283D01*
X0106583Y0088000D01*
X0092017Y0088000D02*
X0092017Y0085217D01*
X0087800Y0081000D01*
X0087800Y0077000D01*
X0083800Y0073000D01*
X0077776Y0073000D01*
X0093800Y0073000D02*
X0093800Y0063000D01*
X0099824Y0063000D01*
X0099824Y0058000D01*
X0099824Y0068000D02*
X0099824Y0073000D01*
X0093800Y0073000D01*
X0071800Y0060134D02*
X0071089Y0060068D01*
X0062300Y0059250D01*
X0071800Y0060134D02*
X0071800Y0051000D01*
X0080300Y0042500D01*
X0091800Y0042500D01*
X0092292Y0041977D01*
X0220300Y0127024D02*
X0220824Y0126500D01*
X0220300Y0127024D02*
X0220300Y0130000D01*
X0216276Y0134024D01*
X0213300Y0134024D01*
X0256400Y0109800D02*
X0261300Y0109800D01*
X0258800Y0109250D02*
X0256800Y0108750D01*
X0320300Y0089000D02*
X0320300Y0082450D01*
X0328300Y0074450D01*
X0332350Y0068550D02*
X0334300Y0070500D01*
X0334300Y0079500D01*
X0330800Y0083000D01*
X0330800Y0089500D01*
X0335800Y0089000D02*
X0335800Y0086000D01*
X0343300Y0078500D01*
X0343300Y0074450D01*
X0332350Y0068550D02*
X0328300Y0068550D01*
X0315250Y0068000D02*
X0312800Y0068000D01*
X0315250Y0068000D02*
X0328300Y0055450D01*
X0335800Y0053000D02*
X0335800Y0047500D01*
X0332300Y0044000D01*
X0324300Y0044000D01*
X0315300Y0053000D01*
X0313300Y0053000D01*
X0312800Y0052500D01*
X0312800Y0058000D02*
X0315800Y0058000D01*
X0324250Y0049550D01*
X0328300Y0049550D01*
X0335800Y0053000D02*
X0338250Y0055450D01*
X0343300Y0055450D01*
X0317300Y0042500D02*
X0313300Y0042500D01*
X0346300Y0082000D02*
X0346300Y0089500D01*
D48*
X0258800Y0123750D02*
X0237050Y0123750D01*
X0142800Y0109705D02*
X0141005Y0111500D01*
X0132300Y0111500D01*
X0118800Y0098000D01*
X0107800Y0098000D01*
X0107550Y0098250D01*
X0098600Y0107200D01*
X0098600Y0139800D01*
X0101100Y0142300D01*
X0101100Y0157500D01*
X0101567Y0158020D01*
X0102857Y0159457D01*
X0107300Y0159457D01*
X0092017Y0136500D02*
X0092017Y0088000D01*
X0092292Y0041977D02*
X0101300Y0032969D01*
X0101300Y0025500D01*
X0107800Y0019000D01*
D49*
X0132800Y0028500D03*
X0115300Y0037500D03*
X0113800Y0045000D03*
X0138300Y0045000D03*
X0140800Y0058500D03*
X0136300Y0060500D03*
X0129300Y0072000D03*
X0144900Y0079300D03*
X0162800Y0082500D03*
X0180800Y0082500D03*
X0185800Y0082500D03*
X0178800Y0072500D03*
X0167300Y0068500D03*
X0164800Y0058000D03*
X0181700Y0047100D03*
X0177500Y0041500D03*
X0185300Y0027000D03*
X0203800Y0041000D03*
X0220800Y0052500D03*
X0225800Y0047000D03*
X0240800Y0045500D03*
X0243300Y0041500D03*
X0240800Y0037500D03*
X0231800Y0029000D03*
X0252800Y0023000D03*
X0258800Y0026000D03*
X0256300Y0030500D03*
X0273800Y0037000D03*
X0274800Y0042000D03*
X0284300Y0037500D03*
X0279800Y0033000D03*
X0277300Y0025000D03*
X0289300Y0041500D03*
X0297800Y0043500D03*
X0312800Y0036500D03*
X0317300Y0042500D03*
X0297300Y0055000D03*
X0290800Y0060500D03*
X0275300Y0066000D03*
X0259700Y0070600D03*
X0236300Y0076500D03*
X0215800Y0084000D03*
X0217300Y0095500D03*
X0223800Y0096000D03*
X0223800Y0113500D03*
X0210800Y0120000D03*
X0208300Y0123000D03*
X0205800Y0120000D03*
X0203300Y0123000D03*
X0200800Y0120000D03*
X0200800Y0126000D03*
X0205800Y0126000D03*
X0210800Y0126000D03*
X0241500Y0136000D03*
X0257800Y0136500D03*
X0261800Y0131000D03*
X0270300Y0145000D03*
X0267300Y0149500D03*
X0315300Y0129000D03*
X0323800Y0127000D03*
X0327300Y0131500D03*
X0338800Y0129000D03*
X0342300Y0133500D03*
X0345300Y0126000D03*
X0346800Y0113500D03*
X0342800Y0113500D03*
X0328300Y0114000D03*
X0321300Y0113500D03*
X0317300Y0113500D03*
X0341300Y0103500D03*
X0265300Y0115000D03*
X0209800Y0161000D03*
X0201300Y0161000D03*
X0193300Y0153500D03*
X0172300Y0174600D03*
X0157300Y0173300D03*
X0154300Y0165400D03*
X0138300Y0155000D03*
X0138300Y0148000D03*
X0138300Y0141000D03*
X0136300Y0134000D03*
X0123800Y0136500D03*
X0111300Y0136500D03*
X0107300Y0145000D03*
X0111300Y0153500D03*
X0123300Y0155500D03*
X0125300Y0153000D03*
X0127300Y0155500D03*
X0129300Y0153000D03*
X0114800Y0170500D03*
X0110800Y0170500D03*
X0095800Y0156000D03*
X0094800Y0147000D03*
X0065300Y0159500D03*
X0052300Y0168500D03*
X0043800Y0171000D03*
X0041100Y0204900D03*
X0092800Y0204000D03*
X0124300Y0193000D03*
X0142800Y0205500D03*
X0154300Y0191000D03*
X0165500Y0191000D03*
X0172300Y0190500D03*
X0178300Y0189500D03*
X0190800Y0186000D03*
X0196800Y0181500D03*
X0199800Y0178500D03*
X0202800Y0181500D03*
X0241300Y0194000D03*
X0242900Y0212300D03*
X0290300Y0182000D03*
X0297800Y0190000D03*
X0301800Y0187500D03*
X0294800Y0204000D03*
X0344300Y0178000D03*
X0318800Y0165500D03*
X0234300Y0062000D03*
X0243300Y0049500D03*
X0261300Y0044000D03*
X0272300Y0052661D03*
X0214300Y0061500D03*
X0093800Y0063000D03*
X0093800Y0073000D03*
X0077300Y0053000D03*
X0053300Y0041000D03*
X0033300Y0057000D03*
X0085300Y0033500D03*
X0033300Y0021500D03*
D50*
X0033300Y0012098D01*
X0057200Y0033300D02*
X0059000Y0031500D01*
X0076800Y0031500D01*
X0082800Y0025500D01*
X0082800Y0006000D01*
X0085300Y0003500D01*
X0122300Y0003500D01*
X0127800Y0009000D01*
X0132800Y0006000D02*
X0132800Y0022000D01*
X0123800Y0031000D01*
X0123800Y0036800D01*
X0131163Y0036800D01*
X0131800Y0037437D01*
X0131800Y0033500D02*
X0131300Y0033000D01*
X0137300Y0033000D01*
X0140300Y0036000D01*
X0146000Y0036000D01*
X0146300Y0036300D01*
X0146300Y0031000D01*
X0152300Y0024000D01*
X0162800Y0024000D01*
X0167800Y0019000D01*
X0162800Y0014000D02*
X0145300Y0014000D01*
X0142800Y0011500D01*
X0142800Y0005500D01*
X0141300Y0004000D01*
X0134800Y0004000D01*
X0132800Y0006000D01*
X0137800Y0009000D02*
X0137800Y0010500D01*
X0142800Y0015500D01*
X0142800Y0021500D01*
X0140300Y0024000D01*
X0135800Y0024000D01*
X0132800Y0027000D01*
X0132800Y0028500D01*
X0127800Y0019000D02*
X0122800Y0014000D01*
X0095300Y0014000D01*
X0092800Y0016500D01*
X0092800Y0031000D01*
X0090300Y0033500D01*
X0085300Y0033500D01*
X0100300Y0039000D02*
X0100300Y0050500D01*
X0104500Y0054700D01*
X0104500Y0077200D01*
X0109800Y0082500D01*
X0137300Y0082500D01*
X0147800Y0093000D01*
X0147800Y0122000D01*
X0155300Y0129500D01*
X0155300Y0163900D01*
X0154300Y0165400D01*
X0155476Y0168251D02*
X0155500Y0168251D01*
X0155500Y0168241D02*
X0154913Y0168484D01*
X0153686Y0168484D01*
X0152553Y0168015D01*
X0151685Y0167147D01*
X0151216Y0166013D01*
X0151216Y0164786D01*
X0151685Y0163653D01*
X0152553Y0162785D01*
X0153500Y0162393D01*
X0153500Y0130246D01*
X0148300Y0125046D01*
X0148300Y0189454D01*
X0152554Y0185200D01*
X0176546Y0185200D01*
X0177600Y0186254D01*
X0177761Y0186416D01*
X0178913Y0186416D01*
X0180047Y0186885D01*
X0180915Y0187753D01*
X0181384Y0188886D01*
X0181384Y0190113D01*
X0181183Y0190600D01*
X0190000Y0190600D01*
X0190000Y0189007D01*
X0189053Y0188615D01*
X0188185Y0187747D01*
X0187716Y0186613D01*
X0187716Y0185386D01*
X0188185Y0184253D01*
X0189053Y0183385D01*
X0190000Y0182993D01*
X0190000Y0130000D01*
X0213800Y0130000D01*
X0213800Y0116000D01*
X0191800Y0116000D01*
X0191800Y0095500D01*
X0191773Y0095019D01*
X0184554Y0087800D01*
X0158846Y0087800D01*
X0153697Y0092948D01*
X0153603Y0119257D01*
X0160046Y0125700D01*
X0161100Y0126754D01*
X0161100Y0160854D01*
X0171761Y0171516D01*
X0172913Y0171516D01*
X0174047Y0171985D01*
X0174915Y0172853D01*
X0175384Y0173986D01*
X0175384Y0175213D01*
X0174915Y0176347D01*
X0174047Y0177215D01*
X0172913Y0177684D01*
X0171686Y0177684D01*
X0170553Y0177215D01*
X0169685Y0176347D01*
X0169216Y0175213D01*
X0169216Y0174061D01*
X0159100Y0163946D01*
X0159100Y0170738D01*
X0159915Y0171553D01*
X0160384Y0172686D01*
X0160384Y0173913D01*
X0159915Y0175047D01*
X0159047Y0175915D01*
X0157913Y0176384D01*
X0156686Y0176384D01*
X0155553Y0175915D01*
X0154685Y0175047D01*
X0154216Y0173913D01*
X0154216Y0172686D01*
X0154685Y0171553D01*
X0155500Y0170738D01*
X0155500Y0168241D01*
X0155500Y0169250D02*
X0148300Y0169250D01*
X0148300Y0170248D02*
X0155500Y0170248D01*
X0154991Y0171247D02*
X0148300Y0171247D01*
X0148300Y0172245D02*
X0154398Y0172245D01*
X0154216Y0173244D02*
X0148300Y0173244D01*
X0148300Y0174242D02*
X0154352Y0174242D01*
X0154879Y0175241D02*
X0148300Y0175241D01*
X0148300Y0176239D02*
X0156337Y0176239D01*
X0158263Y0176239D02*
X0169641Y0176239D01*
X0169227Y0175241D02*
X0159721Y0175241D01*
X0160248Y0174242D02*
X0169216Y0174242D01*
X0168398Y0173244D02*
X0160384Y0173244D01*
X0160202Y0172245D02*
X0167400Y0172245D01*
X0166401Y0171247D02*
X0159609Y0171247D01*
X0159100Y0170248D02*
X0165403Y0170248D01*
X0164404Y0169250D02*
X0159100Y0169250D01*
X0159100Y0168251D02*
X0163406Y0168251D01*
X0162407Y0167253D02*
X0159100Y0167253D01*
X0159100Y0166254D02*
X0161409Y0166254D01*
X0160410Y0165256D02*
X0159100Y0165256D01*
X0159100Y0164257D02*
X0159412Y0164257D01*
X0162506Y0162260D02*
X0190000Y0162260D01*
X0190000Y0161262D02*
X0161507Y0161262D01*
X0161100Y0160263D02*
X0190000Y0160263D01*
X0190000Y0159265D02*
X0161100Y0159265D01*
X0161100Y0158266D02*
X0190000Y0158266D01*
X0190000Y0157268D02*
X0161100Y0157268D01*
X0161100Y0156269D02*
X0190000Y0156269D01*
X0190000Y0155271D02*
X0161100Y0155271D01*
X0161100Y0154272D02*
X0190000Y0154272D01*
X0190000Y0153274D02*
X0161100Y0153274D01*
X0161100Y0152275D02*
X0190000Y0152275D01*
X0190000Y0151277D02*
X0161100Y0151277D01*
X0161100Y0150278D02*
X0190000Y0150278D01*
X0190000Y0149280D02*
X0161100Y0149280D01*
X0161100Y0148281D02*
X0190000Y0148281D01*
X0190000Y0147283D02*
X0161100Y0147283D01*
X0161100Y0146284D02*
X0190000Y0146284D01*
X0190000Y0145286D02*
X0161100Y0145286D01*
X0161100Y0144287D02*
X0190000Y0144287D01*
X0190000Y0143289D02*
X0161100Y0143289D01*
X0161100Y0142290D02*
X0190000Y0142290D01*
X0190000Y0141292D02*
X0161100Y0141292D01*
X0161100Y0140293D02*
X0190000Y0140293D01*
X0190000Y0139295D02*
X0161100Y0139295D01*
X0161100Y0138296D02*
X0190000Y0138296D01*
X0190000Y0137298D02*
X0161100Y0137298D01*
X0161100Y0136299D02*
X0190000Y0136299D01*
X0190000Y0135301D02*
X0161100Y0135301D01*
X0161100Y0134302D02*
X0190000Y0134302D01*
X0190000Y0133303D02*
X0161100Y0133303D01*
X0161100Y0132305D02*
X0190000Y0132305D01*
X0190000Y0131306D02*
X0161100Y0131306D01*
X0161100Y0130308D02*
X0190000Y0130308D01*
X0193800Y0132800D02*
X0198600Y0132800D01*
X0198600Y0133724D01*
X0198300Y0134024D01*
X0193800Y0137200D02*
X0193600Y0137500D01*
X0194859Y0143000D02*
X0192300Y0145300D01*
X0194859Y0143000D02*
X0200600Y0143000D01*
X0201300Y0144059D01*
X0201300Y0147800D01*
X0205000Y0147800D02*
X0205000Y0150300D01*
X0201300Y0153500D01*
X0201300Y0157200D01*
X0201300Y0161000D01*
X0201300Y0164300D01*
X0205800Y0164300D02*
X0209800Y0164300D01*
X0209800Y0161000D01*
X0212616Y0162260D02*
X0213819Y0162260D01*
X0213819Y0162123D02*
X0214098Y0161844D01*
X0212884Y0160630D01*
X0212884Y0161613D01*
X0212415Y0162747D01*
X0212100Y0163062D01*
X0212100Y0166038D01*
X0211638Y0166500D01*
X0212100Y0166962D01*
X0212100Y0170438D01*
X0211338Y0171200D01*
X0211300Y0171200D01*
X0211300Y0192000D01*
X0222254Y0192000D01*
X0230000Y0184254D01*
X0231054Y0183200D01*
X0238207Y0183200D01*
X0237028Y0182020D01*
X0236350Y0180385D01*
X0236350Y0178615D01*
X0237028Y0176979D01*
X0238279Y0175728D01*
X0239915Y0175050D01*
X0241685Y0175050D01*
X0243320Y0175728D01*
X0244572Y0176979D01*
X0245250Y0178615D01*
X0245250Y0180385D01*
X0244572Y0182020D01*
X0243393Y0183200D01*
X0246362Y0183200D01*
X0246350Y0183188D01*
X0246350Y0175812D01*
X0247112Y0175050D01*
X0254488Y0175050D01*
X0255250Y0175812D01*
X0255250Y0183188D01*
X0255238Y0183200D01*
X0255769Y0183200D01*
X0255618Y0139501D01*
X0254957Y0140162D01*
X0250730Y0140162D01*
X0249969Y0139401D01*
X0249969Y0134382D01*
X0248631Y0134378D01*
X0248631Y0139401D01*
X0247870Y0140162D01*
X0243643Y0140162D01*
X0242882Y0139401D01*
X0242882Y0138766D01*
X0242113Y0139084D01*
X0240886Y0139084D01*
X0239753Y0138615D01*
X0238885Y0137747D01*
X0238416Y0136613D01*
X0238416Y0135386D01*
X0238846Y0134347D01*
X0225000Y0134303D01*
X0225000Y0136538D01*
X0224238Y0137300D01*
X0224226Y0137300D01*
X0224234Y0138237D01*
X0231708Y0138300D01*
X0232446Y0138300D01*
X0232452Y0138306D01*
X0232461Y0138306D01*
X0232978Y0138832D01*
X0233500Y0139354D01*
X0233500Y0139363D01*
X0233506Y0139370D01*
X0233503Y0139797D01*
X0233781Y0140076D01*
X0233781Y0145877D01*
X0233500Y0146158D01*
X0233500Y0156463D01*
X0233506Y0156470D01*
X0233500Y0157208D01*
X0233500Y0157946D01*
X0233494Y0157952D01*
X0233494Y0157961D01*
X0232968Y0158478D01*
X0232446Y0159000D01*
X0232437Y0159000D01*
X0232430Y0159006D01*
X0231692Y0159000D01*
X0230954Y0159000D01*
X0230948Y0158994D01*
X0216216Y0158870D01*
X0217046Y0159700D01*
X0218100Y0160754D01*
X0218100Y0161442D01*
X0218781Y0162123D01*
X0218781Y0167924D01*
X0218020Y0168686D01*
X0214580Y0168686D01*
X0213819Y0167924D01*
X0213819Y0162123D01*
X0213516Y0161262D02*
X0212884Y0161262D01*
X0212100Y0163259D02*
X0213819Y0163259D01*
X0213819Y0164257D02*
X0212100Y0164257D01*
X0212100Y0165256D02*
X0213819Y0165256D01*
X0213819Y0166254D02*
X0211884Y0166254D01*
X0212100Y0167253D02*
X0213819Y0167253D01*
X0214146Y0168251D02*
X0212100Y0168251D01*
X0212100Y0169250D02*
X0255721Y0169250D01*
X0255724Y0170248D02*
X0212100Y0170248D01*
X0211300Y0171247D02*
X0255728Y0171247D01*
X0255731Y0172245D02*
X0211300Y0172245D01*
X0211300Y0173244D02*
X0255735Y0173244D01*
X0255738Y0174242D02*
X0211300Y0174242D01*
X0211300Y0175241D02*
X0239455Y0175241D01*
X0237768Y0176239D02*
X0211300Y0176239D01*
X0211300Y0177238D02*
X0236921Y0177238D01*
X0236507Y0178237D02*
X0211300Y0178237D01*
X0211300Y0179235D02*
X0236350Y0179235D01*
X0236350Y0180234D02*
X0211300Y0180234D01*
X0211300Y0181232D02*
X0236701Y0181232D01*
X0237238Y0182231D02*
X0211300Y0182231D01*
X0211300Y0183229D02*
X0231025Y0183229D01*
X0230027Y0184228D02*
X0211300Y0184228D01*
X0211300Y0185226D02*
X0229028Y0185226D01*
X0228030Y0186225D02*
X0211300Y0186225D01*
X0211300Y0187223D02*
X0227031Y0187223D01*
X0226033Y0188222D02*
X0211300Y0188222D01*
X0211300Y0189220D02*
X0225034Y0189220D01*
X0224036Y0190219D02*
X0211300Y0190219D01*
X0211300Y0191217D02*
X0223037Y0191217D01*
X0222800Y0197000D02*
X0232800Y0187000D01*
X0257800Y0187000D01*
X0259800Y0185000D01*
X0259800Y0143500D01*
X0271300Y0132000D01*
X0271300Y0125300D01*
X0274100Y0122500D01*
X0274100Y0117500D01*
X0278500Y0117500D02*
X0285300Y0117500D01*
X0288800Y0122500D02*
X0278500Y0122500D01*
X0278500Y0127500D02*
X0285300Y0127500D01*
X0288800Y0132500D02*
X0278500Y0132500D01*
X0274100Y0132500D02*
X0261800Y0144800D01*
X0261800Y0186500D01*
X0259300Y0189000D01*
X0233800Y0189000D01*
X0227800Y0195000D01*
X0227800Y0199000D01*
X0222800Y0197000D02*
X0222800Y0204000D01*
X0217800Y0209000D01*
X0213300Y0211000D02*
X0213300Y0196500D01*
X0210800Y0194000D01*
X0174300Y0194000D01*
X0172300Y0192000D01*
X0172300Y0190500D01*
X0170800Y0194000D02*
X0168500Y0194000D01*
X0165500Y0191000D01*
X0170800Y0194000D02*
X0172800Y0196000D01*
X0172800Y0201500D01*
X0170300Y0204000D01*
X0164800Y0204000D01*
X0159800Y0209000D01*
X0157800Y0209000D01*
X0152800Y0211500D02*
X0152800Y0206000D01*
X0150800Y0204000D01*
X0146300Y0204000D01*
X0141300Y0199000D01*
X0137800Y0199000D01*
X0132800Y0196500D02*
X0124300Y0188000D01*
X0107300Y0188000D01*
X0103800Y0184500D01*
X0088300Y0184500D01*
X0084300Y0180000D01*
X0084300Y0177453D01*
X0077800Y0177453D02*
X0077800Y0179500D01*
X0084800Y0186500D01*
X0102300Y0186500D01*
X0105800Y0190000D01*
X0121300Y0190000D01*
X0124300Y0193000D01*
X0122800Y0196500D02*
X0118300Y0192000D01*
X0104800Y0192000D01*
X0101300Y0188500D01*
X0084300Y0188500D01*
X0077800Y0182000D01*
X0074300Y0182000D01*
X0071300Y0179000D01*
X0071300Y0177453D01*
X0070300Y0172000D02*
X0071300Y0171547D01*
X0071300Y0171500D02*
X0070300Y0172000D01*
X0071300Y0171500D02*
X0071300Y0163700D01*
X0071300Y0159300D02*
X0065300Y0159500D01*
X0071300Y0159300D02*
X0083300Y0159300D01*
X0088800Y0159300D01*
X0088800Y0163700D02*
X0088800Y0169547D01*
X0090800Y0171547D01*
X0094800Y0169500D02*
X0094800Y0178000D01*
X0097300Y0180500D01*
X0106800Y0180500D01*
X0109800Y0183500D01*
X0111600Y0183500D01*
X0111600Y0179500D01*
X0116000Y0179500D02*
X0116000Y0171700D01*
X0114800Y0170500D01*
X0105253Y0174500D02*
X0102300Y0171547D01*
X0102300Y0158020D01*
X0101567Y0158020D01*
X0095800Y0156000D02*
X0095800Y0160500D01*
X0098800Y0163500D01*
X0098800Y0164300D01*
X0098800Y0168700D02*
X0098800Y0173953D01*
X0099347Y0174500D01*
X0094800Y0169500D02*
X0092300Y0167000D01*
X0092300Y0149500D01*
X0094800Y0147000D01*
X0107300Y0145000D02*
X0111600Y0145000D01*
X0115300Y0147000D02*
X0115300Y0149300D01*
X0115300Y0152500D01*
X0114300Y0153500D01*
X0111300Y0153500D01*
X0110500Y0154300D01*
X0123000Y0147000D02*
X0125600Y0147000D01*
X0129600Y0149000D01*
X0129600Y0145000D02*
X0123000Y0145000D01*
X0119300Y0140700D02*
X0119300Y0137500D01*
X0120300Y0136500D01*
X0123800Y0136500D01*
X0123300Y0130500D02*
X0117300Y0136500D01*
X0117300Y0140700D01*
X0115300Y0139000D02*
X0115300Y0136650D01*
X0115500Y0136650D01*
X0115500Y0135754D01*
X0116554Y0134700D01*
X0121500Y0129754D01*
X0122554Y0128700D01*
X0143046Y0128700D01*
X0148100Y0133754D01*
X0148100Y0139000D01*
X0153300Y0139000D01*
X0153300Y0130046D01*
X0147754Y0124500D01*
X0102800Y0124500D01*
X0102800Y0134422D01*
X0102800Y0134422D01*
X0103142Y0134224D01*
X0103524Y0134122D01*
X0105894Y0134122D01*
X0105894Y0136811D01*
X0106272Y0136811D01*
X0106272Y0134122D01*
X0108643Y0134122D01*
X0109025Y0134224D01*
X0109145Y0134294D01*
X0109553Y0133885D01*
X0110686Y0133416D01*
X0111913Y0133416D01*
X0113047Y0133885D01*
X0113915Y0134753D01*
X0114384Y0135886D01*
X0114384Y0136708D01*
X0114603Y0136650D01*
X0115300Y0136650D01*
X0115300Y0139000D01*
X0115300Y0139000D01*
X0115300Y0138296D02*
X0115300Y0138296D01*
X0115300Y0137298D02*
X0115300Y0137298D01*
X0115500Y0136299D02*
X0114384Y0136299D01*
X0114142Y0135301D02*
X0115954Y0135301D01*
X0116952Y0134302D02*
X0113464Y0134302D01*
X0111300Y0136500D02*
X0111300Y0140700D01*
X0111600Y0141000D01*
X0106272Y0136299D02*
X0105894Y0136299D01*
X0105894Y0135301D02*
X0106272Y0135301D01*
X0106272Y0134302D02*
X0105894Y0134302D01*
X0103008Y0134302D02*
X0102800Y0134302D01*
X0102800Y0133303D02*
X0117951Y0133303D01*
X0118949Y0132305D02*
X0102800Y0132305D01*
X0102800Y0131306D02*
X0119948Y0131306D01*
X0120946Y0130308D02*
X0102800Y0130308D01*
X0102800Y0129309D02*
X0121945Y0129309D01*
X0123300Y0130500D02*
X0142300Y0130500D01*
X0146300Y0134500D01*
X0146300Y0139500D01*
X0144800Y0141000D01*
X0144800Y0166677D01*
X0148300Y0166254D02*
X0151316Y0166254D01*
X0151216Y0165256D02*
X0148300Y0165256D01*
X0148300Y0164257D02*
X0151435Y0164257D01*
X0152079Y0163259D02*
X0148300Y0163259D01*
X0148300Y0162260D02*
X0153500Y0162260D01*
X0153500Y0161262D02*
X0148300Y0161262D01*
X0148300Y0160263D02*
X0153500Y0160263D01*
X0153500Y0159265D02*
X0148300Y0159265D01*
X0148300Y0158266D02*
X0153500Y0158266D01*
X0153500Y0157268D02*
X0148300Y0157268D01*
X0148300Y0156269D02*
X0153500Y0156269D01*
X0153500Y0155271D02*
X0148300Y0155271D01*
X0148300Y0154272D02*
X0153500Y0154272D01*
X0153500Y0153274D02*
X0148300Y0153274D01*
X0148300Y0152275D02*
X0153500Y0152275D01*
X0153500Y0151277D02*
X0148300Y0151277D01*
X0148343Y0151500D02*
X0150800Y0151000D01*
X0148300Y0150278D02*
X0153500Y0150278D01*
X0153500Y0149280D02*
X0148300Y0149280D01*
X0148300Y0148281D02*
X0153500Y0148281D01*
X0153500Y0147283D02*
X0148300Y0147283D01*
X0148300Y0146284D02*
X0153500Y0146284D01*
X0153500Y0145286D02*
X0148300Y0145286D01*
X0148343Y0144500D02*
X0150800Y0144500D01*
X0148300Y0144287D02*
X0153500Y0144287D01*
X0153500Y0143289D02*
X0148300Y0143289D01*
X0148300Y0142290D02*
X0153500Y0142290D01*
X0153500Y0141292D02*
X0148300Y0141292D01*
X0148300Y0140293D02*
X0153500Y0140293D01*
X0153500Y0139295D02*
X0148300Y0139295D01*
X0148300Y0138296D02*
X0153500Y0138296D01*
X0153300Y0138296D02*
X0148100Y0138296D01*
X0148100Y0137298D02*
X0153300Y0137298D01*
X0153500Y0137298D02*
X0148300Y0137298D01*
X0148300Y0136299D02*
X0153500Y0136299D01*
X0153300Y0136299D02*
X0148100Y0136299D01*
X0148100Y0135301D02*
X0153300Y0135301D01*
X0153500Y0135301D02*
X0148300Y0135301D01*
X0148300Y0134302D02*
X0153500Y0134302D01*
X0153300Y0134302D02*
X0148100Y0134302D01*
X0148300Y0133303D02*
X0153500Y0133303D01*
X0153300Y0133303D02*
X0147649Y0133303D01*
X0148300Y0132305D02*
X0153500Y0132305D01*
X0153300Y0132305D02*
X0146651Y0132305D01*
X0145652Y0131306D02*
X0153300Y0131306D01*
X0153500Y0131306D02*
X0148300Y0131306D01*
X0148300Y0130308D02*
X0153500Y0130308D01*
X0153300Y0130308D02*
X0144654Y0130308D01*
X0143655Y0129309D02*
X0152564Y0129309D01*
X0148300Y0129309D01*
X0148300Y0128311D02*
X0151565Y0128311D01*
X0102800Y0128311D01*
X0102800Y0127312D02*
X0150567Y0127312D01*
X0148300Y0127312D01*
X0148300Y0126314D02*
X0149568Y0126314D01*
X0102800Y0126314D01*
X0102800Y0125315D02*
X0148570Y0125315D01*
X0148300Y0125315D01*
X0149800Y0121000D02*
X0149800Y0092200D01*
X0138100Y0080500D01*
X0110300Y0080500D01*
X0106500Y0076700D01*
X0106500Y0053200D01*
X0102300Y0049000D01*
X0102300Y0040000D01*
X0104863Y0037437D01*
X0107800Y0037437D01*
X0107800Y0033500D02*
X0105800Y0033500D01*
X0100300Y0039000D01*
X0107800Y0041374D02*
X0111426Y0041374D01*
X0115300Y0037500D01*
X0123800Y0041200D02*
X0123800Y0041500D01*
X0131926Y0041500D01*
X0131800Y0041374D02*
X0131800Y0040700D01*
X0146300Y0040700D01*
X0138300Y0045000D02*
X0132111Y0045000D01*
X0131800Y0045311D01*
X0131800Y0045500D01*
X0131800Y0041374D02*
X0131626Y0041200D01*
X0131800Y0041374D02*
X0131426Y0041000D01*
X0113800Y0045000D02*
X0113489Y0045311D01*
X0107800Y0045311D01*
X0115400Y0061700D02*
X0114600Y0062500D01*
X0112000Y0062500D01*
X0115400Y0061700D02*
X0117011Y0061700D01*
X0117150Y0064220D02*
X0120220Y0064220D01*
X0120300Y0064300D01*
X0120300Y0066100D01*
X0120980Y0066780D01*
X0123450Y0066780D01*
X0120300Y0064300D02*
X0120300Y0062300D01*
X0120939Y0061661D01*
X0123450Y0061661D01*
X0134100Y0066000D02*
X0134100Y0069500D01*
X0138500Y0069500D02*
X0138500Y0071300D01*
X0134200Y0075600D01*
X0129300Y0075600D01*
X0119600Y0075600D01*
X0117100Y0073100D01*
X0117100Y0069389D01*
X0117150Y0069339D01*
X0129300Y0072000D02*
X0129300Y0075600D01*
X0138500Y0069500D02*
X0141300Y0069500D01*
X0142162Y0068638D01*
X0142363Y0067063D02*
X0141300Y0066000D01*
X0138500Y0066000D01*
X0138500Y0062700D01*
X0141600Y0062700D01*
X0151800Y0052500D01*
X0151800Y0031000D01*
X0154300Y0028000D01*
X0173800Y0028000D01*
X0177800Y0024000D01*
X0177800Y0019000D01*
X0182800Y0022000D02*
X0182800Y0014000D01*
X0187800Y0009000D01*
X0194800Y0014000D02*
X0192800Y0016000D01*
X0192800Y0024000D01*
X0196800Y0026500D02*
X0200300Y0026500D01*
X0207800Y0019000D01*
X0209800Y0024000D02*
X0209800Y0032500D01*
X0205300Y0037000D01*
X0192800Y0037000D01*
X0203800Y0040937D02*
X0203800Y0041000D01*
X0213800Y0044874D02*
X0218100Y0044874D01*
X0219100Y0043874D01*
X0219100Y0036100D01*
X0216700Y0033700D01*
X0216700Y0027700D01*
X0222800Y0021600D01*
X0222800Y0014000D01*
X0227800Y0009000D01*
X0232800Y0014000D02*
X0232800Y0028000D01*
X0231800Y0029000D01*
X0235300Y0030000D02*
X0235300Y0027100D01*
X0237800Y0024600D01*
X0237800Y0019000D01*
X0232800Y0014000D02*
X0237800Y0009000D01*
X0227800Y0019000D02*
X0227800Y0040000D01*
X0219300Y0048500D01*
X0214111Y0048500D01*
X0213800Y0048811D01*
X0220052Y0052748D02*
X0220800Y0052500D01*
X0229800Y0051500D02*
X0231300Y0053000D01*
X0234548Y0053000D01*
X0234800Y0052748D01*
X0234800Y0048811D02*
X0239211Y0048811D01*
X0239900Y0049500D01*
X0243300Y0049500D01*
X0246800Y0052000D02*
X0242300Y0056500D01*
X0234985Y0056500D01*
X0234800Y0056685D01*
X0234615Y0056500D01*
X0229800Y0051500D02*
X0229800Y0035500D01*
X0235300Y0030000D01*
X0237500Y0029100D02*
X0239500Y0027100D01*
X0247100Y0027100D01*
X0248700Y0028700D01*
X0248700Y0035900D01*
X0243300Y0041300D01*
X0243300Y0041500D01*
X0246800Y0041000D02*
X0246800Y0052000D01*
X0254300Y0051811D02*
X0254300Y0067700D01*
X0257200Y0070600D01*
X0259700Y0070600D01*
X0260500Y0069800D01*
X0263800Y0069800D01*
X0273790Y0077387D02*
X0295856Y0077387D01*
X0295852Y0078385D02*
X0272808Y0078385D01*
X0271826Y0079384D02*
X0295848Y0079384D01*
X0295844Y0080382D02*
X0270844Y0080382D01*
X0269861Y0081381D02*
X0295839Y0081381D01*
X0295835Y0082379D02*
X0268879Y0082379D01*
X0267897Y0083378D02*
X0295831Y0083378D01*
X0295830Y0083744D02*
X0295875Y0072621D01*
X0289854Y0066600D01*
X0286656Y0066600D01*
X0286656Y0067016D01*
X0286656Y0067898D01*
X0286554Y0068280D01*
X0286545Y0068295D01*
X0286554Y0068311D01*
X0286656Y0068692D01*
X0286656Y0069575D01*
X0286656Y0070457D01*
X0286554Y0070839D01*
X0286357Y0071181D01*
X0286077Y0071460D01*
X0285735Y0071658D01*
X0285354Y0071760D01*
X0282406Y0071760D01*
X0279459Y0071760D01*
X0279353Y0071731D01*
X0260400Y0091000D01*
X0282958Y0091000D01*
X0282946Y0090953D01*
X0282946Y0088500D01*
X0289851Y0088500D01*
X0289851Y0087500D01*
X0282946Y0087500D01*
X0282946Y0085047D01*
X0283048Y0084665D01*
X0283245Y0084323D01*
X0283525Y0084044D01*
X0283867Y0083846D01*
X0284248Y0083744D01*
X0289851Y0083744D01*
X0289851Y0087500D01*
X0290851Y0087500D01*
X0290851Y0083744D01*
X0295830Y0083744D01*
X0290851Y0084376D02*
X0289851Y0084376D01*
X0289851Y0085375D02*
X0290851Y0085375D01*
X0290851Y0086373D02*
X0289851Y0086373D01*
X0289851Y0087372D02*
X0290851Y0087372D01*
X0289851Y0088370D02*
X0262986Y0088370D01*
X0263969Y0087372D02*
X0282946Y0087372D01*
X0282946Y0086373D02*
X0264951Y0086373D01*
X0265933Y0085375D02*
X0282946Y0085375D01*
X0283215Y0084376D02*
X0266915Y0084376D01*
X0262004Y0089369D02*
X0282946Y0089369D01*
X0282946Y0090368D02*
X0261022Y0090368D01*
X0245100Y0090700D02*
X0245002Y0090693D01*
X0244904Y0090689D01*
X0244806Y0090688D01*
X0244708Y0090692D01*
X0244610Y0090699D01*
X0244512Y0090710D01*
X0244415Y0090725D01*
X0244319Y0090744D01*
X0244223Y0090766D01*
X0244129Y0090792D01*
X0244035Y0090821D01*
X0243943Y0090854D01*
X0243852Y0090891D01*
X0243762Y0090931D01*
X0243674Y0090974D01*
X0243588Y0091021D01*
X0243503Y0091071D01*
X0243421Y0091124D01*
X0243340Y0091180D01*
X0243262Y0091239D01*
X0243186Y0091302D01*
X0243113Y0091367D01*
X0243042Y0091435D01*
X0242974Y0091505D01*
X0242908Y0091579D01*
X0242846Y0091654D01*
X0242786Y0091732D01*
X0242729Y0091812D01*
X0242676Y0091895D01*
X0242626Y0091979D01*
X0242579Y0092065D01*
X0242535Y0092153D01*
X0242494Y0092242D01*
X0242458Y0092333D01*
X0242424Y0092426D01*
X0242394Y0092519D01*
X0242368Y0092614D01*
X0242346Y0092709D01*
X0242327Y0092806D01*
X0242312Y0092903D01*
X0242300Y0093000D01*
X0242300Y0093500D01*
X0225800Y0094000D02*
X0225800Y0084000D01*
X0222300Y0084700D02*
X0222300Y0081500D01*
X0224800Y0079000D01*
X0228800Y0079000D01*
X0229800Y0080000D01*
X0229800Y0083937D01*
X0229737Y0084000D01*
X0233674Y0084000D02*
X0233800Y0083874D01*
X0233800Y0081000D01*
X0237611Y0084000D02*
X0237611Y0077811D01*
X0236300Y0076500D01*
X0222300Y0084700D02*
X0210500Y0096500D01*
X0195800Y0096500D01*
X0185300Y0086000D01*
X0158100Y0086000D01*
X0151900Y0092200D01*
X0151800Y0120000D01*
X0159300Y0127500D01*
X0159300Y0161600D01*
X0172300Y0174600D01*
X0175077Y0173244D02*
X0190000Y0173244D01*
X0190000Y0174242D02*
X0175384Y0174242D01*
X0175373Y0175241D02*
X0190000Y0175241D01*
X0190000Y0176239D02*
X0174959Y0176239D01*
X0173991Y0177238D02*
X0190000Y0177238D01*
X0190000Y0178237D02*
X0148300Y0178237D01*
X0148300Y0179235D02*
X0190000Y0179235D01*
X0190000Y0180234D02*
X0148300Y0180234D01*
X0148300Y0181232D02*
X0190000Y0181232D01*
X0190000Y0182231D02*
X0148300Y0182231D01*
X0148300Y0183229D02*
X0189430Y0183229D01*
X0188211Y0184228D02*
X0148300Y0184228D01*
X0148300Y0185226D02*
X0152528Y0185226D01*
X0151530Y0186225D02*
X0148300Y0186225D01*
X0148300Y0187223D02*
X0150531Y0187223D01*
X0149533Y0188222D02*
X0148300Y0188222D01*
X0148300Y0189220D02*
X0148534Y0189220D01*
X0148300Y0192000D02*
X0134300Y0192000D01*
X0126300Y0184000D01*
X0116300Y0184000D01*
X0108800Y0186000D02*
X0105300Y0182500D01*
X0093800Y0182500D01*
X0090800Y0179500D01*
X0090800Y0177453D01*
X0077800Y0171547D02*
X0077800Y0163700D01*
X0083300Y0163700D02*
X0083300Y0170547D01*
X0083302Y0170607D01*
X0083307Y0170668D01*
X0083316Y0170727D01*
X0083329Y0170786D01*
X0083345Y0170845D01*
X0083365Y0170902D01*
X0083388Y0170957D01*
X0083415Y0171012D01*
X0083444Y0171064D01*
X0083477Y0171115D01*
X0083513Y0171164D01*
X0083551Y0171210D01*
X0083593Y0171254D01*
X0083637Y0171296D01*
X0083683Y0171334D01*
X0083732Y0171370D01*
X0083783Y0171403D01*
X0083835Y0171432D01*
X0083890Y0171459D01*
X0083945Y0171482D01*
X0084002Y0171502D01*
X0084061Y0171518D01*
X0084120Y0171531D01*
X0084179Y0171540D01*
X0084240Y0171545D01*
X0084300Y0171547D01*
X0077800Y0159300D02*
X0071300Y0159300D01*
X0052300Y0168500D02*
X0048800Y0165000D01*
X0048800Y0161598D01*
X0048798Y0161687D01*
X0048792Y0161776D01*
X0048783Y0161865D01*
X0048770Y0161953D01*
X0048753Y0162041D01*
X0048732Y0162128D01*
X0048708Y0162214D01*
X0048680Y0162298D01*
X0048648Y0162382D01*
X0048613Y0162464D01*
X0048575Y0162544D01*
X0048533Y0162623D01*
X0048488Y0162700D01*
X0048440Y0162775D01*
X0048388Y0162848D01*
X0048333Y0162919D01*
X0048276Y0162987D01*
X0048216Y0163052D01*
X0048152Y0163116D01*
X0048087Y0163176D01*
X0048019Y0163233D01*
X0047948Y0163288D01*
X0047875Y0163340D01*
X0047800Y0163388D01*
X0047723Y0163433D01*
X0047644Y0163475D01*
X0047564Y0163513D01*
X0047482Y0163548D01*
X0047398Y0163580D01*
X0047314Y0163608D01*
X0047228Y0163632D01*
X0047141Y0163653D01*
X0047053Y0163670D01*
X0046965Y0163683D01*
X0046876Y0163692D01*
X0046787Y0163698D01*
X0046698Y0163700D01*
X0035800Y0163700D01*
X0032253Y0165453D02*
X0031300Y0165453D01*
X0032253Y0165453D02*
X0034300Y0167500D01*
X0046300Y0167500D01*
X0062800Y0184000D01*
X0077300Y0184000D01*
X0082800Y0189500D01*
X0083800Y0190500D01*
X0100300Y0190500D01*
X0103800Y0194000D01*
X0110300Y0194000D01*
X0115300Y0199000D01*
X0117800Y0199000D01*
X0122800Y0196500D02*
X0122800Y0202000D01*
X0124800Y0204000D01*
X0130800Y0204000D01*
X0132800Y0206000D01*
X0132800Y0211500D01*
X0134800Y0213500D01*
X0143300Y0213500D01*
X0147800Y0209000D01*
X0142800Y0205500D02*
X0141300Y0204000D01*
X0135300Y0204000D01*
X0132800Y0201500D01*
X0132800Y0196500D01*
X0133300Y0194000D02*
X0125300Y0186000D01*
X0108800Y0186000D01*
X0098300Y0192000D02*
X0102800Y0196500D01*
X0102800Y0202000D01*
X0104800Y0204000D01*
X0112800Y0204000D01*
X0117800Y0209000D01*
X0122800Y0214000D02*
X0084800Y0214000D01*
X0082800Y0212000D01*
X0082800Y0197000D01*
X0075800Y0190000D01*
X0056300Y0190000D01*
X0053300Y0192500D01*
X0042202Y0192500D01*
X0036300Y0186598D01*
X0032847Y0179500D02*
X0054188Y0179500D01*
X0060688Y0186000D01*
X0076800Y0186000D01*
X0082800Y0192000D01*
X0098300Y0192000D01*
X0092800Y0196500D02*
X0092800Y0204000D01*
X0092800Y0196500D02*
X0090300Y0194000D01*
X0082300Y0194000D01*
X0076300Y0188000D01*
X0048800Y0188000D01*
X0048800Y0186402D01*
X0048800Y0186000D01*
X0041800Y0177500D02*
X0037100Y0177500D01*
X0035800Y0176200D01*
X0041800Y0177500D02*
X0043800Y0175500D01*
X0043800Y0171000D01*
X0035800Y0171800D02*
X0035553Y0172047D01*
X0031300Y0172047D01*
X0031300Y0177953D02*
X0032847Y0179500D01*
X0031300Y0159547D02*
X0035553Y0159547D01*
X0035800Y0159300D01*
X0122800Y0214000D02*
X0127800Y0209000D01*
X0133300Y0194000D02*
X0150300Y0194000D01*
X0152800Y0196500D01*
X0152800Y0201500D01*
X0154800Y0203500D01*
X0160800Y0203500D01*
X0165300Y0199000D01*
X0167800Y0199000D01*
X0157800Y0199000D02*
X0157800Y0194500D01*
X0154300Y0191000D01*
X0153300Y0187000D02*
X0148300Y0192000D01*
X0153300Y0187000D02*
X0175800Y0187000D01*
X0178300Y0189500D01*
X0181109Y0188222D02*
X0188660Y0188222D01*
X0189300Y0189000D02*
X0189300Y0190000D01*
X0195100Y0190000D01*
X0198500Y0188500D02*
X0199500Y0190000D01*
X0203600Y0190000D01*
X0203300Y0187500D02*
X0203600Y0187200D01*
X0203600Y0185800D01*
X0203300Y0187500D02*
X0208000Y0187500D01*
X0208000Y0184000D01*
X0208800Y0182200D01*
X0228100Y0182200D01*
X0230800Y0179500D01*
X0231800Y0185000D02*
X0256800Y0185000D01*
X0257800Y0184000D01*
X0257800Y0142500D01*
X0269300Y0131000D01*
X0269300Y0116500D01*
X0273800Y0112500D01*
X0274100Y0112500D01*
X0274100Y0107500D01*
X0278500Y0107500D02*
X0285300Y0107500D01*
X0288800Y0112500D02*
X0278500Y0112500D01*
X0288800Y0112500D02*
X0290300Y0114000D01*
X0290300Y0124000D01*
X0290300Y0133500D01*
X0290050Y0133750D01*
X0290300Y0134000D01*
X0290300Y0144000D01*
X0290300Y0182000D01*
X0285300Y0177500D02*
X0283600Y0175800D01*
X0278300Y0175800D01*
X0278300Y0180200D02*
X0278300Y0185100D01*
X0286900Y0193700D01*
X0290100Y0193700D01*
X0292800Y0196400D01*
X0292800Y0201500D01*
X0287800Y0206500D01*
X0287800Y0209000D01*
X0282800Y0204000D02*
X0277800Y0209000D01*
X0282800Y0204000D02*
X0282800Y0196500D01*
X0271700Y0185400D01*
X0271700Y0159900D01*
X0274100Y0157500D01*
X0269800Y0156800D02*
X0274100Y0152500D01*
X0274100Y0147500D01*
X0271300Y0146500D02*
X0270300Y0145500D01*
X0270300Y0145000D01*
X0271300Y0146500D02*
X0271300Y0151000D01*
X0267800Y0154500D01*
X0267800Y0199000D01*
X0262800Y0195500D02*
X0265800Y0192500D01*
X0265800Y0151000D01*
X0267300Y0149500D01*
X0263800Y0146000D02*
X0272300Y0137500D01*
X0274100Y0137500D01*
X0274100Y0142500D01*
X0278500Y0142500D02*
X0288800Y0142500D01*
X0290300Y0144000D01*
X0285300Y0147500D02*
X0278500Y0147500D01*
X0278500Y0137500D02*
X0285300Y0137500D01*
X0290050Y0133750D02*
X0288800Y0132500D01*
X0290300Y0124000D02*
X0288800Y0122500D01*
X0302100Y0122320D02*
X0317240Y0122320D01*
X0317240Y0123182D02*
X0317240Y0120860D01*
X0317110Y0120725D01*
X0317172Y0117342D01*
X0316506Y0116509D01*
X0315553Y0116115D01*
X0314685Y0115247D01*
X0314216Y0114113D01*
X0314216Y0112886D01*
X0314685Y0111753D01*
X0315553Y0110885D01*
X0316686Y0110416D01*
X0317913Y0110416D01*
X0319047Y0110885D01*
X0319300Y0111138D01*
X0319553Y0110885D01*
X0320686Y0110416D01*
X0321913Y0110416D01*
X0323047Y0110885D01*
X0323915Y0111753D01*
X0324384Y0112886D01*
X0324384Y0114113D01*
X0323915Y0115247D01*
X0323318Y0115844D01*
X0325567Y0115844D01*
X0325623Y0115900D01*
X0325679Y0115844D01*
X0325782Y0115844D01*
X0325685Y0115747D01*
X0325216Y0114613D01*
X0325216Y0113386D01*
X0325685Y0112253D01*
X0326553Y0111385D01*
X0327686Y0110916D01*
X0328913Y0110916D01*
X0330047Y0111385D01*
X0330915Y0112253D01*
X0330940Y0112314D01*
X0331275Y0111980D01*
X0338487Y0104768D01*
X0338216Y0104113D01*
X0338216Y0102886D01*
X0338685Y0101753D01*
X0339553Y0100885D01*
X0340686Y0100416D01*
X0341913Y0100416D01*
X0343047Y0100885D01*
X0343915Y0101753D01*
X0344384Y0102886D01*
X0344384Y0104113D01*
X0343915Y0105247D01*
X0343047Y0106115D01*
X0341913Y0106584D01*
X0341761Y0106584D01*
X0333820Y0114525D01*
X0333820Y0115644D01*
X0334579Y0115644D01*
X0334579Y0119848D01*
X0334580Y0119848D01*
X0334580Y0115644D01*
X0335462Y0115644D01*
X0335844Y0115746D01*
X0336013Y0115844D01*
X0338362Y0115844D01*
X0338418Y0115900D01*
X0338474Y0115844D01*
X0340782Y0115844D01*
X0340185Y0115247D01*
X0339716Y0114113D01*
X0339716Y0112886D01*
X0340185Y0111753D01*
X0341053Y0110885D01*
X0342186Y0110416D01*
X0343413Y0110416D01*
X0344547Y0110885D01*
X0344662Y0111000D01*
X0344938Y0111000D01*
X0345053Y0110885D01*
X0346186Y0110416D01*
X0347413Y0110416D01*
X0348547Y0110885D01*
X0348550Y0110888D01*
X0348550Y0096000D01*
X0316800Y0096000D01*
X0316800Y0072500D01*
X0307800Y0072500D01*
X0307800Y0071455D01*
X0307144Y0070798D01*
X0307144Y0068351D01*
X0307200Y0068295D01*
X0307144Y0068239D01*
X0307144Y0065890D01*
X0307046Y0065721D01*
X0306944Y0065339D01*
X0306944Y0064457D01*
X0307800Y0064457D01*
X0307800Y0064457D01*
X0306944Y0064457D01*
X0306944Y0063574D01*
X0307046Y0063193D01*
X0307055Y0063177D01*
X0307046Y0063162D01*
X0306944Y0062780D01*
X0306944Y0061898D01*
X0307800Y0061898D01*
X0307800Y0061898D01*
X0306944Y0061898D01*
X0306944Y0061015D01*
X0307046Y0060634D01*
X0307144Y0060464D01*
X0307144Y0058115D01*
X0307200Y0058059D01*
X0307144Y0058003D01*
X0307144Y0055556D01*
X0307200Y0055500D01*
X0307144Y0055444D01*
X0307144Y0052997D01*
X0307200Y0052941D01*
X0307144Y0052885D01*
X0307144Y0050536D01*
X0307046Y0050366D01*
X0306944Y0049985D01*
X0306944Y0049102D01*
X0306944Y0048220D01*
X0307046Y0047838D01*
X0307055Y0047823D01*
X0307046Y0047807D01*
X0306944Y0047426D01*
X0306944Y0046543D01*
X0306944Y0045661D01*
X0307046Y0045279D01*
X0307144Y0045110D01*
X0307144Y0042761D01*
X0307200Y0042705D01*
X0307144Y0042649D01*
X0307144Y0040202D01*
X0307800Y0039545D01*
X0307800Y0036500D01*
X0311000Y0033300D01*
X0311000Y0022376D01*
X0310829Y0022547D01*
X0310237Y0022977D01*
X0309585Y0023309D01*
X0308889Y0023535D01*
X0308284Y0023631D01*
X0308284Y0019484D01*
X0307316Y0019484D01*
X0307316Y0018516D01*
X0308284Y0018516D01*
X0308284Y0014369D01*
X0308889Y0014465D01*
X0309585Y0014691D01*
X0310237Y0015023D01*
X0310829Y0015453D01*
X0311000Y0015624D01*
X0311000Y0012376D01*
X0310829Y0012547D01*
X0310237Y0012977D01*
X0309585Y0013309D01*
X0308889Y0013535D01*
X0308284Y0013631D01*
X0308284Y0009484D01*
X0307316Y0009484D01*
X0307316Y0008516D01*
X0303169Y0008516D01*
X0303265Y0007911D01*
X0303491Y0007215D01*
X0303823Y0006563D01*
X0304253Y0005971D01*
X0304524Y0005700D01*
X0301076Y0005700D01*
X0301347Y0005971D01*
X0301777Y0006563D01*
X0302109Y0007215D01*
X0302335Y0007911D01*
X0302431Y0008516D01*
X0298284Y0008516D01*
X0298284Y0009484D01*
X0297316Y0009484D01*
X0297316Y0013631D01*
X0296711Y0013535D01*
X0296015Y0013309D01*
X0295363Y0012977D01*
X0294771Y0012547D01*
X0294253Y0012029D01*
X0293823Y0011437D01*
X0293800Y0011391D01*
X0293800Y0014454D01*
X0294600Y0015254D01*
X0294600Y0015624D01*
X0294771Y0015453D01*
X0295363Y0015023D01*
X0296015Y0014691D01*
X0296711Y0014465D01*
X0297316Y0014369D01*
X0297316Y0018516D01*
X0298284Y0018516D01*
X0298284Y0014369D01*
X0298889Y0014465D01*
X0299585Y0014691D01*
X0300237Y0015023D01*
X0300829Y0015453D01*
X0301347Y0015971D01*
X0301777Y0016563D01*
X0302109Y0017215D01*
X0302335Y0017911D01*
X0302431Y0018516D01*
X0298284Y0018516D01*
X0298284Y0019484D01*
X0297316Y0019484D01*
X0297316Y0023631D01*
X0296711Y0023535D01*
X0296015Y0023309D01*
X0295363Y0022977D01*
X0294771Y0022547D01*
X0294535Y0022311D01*
X0293800Y0023046D01*
X0293800Y0044954D01*
X0294716Y0044039D01*
X0294716Y0042886D01*
X0295185Y0041753D01*
X0296053Y0040885D01*
X0297186Y0040416D01*
X0298413Y0040416D01*
X0299547Y0040885D01*
X0300415Y0041753D01*
X0300884Y0042886D01*
X0300884Y0044113D01*
X0300415Y0045247D01*
X0299547Y0046115D01*
X0298413Y0046584D01*
X0297261Y0046584D01*
X0293998Y0049848D01*
X0293800Y0050046D01*
X0293800Y0052420D01*
X0295518Y0052420D01*
X0295553Y0052385D01*
X0296686Y0051916D01*
X0297913Y0051916D01*
X0299047Y0052385D01*
X0299915Y0053253D01*
X0300384Y0054386D01*
X0300384Y0055613D01*
X0299915Y0056747D01*
X0299047Y0057615D01*
X0297913Y0058084D01*
X0296686Y0058084D01*
X0295553Y0057615D01*
X0294685Y0056747D01*
X0294384Y0056020D01*
X0293800Y0056020D01*
X0293800Y0059683D01*
X0293884Y0059886D01*
X0293884Y0061113D01*
X0293800Y0061317D01*
X0293800Y0065454D01*
X0299046Y0070700D01*
X0300100Y0071754D01*
X0300100Y0094254D01*
X0302100Y0096254D01*
X0302100Y0104124D01*
X0302271Y0103953D01*
X0302863Y0103523D01*
X0303515Y0103191D01*
X0304211Y0102965D01*
X0304816Y0102869D01*
X0304816Y0107016D01*
X0305784Y0107016D01*
X0305784Y0102869D01*
X0306389Y0102965D01*
X0307085Y0103191D01*
X0307737Y0103523D01*
X0308329Y0103953D01*
X0308847Y0104471D01*
X0309277Y0105063D01*
X0309609Y0105715D01*
X0309835Y0106411D01*
X0309931Y0107016D01*
X0305784Y0107016D01*
X0305784Y0107984D01*
X0309931Y0107984D01*
X0309835Y0108589D01*
X0309609Y0109285D01*
X0309277Y0109937D01*
X0308847Y0110529D01*
X0308329Y0111047D01*
X0307737Y0111477D01*
X0307085Y0111809D01*
X0306389Y0112035D01*
X0305784Y0112131D01*
X0305784Y0107984D01*
X0304816Y0107984D01*
X0304816Y0112131D01*
X0304211Y0112035D01*
X0303515Y0111809D01*
X0302863Y0111477D01*
X0302271Y0111047D01*
X0302100Y0110876D01*
X0302100Y0114124D01*
X0302271Y0113953D01*
X0302863Y0113523D01*
X0303515Y0113191D01*
X0304211Y0112965D01*
X0304816Y0112869D01*
X0304816Y0117016D01*
X0305784Y0117016D01*
X0305784Y0112869D01*
X0306389Y0112965D01*
X0307085Y0113191D01*
X0307737Y0113523D01*
X0308329Y0113953D01*
X0308847Y0114471D01*
X0309277Y0115063D01*
X0309609Y0115715D01*
X0309835Y0116411D01*
X0309931Y0117016D01*
X0305784Y0117016D01*
X0305784Y0117984D01*
X0304816Y0117984D01*
X0304816Y0122131D01*
X0304211Y0122035D01*
X0303515Y0121809D01*
X0302863Y0121477D01*
X0302271Y0121047D01*
X0302100Y0120876D01*
X0302100Y0124124D01*
X0302271Y0123953D01*
X0302863Y0123523D01*
X0303515Y0123191D01*
X0304211Y0122965D01*
X0304816Y0122869D01*
X0304816Y0127016D01*
X0305784Y0127016D01*
X0305784Y0122869D01*
X0306389Y0122965D01*
X0307085Y0123191D01*
X0307737Y0123523D01*
X0308329Y0123953D01*
X0308847Y0124471D01*
X0309277Y0125063D01*
X0309609Y0125715D01*
X0309835Y0126411D01*
X0309931Y0127016D01*
X0305784Y0127016D01*
X0305784Y0127984D01*
X0309931Y0127984D01*
X0309849Y0128500D01*
X0312216Y0128500D01*
X0312216Y0128386D01*
X0312685Y0127253D01*
X0313553Y0126385D01*
X0314686Y0125916D01*
X0315913Y0125916D01*
X0316214Y0126040D01*
X0318311Y0123944D01*
X0318002Y0123944D01*
X0317240Y0123182D01*
X0317376Y0123318D02*
X0307335Y0123318D01*
X0307085Y0121809D02*
X0306389Y0122035D01*
X0305784Y0122131D01*
X0305784Y0117984D01*
X0309931Y0117984D01*
X0309835Y0118589D01*
X0309609Y0119285D01*
X0309277Y0119937D01*
X0308847Y0120529D01*
X0308329Y0121047D01*
X0307737Y0121477D01*
X0307085Y0121809D01*
X0307951Y0121321D02*
X0317240Y0121321D01*
X0317117Y0120323D02*
X0308996Y0120323D01*
X0309589Y0119324D02*
X0317135Y0119324D01*
X0317154Y0118326D02*
X0309877Y0118326D01*
X0309808Y0116329D02*
X0316070Y0116329D01*
X0317160Y0117327D02*
X0305784Y0117327D01*
X0305784Y0116329D02*
X0304816Y0116329D01*
X0304816Y0115330D02*
X0305784Y0115330D01*
X0305784Y0114332D02*
X0304816Y0114332D01*
X0304816Y0113333D02*
X0305784Y0113333D01*
X0307364Y0113333D02*
X0314216Y0113333D01*
X0314306Y0114332D02*
X0308707Y0114332D01*
X0309413Y0115330D02*
X0314769Y0115330D01*
X0314444Y0112335D02*
X0302100Y0112335D01*
X0302100Y0113333D02*
X0303236Y0113333D01*
X0302670Y0111336D02*
X0302100Y0111336D01*
X0304816Y0111336D02*
X0305784Y0111336D01*
X0305784Y0110338D02*
X0304816Y0110338D01*
X0304816Y0109339D02*
X0305784Y0109339D01*
X0305784Y0108341D02*
X0304816Y0108341D01*
X0305784Y0107342D02*
X0335912Y0107342D01*
X0334914Y0108341D02*
X0309874Y0108341D01*
X0309581Y0109339D02*
X0333915Y0109339D01*
X0332917Y0110338D02*
X0308985Y0110338D01*
X0307930Y0111336D02*
X0315102Y0111336D01*
X0309813Y0106344D02*
X0336911Y0106344D01*
X0337909Y0105345D02*
X0309420Y0105345D01*
X0308722Y0104347D02*
X0338312Y0104347D01*
X0338216Y0103348D02*
X0307393Y0103348D01*
X0305784Y0103348D02*
X0304816Y0103348D01*
X0304816Y0104347D02*
X0305784Y0104347D01*
X0305784Y0105345D02*
X0304816Y0105345D01*
X0304816Y0106344D02*
X0305784Y0106344D01*
X0303207Y0103348D02*
X0302100Y0103348D01*
X0302100Y0102350D02*
X0338438Y0102350D01*
X0339087Y0101351D02*
X0302100Y0101351D01*
X0302100Y0100353D02*
X0348550Y0100353D01*
X0348550Y0101351D02*
X0343513Y0101351D01*
X0344162Y0102350D02*
X0348550Y0102350D01*
X0348550Y0103348D02*
X0344384Y0103348D01*
X0344288Y0104347D02*
X0348550Y0104347D01*
X0348550Y0105345D02*
X0343817Y0105345D01*
X0342494Y0106344D02*
X0348550Y0106344D01*
X0348550Y0107342D02*
X0341003Y0107342D01*
X0340005Y0108341D02*
X0348550Y0108341D01*
X0348550Y0109339D02*
X0339006Y0109339D01*
X0338008Y0110338D02*
X0348550Y0110338D01*
X0340602Y0111336D02*
X0337009Y0111336D01*
X0336011Y0112335D02*
X0339944Y0112335D01*
X0339716Y0113333D02*
X0335012Y0113333D01*
X0334014Y0114332D02*
X0339806Y0114332D01*
X0340269Y0115330D02*
X0333820Y0115330D01*
X0334580Y0116220D02*
X0338300Y0112500D01*
X0332020Y0113780D02*
X0332020Y0119894D01*
X0332020Y0121220D01*
X0334580Y0119894D02*
X0334580Y0116220D01*
X0334579Y0116329D02*
X0334580Y0116329D01*
X0334579Y0117327D02*
X0334580Y0117327D01*
X0334579Y0118326D02*
X0334580Y0118326D01*
X0334579Y0119324D02*
X0334580Y0119324D01*
X0337139Y0119894D02*
X0337139Y0127161D01*
X0338800Y0129000D01*
X0342300Y0127500D02*
X0342300Y0133500D01*
X0342300Y0127500D02*
X0339698Y0124398D01*
X0339698Y0119894D01*
X0342257Y0119894D02*
X0342257Y0122957D01*
X0345300Y0126000D01*
X0344816Y0119894D02*
X0344816Y0118484D01*
X0332020Y0113780D02*
X0340800Y0105000D01*
X0341300Y0103500D01*
X0348550Y0099354D02*
X0302100Y0099354D01*
X0302100Y0098356D02*
X0348550Y0098356D01*
X0348550Y0097357D02*
X0302100Y0097357D01*
X0302100Y0096359D02*
X0348550Y0096359D01*
X0347375Y0091106D02*
X0346300Y0090031D01*
X0346300Y0089500D01*
X0342257Y0091106D02*
X0342257Y0091543D01*
X0335800Y0090000D02*
X0335800Y0089886D01*
X0334580Y0091106D01*
X0335800Y0089886D02*
X0335800Y0089000D01*
X0332020Y0091106D02*
X0330800Y0089886D01*
X0330800Y0089500D01*
X0321784Y0090484D02*
X0321784Y0091106D01*
X0320800Y0090622D01*
X0320800Y0090000D01*
X0321784Y0090484D02*
X0320300Y0089000D01*
X0316800Y0089369D02*
X0316654Y0089369D01*
X0316654Y0088500D02*
X0316654Y0090953D01*
X0316552Y0091335D01*
X0316355Y0091677D01*
X0316075Y0091956D01*
X0315733Y0092154D01*
X0315352Y0092256D01*
X0309749Y0092256D01*
X0309749Y0088500D01*
X0316654Y0088500D01*
X0316800Y0088370D02*
X0309749Y0088370D01*
X0309749Y0088500D02*
X0309749Y0087500D01*
X0316654Y0087500D01*
X0316654Y0085047D01*
X0316552Y0084665D01*
X0316355Y0084323D01*
X0316075Y0084044D01*
X0315733Y0083846D01*
X0315352Y0083744D01*
X0309749Y0083744D01*
X0309749Y0087500D01*
X0308749Y0087500D01*
X0308749Y0083744D01*
X0303146Y0083744D01*
X0302764Y0083846D01*
X0302422Y0084044D01*
X0302143Y0084323D01*
X0301946Y0084665D01*
X0301843Y0085047D01*
X0301843Y0087500D01*
X0308749Y0087500D01*
X0308749Y0088500D01*
X0308749Y0092256D01*
X0303146Y0092256D01*
X0302764Y0092154D01*
X0302422Y0091956D01*
X0302143Y0091677D01*
X0301946Y0091335D01*
X0301843Y0090953D01*
X0301843Y0088500D01*
X0308749Y0088500D01*
X0309749Y0088500D01*
X0309749Y0089369D02*
X0308749Y0089369D01*
X0308749Y0090368D02*
X0309749Y0090368D01*
X0309749Y0091366D02*
X0308749Y0091366D01*
X0308749Y0088370D02*
X0300100Y0088370D01*
X0300100Y0087372D02*
X0301843Y0087372D01*
X0301843Y0086373D02*
X0300100Y0086373D01*
X0300100Y0085375D02*
X0301843Y0085375D01*
X0302112Y0084376D02*
X0300100Y0084376D01*
X0300100Y0083378D02*
X0316800Y0083378D01*
X0316800Y0084376D02*
X0316385Y0084376D01*
X0316654Y0085375D02*
X0316800Y0085375D01*
X0316800Y0086373D02*
X0316654Y0086373D01*
X0316654Y0087372D02*
X0316800Y0087372D01*
X0316800Y0090368D02*
X0316654Y0090368D01*
X0316534Y0091366D02*
X0316800Y0091366D01*
X0316800Y0092365D02*
X0300100Y0092365D01*
X0300100Y0093363D02*
X0316800Y0093363D01*
X0316800Y0094362D02*
X0300207Y0094362D01*
X0301206Y0095360D02*
X0316800Y0095360D01*
X0309749Y0087372D02*
X0308749Y0087372D01*
X0308749Y0086373D02*
X0309749Y0086373D01*
X0309749Y0085375D02*
X0308749Y0085375D01*
X0308749Y0084376D02*
X0309749Y0084376D01*
X0316800Y0082379D02*
X0300100Y0082379D01*
X0300100Y0081381D02*
X0316800Y0081381D01*
X0316800Y0080382D02*
X0300100Y0080382D01*
X0300100Y0079384D02*
X0316800Y0079384D01*
X0316800Y0078385D02*
X0300100Y0078385D01*
X0300100Y0077387D02*
X0316800Y0077387D01*
X0316800Y0076388D02*
X0300100Y0076388D01*
X0300100Y0075390D02*
X0316800Y0075390D01*
X0316800Y0074391D02*
X0300100Y0074391D01*
X0300100Y0073393D02*
X0316800Y0073393D01*
X0312800Y0068000D02*
X0311225Y0069575D01*
X0311194Y0069575D01*
X0311194Y0067016D01*
X0307144Y0067402D02*
X0295747Y0067402D01*
X0294749Y0066403D02*
X0307144Y0066403D01*
X0306961Y0065405D02*
X0293800Y0065405D01*
X0293800Y0064406D02*
X0306944Y0064406D01*
X0306988Y0063408D02*
X0293800Y0063408D01*
X0293800Y0062409D02*
X0306944Y0062409D01*
X0306944Y0061411D02*
X0293800Y0061411D01*
X0293884Y0060412D02*
X0307144Y0060412D01*
X0307144Y0059414D02*
X0293800Y0059414D01*
X0293800Y0058415D02*
X0307144Y0058415D01*
X0307144Y0057417D02*
X0299245Y0057417D01*
X0300051Y0056418D02*
X0307144Y0056418D01*
X0307144Y0055420D02*
X0300384Y0055420D01*
X0300384Y0054421D02*
X0307144Y0054421D01*
X0307144Y0053423D02*
X0299985Y0053423D01*
X0299086Y0052424D02*
X0307144Y0052424D01*
X0307144Y0051426D02*
X0293800Y0051426D01*
X0293800Y0050427D02*
X0307081Y0050427D01*
X0306944Y0049429D02*
X0294417Y0049429D01*
X0295416Y0048430D02*
X0306944Y0048430D01*
X0306944Y0049102D02*
X0307800Y0049102D01*
X0307800Y0049102D01*
X0306944Y0049102D01*
X0306945Y0047432D02*
X0296414Y0047432D01*
X0298779Y0046433D02*
X0306944Y0046433D01*
X0306944Y0046543D02*
X0307800Y0046543D01*
X0307800Y0046543D01*
X0306944Y0046543D01*
X0307004Y0045434D02*
X0300227Y0045434D01*
X0300751Y0044436D02*
X0307144Y0044436D01*
X0307144Y0043437D02*
X0300884Y0043437D01*
X0300699Y0042439D02*
X0307144Y0042439D01*
X0307144Y0041440D02*
X0300102Y0041440D01*
X0298477Y0040442D02*
X0307144Y0040442D01*
X0307800Y0039443D02*
X0293800Y0039443D01*
X0293800Y0038445D02*
X0307800Y0038445D01*
X0307800Y0037446D02*
X0293800Y0037446D01*
X0293800Y0036448D02*
X0307852Y0036448D01*
X0308851Y0035449D02*
X0293800Y0035449D01*
X0293800Y0034451D02*
X0309849Y0034451D01*
X0310848Y0033452D02*
X0293800Y0033452D01*
X0293800Y0032454D02*
X0311000Y0032454D01*
X0311000Y0031455D02*
X0293800Y0031455D01*
X0293800Y0030457D02*
X0311000Y0030457D01*
X0311000Y0029458D02*
X0293800Y0029458D01*
X0293800Y0028460D02*
X0311000Y0028460D01*
X0311000Y0027461D02*
X0293800Y0027461D01*
X0293800Y0026463D02*
X0311000Y0026463D01*
X0311000Y0025464D02*
X0293800Y0025464D01*
X0293800Y0024466D02*
X0311000Y0024466D01*
X0311000Y0023467D02*
X0309098Y0023467D01*
X0308284Y0023467D02*
X0307316Y0023467D01*
X0307316Y0023631D02*
X0306711Y0023535D01*
X0306015Y0023309D01*
X0305363Y0022977D01*
X0304771Y0022547D01*
X0304253Y0022029D01*
X0303823Y0021437D01*
X0303491Y0020785D01*
X0303265Y0020089D01*
X0303169Y0019484D01*
X0307316Y0019484D01*
X0307316Y0023631D01*
X0306502Y0023467D02*
X0299098Y0023467D01*
X0298889Y0023535D02*
X0298284Y0023631D01*
X0298284Y0019484D01*
X0302431Y0019484D01*
X0302335Y0020089D01*
X0302109Y0020785D01*
X0301777Y0021437D01*
X0301347Y0022029D01*
X0300829Y0022547D01*
X0300237Y0022977D01*
X0299585Y0023309D01*
X0298889Y0023535D01*
X0298284Y0023467D02*
X0297316Y0023467D01*
X0297800Y0024000D02*
X0297800Y0019000D01*
X0298284Y0019473D02*
X0307316Y0019473D01*
X0307316Y0018516D02*
X0303169Y0018516D01*
X0303265Y0017911D01*
X0303491Y0017215D01*
X0303823Y0016563D01*
X0304253Y0015971D01*
X0304771Y0015453D01*
X0305363Y0015023D01*
X0306015Y0014691D01*
X0306711Y0014465D01*
X0307316Y0014369D01*
X0307316Y0018516D01*
X0307316Y0018475D02*
X0308284Y0018475D01*
X0308284Y0017476D02*
X0307316Y0017476D01*
X0307316Y0016478D02*
X0308284Y0016478D01*
X0308284Y0015479D02*
X0307316Y0015479D01*
X0307316Y0014481D02*
X0308284Y0014481D01*
X0308937Y0014481D02*
X0311000Y0014481D01*
X0311000Y0015479D02*
X0310855Y0015479D01*
X0311000Y0013482D02*
X0309052Y0013482D01*
X0308284Y0013482D02*
X0307316Y0013482D01*
X0307316Y0013631D02*
X0306711Y0013535D01*
X0306015Y0013309D01*
X0305363Y0012977D01*
X0304771Y0012547D01*
X0304253Y0012029D01*
X0303823Y0011437D01*
X0303491Y0010785D01*
X0303265Y0010089D01*
X0303169Y0009484D01*
X0307316Y0009484D01*
X0307316Y0013631D01*
X0306548Y0013482D02*
X0299052Y0013482D01*
X0298889Y0013535D02*
X0298284Y0013631D01*
X0298284Y0009484D01*
X0302431Y0009484D01*
X0302335Y0010089D01*
X0302109Y0010785D01*
X0301777Y0011437D01*
X0301347Y0012029D01*
X0300829Y0012547D01*
X0300237Y0012977D01*
X0299585Y0013309D01*
X0298889Y0013535D01*
X0298284Y0013482D02*
X0297316Y0013482D01*
X0296548Y0013482D02*
X0293800Y0013482D01*
X0293800Y0012484D02*
X0294708Y0012484D01*
X0293858Y0011485D02*
X0293800Y0011485D01*
X0293826Y0014481D02*
X0296663Y0014481D01*
X0297316Y0014481D02*
X0298284Y0014481D01*
X0298937Y0014481D02*
X0306663Y0014481D01*
X0307316Y0012484D02*
X0308284Y0012484D01*
X0308284Y0011485D02*
X0307316Y0011485D01*
X0307316Y0010487D02*
X0308284Y0010487D01*
X0308284Y0009488D02*
X0307316Y0009488D01*
X0304708Y0012484D02*
X0300892Y0012484D01*
X0301742Y0011485D02*
X0303858Y0011485D01*
X0303394Y0010487D02*
X0302206Y0010487D01*
X0302430Y0009488D02*
X0303170Y0009488D01*
X0303173Y0008490D02*
X0302427Y0008490D01*
X0302199Y0007491D02*
X0303401Y0007491D01*
X0303875Y0006493D02*
X0301725Y0006493D01*
X0298284Y0009488D02*
X0297316Y0009488D01*
X0297316Y0010487D02*
X0298284Y0010487D01*
X0298284Y0011485D02*
X0297316Y0011485D01*
X0297316Y0012484D02*
X0298284Y0012484D01*
X0298284Y0015479D02*
X0297316Y0015479D01*
X0297316Y0016478D02*
X0298284Y0016478D01*
X0298284Y0017476D02*
X0297316Y0017476D01*
X0297316Y0018475D02*
X0298284Y0018475D01*
X0298284Y0020472D02*
X0297316Y0020472D01*
X0297316Y0021470D02*
X0298284Y0021470D01*
X0298284Y0022469D02*
X0297316Y0022469D01*
X0296502Y0023467D02*
X0293800Y0023467D01*
X0294377Y0022469D02*
X0294693Y0022469D01*
X0292800Y0021500D02*
X0291300Y0023000D01*
X0291300Y0027800D01*
X0287300Y0027800D01*
X0286800Y0027500D01*
X0287300Y0032200D02*
X0287300Y0034500D01*
X0284300Y0037500D01*
X0284300Y0041000D02*
X0284300Y0041425D01*
X0282406Y0041425D01*
X0282406Y0043984D02*
X0282391Y0044000D01*
X0278800Y0044000D01*
X0276300Y0046500D01*
X0272300Y0046500D01*
X0264800Y0039000D01*
X0261000Y0039000D01*
X0256300Y0034200D01*
X0256300Y0030500D01*
X0250600Y0027300D02*
X0250600Y0037200D01*
X0246800Y0041000D01*
X0240800Y0039000D02*
X0238900Y0040900D01*
X0234837Y0040900D01*
X0234800Y0040937D01*
X0234800Y0037000D02*
X0237500Y0034300D01*
X0237500Y0029100D01*
X0240800Y0037500D02*
X0240800Y0039000D01*
X0240426Y0044874D02*
X0234800Y0044874D01*
X0240426Y0044874D02*
X0240800Y0045500D01*
X0254300Y0051811D02*
X0255800Y0051811D01*
X0256111Y0051500D01*
X0255926Y0048000D02*
X0255800Y0047874D01*
X0255800Y0043937D02*
X0257787Y0043990D01*
X0258174Y0044000D01*
X0255800Y0040000D02*
X0254800Y0039000D01*
X0254800Y0036800D01*
X0252800Y0034800D01*
X0252800Y0023000D01*
X0250600Y0027300D02*
X0247800Y0024500D01*
X0247800Y0019000D01*
X0254800Y0014000D02*
X0259800Y0014000D01*
X0262800Y0017000D01*
X0262800Y0021500D01*
X0265300Y0024000D01*
X0270800Y0024000D01*
X0279800Y0033000D01*
X0277300Y0036000D02*
X0277300Y0038500D01*
X0274800Y0042000D01*
X0273800Y0037000D02*
X0271300Y0034500D01*
X0271300Y0030500D01*
X0269300Y0028500D01*
X0261600Y0028500D01*
X0258800Y0026000D01*
X0264800Y0026000D02*
X0269800Y0026000D01*
X0273300Y0029500D01*
X0273300Y0032000D01*
X0277300Y0036000D01*
X0287300Y0043500D02*
X0289300Y0041500D01*
X0287300Y0043500D02*
X0287300Y0045500D01*
X0286257Y0046543D01*
X0282406Y0046543D01*
X0282406Y0049102D02*
X0292198Y0049102D01*
X0297800Y0043500D01*
X0294716Y0043437D02*
X0293800Y0043437D01*
X0293800Y0042439D02*
X0294901Y0042439D01*
X0295498Y0041440D02*
X0293800Y0041440D01*
X0293800Y0040442D02*
X0297123Y0040442D01*
X0294318Y0044436D02*
X0293800Y0044436D01*
X0282406Y0051661D02*
X0273300Y0051661D01*
X0272300Y0052661D01*
X0282406Y0054220D02*
X0296080Y0054220D01*
X0297300Y0055000D01*
X0294549Y0056418D02*
X0293800Y0056418D01*
X0293800Y0057417D02*
X0295355Y0057417D01*
X0291139Y0059339D02*
X0282406Y0059339D01*
X0282406Y0061898D02*
X0282509Y0062000D01*
X0287800Y0062000D01*
X0298300Y0072500D01*
X0298300Y0095000D01*
X0300300Y0097000D01*
X0300300Y0182500D01*
X0294300Y0188500D01*
X0294300Y0191000D01*
X0296800Y0193500D01*
X0300300Y0193500D01*
X0302800Y0196000D01*
X0302800Y0202000D01*
X0300800Y0204000D01*
X0294800Y0204000D01*
X0302800Y0205500D02*
X0304300Y0204000D01*
X0311800Y0204000D01*
X0312800Y0203000D01*
X0312800Y0185000D01*
X0316800Y0181000D01*
X0316800Y0167500D01*
X0318800Y0165500D01*
X0324900Y0167500D02*
X0329800Y0167500D01*
X0333300Y0167937D02*
X0333300Y0171700D01*
X0334700Y0173100D01*
X0339400Y0173100D01*
X0344300Y0178000D01*
X0338359Y0168185D02*
X0337674Y0167500D01*
X0333737Y0167500D02*
X0333300Y0167937D01*
X0324900Y0167500D02*
X0319300Y0173100D01*
X0319300Y0181500D01*
X0314800Y0186000D01*
X0314800Y0206300D01*
X0314800Y0209000D01*
X0302800Y0211100D02*
X0302800Y0205500D01*
X0287800Y0199000D02*
X0287800Y0198000D01*
X0273700Y0183900D01*
X0273700Y0167000D01*
X0274100Y0167000D01*
X0278500Y0167000D02*
X0284800Y0167000D01*
X0285300Y0167500D01*
X0285300Y0157500D02*
X0278500Y0157500D01*
X0269800Y0156800D02*
X0269800Y0190000D01*
X0276300Y0197000D01*
X0276300Y0197500D01*
X0277800Y0199000D01*
X0262800Y0195500D02*
X0262800Y0204000D01*
X0257800Y0209000D01*
X0252800Y0211000D02*
X0252800Y0196500D01*
X0250300Y0194000D01*
X0241300Y0194000D01*
X0236800Y0191000D02*
X0260800Y0191000D01*
X0263800Y0188000D01*
X0263800Y0146000D01*
X0255641Y0146284D02*
X0233500Y0146284D01*
X0233500Y0147283D02*
X0255645Y0147283D01*
X0255648Y0148281D02*
X0233500Y0148281D01*
X0233500Y0149280D02*
X0255652Y0149280D01*
X0255655Y0150278D02*
X0233500Y0150278D01*
X0233500Y0151277D02*
X0255659Y0151277D01*
X0255662Y0152275D02*
X0233500Y0152275D01*
X0233500Y0153274D02*
X0255666Y0153274D01*
X0255669Y0154272D02*
X0233500Y0154272D01*
X0233500Y0155271D02*
X0255672Y0155271D01*
X0255676Y0156269D02*
X0233500Y0156269D01*
X0233500Y0157268D02*
X0255679Y0157268D01*
X0255683Y0158266D02*
X0233183Y0158266D01*
X0231700Y0157200D02*
X0214401Y0157055D01*
X0212746Y0155400D01*
X0207800Y0155400D01*
X0207800Y0139900D01*
X0231700Y0140100D01*
X0231700Y0157200D01*
X0231700Y0156269D02*
X0213615Y0156269D01*
X0212000Y0157200D02*
X0216300Y0161500D01*
X0216300Y0165024D01*
X0218781Y0165256D02*
X0255707Y0165256D01*
X0255711Y0166254D02*
X0218781Y0166254D01*
X0218781Y0167253D02*
X0255714Y0167253D01*
X0255718Y0168251D02*
X0218454Y0168251D01*
X0218781Y0164257D02*
X0255704Y0164257D01*
X0255700Y0163259D02*
X0218781Y0163259D01*
X0218781Y0162260D02*
X0255697Y0162260D01*
X0255693Y0161262D02*
X0218100Y0161262D01*
X0217609Y0160263D02*
X0255690Y0160263D01*
X0255686Y0159265D02*
X0216610Y0159265D01*
X0212000Y0157200D02*
X0205000Y0157200D01*
X0207800Y0155271D02*
X0231700Y0155271D01*
X0231700Y0154272D02*
X0207800Y0154272D01*
X0207800Y0153274D02*
X0231700Y0153274D01*
X0231700Y0152275D02*
X0207800Y0152275D01*
X0207800Y0151277D02*
X0231700Y0151277D01*
X0231700Y0150278D02*
X0207800Y0150278D01*
X0207800Y0149280D02*
X0231700Y0149280D01*
X0231700Y0148281D02*
X0207800Y0148281D01*
X0207800Y0147283D02*
X0231700Y0147283D01*
X0231700Y0146284D02*
X0207800Y0146284D01*
X0207800Y0145286D02*
X0231700Y0145286D01*
X0231700Y0144287D02*
X0207800Y0144287D01*
X0207800Y0143289D02*
X0231700Y0143289D01*
X0231700Y0142290D02*
X0207800Y0142290D01*
X0207800Y0141292D02*
X0231700Y0141292D01*
X0231700Y0140293D02*
X0207800Y0140293D01*
X0205000Y0143000D02*
X0205000Y0147800D01*
X0210800Y0137500D02*
X0208300Y0135000D01*
X0208300Y0134024D01*
X0210800Y0137500D02*
X0219800Y0137500D01*
X0222300Y0135000D01*
X0222500Y0135000D01*
X0225000Y0135301D02*
X0238451Y0135301D01*
X0238416Y0136299D02*
X0225000Y0136299D01*
X0224241Y0137298D02*
X0238699Y0137298D01*
X0239434Y0138296D02*
X0231236Y0138296D01*
X0233440Y0139295D02*
X0242882Y0139295D01*
X0248631Y0139295D02*
X0249969Y0139295D01*
X0249969Y0138296D02*
X0248631Y0138296D01*
X0248631Y0137298D02*
X0249969Y0137298D01*
X0249969Y0136299D02*
X0248631Y0136299D01*
X0248631Y0135301D02*
X0249969Y0135301D01*
X0253600Y0131000D02*
X0255800Y0133200D01*
X0255800Y0136500D01*
X0255620Y0140293D02*
X0233781Y0140293D01*
X0233781Y0141292D02*
X0255624Y0141292D01*
X0255627Y0142290D02*
X0233781Y0142290D01*
X0233781Y0143289D02*
X0255631Y0143289D01*
X0255634Y0144287D02*
X0233781Y0144287D01*
X0233781Y0145286D02*
X0255638Y0145286D01*
X0258000Y0131000D02*
X0261800Y0131000D01*
X0264800Y0128500D01*
X0264800Y0119500D01*
X0262800Y0117500D01*
X0218824Y0117500D01*
X0213300Y0111976D01*
X0208300Y0111976D02*
X0208300Y0106200D01*
X0206300Y0104000D02*
X0211257Y0104000D01*
X0213800Y0106543D01*
X0206300Y0104000D02*
X0204800Y0102500D01*
X0204300Y0101800D01*
X0200300Y0101800D02*
X0200300Y0099300D01*
X0194300Y0099300D01*
X0191800Y0099354D02*
X0153674Y0099354D01*
X0153678Y0098356D02*
X0191800Y0098356D01*
X0191800Y0097357D02*
X0153681Y0097357D01*
X0153685Y0096359D02*
X0191800Y0096359D01*
X0191792Y0095360D02*
X0153689Y0095360D01*
X0153692Y0094362D02*
X0191116Y0094362D01*
X0190117Y0093363D02*
X0153696Y0093363D01*
X0154281Y0092365D02*
X0189119Y0092365D01*
X0188120Y0091366D02*
X0155280Y0091366D01*
X0156278Y0090368D02*
X0187122Y0090368D01*
X0186123Y0089369D02*
X0157277Y0089369D01*
X0158275Y0088370D02*
X0185125Y0088370D01*
X0185300Y0082500D02*
X0180300Y0077500D01*
X0176500Y0077500D01*
X0176300Y0077300D01*
X0172300Y0077300D01*
X0172800Y0072500D02*
X0166300Y0079000D01*
X0160800Y0079000D01*
X0158800Y0081000D01*
X0156500Y0081000D01*
X0154000Y0083500D01*
X0144100Y0083500D01*
X0140800Y0080200D01*
X0140800Y0073000D01*
X0143587Y0070213D01*
X0144438Y0073362D02*
X0143300Y0074500D01*
X0143300Y0077700D01*
X0144900Y0079300D01*
X0146600Y0081000D01*
X0148600Y0081000D01*
X0148863Y0080737D01*
X0148600Y0081000D02*
X0152100Y0081000D01*
X0156500Y0081000D02*
X0156737Y0081000D01*
X0162800Y0082500D02*
X0172300Y0082500D01*
X0172000Y0082300D01*
X0172300Y0081700D01*
X0176000Y0082500D02*
X0180800Y0082500D01*
X0185300Y0082500D02*
X0185800Y0082500D01*
X0176300Y0081700D02*
X0176000Y0082500D01*
X0165800Y0077000D02*
X0162300Y0077000D01*
X0161800Y0076500D01*
X0161800Y0075400D01*
X0161337Y0074937D01*
X0164300Y0074700D02*
X0161387Y0071787D01*
X0163587Y0070213D02*
X0163626Y0070232D01*
X0163666Y0070248D01*
X0163708Y0070260D01*
X0163751Y0070269D01*
X0163794Y0070274D01*
X0163837Y0070276D01*
X0163881Y0070274D01*
X0163924Y0070269D01*
X0163966Y0070260D01*
X0164008Y0070247D01*
X0164049Y0070232D01*
X0164088Y0070212D01*
X0164125Y0070190D01*
X0164160Y0070165D01*
X0164193Y0070137D01*
X0164224Y0070106D01*
X0164252Y0070073D01*
X0164278Y0070037D01*
X0164300Y0070000D01*
X0164300Y0068500D01*
X0167300Y0068500D01*
X0164300Y0068500D02*
X0164300Y0066700D01*
X0161800Y0068000D02*
X0161800Y0062300D01*
X0158300Y0062300D01*
X0158300Y0045000D01*
X0149800Y0049500D02*
X0149800Y0030000D01*
X0153300Y0026000D01*
X0170800Y0026000D01*
X0172800Y0024000D01*
X0172800Y0014000D01*
X0177800Y0009000D01*
X0167800Y0009000D02*
X0162800Y0014000D01*
X0175800Y0029000D02*
X0182800Y0022000D01*
X0187800Y0024500D02*
X0185300Y0027000D01*
X0187800Y0024500D02*
X0187800Y0019000D01*
X0194800Y0014000D02*
X0202800Y0014000D01*
X0207800Y0009000D01*
X0212800Y0006500D02*
X0212800Y0021000D01*
X0209800Y0024000D01*
X0213800Y0023000D02*
X0213800Y0037000D01*
X0213800Y0023000D02*
X0217800Y0019000D01*
X0197800Y0019000D02*
X0197800Y0022000D01*
X0175800Y0029000D02*
X0175800Y0035000D01*
X0180800Y0040000D01*
X0180800Y0043000D01*
X0178674Y0044874D01*
X0171800Y0044874D01*
X0171800Y0048811D02*
X0180011Y0048811D01*
X0181700Y0047100D01*
X0182800Y0052000D02*
X0182200Y0052600D01*
X0170800Y0064000D01*
X0170800Y0072000D01*
X0165800Y0077000D01*
X0172800Y0072500D02*
X0178800Y0072500D01*
X0164300Y0070300D02*
X0164300Y0070000D01*
X0161800Y0068000D02*
X0161162Y0068638D01*
X0161800Y0062300D02*
X0164300Y0062300D01*
X0158300Y0062300D02*
X0149500Y0062300D01*
X0148863Y0062937D01*
X0140800Y0058500D02*
X0149800Y0049500D01*
X0138500Y0062700D02*
X0136300Y0060500D01*
X0138500Y0066000D02*
X0138579Y0066079D01*
X0171800Y0048811D02*
X0171989Y0049000D01*
X0195800Y0071500D02*
X0195800Y0084000D01*
X0199737Y0084000D02*
X0199737Y0071937D01*
X0207111Y0084000D02*
X0207611Y0084000D01*
X0215800Y0084000D01*
X0225800Y0094000D02*
X0223800Y0096000D01*
X0217300Y0095500D02*
X0213800Y0099000D01*
X0213800Y0099457D01*
X0213757Y0099500D01*
X0213557Y0099300D01*
X0208300Y0099300D01*
X0208300Y0101800D01*
X0208300Y0099300D02*
X0200300Y0099300D01*
X0194300Y0103700D02*
X0194300Y0107800D01*
X0191800Y0107342D02*
X0153646Y0107342D01*
X0153649Y0106344D02*
X0191800Y0106344D01*
X0191800Y0105345D02*
X0153653Y0105345D01*
X0153656Y0104347D02*
X0191800Y0104347D01*
X0191800Y0103348D02*
X0153660Y0103348D01*
X0153663Y0102350D02*
X0191800Y0102350D01*
X0191800Y0101351D02*
X0153667Y0101351D01*
X0153671Y0100353D02*
X0191800Y0100353D01*
X0200300Y0106200D02*
X0202300Y0106200D01*
X0203300Y0106200D01*
X0203300Y0111976D01*
X0198300Y0111976D02*
X0198076Y0112200D01*
X0194300Y0112200D01*
X0191800Y0112335D02*
X0153628Y0112335D01*
X0153624Y0113333D02*
X0191800Y0113333D01*
X0191800Y0114332D02*
X0153620Y0114332D01*
X0153617Y0115330D02*
X0191800Y0115330D01*
X0191800Y0111336D02*
X0153631Y0111336D01*
X0153635Y0110338D02*
X0191800Y0110338D01*
X0191800Y0109339D02*
X0153638Y0109339D01*
X0153642Y0108341D02*
X0191800Y0108341D01*
X0203300Y0106200D02*
X0204300Y0106200D01*
X0213800Y0116329D02*
X0153613Y0116329D01*
X0153610Y0117327D02*
X0213800Y0117327D01*
X0213800Y0118326D02*
X0153606Y0118326D01*
X0153670Y0119324D02*
X0213800Y0119324D01*
X0213800Y0120323D02*
X0154668Y0120323D01*
X0155667Y0121321D02*
X0213800Y0121321D01*
X0213800Y0122320D02*
X0156665Y0122320D01*
X0156800Y0121000D02*
X0156800Y0119500D01*
X0157664Y0123318D02*
X0213800Y0123318D01*
X0213800Y0124317D02*
X0158662Y0124317D01*
X0159661Y0125315D02*
X0213800Y0125315D01*
X0213800Y0126314D02*
X0160659Y0126314D01*
X0160046Y0125700D02*
X0160046Y0125700D01*
X0161100Y0127312D02*
X0213800Y0127312D01*
X0213800Y0128311D02*
X0161100Y0128311D01*
X0161100Y0129309D02*
X0213800Y0129309D01*
X0216276Y0134024D02*
X0217253Y0135000D01*
X0218100Y0135000D01*
X0192300Y0149700D02*
X0192300Y0152500D01*
X0193300Y0153500D01*
X0190000Y0163259D02*
X0163504Y0163259D01*
X0164503Y0164257D02*
X0190000Y0164257D01*
X0189100Y0164300D02*
X0189100Y0164500D01*
X0189100Y0164300D02*
X0192800Y0164300D01*
X0190000Y0165256D02*
X0165501Y0165256D01*
X0166500Y0166254D02*
X0190000Y0166254D01*
X0190000Y0167253D02*
X0167498Y0167253D01*
X0168497Y0168251D02*
X0190000Y0168251D01*
X0190000Y0169250D02*
X0169495Y0169250D01*
X0170494Y0170248D02*
X0190000Y0170248D01*
X0190000Y0171247D02*
X0171493Y0171247D01*
X0174307Y0172245D02*
X0190000Y0172245D01*
X0192800Y0168700D02*
X0196800Y0168700D01*
X0196000Y0170400D01*
X0196000Y0174200D01*
X0198500Y0174200D02*
X0198500Y0171000D01*
X0201300Y0168700D01*
X0205800Y0168700D01*
X0208300Y0171000D02*
X0201800Y0171000D01*
X0201100Y0171700D01*
X0201100Y0174200D01*
X0203600Y0174200D02*
X0203600Y0173000D01*
X0207300Y0173000D01*
X0208800Y0174500D01*
X0208800Y0177800D01*
X0208300Y0171000D02*
X0209800Y0169500D01*
X0209800Y0168700D01*
X0201300Y0168700D02*
X0196800Y0164300D01*
X0221300Y0165024D02*
X0225824Y0165024D01*
X0226300Y0165500D01*
X0242145Y0175241D02*
X0246921Y0175241D01*
X0246350Y0176239D02*
X0243832Y0176239D01*
X0244679Y0177238D02*
X0246350Y0177238D01*
X0246350Y0178237D02*
X0245093Y0178237D01*
X0245250Y0179235D02*
X0246350Y0179235D01*
X0246350Y0180234D02*
X0245250Y0180234D01*
X0244899Y0181232D02*
X0246350Y0181232D01*
X0246350Y0182231D02*
X0244362Y0182231D01*
X0255250Y0182231D02*
X0255766Y0182231D01*
X0255763Y0181232D02*
X0255250Y0181232D01*
X0255250Y0180234D02*
X0255759Y0180234D01*
X0255756Y0179235D02*
X0255250Y0179235D01*
X0255250Y0178237D02*
X0255752Y0178237D01*
X0255749Y0177238D02*
X0255250Y0177238D01*
X0255250Y0176239D02*
X0255745Y0176239D01*
X0255742Y0175241D02*
X0254679Y0175241D01*
X0236800Y0191000D02*
X0232800Y0195000D01*
X0232800Y0204000D01*
X0227800Y0209000D01*
X0217800Y0199000D02*
X0231800Y0185000D01*
X0208000Y0187500D02*
X0208000Y0190000D01*
X0203300Y0187500D02*
X0201800Y0187500D01*
X0201100Y0186800D01*
X0201100Y0185800D01*
X0198500Y0185800D02*
X0198500Y0188500D01*
X0195800Y0186000D02*
X0190800Y0186000D01*
X0187968Y0187223D02*
X0180385Y0187223D01*
X0181384Y0189220D02*
X0190000Y0189220D01*
X0189300Y0189000D02*
X0189800Y0190000D01*
X0190000Y0190219D02*
X0181341Y0190219D01*
X0177570Y0186225D02*
X0187716Y0186225D01*
X0187782Y0185226D02*
X0176572Y0185226D01*
X0170609Y0177238D02*
X0148300Y0177238D01*
X0157300Y0173300D02*
X0157300Y0128500D01*
X0149800Y0121000D01*
X0136300Y0134000D02*
X0136300Y0137000D01*
X0134000Y0137000D01*
X0136300Y0137000D02*
X0138600Y0137000D01*
X0139800Y0139500D02*
X0138300Y0141000D01*
X0139800Y0139500D02*
X0141800Y0139500D01*
X0143000Y0138300D01*
X0143000Y0137000D01*
X0148300Y0167253D02*
X0151791Y0167253D01*
X0153124Y0168251D02*
X0148300Y0168251D01*
X0195800Y0186000D02*
X0196000Y0185800D01*
X0274100Y0132500D02*
X0274100Y0127500D01*
X0265300Y0115000D02*
X0225800Y0115000D01*
X0223800Y0113500D01*
X0274772Y0076388D02*
X0295860Y0076388D01*
X0295864Y0075390D02*
X0275754Y0075390D01*
X0276736Y0074391D02*
X0295868Y0074391D01*
X0295872Y0073393D02*
X0277719Y0073393D01*
X0278701Y0072394D02*
X0295649Y0072394D01*
X0294650Y0071396D02*
X0286142Y0071396D01*
X0286656Y0070397D02*
X0293652Y0070397D01*
X0292653Y0069399D02*
X0286656Y0069399D01*
X0286656Y0069575D02*
X0282406Y0069575D01*
X0282406Y0071760D01*
X0282406Y0069575D01*
X0282406Y0069575D01*
X0286656Y0069575D01*
X0286578Y0068400D02*
X0291655Y0068400D01*
X0290656Y0067402D02*
X0286656Y0067402D01*
X0286656Y0067016D02*
X0283991Y0067016D01*
X0283991Y0067016D01*
X0286656Y0067016D01*
X0282406Y0069575D02*
X0282406Y0069575D01*
X0282406Y0070397D02*
X0282406Y0070397D01*
X0282406Y0071396D02*
X0282406Y0071396D01*
X0282406Y0064457D02*
X0275343Y0064457D01*
X0275300Y0066000D01*
X0290800Y0060500D02*
X0291139Y0059339D01*
X0296746Y0068400D02*
X0307144Y0068400D01*
X0307144Y0069399D02*
X0297744Y0069399D01*
X0298743Y0070397D02*
X0307144Y0070397D01*
X0307741Y0071396D02*
X0299741Y0071396D01*
X0300100Y0072394D02*
X0307800Y0072394D01*
X0311194Y0059339D02*
X0311194Y0056780D01*
X0312414Y0058000D01*
X0312800Y0058000D01*
X0311194Y0054220D02*
X0312800Y0052614D01*
X0312800Y0052500D01*
X0311194Y0051661D02*
X0311194Y0054220D01*
X0311194Y0049102D02*
X0311194Y0048894D01*
X0311194Y0043984D02*
X0312678Y0042500D01*
X0313300Y0042500D01*
X0311194Y0041425D02*
X0311194Y0043984D01*
X0312800Y0036500D02*
X0312800Y0007000D01*
X0311000Y0012484D02*
X0310892Y0012484D01*
X0304745Y0015479D02*
X0300855Y0015479D01*
X0301715Y0016478D02*
X0303885Y0016478D01*
X0303406Y0017476D02*
X0302194Y0017476D01*
X0302424Y0018475D02*
X0303176Y0018475D01*
X0303389Y0020472D02*
X0302211Y0020472D01*
X0301752Y0021470D02*
X0303848Y0021470D01*
X0304693Y0022469D02*
X0300907Y0022469D01*
X0307316Y0022469D02*
X0308284Y0022469D01*
X0308284Y0021470D02*
X0307316Y0021470D01*
X0307316Y0020472D02*
X0308284Y0020472D01*
X0310907Y0022469D02*
X0311000Y0022469D01*
X0294745Y0015479D02*
X0294600Y0015479D01*
X0292800Y0016000D02*
X0292800Y0021500D01*
X0292800Y0016000D02*
X0290800Y0014000D01*
X0262800Y0014000D01*
X0257800Y0009000D01*
X0252800Y0012000D02*
X0254800Y0014000D01*
X0257800Y0019000D02*
X0264800Y0026000D01*
X0277300Y0025000D02*
X0281800Y0025000D01*
X0287800Y0019000D01*
X0291300Y0032200D02*
X0295600Y0032200D01*
X0295800Y0032000D01*
X0300100Y0089369D02*
X0301843Y0089369D01*
X0301843Y0090368D02*
X0300100Y0090368D01*
X0300100Y0091366D02*
X0301964Y0091366D01*
X0323498Y0111336D02*
X0326671Y0111336D01*
X0325651Y0112335D02*
X0324156Y0112335D01*
X0324384Y0113333D02*
X0325238Y0113333D01*
X0325216Y0114332D02*
X0324294Y0114332D01*
X0323831Y0115330D02*
X0325513Y0115330D01*
X0324343Y0119894D02*
X0324343Y0125043D01*
X0324300Y0125500D01*
X0323800Y0127000D01*
X0326902Y0125602D02*
X0327300Y0126000D01*
X0327300Y0131500D01*
X0326902Y0125602D02*
X0326902Y0119894D01*
X0321784Y0119894D02*
X0321784Y0123016D01*
X0315800Y0129000D01*
X0315300Y0129000D01*
X0313725Y0126314D02*
X0309803Y0126314D01*
X0309405Y0125315D02*
X0316939Y0125315D01*
X0317938Y0124317D02*
X0308692Y0124317D01*
X0305784Y0124317D02*
X0304816Y0124317D01*
X0304816Y0125315D02*
X0305784Y0125315D01*
X0305784Y0126314D02*
X0304816Y0126314D01*
X0305784Y0127312D02*
X0312661Y0127312D01*
X0312247Y0128311D02*
X0309879Y0128311D01*
X0305784Y0123318D02*
X0304816Y0123318D01*
X0303265Y0123318D02*
X0302100Y0123318D01*
X0302100Y0121321D02*
X0302649Y0121321D01*
X0304816Y0121321D02*
X0305784Y0121321D01*
X0305784Y0120323D02*
X0304816Y0120323D01*
X0304816Y0119324D02*
X0305784Y0119324D01*
X0305784Y0118326D02*
X0304816Y0118326D01*
X0329929Y0111336D02*
X0331918Y0111336D01*
X0337800Y0148374D02*
X0337674Y0148500D01*
X0333800Y0148563D02*
X0333800Y0152500D01*
X0333200Y0153100D01*
X0320700Y0153100D01*
X0314800Y0159000D01*
X0314800Y0180000D01*
X0303800Y0191000D01*
X0298800Y0191000D01*
X0297800Y0190000D01*
X0301800Y0187500D02*
X0303300Y0187500D01*
X0312300Y0178500D01*
X0312300Y0157100D01*
X0320900Y0148500D01*
X0329800Y0148500D01*
X0333737Y0148500D02*
X0333800Y0148563D01*
X0057200Y0033300D02*
X0034600Y0033300D01*
X0034600Y0035602D01*
X0033300Y0036902D01*
X0033898Y0036902D01*
X0039300Y0043500D02*
X0041800Y0041000D01*
X0053300Y0041000D01*
X0039300Y0043500D02*
X0039300Y0064000D01*
X0033300Y0070000D01*
X0033300Y0074402D01*
X0033300Y0057000D02*
X0033300Y0049598D01*
D51*
X0142363Y0067063D02*
X0146894Y0067063D01*
X0146894Y0068638D02*
X0142162Y0068638D01*
X0143587Y0070213D02*
X0146894Y0070213D01*
X0146894Y0073362D02*
X0144438Y0073362D01*
X0148863Y0076906D02*
X0148863Y0080737D01*
X0156737Y0081000D02*
X0156737Y0076906D01*
X0158706Y0074937D02*
X0161337Y0074937D01*
X0161387Y0071787D02*
X0158706Y0071787D01*
X0158706Y0070213D02*
X0163587Y0070213D01*
X0161162Y0068638D02*
X0158706Y0068638D01*
X0148863Y0065094D02*
X0148863Y0062937D01*
D52*
X0123500Y0072300D03*
X0112100Y0067900D03*
X0112000Y0062500D03*
X0211800Y0144900D03*
X0211800Y0149000D03*
X0214800Y0152000D03*
X0217800Y0154800D03*
X0220800Y0152000D03*
X0217800Y0149000D03*
X0223800Y0149000D03*
X0226800Y0152000D03*
X0229700Y0155000D03*
X0223800Y0155000D03*
X0229800Y0149000D03*
X0256400Y0109800D03*
X0258900Y0106900D03*
X0261300Y0109800D03*
X0244600Y0094400D03*
X0240900Y0094900D03*
X0241400Y0091200D03*
X0245100Y0090800D03*
X0248700Y0090400D03*
X0249100Y0086800D03*
X0245400Y0087100D03*
X0271000Y0070200D03*
X0288500Y0068300D03*
X0291200Y0072100D03*
X0288100Y0075200D03*
X0291200Y0078300D03*
X0294300Y0081400D03*
X0294300Y0075200D03*
D53*
X0199737Y0071937D02*
X0188500Y0060700D01*
X0188500Y0034800D01*
X0196800Y0026500D01*
X0192800Y0024000D02*
X0185300Y0031500D01*
X0185300Y0049500D01*
X0182200Y0052600D01*
X0186900Y0062600D02*
X0195800Y0071500D01*
X0186900Y0062600D02*
X0186900Y0032900D01*
X0197800Y0022000D01*
X0197800Y0009000D02*
X0202400Y0004400D01*
X0210700Y0004400D01*
X0212800Y0006500D01*
X0249100Y0002700D02*
X0252800Y0006400D01*
X0252800Y0012000D01*
X0249100Y0002700D02*
X0154100Y0002700D01*
X0147800Y0009000D01*
X0287800Y0009000D02*
X0292800Y0004000D01*
X0309800Y0004000D01*
X0312800Y0007000D01*
X0314800Y0206300D02*
X0314800Y0208800D01*
X0309700Y0213900D01*
X0302600Y0213900D01*
X0301200Y0215300D01*
X0156600Y0215300D01*
X0152800Y0211500D01*
X0213300Y0211000D02*
X0215800Y0213500D01*
X0241500Y0213500D01*
X0242900Y0212300D01*
X0252800Y0211000D02*
X0255300Y0213500D01*
X0300400Y0213500D01*
X0302800Y0211100D01*
D54*
X0337674Y0167500D02*
X0337674Y0148500D01*
X0337800Y0148374D02*
X0337800Y0144000D01*
X0331300Y0137500D01*
X0331300Y0126500D01*
X0329461Y0124661D01*
X0329461Y0119894D01*
X0329461Y0115161D01*
X0328300Y0114000D01*
X0321300Y0113500D02*
X0317300Y0113500D01*
X0319300Y0115819D02*
X0319225Y0119894D01*
X0334580Y0119894D02*
X0334580Y0132780D01*
X0341611Y0139811D01*
X0341611Y0148500D01*
X0341611Y0167500D01*
X0344816Y0119894D02*
X0344816Y0115516D01*
X0344814Y0115428D01*
X0344808Y0115340D01*
X0344799Y0115253D01*
X0344785Y0115166D01*
X0344768Y0115080D01*
X0344747Y0114994D01*
X0344723Y0114910D01*
X0344694Y0114826D01*
X0344663Y0114745D01*
X0344627Y0114664D01*
X0344588Y0114585D01*
X0344546Y0114508D01*
X0344500Y0114433D01*
X0344451Y0114360D01*
X0344399Y0114289D01*
X0344344Y0114220D01*
X0344286Y0114154D01*
X0344226Y0114090D01*
X0344162Y0114030D01*
X0344096Y0113972D01*
X0344027Y0113917D01*
X0343956Y0113865D01*
X0343883Y0113816D01*
X0343808Y0113770D01*
X0343731Y0113728D01*
X0343652Y0113689D01*
X0343571Y0113653D01*
X0343490Y0113622D01*
X0343406Y0113593D01*
X0343322Y0113569D01*
X0343236Y0113548D01*
X0343150Y0113531D01*
X0343063Y0113517D01*
X0342976Y0113508D01*
X0342888Y0113502D01*
X0342800Y0113500D01*
X0346800Y0113500D02*
X0346845Y0113502D01*
X0346890Y0113507D01*
X0346934Y0113516D01*
X0346978Y0113528D01*
X0347020Y0113544D01*
X0347061Y0113563D01*
X0347100Y0113585D01*
X0347138Y0113610D01*
X0347173Y0113638D01*
X0347207Y0113668D01*
X0347237Y0113702D01*
X0347265Y0113737D01*
X0347290Y0113775D01*
X0347312Y0113814D01*
X0347331Y0113855D01*
X0347347Y0113897D01*
X0347359Y0113941D01*
X0347368Y0113985D01*
X0347373Y0114030D01*
X0347375Y0114075D01*
X0347375Y0119894D01*
X0342300Y0099500D02*
X0342289Y0099499D01*
X0342279Y0099494D01*
X0342270Y0099487D01*
X0342263Y0099479D01*
X0342258Y0099468D01*
X0342257Y0099457D01*
X0342257Y0091543D01*
X0339698Y0091106D02*
X0339698Y0096898D01*
X0339700Y0096998D01*
X0339706Y0097097D01*
X0339715Y0097196D01*
X0339728Y0097295D01*
X0339746Y0097393D01*
X0339766Y0097491D01*
X0339791Y0097587D01*
X0339819Y0097683D01*
X0339851Y0097778D01*
X0339887Y0097871D01*
X0339926Y0097962D01*
X0339968Y0098053D01*
X0340014Y0098141D01*
X0340063Y0098228D01*
X0340116Y0098312D01*
X0340172Y0098395D01*
X0340231Y0098475D01*
X0340293Y0098554D01*
X0340357Y0098629D01*
X0340425Y0098702D01*
X0340496Y0098773D01*
X0340569Y0098841D01*
X0340644Y0098905D01*
X0340723Y0098967D01*
X0340803Y0099026D01*
X0340886Y0099082D01*
X0340970Y0099135D01*
X0341057Y0099184D01*
X0341145Y0099230D01*
X0341236Y0099272D01*
X0341327Y0099311D01*
X0341420Y0099347D01*
X0341515Y0099379D01*
X0341611Y0099407D01*
X0341707Y0099432D01*
X0341805Y0099452D01*
X0341903Y0099470D01*
X0342002Y0099483D01*
X0342101Y0099492D01*
X0342200Y0099498D01*
X0342300Y0099500D01*
X0326902Y0096898D02*
X0326902Y0091106D01*
X0324343Y0091106D02*
X0324343Y0097457D01*
X0324300Y0097000D01*
X0326800Y0097000D02*
X0326818Y0096998D01*
X0326835Y0096994D01*
X0326851Y0096986D01*
X0326866Y0096976D01*
X0326878Y0096964D01*
X0326888Y0096949D01*
X0326896Y0096933D01*
X0326900Y0096916D01*
X0326902Y0096898D01*
X0311194Y0064457D02*
X0305300Y0064457D01*
X0305300Y0065000D01*
X0305300Y0061898D02*
X0311194Y0061898D01*
X0311194Y0049102D02*
X0305300Y0049102D01*
X0305300Y0049000D01*
X0305300Y0046543D02*
X0305300Y0046500D01*
X0305300Y0046543D02*
X0311194Y0046543D01*
X0272300Y0052661D02*
X0271139Y0051500D01*
X0264300Y0051500D01*
X0260800Y0048000D01*
X0255926Y0048000D01*
X0255800Y0043937D02*
X0261237Y0043937D01*
X0261300Y0044000D01*
X0272300Y0052661D02*
X0272300Y0060500D01*
X0271000Y0061800D01*
X0271000Y0070200D01*
X0271000Y0072000D01*
X0268800Y0074200D01*
X0263800Y0074200D01*
X0263900Y0074100D01*
X0233800Y0080000D02*
X0231800Y0078000D01*
X0231800Y0069600D01*
X0228700Y0066500D01*
X0228700Y0058700D01*
X0222500Y0052500D01*
X0220800Y0052500D01*
X0220052Y0052748D02*
X0213800Y0052748D01*
X0192800Y0052748D01*
X0192800Y0048811D02*
X0213800Y0048811D01*
X0213800Y0044874D02*
X0192800Y0044874D01*
X0192800Y0040937D02*
X0203800Y0040937D01*
X0213800Y0040937D01*
X0213800Y0056685D02*
X0192800Y0056685D01*
X0203674Y0072126D02*
X0209300Y0066500D01*
X0228700Y0066500D01*
X0214300Y0061500D02*
X0214300Y0057185D01*
X0203674Y0072126D02*
X0203674Y0084000D01*
X0233800Y0081000D02*
X0233800Y0080000D01*
X0233800Y0104500D02*
X0231757Y0106543D01*
X0213800Y0106543D01*
X0205800Y0123000D02*
X0203300Y0123000D01*
X0202757Y0123000D01*
X0220824Y0126500D02*
X0233800Y0126500D01*
X0236050Y0124250D01*
X0256800Y0108750D02*
X0257250Y0108750D01*
X0258900Y0107100D01*
X0177500Y0041500D02*
X0176937Y0040937D01*
X0171800Y0040937D01*
X0171800Y0037000D02*
X0166900Y0037000D01*
X0164800Y0039100D01*
X0123450Y0045650D02*
X0123450Y0057300D01*
X0123450Y0061661D01*
X0123450Y0045650D02*
X0115300Y0037500D01*
X0096343Y0032457D02*
X0096343Y0027500D01*
X0096343Y0032457D02*
X0091200Y0037500D01*
X0079800Y0037500D01*
X0074800Y0042000D01*
X0062363Y0042000D01*
X0062300Y0042063D01*
X0062300Y0038126D02*
X0062300Y0034189D01*
X0077611Y0034189D01*
X0084300Y0027500D01*
X0089257Y0027500D01*
X0088843Y0049000D02*
X0088743Y0052357D01*
X0084300Y0057000D01*
X0084300Y0072500D01*
X0083800Y0073000D01*
X0077776Y0058000D02*
X0077376Y0057676D01*
X0077300Y0053000D01*
X0081257Y0049043D01*
X0081757Y0049000D01*
X0134000Y0141000D02*
X0134000Y0145000D01*
X0134500Y0144500D01*
X0138300Y0144500D01*
X0141257Y0144500D01*
X0140757Y0145000D01*
X0138300Y0144500D02*
X0138300Y0141000D01*
X0138300Y0144500D02*
X0138300Y0148000D01*
X0138300Y0151500D01*
X0141257Y0151500D01*
X0138300Y0151500D02*
X0138300Y0155000D01*
X0142550Y0166677D02*
X0142550Y0170500D01*
X0142550Y0166677D02*
X0144800Y0166677D01*
D55*
X0242300Y0093500D02*
X0247800Y0088000D01*
X0278800Y0088000D01*
D56*
X0292300Y0097500D02*
X0295300Y0100500D01*
X0295300Y0107500D01*
X0295300Y0117500D01*
X0295300Y0127500D01*
X0295300Y0137500D01*
X0295300Y0147500D01*
X0295300Y0157500D01*
X0295300Y0167500D01*
X0295300Y0177500D01*
X0245300Y0104500D02*
X0233800Y0104500D01*
X0245300Y0104500D02*
X0252300Y0097500D01*
X0292300Y0097500D01*
M02*
