G75*
%MOIN*%
%OFA0B0*%
%FSLAX25Y25*%
%IPPOS*%
%LPD*%
%AMOC8*
5,1,8,0,0,1.08239X$1,22.5*
%
%ADD10C,0.07099*%
%ADD11C,0.17300*%
%ADD12R,0.06300X0.02170*%
%ADD13R,0.02800X0.03200*%
%ADD14R,0.02170X0.06300*%
%ADD15R,0.05524X0.03162*%
%ADD16R,0.05524X0.03556*%
%ADD17R,0.03950X0.03950*%
%ADD18R,0.07100X0.23240*%
%ADD19R,0.05131X0.04737*%
%ADD20R,0.03200X0.02800*%
%ADD21C,0.08674*%
%ADD22R,0.23240X0.07100*%
%ADD23R,0.07099X0.09855*%
%ADD24R,0.12611X0.06312*%
%ADD25R,0.03950X0.05524*%
%ADD26R,0.05524X0.03950*%
%ADD27R,0.07099X0.07099*%
%ADD28R,0.05900X0.05900*%
%ADD29C,0.05900*%
%ADD30R,0.05524X0.07887*%
%ADD31R,0.03162X0.06902*%
%ADD32R,0.07887X0.05524*%
%ADD33R,0.06902X0.03162*%
%ADD34C,0.02000*%
%ADD35R,0.10250X0.07300*%
%ADD36R,0.03600X0.04700*%
%ADD37R,0.03162X0.05524*%
%ADD38R,0.09400X0.06800*%
%ADD39R,0.15300X0.11500*%
%ADD40R,0.33100X0.11000*%
%ADD41C,0.01191*%
%ADD42C,0.01530*%
%ADD43R,0.01800X0.05900*%
%ADD44R,0.03600X0.01800*%
%ADD45R,0.02769X0.02178*%
D10*
X0087800Y0009000D03*
X0097800Y0009000D03*
X0107800Y0009000D03*
X0117800Y0009000D03*
X0127800Y0009000D03*
X0137800Y0009000D03*
X0147800Y0009000D03*
X0157800Y0009000D03*
X0167800Y0009000D03*
X0177800Y0009000D03*
X0187800Y0009000D03*
X0197800Y0009000D03*
X0207800Y0009000D03*
X0217800Y0009000D03*
X0227800Y0009000D03*
X0237800Y0009000D03*
X0247800Y0009000D03*
X0257800Y0009000D03*
X0267800Y0009000D03*
X0277800Y0009000D03*
X0287800Y0009000D03*
X0297800Y0009000D03*
X0307800Y0009000D03*
X0307800Y0019000D03*
X0297800Y0019000D03*
X0287800Y0019000D03*
X0277800Y0019000D03*
X0267800Y0019000D03*
X0257800Y0019000D03*
X0247800Y0019000D03*
X0237800Y0019000D03*
X0227800Y0019000D03*
X0217800Y0019000D03*
X0207800Y0019000D03*
X0197800Y0019000D03*
X0187800Y0019000D03*
X0177800Y0019000D03*
X0167800Y0019000D03*
X0157800Y0019000D03*
X0147800Y0019000D03*
X0137800Y0019000D03*
X0127800Y0019000D03*
X0117800Y0019000D03*
X0107800Y0019000D03*
X0097800Y0019000D03*
X0087800Y0019000D03*
X0285300Y0117500D03*
X0295300Y0117500D03*
X0305300Y0117500D03*
X0305300Y0127500D03*
X0295300Y0127500D03*
X0285300Y0127500D03*
X0285300Y0137500D03*
X0295300Y0137500D03*
X0305300Y0137500D03*
X0305300Y0147500D03*
X0295300Y0147500D03*
X0285300Y0147500D03*
X0285300Y0157500D03*
X0295300Y0157500D03*
X0305300Y0157500D03*
X0305300Y0167500D03*
X0295300Y0167500D03*
X0285300Y0167500D03*
X0285300Y0177500D03*
X0295300Y0177500D03*
X0305300Y0177500D03*
X0307800Y0199000D03*
X0297800Y0199000D03*
X0287800Y0199000D03*
X0277800Y0199000D03*
X0267800Y0199000D03*
X0257800Y0199000D03*
X0247800Y0199000D03*
X0237800Y0199000D03*
X0227800Y0199000D03*
X0217800Y0199000D03*
X0207800Y0199000D03*
X0197800Y0199000D03*
X0187800Y0199000D03*
X0177800Y0199000D03*
X0167800Y0199000D03*
X0157800Y0199000D03*
X0147800Y0199000D03*
X0137800Y0199000D03*
X0127800Y0199000D03*
X0117800Y0199000D03*
X0107800Y0199000D03*
X0097800Y0199000D03*
X0087800Y0199000D03*
X0087800Y0209000D03*
X0097800Y0209000D03*
X0107800Y0209000D03*
X0117800Y0209000D03*
X0127800Y0209000D03*
X0137800Y0209000D03*
X0147800Y0209000D03*
X0157800Y0209000D03*
X0167800Y0209000D03*
X0177800Y0209000D03*
X0187800Y0209000D03*
X0197800Y0209000D03*
X0207800Y0209000D03*
X0217800Y0209000D03*
X0227800Y0209000D03*
X0237800Y0209000D03*
X0247800Y0209000D03*
X0257800Y0209000D03*
X0267800Y0209000D03*
X0277800Y0209000D03*
X0287800Y0209000D03*
X0297800Y0209000D03*
X0307800Y0209000D03*
X0240800Y0179500D03*
X0230800Y0179500D03*
X0295300Y0107500D03*
X0305300Y0107500D03*
D11*
X0327800Y0026500D03*
X0067800Y0014000D03*
X0327800Y0191500D03*
X0067800Y0204000D03*
D12*
X0282406Y0069575D03*
X0282406Y0067016D03*
X0282406Y0064457D03*
X0282406Y0061898D03*
X0282406Y0059339D03*
X0282406Y0056780D03*
X0282406Y0054220D03*
X0282406Y0051661D03*
X0282406Y0049102D03*
X0282406Y0046543D03*
X0282406Y0043984D03*
X0282406Y0041425D03*
X0311194Y0041425D03*
X0311194Y0043984D03*
X0311194Y0046543D03*
X0311194Y0049102D03*
X0311194Y0051661D03*
X0311194Y0054220D03*
X0311194Y0056780D03*
X0311194Y0059339D03*
X0311194Y0061898D03*
X0311194Y0064457D03*
X0311194Y0067016D03*
X0311194Y0069575D03*
D13*
X0263800Y0069800D03*
X0263800Y0074200D03*
X0208300Y0101800D03*
X0204300Y0101800D03*
X0200300Y0101800D03*
X0194300Y0103700D03*
X0200300Y0106200D03*
X0204300Y0106200D03*
X0208300Y0106200D03*
X0194300Y0107800D03*
X0194300Y0112200D03*
X0194300Y0099300D03*
X0176300Y0081700D03*
X0172300Y0081700D03*
X0172300Y0077300D03*
X0176300Y0077300D03*
X0164300Y0074700D03*
X0164300Y0070300D03*
X0164300Y0066700D03*
X0164300Y0062300D03*
X0146300Y0040700D03*
X0146300Y0036300D03*
X0123800Y0036800D03*
X0123800Y0041200D03*
X0127800Y0062800D03*
X0127800Y0067200D03*
X0193800Y0132800D03*
X0193800Y0137200D03*
X0192300Y0145300D03*
X0192300Y0149700D03*
X0192800Y0164300D03*
X0196800Y0164300D03*
X0196800Y0168700D03*
X0192800Y0168700D03*
X0201300Y0168700D03*
X0205800Y0168700D03*
X0209800Y0168700D03*
X0209800Y0164300D03*
X0205800Y0164300D03*
X0201300Y0164300D03*
X0208800Y0177800D03*
X0208800Y0182200D03*
X0278300Y0180200D03*
X0278300Y0175800D03*
X0098800Y0168700D03*
X0098800Y0164300D03*
X0088800Y0163700D03*
X0088800Y0159300D03*
X0083300Y0159300D03*
X0077800Y0159300D03*
X0077800Y0163700D03*
X0083300Y0163700D03*
X0071300Y0163700D03*
X0071300Y0159300D03*
X0035800Y0159300D03*
X0035800Y0163700D03*
X0035800Y0171800D03*
X0035800Y0176200D03*
X0287300Y0032200D03*
X0291300Y0032200D03*
X0291300Y0027800D03*
X0287300Y0027800D03*
D14*
X0319225Y0091106D03*
X0321784Y0091106D03*
X0324343Y0091106D03*
X0326902Y0091106D03*
X0329461Y0091106D03*
X0332020Y0091106D03*
X0334580Y0091106D03*
X0337139Y0091106D03*
X0339698Y0091106D03*
X0342257Y0091106D03*
X0344816Y0091106D03*
X0347375Y0091106D03*
X0347375Y0119894D03*
X0344816Y0119894D03*
X0342257Y0119894D03*
X0339698Y0119894D03*
X0337139Y0119894D03*
X0334580Y0119894D03*
X0332020Y0119894D03*
X0329461Y0119894D03*
X0326902Y0119894D03*
X0324343Y0119894D03*
X0321784Y0119894D03*
X0319225Y0119894D03*
D15*
X0099824Y0073000D03*
X0099824Y0068000D03*
X0099824Y0063000D03*
X0099824Y0058000D03*
X0077776Y0058000D03*
X0077776Y0063000D03*
X0077776Y0068000D03*
X0077776Y0073000D03*
D16*
X0080517Y0080000D03*
X0092017Y0088000D03*
X0095083Y0080000D03*
X0106583Y0088000D03*
X0106083Y0137000D03*
X0091517Y0137000D03*
D17*
X0090800Y0171547D03*
X0084300Y0171547D03*
X0077800Y0171547D03*
X0071300Y0171547D03*
X0071300Y0177453D03*
X0077800Y0177453D03*
X0084300Y0177453D03*
X0090800Y0177453D03*
X0099347Y0174500D03*
X0105253Y0174500D03*
X0031300Y0172047D03*
X0031300Y0177953D03*
X0031300Y0165453D03*
X0031300Y0159547D03*
D18*
X0124050Y0170500D03*
X0142550Y0170500D03*
D19*
X0144646Y0187000D03*
X0137954Y0187000D03*
D20*
X0116000Y0183500D03*
X0116000Y0179500D03*
X0111600Y0179500D03*
X0111600Y0183500D03*
X0129600Y0149000D03*
X0129600Y0145000D03*
X0129600Y0141000D03*
X0129600Y0137000D03*
X0134000Y0137000D03*
X0138600Y0137000D03*
X0143000Y0137000D03*
X0134000Y0141000D03*
X0134000Y0145000D03*
X0134000Y0149000D03*
X0200600Y0143000D03*
X0205000Y0143000D03*
X0218100Y0135000D03*
X0222500Y0135000D03*
X0253600Y0131000D03*
X0258000Y0131000D03*
X0274100Y0132500D03*
X0278500Y0132500D03*
X0278500Y0127500D03*
X0274100Y0127500D03*
X0274100Y0122500D03*
X0278500Y0122500D03*
X0278500Y0117500D03*
X0274100Y0117500D03*
X0274100Y0112500D03*
X0278500Y0112500D03*
X0278500Y0107500D03*
X0274100Y0107500D03*
X0274100Y0137500D03*
X0278500Y0137500D03*
X0278500Y0142500D03*
X0274100Y0142500D03*
X0274100Y0147500D03*
X0278500Y0147500D03*
X0278500Y0157500D03*
X0274100Y0157500D03*
X0274100Y0167000D03*
X0278500Y0167000D03*
X0208000Y0190000D03*
X0203600Y0190000D03*
X0199500Y0190000D03*
X0195100Y0190000D03*
X0156500Y0081000D03*
X0152100Y0081000D03*
X0138500Y0069500D03*
X0134100Y0069500D03*
X0134100Y0066000D03*
X0138500Y0066000D03*
D21*
X0132737Y0092602D02*
X0124863Y0092602D01*
X0116989Y0107563D02*
X0116989Y0115437D01*
X0141005Y0115437D02*
X0141005Y0107563D01*
D22*
X0062300Y0077750D03*
X0062300Y0059250D03*
D23*
X0033300Y0012098D03*
X0033300Y0036902D03*
X0033300Y0049598D03*
X0033300Y0074402D03*
X0048800Y0161598D03*
X0048800Y0186402D03*
X0036300Y0186598D03*
X0036300Y0211402D03*
D24*
X0290351Y0088000D03*
X0309249Y0088000D03*
D25*
X0252843Y0136500D03*
X0245757Y0136500D03*
X0148343Y0144500D03*
X0141257Y0144500D03*
X0141257Y0151500D03*
X0148343Y0151500D03*
X0088843Y0049000D03*
X0081757Y0049000D03*
X0089257Y0027500D03*
X0096343Y0027500D03*
D26*
X0095800Y0044957D03*
X0095800Y0052043D03*
X0213800Y0099457D03*
X0213800Y0106543D03*
X0114300Y0159457D03*
X0107300Y0159457D03*
X0107300Y0166543D03*
X0114300Y0166543D03*
D27*
X0250800Y0179500D03*
X0285300Y0107500D03*
D28*
X0328300Y0074450D03*
X0343300Y0074450D03*
X0343300Y0055450D03*
X0328300Y0055450D03*
X0158300Y0045000D03*
D29*
X0158300Y0039100D03*
X0158300Y0033200D03*
X0328300Y0049550D03*
X0343300Y0049550D03*
X0343300Y0068550D03*
X0328300Y0068550D03*
D30*
X0242603Y0075240D03*
X0220682Y0075240D03*
X0212603Y0075240D03*
X0190682Y0075240D03*
X0324682Y0139740D03*
X0346603Y0139740D03*
X0346603Y0158740D03*
X0324682Y0158740D03*
D31*
X0329800Y0167500D03*
X0333737Y0167500D03*
X0337674Y0167500D03*
X0341611Y0167500D03*
X0341611Y0148500D03*
X0337674Y0148500D03*
X0333737Y0148500D03*
X0329800Y0148500D03*
X0237611Y0084000D03*
X0233674Y0084000D03*
X0229737Y0084000D03*
X0225800Y0084000D03*
X0207611Y0084000D03*
X0203674Y0084000D03*
X0199737Y0084000D03*
X0195800Y0084000D03*
D32*
X0201560Y0061803D03*
X0222560Y0061803D03*
X0243560Y0061803D03*
X0264560Y0056803D03*
X0264560Y0034882D03*
X0243560Y0031882D03*
X0222560Y0031882D03*
X0201560Y0031882D03*
X0180560Y0031882D03*
X0140560Y0028382D03*
X0116560Y0028382D03*
X0116560Y0050303D03*
X0140560Y0050303D03*
X0180560Y0061803D03*
X0053540Y0051118D03*
X0053540Y0029197D03*
D33*
X0062300Y0034189D03*
X0062300Y0038126D03*
X0062300Y0042063D03*
X0062300Y0046000D03*
X0107800Y0045311D03*
X0107800Y0041374D03*
X0107800Y0037437D03*
X0107800Y0033500D03*
X0131800Y0033500D03*
X0131800Y0037437D03*
X0131800Y0041374D03*
X0131800Y0045311D03*
X0171800Y0044874D03*
X0171800Y0040937D03*
X0171800Y0037000D03*
X0171800Y0048811D03*
X0171800Y0052748D03*
X0171800Y0056685D03*
X0192800Y0056685D03*
X0192800Y0052748D03*
X0192800Y0048811D03*
X0192800Y0044874D03*
X0192800Y0040937D03*
X0192800Y0037000D03*
X0213800Y0037000D03*
X0213800Y0040937D03*
X0213800Y0044874D03*
X0213800Y0048811D03*
X0213800Y0052748D03*
X0213800Y0056685D03*
X0234800Y0056685D03*
X0234800Y0052748D03*
X0234800Y0048811D03*
X0234800Y0044874D03*
X0234800Y0040937D03*
X0234800Y0037000D03*
X0255800Y0040000D03*
X0255800Y0043937D03*
X0255800Y0047874D03*
X0255800Y0051811D03*
D34*
X0203600Y0173200D02*
X0203600Y0175200D01*
X0201100Y0175200D02*
X0201100Y0173200D01*
X0198500Y0173200D02*
X0198500Y0175200D01*
X0196000Y0175200D02*
X0196000Y0173200D01*
X0196000Y0184850D02*
X0196000Y0186750D01*
X0198500Y0186800D02*
X0198500Y0184800D01*
X0201100Y0184800D02*
X0201100Y0186800D01*
X0203600Y0186800D02*
X0203600Y0184800D01*
D35*
X0199800Y0180000D03*
D36*
X0201300Y0157200D03*
X0197600Y0157200D03*
X0205000Y0157200D03*
X0205000Y0147800D03*
X0201300Y0147800D03*
X0197600Y0147800D03*
D37*
X0216300Y0142976D03*
X0221300Y0142976D03*
X0226300Y0142976D03*
X0231300Y0142976D03*
X0213300Y0134024D03*
X0208300Y0134024D03*
X0203300Y0134024D03*
X0198300Y0134024D03*
X0198300Y0111976D03*
X0203300Y0111976D03*
X0208300Y0111976D03*
X0213300Y0111976D03*
X0216300Y0165024D03*
X0221300Y0165024D03*
X0226300Y0165024D03*
X0231300Y0165024D03*
D38*
X0258800Y0123750D03*
X0258800Y0109250D03*
D39*
X0205800Y0123000D03*
D40*
X0233800Y0126500D03*
X0233800Y0104500D03*
D41*
X0159692Y0075135D02*
X0157720Y0075135D01*
X0159692Y0075135D02*
X0159692Y0074739D01*
X0157720Y0074739D01*
X0157720Y0075135D01*
X0156539Y0075920D02*
X0156539Y0077892D01*
X0156935Y0077892D01*
X0156935Y0075920D01*
X0156539Y0075920D01*
X0156539Y0077110D02*
X0156935Y0077110D01*
X0154964Y0077892D02*
X0154964Y0075920D01*
X0154964Y0077892D02*
X0155360Y0077892D01*
X0155360Y0075920D01*
X0154964Y0075920D01*
X0154964Y0077110D02*
X0155360Y0077110D01*
X0153389Y0077892D02*
X0153389Y0075920D01*
X0153389Y0077892D02*
X0153785Y0077892D01*
X0153785Y0075920D01*
X0153389Y0075920D01*
X0153389Y0077110D02*
X0153785Y0077110D01*
X0151815Y0077892D02*
X0151815Y0075920D01*
X0151815Y0077892D02*
X0152211Y0077892D01*
X0152211Y0075920D01*
X0151815Y0075920D01*
X0151815Y0077110D02*
X0152211Y0077110D01*
X0150240Y0077892D02*
X0150240Y0075920D01*
X0150240Y0077892D02*
X0150636Y0077892D01*
X0150636Y0075920D01*
X0150240Y0075920D01*
X0150240Y0077110D02*
X0150636Y0077110D01*
X0148665Y0077892D02*
X0148665Y0075920D01*
X0148665Y0077892D02*
X0149061Y0077892D01*
X0149061Y0075920D01*
X0148665Y0075920D01*
X0148665Y0077110D02*
X0149061Y0077110D01*
X0147880Y0074739D02*
X0145908Y0074739D01*
X0145908Y0075135D01*
X0147880Y0075135D01*
X0147880Y0074739D01*
X0147880Y0073164D02*
X0145908Y0073164D01*
X0145908Y0073560D01*
X0147880Y0073560D01*
X0147880Y0073164D01*
X0147880Y0071589D02*
X0145908Y0071589D01*
X0145908Y0071985D01*
X0147880Y0071985D01*
X0147880Y0071589D01*
X0147880Y0070015D02*
X0145908Y0070015D01*
X0145908Y0070411D01*
X0147880Y0070411D01*
X0147880Y0070015D01*
X0147880Y0068440D02*
X0145908Y0068440D01*
X0145908Y0068836D01*
X0147880Y0068836D01*
X0147880Y0068440D01*
X0147880Y0066865D02*
X0145908Y0066865D01*
X0145908Y0067261D01*
X0147880Y0067261D01*
X0147880Y0066865D01*
X0149061Y0066080D02*
X0149061Y0064108D01*
X0148665Y0064108D01*
X0148665Y0066080D01*
X0149061Y0066080D01*
X0149061Y0065298D02*
X0148665Y0065298D01*
X0150636Y0066080D02*
X0150636Y0064108D01*
X0150240Y0064108D01*
X0150240Y0066080D01*
X0150636Y0066080D01*
X0150636Y0065298D02*
X0150240Y0065298D01*
X0152211Y0066080D02*
X0152211Y0064108D01*
X0151815Y0064108D01*
X0151815Y0066080D01*
X0152211Y0066080D01*
X0152211Y0065298D02*
X0151815Y0065298D01*
X0153785Y0066080D02*
X0153785Y0064108D01*
X0153389Y0064108D01*
X0153389Y0066080D01*
X0153785Y0066080D01*
X0153785Y0065298D02*
X0153389Y0065298D01*
X0155360Y0066080D02*
X0155360Y0064108D01*
X0154964Y0064108D01*
X0154964Y0066080D01*
X0155360Y0066080D01*
X0155360Y0065298D02*
X0154964Y0065298D01*
X0156935Y0066080D02*
X0156935Y0064108D01*
X0156539Y0064108D01*
X0156539Y0066080D01*
X0156935Y0066080D01*
X0156935Y0065298D02*
X0156539Y0065298D01*
X0157720Y0067261D02*
X0159692Y0067261D01*
X0159692Y0066865D01*
X0157720Y0066865D01*
X0157720Y0067261D01*
X0157720Y0068836D02*
X0159692Y0068836D01*
X0159692Y0068440D01*
X0157720Y0068440D01*
X0157720Y0068836D01*
X0157720Y0070411D02*
X0159692Y0070411D01*
X0159692Y0070015D01*
X0157720Y0070015D01*
X0157720Y0070411D01*
X0157720Y0071985D02*
X0159692Y0071985D01*
X0159692Y0071589D01*
X0157720Y0071589D01*
X0157720Y0071985D01*
X0157720Y0073560D02*
X0159692Y0073560D01*
X0159692Y0073164D01*
X0157720Y0073164D01*
X0157720Y0073560D01*
D42*
X0119435Y0151485D02*
X0119165Y0151485D01*
X0119435Y0151485D02*
X0119435Y0147115D01*
X0119165Y0147115D01*
X0119165Y0151485D01*
X0119165Y0148644D02*
X0119435Y0148644D01*
X0119435Y0150173D02*
X0119165Y0150173D01*
D43*
X0117300Y0149300D03*
X0115300Y0149300D03*
X0115300Y0140700D03*
X0117300Y0140700D03*
X0119300Y0140700D03*
D44*
X0123000Y0141000D03*
X0123000Y0143000D03*
X0123000Y0145000D03*
X0123000Y0147000D03*
X0123000Y0149000D03*
X0111600Y0149000D03*
X0111600Y0147000D03*
X0111600Y0145000D03*
X0111600Y0143000D03*
X0111600Y0141000D03*
D45*
X0117150Y0069339D03*
X0117150Y0066780D03*
X0117150Y0064220D03*
X0117150Y0061661D03*
X0123450Y0061661D03*
X0123450Y0064220D03*
X0123450Y0066780D03*
X0123450Y0069339D03*
M02*
