G75*
%MOIN*%
%OFA0B0*%
%FSLAX25Y25*%
%IPPOS*%
%LPD*%
%AMOC8*
5,1,8,0,0,1.08239X$1,22.5*
%
%ADD10C,0.01100*%
%ADD11C,0.00600*%
%ADD12C,0.00800*%
%ADD13C,0.00300*%
%ADD14C,0.01600*%
%ADD15C,0.00200*%
%ADD16R,0.00787X0.05512*%
%ADD17C,0.00700*%
%ADD18R,0.02800X0.01600*%
%ADD19R,0.01800X0.03000*%
%ADD20R,0.01600X0.02800*%
%ADD21C,0.00500*%
%ADD22C,0.00400*%
%ADD23C,0.00040*%
%ADD24C,0.01000*%
%ADD25C,0.02000*%
%ADD26C,0.00100*%
D10*
X0103815Y0078068D02*
X0105132Y0076750D01*
X0107768Y0076750D01*
X0109086Y0078068D01*
X0109086Y0083339D01*
X0107768Y0084657D01*
X0105132Y0084657D01*
X0103815Y0083339D01*
X0103815Y0082021D01*
X0105132Y0080703D01*
X0109086Y0080703D01*
X0112102Y0080703D02*
X0117373Y0080703D01*
X0120389Y0082021D02*
X0123024Y0084657D01*
X0123024Y0076750D01*
X0120389Y0076750D02*
X0125660Y0076750D01*
X0128676Y0078068D02*
X0128676Y0079386D01*
X0129994Y0080703D01*
X0132629Y0080703D01*
X0133947Y0079386D01*
X0133947Y0078068D01*
X0132629Y0076750D01*
X0129994Y0076750D01*
X0128676Y0078068D01*
X0129994Y0080703D02*
X0128676Y0082021D01*
X0128676Y0083339D01*
X0129994Y0084657D01*
X0132629Y0084657D01*
X0133947Y0083339D01*
X0133947Y0082021D01*
X0132629Y0080703D01*
X0136963Y0079386D02*
X0139598Y0076750D01*
X0142234Y0079386D01*
X0142234Y0084657D01*
X0136963Y0084657D02*
X0136963Y0079386D01*
D11*
X0103237Y0085244D02*
X0095363Y0085244D01*
X0095363Y0090756D01*
X0103237Y0090756D01*
X0103237Y0085244D01*
X0099694Y0086425D02*
X0097331Y0088000D01*
X0099694Y0089575D01*
X0099694Y0086425D01*
X0091737Y0082756D02*
X0091737Y0077244D01*
X0083863Y0077244D01*
X0083863Y0082756D01*
X0091737Y0082756D01*
X0088194Y0081575D02*
X0088194Y0078425D01*
X0085831Y0080000D01*
X0088194Y0081575D01*
X0086481Y0051362D02*
X0084119Y0051362D01*
X0084119Y0046638D02*
X0086481Y0046638D01*
X0093438Y0047319D02*
X0093438Y0049681D01*
X0098162Y0049681D02*
X0098162Y0047319D01*
X0093981Y0029862D02*
X0091619Y0029862D01*
X0091619Y0025138D02*
X0093981Y0025138D01*
X0095300Y0024000D02*
X0092800Y0021500D01*
X0092800Y0006500D01*
X0095300Y0004000D01*
X0100300Y0004000D01*
X0102800Y0006500D01*
X0102800Y0021500D01*
X0105300Y0024000D01*
X0110300Y0024000D01*
X0112800Y0021500D01*
X0112800Y0006500D01*
X0115300Y0004000D01*
X0120300Y0004000D01*
X0122800Y0006500D01*
X0122800Y0021500D01*
X0125300Y0024000D01*
X0130300Y0024000D01*
X0132800Y0021500D01*
X0132800Y0006500D01*
X0135300Y0004000D01*
X0140300Y0004000D01*
X0142800Y0006500D01*
X0142800Y0021500D01*
X0145300Y0024000D01*
X0150300Y0024000D01*
X0152800Y0021500D01*
X0152800Y0006500D01*
X0150300Y0004000D01*
X0145300Y0004000D01*
X0142800Y0006500D01*
X0132800Y0006500D02*
X0130300Y0004000D01*
X0125300Y0004000D01*
X0122800Y0006500D01*
X0112800Y0006500D02*
X0110300Y0004000D01*
X0105300Y0004000D01*
X0102800Y0006500D01*
X0092800Y0006500D02*
X0090300Y0004000D01*
X0085300Y0004000D01*
X0082800Y0006500D01*
X0082800Y0021500D01*
X0085300Y0024000D01*
X0090300Y0024000D01*
X0092800Y0021500D01*
X0095300Y0024000D02*
X0100300Y0024000D01*
X0102800Y0021500D01*
X0112800Y0021500D02*
X0115300Y0024000D01*
X0120300Y0024000D01*
X0122800Y0021500D01*
X0132800Y0021500D02*
X0135300Y0024000D01*
X0140300Y0024000D01*
X0142800Y0021500D01*
X0152800Y0021500D02*
X0155300Y0024000D01*
X0160300Y0024000D01*
X0162800Y0021500D01*
X0162800Y0006500D01*
X0160300Y0004000D01*
X0155300Y0004000D01*
X0152800Y0006500D01*
X0162800Y0006500D02*
X0165300Y0004000D01*
X0170300Y0004000D01*
X0172800Y0006500D01*
X0172800Y0021500D01*
X0175300Y0024000D01*
X0180300Y0024000D01*
X0182800Y0021500D01*
X0182800Y0006500D01*
X0180300Y0004000D01*
X0175300Y0004000D01*
X0172800Y0006500D01*
X0182800Y0006500D02*
X0185300Y0004000D01*
X0190300Y0004000D01*
X0192800Y0006500D01*
X0192800Y0021500D01*
X0195300Y0024000D01*
X0200300Y0024000D01*
X0202800Y0021500D01*
X0202800Y0006500D01*
X0200300Y0004000D01*
X0195300Y0004000D01*
X0192800Y0006500D01*
X0202800Y0006500D02*
X0205300Y0004000D01*
X0210300Y0004000D01*
X0212800Y0006500D01*
X0212800Y0021500D01*
X0215300Y0024000D01*
X0220300Y0024000D01*
X0222800Y0021500D01*
X0222800Y0006500D01*
X0220300Y0004000D01*
X0215300Y0004000D01*
X0212800Y0006500D01*
X0222800Y0006500D02*
X0225300Y0004000D01*
X0230300Y0004000D01*
X0232800Y0006500D01*
X0232800Y0021500D01*
X0235300Y0024000D01*
X0240300Y0024000D01*
X0242800Y0021500D01*
X0245300Y0024000D01*
X0250300Y0024000D01*
X0252800Y0021500D01*
X0255300Y0024000D01*
X0260300Y0024000D01*
X0262800Y0021500D01*
X0265300Y0024000D01*
X0270300Y0024000D01*
X0272800Y0021500D01*
X0275300Y0024000D01*
X0280300Y0024000D01*
X0282800Y0021500D01*
X0285300Y0024000D01*
X0290300Y0024000D01*
X0292800Y0021500D01*
X0295300Y0024000D01*
X0300300Y0024000D01*
X0302800Y0021500D01*
X0305300Y0024000D01*
X0310300Y0024000D01*
X0312800Y0021500D01*
X0312800Y0006500D01*
X0310300Y0004000D01*
X0305300Y0004000D01*
X0302800Y0006500D01*
X0302800Y0021500D01*
X0292800Y0021500D02*
X0292800Y0006500D01*
X0295300Y0004000D01*
X0300300Y0004000D01*
X0302800Y0006500D01*
X0292800Y0006500D02*
X0290300Y0004000D01*
X0285300Y0004000D01*
X0282800Y0006500D01*
X0282800Y0021500D01*
X0272800Y0021500D02*
X0272800Y0006500D01*
X0275300Y0004000D01*
X0280300Y0004000D01*
X0282800Y0006500D01*
X0272800Y0006500D02*
X0270300Y0004000D01*
X0265300Y0004000D01*
X0262800Y0006500D01*
X0262800Y0021500D01*
X0252800Y0021500D02*
X0252800Y0006500D01*
X0255300Y0004000D01*
X0260300Y0004000D01*
X0262800Y0006500D01*
X0252800Y0006500D02*
X0250300Y0004000D01*
X0245300Y0004000D01*
X0242800Y0006500D01*
X0242800Y0021500D01*
X0232800Y0021500D02*
X0230300Y0024000D01*
X0225300Y0024000D01*
X0222800Y0021500D01*
X0212800Y0021500D02*
X0210300Y0024000D01*
X0205300Y0024000D01*
X0202800Y0021500D01*
X0192800Y0021500D02*
X0190300Y0024000D01*
X0185300Y0024000D01*
X0182800Y0021500D01*
X0172800Y0021500D02*
X0170300Y0024000D01*
X0165300Y0024000D01*
X0162800Y0021500D01*
X0232800Y0006500D02*
X0235300Y0004000D01*
X0240300Y0004000D01*
X0242800Y0006500D01*
X0216162Y0101819D02*
X0216162Y0104181D01*
X0211438Y0104181D02*
X0211438Y0101819D01*
X0248119Y0134138D02*
X0250481Y0134138D01*
X0250481Y0138862D02*
X0248119Y0138862D01*
X0250300Y0194000D02*
X0245300Y0194000D01*
X0242800Y0196500D01*
X0242800Y0211500D01*
X0245300Y0214000D01*
X0250300Y0214000D01*
X0252800Y0211500D01*
X0255300Y0214000D01*
X0260300Y0214000D01*
X0262800Y0211500D01*
X0265300Y0214000D01*
X0270300Y0214000D01*
X0272800Y0211500D01*
X0275300Y0214000D01*
X0280300Y0214000D01*
X0282800Y0211500D01*
X0285300Y0214000D01*
X0290300Y0214000D01*
X0292800Y0211500D01*
X0295300Y0214000D01*
X0300300Y0214000D01*
X0302800Y0211500D01*
X0305300Y0214000D01*
X0310300Y0214000D01*
X0312800Y0211500D01*
X0312800Y0196500D01*
X0310300Y0194000D01*
X0305300Y0194000D01*
X0302800Y0196500D01*
X0302800Y0211500D01*
X0292800Y0211500D02*
X0292800Y0196500D01*
X0295300Y0194000D01*
X0300300Y0194000D01*
X0302800Y0196500D01*
X0292800Y0196500D02*
X0290300Y0194000D01*
X0285300Y0194000D01*
X0282800Y0196500D01*
X0282800Y0211500D01*
X0272800Y0211500D02*
X0272800Y0196500D01*
X0275300Y0194000D01*
X0280300Y0194000D01*
X0282800Y0196500D01*
X0272800Y0196500D02*
X0270300Y0194000D01*
X0265300Y0194000D01*
X0262800Y0196500D01*
X0262800Y0211500D01*
X0252800Y0211500D02*
X0252800Y0196500D01*
X0255300Y0194000D01*
X0260300Y0194000D01*
X0262800Y0196500D01*
X0252800Y0196500D02*
X0250300Y0194000D01*
X0242800Y0196500D02*
X0240300Y0194000D01*
X0235300Y0194000D01*
X0232800Y0196500D01*
X0232800Y0211500D01*
X0235300Y0214000D01*
X0240300Y0214000D01*
X0242800Y0211500D01*
X0232800Y0211500D02*
X0230300Y0214000D01*
X0225300Y0214000D01*
X0222800Y0211500D01*
X0222800Y0196500D01*
X0220300Y0194000D01*
X0215300Y0194000D01*
X0212800Y0196500D01*
X0212800Y0211500D01*
X0215300Y0214000D01*
X0220300Y0214000D01*
X0222800Y0211500D01*
X0212800Y0211500D02*
X0210300Y0214000D01*
X0205300Y0214000D01*
X0202800Y0211500D01*
X0202800Y0196500D01*
X0200300Y0194000D01*
X0195300Y0194000D01*
X0192800Y0196500D01*
X0192800Y0211500D01*
X0195300Y0214000D01*
X0200300Y0214000D01*
X0202800Y0211500D01*
X0192800Y0211500D02*
X0190300Y0214000D01*
X0185300Y0214000D01*
X0182800Y0211500D01*
X0182800Y0196500D01*
X0180300Y0194000D01*
X0175300Y0194000D01*
X0172800Y0196500D01*
X0172800Y0211500D01*
X0175300Y0214000D01*
X0180300Y0214000D01*
X0182800Y0211500D01*
X0172800Y0211500D02*
X0170300Y0214000D01*
X0165300Y0214000D01*
X0162800Y0211500D01*
X0162800Y0196500D01*
X0160300Y0194000D01*
X0155300Y0194000D01*
X0152800Y0196500D01*
X0152800Y0211500D01*
X0155300Y0214000D01*
X0160300Y0214000D01*
X0162800Y0211500D01*
X0152800Y0211500D02*
X0150300Y0214000D01*
X0145300Y0214000D01*
X0142800Y0211500D01*
X0142800Y0196500D01*
X0145300Y0194000D01*
X0150300Y0194000D01*
X0152800Y0196500D01*
X0162800Y0196500D02*
X0165300Y0194000D01*
X0170300Y0194000D01*
X0172800Y0196500D01*
X0182800Y0196500D02*
X0185300Y0194000D01*
X0190300Y0194000D01*
X0192800Y0196500D01*
X0202800Y0196500D02*
X0205300Y0194000D01*
X0210300Y0194000D01*
X0212800Y0196500D01*
X0222800Y0196500D02*
X0225300Y0194000D01*
X0230300Y0194000D01*
X0232800Y0196500D01*
X0145981Y0153862D02*
X0143619Y0153862D01*
X0143619Y0149138D02*
X0145981Y0149138D01*
X0145981Y0146862D02*
X0143619Y0146862D01*
X0143619Y0142138D02*
X0145981Y0142138D01*
X0123300Y0140000D02*
X0123300Y0139000D01*
X0121300Y0139000D01*
X0113300Y0139000D02*
X0111300Y0139000D01*
X0111300Y0140000D01*
X0102737Y0139756D02*
X0102737Y0134244D01*
X0094863Y0134244D01*
X0094863Y0139756D01*
X0102737Y0139756D01*
X0099194Y0138575D02*
X0099194Y0135425D01*
X0096831Y0137000D01*
X0099194Y0138575D01*
X0111300Y0150000D02*
X0111300Y0151000D01*
X0113300Y0151000D01*
X0122300Y0151000D02*
X0123300Y0150000D01*
X0116662Y0161819D02*
X0116662Y0164181D01*
X0111938Y0164181D02*
X0111938Y0161819D01*
X0109662Y0161819D02*
X0109662Y0164181D01*
X0104938Y0164181D02*
X0104938Y0161819D01*
X0062500Y0161300D02*
X0057095Y0161300D01*
X0057095Y0164002D01*
X0057996Y0164903D01*
X0059798Y0164903D01*
X0060698Y0164002D01*
X0060698Y0161300D01*
X0059798Y0166825D02*
X0059798Y0170428D01*
X0058897Y0170428D02*
X0062500Y0170428D01*
X0061599Y0172349D02*
X0057095Y0172349D01*
X0058897Y0170428D02*
X0057095Y0168626D01*
X0058897Y0166825D01*
X0062500Y0166825D01*
X0061599Y0172349D02*
X0062500Y0173250D01*
X0062500Y0175052D01*
X0061599Y0175953D01*
X0057095Y0175953D01*
X0057996Y0177874D02*
X0058897Y0177874D01*
X0059798Y0178775D01*
X0059798Y0180576D01*
X0060698Y0181477D01*
X0061599Y0181477D01*
X0062500Y0180576D01*
X0062500Y0178775D01*
X0061599Y0177874D01*
X0057996Y0177874D02*
X0057095Y0178775D01*
X0057095Y0180576D01*
X0057996Y0181477D01*
X0057095Y0183399D02*
X0062500Y0183399D01*
X0062500Y0187002D01*
X0059798Y0185200D02*
X0059798Y0183399D01*
X0057095Y0183399D02*
X0057095Y0187002D01*
X0050000Y0193800D02*
X0044595Y0193800D01*
X0046397Y0195602D01*
X0044595Y0197403D01*
X0050000Y0197403D01*
X0049099Y0199325D02*
X0050000Y0200225D01*
X0050000Y0202027D01*
X0049099Y0202928D01*
X0045496Y0202928D01*
X0044595Y0202027D01*
X0044595Y0200225D01*
X0045496Y0199325D01*
X0049099Y0199325D01*
X0050000Y0204849D02*
X0044595Y0204849D01*
X0044595Y0207552D01*
X0045496Y0208453D01*
X0049099Y0208453D01*
X0050000Y0207552D01*
X0050000Y0204849D01*
X0050000Y0210374D02*
X0044595Y0210374D01*
X0044595Y0213977D01*
X0047298Y0212176D02*
X0047298Y0210374D01*
X0050000Y0210374D02*
X0050000Y0213977D01*
X0082800Y0211500D02*
X0082800Y0196500D01*
X0085300Y0194000D01*
X0090300Y0194000D01*
X0092800Y0196500D01*
X0092800Y0211500D01*
X0095300Y0214000D01*
X0100300Y0214000D01*
X0102800Y0211500D01*
X0102800Y0196500D01*
X0105300Y0194000D01*
X0110300Y0194000D01*
X0112800Y0196500D01*
X0112800Y0211500D01*
X0115300Y0214000D01*
X0120300Y0214000D01*
X0122800Y0211500D01*
X0122800Y0196500D01*
X0125300Y0194000D01*
X0130300Y0194000D01*
X0132800Y0196500D01*
X0132800Y0211500D01*
X0135300Y0214000D01*
X0140300Y0214000D01*
X0142800Y0211500D01*
X0132800Y0211500D02*
X0130300Y0214000D01*
X0125300Y0214000D01*
X0122800Y0211500D01*
X0112800Y0211500D02*
X0110300Y0214000D01*
X0105300Y0214000D01*
X0102800Y0211500D01*
X0092800Y0211500D02*
X0090300Y0214000D01*
X0085300Y0214000D01*
X0082800Y0211500D01*
X0092800Y0196500D02*
X0095300Y0194000D01*
X0100300Y0194000D01*
X0102800Y0196500D01*
X0112800Y0196500D02*
X0115300Y0194000D01*
X0120300Y0194000D01*
X0122800Y0196500D01*
X0132800Y0196500D02*
X0135300Y0194000D01*
X0140300Y0194000D01*
X0142800Y0196500D01*
D12*
X0102851Y0175420D02*
X0101631Y0174500D01*
X0101631Y0172689D01*
X0102851Y0173640D02*
X0101691Y0174400D01*
X0101631Y0174500D02*
X0101631Y0176311D01*
X0092611Y0173831D02*
X0090800Y0173831D01*
X0089880Y0175051D01*
X0088989Y0173831D02*
X0090800Y0173831D01*
X0090900Y0173891D02*
X0091660Y0175051D01*
X0086111Y0173831D02*
X0084300Y0173831D01*
X0083380Y0175051D01*
X0082489Y0173831D02*
X0084300Y0173831D01*
X0084400Y0173891D02*
X0085160Y0175051D01*
X0079611Y0173831D02*
X0077800Y0173831D01*
X0076880Y0175051D01*
X0075989Y0173831D02*
X0077800Y0173831D01*
X0077900Y0173891D02*
X0078660Y0175051D01*
X0073111Y0173831D02*
X0071300Y0173831D01*
X0070380Y0175051D01*
X0069489Y0173831D02*
X0071300Y0173831D01*
X0071400Y0173891D02*
X0072160Y0175051D01*
X0033111Y0174331D02*
X0031300Y0174331D01*
X0030380Y0175551D01*
X0029489Y0174331D02*
X0031300Y0174331D01*
X0031400Y0174391D02*
X0032160Y0175551D01*
X0032160Y0163051D02*
X0031400Y0161891D01*
X0031300Y0161831D02*
X0030380Y0163051D01*
X0029489Y0161831D02*
X0031300Y0161831D01*
X0033111Y0161831D01*
X0082500Y0075500D02*
X0082500Y0055500D01*
X0082600Y0055500D02*
X0095000Y0055500D01*
X0095076Y0055502D01*
X0095152Y0055508D01*
X0095227Y0055517D01*
X0095302Y0055531D01*
X0095376Y0055548D01*
X0095449Y0055569D01*
X0095521Y0055593D01*
X0095592Y0055622D01*
X0095661Y0055653D01*
X0095728Y0055688D01*
X0095793Y0055727D01*
X0095857Y0055769D01*
X0095918Y0055814D01*
X0095977Y0055862D01*
X0096033Y0055913D01*
X0096087Y0055967D01*
X0096138Y0056023D01*
X0096186Y0056082D01*
X0096231Y0056143D01*
X0096273Y0056207D01*
X0096312Y0056272D01*
X0096347Y0056339D01*
X0096378Y0056408D01*
X0096407Y0056479D01*
X0096431Y0056551D01*
X0096452Y0056624D01*
X0096469Y0056698D01*
X0096483Y0056773D01*
X0096492Y0056848D01*
X0096498Y0056924D01*
X0096500Y0057000D01*
X0096500Y0074000D01*
X0096498Y0074076D01*
X0096492Y0074152D01*
X0096483Y0074227D01*
X0096469Y0074302D01*
X0096452Y0074376D01*
X0096431Y0074449D01*
X0096407Y0074521D01*
X0096378Y0074592D01*
X0096347Y0074661D01*
X0096312Y0074728D01*
X0096273Y0074793D01*
X0096231Y0074857D01*
X0096186Y0074918D01*
X0096138Y0074977D01*
X0096087Y0075033D01*
X0096033Y0075087D01*
X0095977Y0075138D01*
X0095918Y0075186D01*
X0095857Y0075231D01*
X0095793Y0075273D01*
X0095728Y0075312D01*
X0095661Y0075347D01*
X0095592Y0075378D01*
X0095521Y0075407D01*
X0095449Y0075431D01*
X0095376Y0075452D01*
X0095302Y0075469D01*
X0095227Y0075483D01*
X0095152Y0075492D01*
X0095076Y0075498D01*
X0095000Y0075500D01*
X0090800Y0075500D01*
X0086800Y0075500D01*
X0082600Y0075500D01*
X0082524Y0075498D01*
X0082448Y0075492D01*
X0082373Y0075483D01*
X0082298Y0075469D01*
X0082224Y0075452D01*
X0082151Y0075431D01*
X0082079Y0075407D01*
X0082008Y0075378D01*
X0081939Y0075347D01*
X0081872Y0075312D01*
X0081807Y0075273D01*
X0081743Y0075231D01*
X0081682Y0075186D01*
X0081623Y0075138D01*
X0081567Y0075087D01*
X0081513Y0075033D01*
X0081462Y0074977D01*
X0081414Y0074918D01*
X0081369Y0074857D01*
X0081327Y0074793D01*
X0081288Y0074728D01*
X0081253Y0074661D01*
X0081222Y0074592D01*
X0081193Y0074521D01*
X0081169Y0074449D01*
X0081148Y0074376D01*
X0081131Y0074302D01*
X0081117Y0074227D01*
X0081108Y0074152D01*
X0081102Y0074076D01*
X0081100Y0074000D01*
X0081100Y0057000D01*
X0081102Y0056924D01*
X0081108Y0056848D01*
X0081117Y0056773D01*
X0081131Y0056698D01*
X0081148Y0056624D01*
X0081169Y0056551D01*
X0081193Y0056479D01*
X0081222Y0056408D01*
X0081253Y0056339D01*
X0081288Y0056272D01*
X0081327Y0056207D01*
X0081369Y0056143D01*
X0081414Y0056082D01*
X0081462Y0056023D01*
X0081513Y0055967D01*
X0081567Y0055913D01*
X0081623Y0055862D01*
X0081682Y0055814D01*
X0081743Y0055769D01*
X0081807Y0055727D01*
X0081872Y0055688D01*
X0081939Y0055653D01*
X0082008Y0055622D01*
X0082079Y0055593D01*
X0082151Y0055569D01*
X0082224Y0055548D01*
X0082298Y0055531D01*
X0082373Y0055517D01*
X0082448Y0055508D01*
X0082524Y0055502D01*
X0082600Y0055500D01*
X0086800Y0075500D02*
X0086802Y0075412D01*
X0086808Y0075323D01*
X0086818Y0075235D01*
X0086831Y0075148D01*
X0086849Y0075061D01*
X0086870Y0074975D01*
X0086895Y0074890D01*
X0086924Y0074807D01*
X0086957Y0074724D01*
X0086993Y0074644D01*
X0087032Y0074565D01*
X0087075Y0074487D01*
X0087122Y0074412D01*
X0087172Y0074339D01*
X0087225Y0074268D01*
X0087281Y0074199D01*
X0087340Y0074133D01*
X0087402Y0074070D01*
X0087466Y0074010D01*
X0087533Y0073952D01*
X0087603Y0073898D01*
X0087675Y0073846D01*
X0087749Y0073798D01*
X0087826Y0073753D01*
X0087904Y0073712D01*
X0087984Y0073674D01*
X0088065Y0073640D01*
X0088148Y0073609D01*
X0088233Y0073582D01*
X0088318Y0073559D01*
X0088404Y0073540D01*
X0088492Y0073524D01*
X0088579Y0073512D01*
X0088667Y0073504D01*
X0088756Y0073500D01*
X0088844Y0073500D01*
X0088933Y0073504D01*
X0089021Y0073512D01*
X0089108Y0073524D01*
X0089196Y0073540D01*
X0089282Y0073559D01*
X0089367Y0073582D01*
X0089452Y0073609D01*
X0089535Y0073640D01*
X0089616Y0073674D01*
X0089696Y0073712D01*
X0089774Y0073753D01*
X0089851Y0073798D01*
X0089925Y0073846D01*
X0089997Y0073898D01*
X0090067Y0073952D01*
X0090134Y0074010D01*
X0090198Y0074070D01*
X0090260Y0074133D01*
X0090319Y0074199D01*
X0090375Y0074268D01*
X0090428Y0074339D01*
X0090478Y0074412D01*
X0090525Y0074487D01*
X0090568Y0074565D01*
X0090607Y0074644D01*
X0090643Y0074724D01*
X0090676Y0074807D01*
X0090705Y0074890D01*
X0090730Y0074975D01*
X0090751Y0075061D01*
X0090769Y0075148D01*
X0090782Y0075235D01*
X0090792Y0075323D01*
X0090798Y0075412D01*
X0090800Y0075500D01*
X0195800Y0116800D02*
X0195800Y0129200D01*
X0195800Y0129300D02*
X0215800Y0129300D01*
X0215800Y0129200D02*
X0215800Y0125000D01*
X0215800Y0121000D01*
X0215800Y0116800D01*
X0215798Y0116724D01*
X0215792Y0116648D01*
X0215783Y0116573D01*
X0215769Y0116498D01*
X0215752Y0116424D01*
X0215731Y0116351D01*
X0215707Y0116279D01*
X0215678Y0116208D01*
X0215647Y0116139D01*
X0215612Y0116072D01*
X0215573Y0116007D01*
X0215531Y0115943D01*
X0215486Y0115882D01*
X0215438Y0115823D01*
X0215387Y0115767D01*
X0215333Y0115713D01*
X0215277Y0115662D01*
X0215218Y0115614D01*
X0215157Y0115569D01*
X0215093Y0115527D01*
X0215028Y0115488D01*
X0214961Y0115453D01*
X0214892Y0115422D01*
X0214821Y0115393D01*
X0214749Y0115369D01*
X0214676Y0115348D01*
X0214602Y0115331D01*
X0214527Y0115317D01*
X0214452Y0115308D01*
X0214376Y0115302D01*
X0214300Y0115300D01*
X0197300Y0115300D01*
X0197224Y0115302D01*
X0197148Y0115308D01*
X0197073Y0115317D01*
X0196998Y0115331D01*
X0196924Y0115348D01*
X0196851Y0115369D01*
X0196779Y0115393D01*
X0196708Y0115422D01*
X0196639Y0115453D01*
X0196572Y0115488D01*
X0196507Y0115527D01*
X0196443Y0115569D01*
X0196382Y0115614D01*
X0196323Y0115662D01*
X0196267Y0115713D01*
X0196213Y0115767D01*
X0196162Y0115823D01*
X0196114Y0115882D01*
X0196069Y0115943D01*
X0196027Y0116007D01*
X0195988Y0116072D01*
X0195953Y0116139D01*
X0195922Y0116208D01*
X0195893Y0116279D01*
X0195869Y0116351D01*
X0195848Y0116424D01*
X0195831Y0116498D01*
X0195817Y0116573D01*
X0195808Y0116648D01*
X0195802Y0116724D01*
X0195800Y0116800D01*
X0195800Y0129200D02*
X0195802Y0129276D01*
X0195808Y0129352D01*
X0195817Y0129427D01*
X0195831Y0129502D01*
X0195848Y0129576D01*
X0195869Y0129649D01*
X0195893Y0129721D01*
X0195922Y0129792D01*
X0195953Y0129861D01*
X0195988Y0129928D01*
X0196027Y0129993D01*
X0196069Y0130057D01*
X0196114Y0130118D01*
X0196162Y0130177D01*
X0196213Y0130233D01*
X0196267Y0130287D01*
X0196323Y0130338D01*
X0196382Y0130386D01*
X0196443Y0130431D01*
X0196507Y0130473D01*
X0196572Y0130512D01*
X0196639Y0130547D01*
X0196708Y0130578D01*
X0196779Y0130607D01*
X0196851Y0130631D01*
X0196924Y0130652D01*
X0196998Y0130669D01*
X0197073Y0130683D01*
X0197148Y0130692D01*
X0197224Y0130698D01*
X0197300Y0130700D01*
X0214300Y0130700D01*
X0214376Y0130698D01*
X0214452Y0130692D01*
X0214527Y0130683D01*
X0214602Y0130669D01*
X0214676Y0130652D01*
X0214749Y0130631D01*
X0214821Y0130607D01*
X0214892Y0130578D01*
X0214961Y0130547D01*
X0215028Y0130512D01*
X0215093Y0130473D01*
X0215157Y0130431D01*
X0215218Y0130386D01*
X0215277Y0130338D01*
X0215333Y0130287D01*
X0215387Y0130233D01*
X0215438Y0130177D01*
X0215486Y0130118D01*
X0215531Y0130057D01*
X0215573Y0129993D01*
X0215612Y0129928D01*
X0215647Y0129861D01*
X0215678Y0129792D01*
X0215707Y0129721D01*
X0215731Y0129649D01*
X0215752Y0129576D01*
X0215769Y0129502D01*
X0215783Y0129427D01*
X0215792Y0129352D01*
X0215798Y0129276D01*
X0215800Y0129200D01*
X0215800Y0125000D02*
X0215712Y0124998D01*
X0215623Y0124992D01*
X0215535Y0124982D01*
X0215448Y0124969D01*
X0215361Y0124951D01*
X0215275Y0124930D01*
X0215190Y0124905D01*
X0215107Y0124876D01*
X0215024Y0124843D01*
X0214944Y0124807D01*
X0214865Y0124768D01*
X0214787Y0124725D01*
X0214712Y0124678D01*
X0214639Y0124628D01*
X0214568Y0124575D01*
X0214499Y0124519D01*
X0214433Y0124460D01*
X0214370Y0124398D01*
X0214310Y0124334D01*
X0214252Y0124267D01*
X0214198Y0124197D01*
X0214146Y0124125D01*
X0214098Y0124051D01*
X0214053Y0123974D01*
X0214012Y0123896D01*
X0213974Y0123816D01*
X0213940Y0123735D01*
X0213909Y0123652D01*
X0213882Y0123567D01*
X0213859Y0123482D01*
X0213840Y0123396D01*
X0213824Y0123308D01*
X0213812Y0123221D01*
X0213804Y0123133D01*
X0213800Y0123044D01*
X0213800Y0122956D01*
X0213804Y0122867D01*
X0213812Y0122779D01*
X0213824Y0122692D01*
X0213840Y0122604D01*
X0213859Y0122518D01*
X0213882Y0122433D01*
X0213909Y0122348D01*
X0213940Y0122265D01*
X0213974Y0122184D01*
X0214012Y0122104D01*
X0214053Y0122026D01*
X0214098Y0121949D01*
X0214146Y0121875D01*
X0214198Y0121803D01*
X0214252Y0121733D01*
X0214310Y0121666D01*
X0214370Y0121602D01*
X0214433Y0121540D01*
X0214499Y0121481D01*
X0214568Y0121425D01*
X0214639Y0121372D01*
X0214712Y0121322D01*
X0214787Y0121275D01*
X0214865Y0121232D01*
X0214944Y0121193D01*
X0215024Y0121157D01*
X0215107Y0121124D01*
X0215190Y0121095D01*
X0215275Y0121070D01*
X0215361Y0121049D01*
X0215448Y0121031D01*
X0215535Y0121018D01*
X0215623Y0121008D01*
X0215712Y0121002D01*
X0215800Y0121000D01*
X0254863Y0119374D02*
X0262737Y0119374D01*
X0258800Y0119374D02*
X0254863Y0113969D01*
X0262737Y0113969D01*
X0258800Y0119374D01*
X0266795Y0099770D02*
X0272600Y0095900D01*
X0272600Y0099770D02*
X0266795Y0095900D01*
X0265763Y0088770D02*
X0269633Y0084900D01*
X0270600Y0084900D01*
X0270600Y0088770D01*
X0265763Y0088770D02*
X0264795Y0088770D01*
X0264795Y0084900D01*
X0259600Y0083335D02*
X0256698Y0083335D01*
X0254763Y0085270D01*
X0253795Y0085270D01*
X0256698Y0083335D02*
X0254763Y0081400D01*
X0253795Y0081400D01*
X0286957Y0072232D02*
X0306643Y0072232D01*
X0306643Y0038768D01*
X0286957Y0038768D01*
X0286957Y0072232D01*
X0316568Y0095657D02*
X0316568Y0115343D01*
X0350032Y0115343D01*
X0350032Y0095657D01*
X0316568Y0095657D01*
X0318422Y0098500D02*
X0318424Y0098559D01*
X0318430Y0098617D01*
X0318440Y0098675D01*
X0318453Y0098732D01*
X0318471Y0098788D01*
X0318492Y0098843D01*
X0318516Y0098896D01*
X0318545Y0098947D01*
X0318576Y0098997D01*
X0318611Y0099044D01*
X0318649Y0099089D01*
X0318690Y0099131D01*
X0318733Y0099170D01*
X0318779Y0099207D01*
X0318828Y0099240D01*
X0318878Y0099270D01*
X0318930Y0099296D01*
X0318984Y0099319D01*
X0319040Y0099339D01*
X0319096Y0099354D01*
X0319154Y0099366D01*
X0319212Y0099374D01*
X0319271Y0099378D01*
X0319329Y0099378D01*
X0319388Y0099374D01*
X0319446Y0099366D01*
X0319504Y0099354D01*
X0319560Y0099339D01*
X0319616Y0099319D01*
X0319670Y0099296D01*
X0319722Y0099270D01*
X0319772Y0099240D01*
X0319821Y0099207D01*
X0319867Y0099170D01*
X0319910Y0099131D01*
X0319951Y0099089D01*
X0319989Y0099044D01*
X0320024Y0098997D01*
X0320055Y0098947D01*
X0320084Y0098896D01*
X0320108Y0098843D01*
X0320129Y0098788D01*
X0320147Y0098732D01*
X0320160Y0098675D01*
X0320170Y0098617D01*
X0320176Y0098559D01*
X0320178Y0098500D01*
X0320176Y0098441D01*
X0320170Y0098383D01*
X0320160Y0098325D01*
X0320147Y0098268D01*
X0320129Y0098212D01*
X0320108Y0098157D01*
X0320084Y0098104D01*
X0320055Y0098053D01*
X0320024Y0098003D01*
X0319989Y0097956D01*
X0319951Y0097911D01*
X0319910Y0097869D01*
X0319867Y0097830D01*
X0319821Y0097793D01*
X0319772Y0097760D01*
X0319722Y0097730D01*
X0319670Y0097704D01*
X0319616Y0097681D01*
X0319560Y0097661D01*
X0319504Y0097646D01*
X0319446Y0097634D01*
X0319388Y0097626D01*
X0319329Y0097622D01*
X0319271Y0097622D01*
X0319212Y0097626D01*
X0319154Y0097634D01*
X0319096Y0097646D01*
X0319040Y0097661D01*
X0318984Y0097681D01*
X0318930Y0097704D01*
X0318878Y0097730D01*
X0318828Y0097760D01*
X0318779Y0097793D01*
X0318733Y0097830D01*
X0318690Y0097869D01*
X0318649Y0097911D01*
X0318611Y0097956D01*
X0318576Y0098003D01*
X0318545Y0098053D01*
X0318516Y0098104D01*
X0318492Y0098157D01*
X0318471Y0098212D01*
X0318453Y0098268D01*
X0318440Y0098325D01*
X0318430Y0098383D01*
X0318424Y0098441D01*
X0318422Y0098500D01*
X0233800Y0147800D02*
X0233800Y0152000D01*
X0233800Y0156000D01*
X0233800Y0160200D01*
X0233800Y0160300D02*
X0213800Y0160300D01*
X0213800Y0160200D02*
X0213800Y0147800D01*
X0213802Y0147724D01*
X0213808Y0147648D01*
X0213817Y0147573D01*
X0213831Y0147498D01*
X0213848Y0147424D01*
X0213869Y0147351D01*
X0213893Y0147279D01*
X0213922Y0147208D01*
X0213953Y0147139D01*
X0213988Y0147072D01*
X0214027Y0147007D01*
X0214069Y0146943D01*
X0214114Y0146882D01*
X0214162Y0146823D01*
X0214213Y0146767D01*
X0214267Y0146713D01*
X0214323Y0146662D01*
X0214382Y0146614D01*
X0214443Y0146569D01*
X0214507Y0146527D01*
X0214572Y0146488D01*
X0214639Y0146453D01*
X0214708Y0146422D01*
X0214779Y0146393D01*
X0214851Y0146369D01*
X0214924Y0146348D01*
X0214998Y0146331D01*
X0215073Y0146317D01*
X0215148Y0146308D01*
X0215224Y0146302D01*
X0215300Y0146300D01*
X0232300Y0146300D01*
X0232376Y0146302D01*
X0232452Y0146308D01*
X0232527Y0146317D01*
X0232602Y0146331D01*
X0232676Y0146348D01*
X0232749Y0146369D01*
X0232821Y0146393D01*
X0232892Y0146422D01*
X0232961Y0146453D01*
X0233028Y0146488D01*
X0233093Y0146527D01*
X0233157Y0146569D01*
X0233218Y0146614D01*
X0233277Y0146662D01*
X0233333Y0146713D01*
X0233387Y0146767D01*
X0233438Y0146823D01*
X0233486Y0146882D01*
X0233531Y0146943D01*
X0233573Y0147007D01*
X0233612Y0147072D01*
X0233647Y0147139D01*
X0233678Y0147208D01*
X0233707Y0147279D01*
X0233731Y0147351D01*
X0233752Y0147424D01*
X0233769Y0147498D01*
X0233783Y0147573D01*
X0233792Y0147648D01*
X0233798Y0147724D01*
X0233800Y0147800D01*
X0233800Y0152000D02*
X0233712Y0152002D01*
X0233623Y0152008D01*
X0233535Y0152018D01*
X0233448Y0152031D01*
X0233361Y0152049D01*
X0233275Y0152070D01*
X0233190Y0152095D01*
X0233107Y0152124D01*
X0233024Y0152157D01*
X0232944Y0152193D01*
X0232865Y0152232D01*
X0232787Y0152275D01*
X0232712Y0152322D01*
X0232639Y0152372D01*
X0232568Y0152425D01*
X0232499Y0152481D01*
X0232433Y0152540D01*
X0232370Y0152602D01*
X0232310Y0152666D01*
X0232252Y0152733D01*
X0232198Y0152803D01*
X0232146Y0152875D01*
X0232098Y0152949D01*
X0232053Y0153026D01*
X0232012Y0153104D01*
X0231974Y0153184D01*
X0231940Y0153265D01*
X0231909Y0153348D01*
X0231882Y0153433D01*
X0231859Y0153518D01*
X0231840Y0153604D01*
X0231824Y0153692D01*
X0231812Y0153779D01*
X0231804Y0153867D01*
X0231800Y0153956D01*
X0231800Y0154044D01*
X0231804Y0154133D01*
X0231812Y0154221D01*
X0231824Y0154308D01*
X0231840Y0154396D01*
X0231859Y0154482D01*
X0231882Y0154567D01*
X0231909Y0154652D01*
X0231940Y0154735D01*
X0231974Y0154816D01*
X0232012Y0154896D01*
X0232053Y0154974D01*
X0232098Y0155051D01*
X0232146Y0155125D01*
X0232198Y0155197D01*
X0232252Y0155267D01*
X0232310Y0155334D01*
X0232370Y0155398D01*
X0232433Y0155460D01*
X0232499Y0155519D01*
X0232568Y0155575D01*
X0232639Y0155628D01*
X0232712Y0155678D01*
X0232787Y0155725D01*
X0232865Y0155768D01*
X0232944Y0155807D01*
X0233024Y0155843D01*
X0233107Y0155876D01*
X0233190Y0155905D01*
X0233275Y0155930D01*
X0233361Y0155951D01*
X0233448Y0155969D01*
X0233535Y0155982D01*
X0233623Y0155992D01*
X0233712Y0155998D01*
X0233800Y0156000D01*
X0233800Y0160200D02*
X0233798Y0160276D01*
X0233792Y0160352D01*
X0233783Y0160427D01*
X0233769Y0160502D01*
X0233752Y0160576D01*
X0233731Y0160649D01*
X0233707Y0160721D01*
X0233678Y0160792D01*
X0233647Y0160861D01*
X0233612Y0160928D01*
X0233573Y0160993D01*
X0233531Y0161057D01*
X0233486Y0161118D01*
X0233438Y0161177D01*
X0233387Y0161233D01*
X0233333Y0161287D01*
X0233277Y0161338D01*
X0233218Y0161386D01*
X0233157Y0161431D01*
X0233093Y0161473D01*
X0233028Y0161512D01*
X0232961Y0161547D01*
X0232892Y0161578D01*
X0232821Y0161607D01*
X0232749Y0161631D01*
X0232676Y0161652D01*
X0232602Y0161669D01*
X0232527Y0161683D01*
X0232452Y0161692D01*
X0232376Y0161698D01*
X0232300Y0161700D01*
X0215300Y0161700D01*
X0215224Y0161698D01*
X0215148Y0161692D01*
X0215073Y0161683D01*
X0214998Y0161669D01*
X0214924Y0161652D01*
X0214851Y0161631D01*
X0214779Y0161607D01*
X0214708Y0161578D01*
X0214639Y0161547D01*
X0214572Y0161512D01*
X0214507Y0161473D01*
X0214443Y0161431D01*
X0214382Y0161386D01*
X0214323Y0161338D01*
X0214267Y0161287D01*
X0214213Y0161233D01*
X0214162Y0161177D01*
X0214114Y0161118D01*
X0214069Y0161057D01*
X0214027Y0160993D01*
X0213988Y0160928D01*
X0213953Y0160861D01*
X0213922Y0160792D01*
X0213893Y0160721D01*
X0213869Y0160649D01*
X0213848Y0160576D01*
X0213831Y0160502D01*
X0213817Y0160427D01*
X0213808Y0160352D01*
X0213802Y0160276D01*
X0213800Y0160200D01*
X0207800Y0155700D02*
X0207800Y0149300D01*
X0194800Y0149300D02*
X0194800Y0155700D01*
X0302922Y0041500D02*
X0302924Y0041559D01*
X0302930Y0041617D01*
X0302940Y0041675D01*
X0302953Y0041732D01*
X0302971Y0041788D01*
X0302992Y0041843D01*
X0303016Y0041896D01*
X0303045Y0041947D01*
X0303076Y0041997D01*
X0303111Y0042044D01*
X0303149Y0042089D01*
X0303190Y0042131D01*
X0303233Y0042170D01*
X0303279Y0042207D01*
X0303328Y0042240D01*
X0303378Y0042270D01*
X0303430Y0042296D01*
X0303484Y0042319D01*
X0303540Y0042339D01*
X0303596Y0042354D01*
X0303654Y0042366D01*
X0303712Y0042374D01*
X0303771Y0042378D01*
X0303829Y0042378D01*
X0303888Y0042374D01*
X0303946Y0042366D01*
X0304004Y0042354D01*
X0304060Y0042339D01*
X0304116Y0042319D01*
X0304170Y0042296D01*
X0304222Y0042270D01*
X0304272Y0042240D01*
X0304321Y0042207D01*
X0304367Y0042170D01*
X0304410Y0042131D01*
X0304451Y0042089D01*
X0304489Y0042044D01*
X0304524Y0041997D01*
X0304555Y0041947D01*
X0304584Y0041896D01*
X0304608Y0041843D01*
X0304629Y0041788D01*
X0304647Y0041732D01*
X0304660Y0041675D01*
X0304670Y0041617D01*
X0304676Y0041559D01*
X0304678Y0041500D01*
X0304676Y0041441D01*
X0304670Y0041383D01*
X0304660Y0041325D01*
X0304647Y0041268D01*
X0304629Y0041212D01*
X0304608Y0041157D01*
X0304584Y0041104D01*
X0304555Y0041053D01*
X0304524Y0041003D01*
X0304489Y0040956D01*
X0304451Y0040911D01*
X0304410Y0040869D01*
X0304367Y0040830D01*
X0304321Y0040793D01*
X0304272Y0040760D01*
X0304222Y0040730D01*
X0304170Y0040704D01*
X0304116Y0040681D01*
X0304060Y0040661D01*
X0304004Y0040646D01*
X0303946Y0040634D01*
X0303888Y0040626D01*
X0303829Y0040622D01*
X0303771Y0040622D01*
X0303712Y0040626D01*
X0303654Y0040634D01*
X0303596Y0040646D01*
X0303540Y0040661D01*
X0303484Y0040681D01*
X0303430Y0040704D01*
X0303378Y0040730D01*
X0303328Y0040760D01*
X0303279Y0040793D01*
X0303233Y0040830D01*
X0303190Y0040869D01*
X0303149Y0040911D01*
X0303111Y0040956D01*
X0303076Y0041003D01*
X0303045Y0041053D01*
X0303016Y0041104D01*
X0302992Y0041157D01*
X0302971Y0041212D01*
X0302953Y0041268D01*
X0302940Y0041325D01*
X0302930Y0041383D01*
X0302924Y0041441D01*
X0302922Y0041500D01*
D13*
X0300536Y0058050D02*
X0298067Y0058050D01*
X0296852Y0058050D02*
X0296852Y0061753D01*
X0298067Y0060519D02*
X0299301Y0061753D01*
X0299301Y0058050D01*
X0296852Y0059902D02*
X0294384Y0059902D01*
X0294384Y0061753D02*
X0294384Y0058050D01*
X0228265Y0065150D02*
X0225796Y0065150D01*
X0224572Y0065150D02*
X0223955Y0065150D01*
X0223955Y0065767D01*
X0224572Y0065767D01*
X0224572Y0065150D01*
X0222740Y0065150D02*
X0220272Y0065150D01*
X0219051Y0065150D02*
X0217816Y0065150D01*
X0218433Y0065150D02*
X0218433Y0068853D01*
X0217816Y0068853D02*
X0219051Y0068853D01*
X0220272Y0067619D02*
X0221506Y0068853D01*
X0221506Y0065150D01*
X0216602Y0067002D02*
X0215985Y0066384D01*
X0214133Y0066384D01*
X0212919Y0066384D02*
X0212919Y0065767D01*
X0212302Y0065150D01*
X0211067Y0065150D01*
X0210450Y0065767D01*
X0211067Y0067002D02*
X0212302Y0067002D01*
X0212919Y0066384D01*
X0214133Y0065150D02*
X0214133Y0068853D01*
X0215985Y0068853D01*
X0216602Y0068236D01*
X0216602Y0067002D01*
X0212919Y0068236D02*
X0212302Y0068853D01*
X0211067Y0068853D01*
X0210450Y0068236D01*
X0210450Y0067619D01*
X0211067Y0067002D01*
X0206765Y0067619D02*
X0206765Y0068236D01*
X0206148Y0068853D01*
X0204914Y0068853D01*
X0204296Y0068236D01*
X0206765Y0067619D02*
X0204296Y0065150D01*
X0206765Y0065150D01*
X0203072Y0065150D02*
X0202455Y0065150D01*
X0202455Y0065767D01*
X0203072Y0065767D01*
X0203072Y0065150D01*
X0201240Y0065150D02*
X0198772Y0065150D01*
X0197551Y0065150D02*
X0196316Y0065150D01*
X0196933Y0065150D02*
X0196933Y0068853D01*
X0196316Y0068853D02*
X0197551Y0068853D01*
X0198772Y0067619D02*
X0200006Y0068853D01*
X0200006Y0065150D01*
X0195102Y0067002D02*
X0194485Y0066384D01*
X0192633Y0066384D01*
X0191419Y0066384D02*
X0191419Y0065767D01*
X0190802Y0065150D01*
X0189567Y0065150D01*
X0188950Y0065767D01*
X0189567Y0067002D02*
X0190802Y0067002D01*
X0191419Y0066384D01*
X0192633Y0065150D02*
X0192633Y0068853D01*
X0194485Y0068853D01*
X0195102Y0068236D01*
X0195102Y0067002D01*
X0191419Y0068236D02*
X0190802Y0068853D01*
X0189567Y0068853D01*
X0188950Y0068236D01*
X0188950Y0067619D01*
X0189567Y0067002D01*
X0155341Y0070300D02*
X0155341Y0072052D01*
X0153940Y0072052D02*
X0153940Y0070300D01*
X0154290Y0069950D01*
X0154991Y0069950D01*
X0155341Y0070300D01*
X0153131Y0069950D02*
X0153131Y0072052D01*
X0152431Y0071351D01*
X0151730Y0072052D01*
X0151730Y0069950D01*
X0150958Y0069950D02*
X0150257Y0069950D01*
X0150607Y0069950D02*
X0150607Y0072052D01*
X0150257Y0072052D02*
X0150958Y0072052D01*
X0132481Y0110900D02*
X0131430Y0111951D01*
X0131080Y0111601D02*
X0132481Y0113002D01*
X0131080Y0113002D02*
X0131080Y0110900D01*
X0130271Y0111250D02*
X0129921Y0110900D01*
X0129220Y0110900D01*
X0128870Y0111250D01*
X0128870Y0112651D01*
X0129220Y0113002D01*
X0129921Y0113002D01*
X0130271Y0112651D01*
X0128061Y0112301D02*
X0128061Y0110900D01*
X0128061Y0111951D02*
X0126660Y0111951D01*
X0126660Y0112301D02*
X0127360Y0113002D01*
X0128061Y0112301D01*
X0126660Y0112301D02*
X0126660Y0110900D01*
X0125501Y0111250D02*
X0125501Y0113002D01*
X0125151Y0113002D02*
X0125851Y0113002D01*
X0125501Y0111250D02*
X0125151Y0110900D01*
X0124800Y0110900D01*
X0124450Y0111250D01*
X0225796Y0067619D02*
X0227031Y0068853D01*
X0227031Y0065150D01*
X0311447Y0107701D02*
X0315150Y0107701D01*
X0315150Y0106467D02*
X0315150Y0108936D01*
X0312681Y0106467D02*
X0311447Y0107701D01*
X0312064Y0115967D02*
X0311447Y0116584D01*
X0311447Y0117818D01*
X0312064Y0118436D01*
X0312681Y0118436D01*
X0315150Y0115967D01*
X0315150Y0118436D01*
X0329784Y0107153D02*
X0329784Y0103450D01*
X0329784Y0105302D02*
X0332252Y0105302D01*
X0333467Y0106536D02*
X0334084Y0107153D01*
X0335318Y0107153D01*
X0335936Y0106536D01*
X0335936Y0105919D01*
X0333467Y0103450D01*
X0335936Y0103450D01*
X0332252Y0103450D02*
X0332252Y0107153D01*
X0092150Y0181650D02*
X0090215Y0183585D01*
X0089731Y0183585D01*
X0089248Y0183101D01*
X0089248Y0182134D01*
X0089731Y0181650D01*
X0092150Y0181650D02*
X0092150Y0183585D01*
X0091666Y0184597D02*
X0092150Y0185080D01*
X0092150Y0186048D01*
X0091666Y0186531D01*
X0090699Y0186531D01*
X0090215Y0186048D01*
X0090215Y0185564D01*
X0090699Y0184597D01*
X0089248Y0184597D01*
X0089248Y0186531D01*
X0089248Y0187543D02*
X0089731Y0187543D01*
X0089731Y0188027D01*
X0089248Y0188027D01*
X0089248Y0187543D01*
X0089248Y0189962D02*
X0092150Y0187543D01*
X0092150Y0189478D02*
X0091666Y0189478D01*
X0091666Y0189962D01*
X0092150Y0189962D01*
X0092150Y0189478D01*
X0085650Y0189478D02*
X0085650Y0189962D01*
X0085166Y0189962D01*
X0085166Y0189478D01*
X0085650Y0189478D01*
X0085650Y0187543D02*
X0082748Y0189962D01*
X0082748Y0188027D02*
X0083231Y0188027D01*
X0083231Y0187543D01*
X0082748Y0187543D01*
X0082748Y0188027D01*
X0083231Y0186531D02*
X0085166Y0184597D01*
X0085650Y0185080D01*
X0085650Y0186048D01*
X0085166Y0186531D01*
X0083231Y0186531D01*
X0082748Y0186048D01*
X0082748Y0185080D01*
X0083231Y0184597D01*
X0085166Y0184597D01*
X0085166Y0183585D02*
X0084199Y0183585D01*
X0083715Y0183101D01*
X0083715Y0182617D01*
X0084199Y0181650D01*
X0082748Y0181650D01*
X0082748Y0183585D01*
X0085166Y0183585D02*
X0085650Y0183101D01*
X0085650Y0182134D01*
X0085166Y0181650D01*
X0079150Y0181650D02*
X0078666Y0181650D01*
X0076731Y0183585D01*
X0076248Y0183585D01*
X0076248Y0181650D01*
X0076248Y0184597D02*
X0077699Y0184597D01*
X0077215Y0185564D01*
X0077215Y0186048D01*
X0077699Y0186531D01*
X0078666Y0186531D01*
X0079150Y0186048D01*
X0079150Y0185080D01*
X0078666Y0184597D01*
X0076248Y0184597D02*
X0076248Y0186531D01*
X0076248Y0187543D02*
X0076731Y0187543D01*
X0076731Y0188027D01*
X0076248Y0188027D01*
X0076248Y0187543D01*
X0076248Y0189962D02*
X0079150Y0187543D01*
X0079150Y0189478D02*
X0079150Y0189962D01*
X0078666Y0189962D01*
X0078666Y0189478D01*
X0079150Y0189478D01*
X0072650Y0188994D02*
X0072650Y0188027D01*
X0072166Y0187543D01*
X0070231Y0189478D01*
X0072166Y0189478D01*
X0072650Y0188994D01*
X0072650Y0190490D02*
X0069748Y0192908D01*
X0069748Y0190973D02*
X0070231Y0190973D01*
X0070231Y0190490D01*
X0069748Y0190490D01*
X0069748Y0190973D01*
X0070231Y0189478D02*
X0069748Y0188994D01*
X0069748Y0188027D01*
X0070231Y0187543D01*
X0072166Y0187543D01*
X0072166Y0186531D02*
X0072650Y0186048D01*
X0072650Y0185080D01*
X0072166Y0184597D01*
X0070231Y0186531D01*
X0072166Y0186531D01*
X0072166Y0184597D02*
X0070231Y0184597D01*
X0069748Y0185080D01*
X0069748Y0186048D01*
X0070231Y0186531D01*
X0072650Y0183585D02*
X0072650Y0181650D01*
X0072650Y0182617D02*
X0069748Y0182617D01*
X0070715Y0181650D01*
X0072166Y0192425D02*
X0072166Y0192908D01*
X0072650Y0192908D01*
X0072650Y0192425D01*
X0072166Y0192425D01*
D14*
X0131800Y0149120D02*
X0131800Y0148880D01*
X0131800Y0145120D02*
X0131800Y0144880D01*
X0140800Y0137120D02*
X0140800Y0136880D01*
X0196680Y0166500D02*
X0196920Y0166500D01*
X0201180Y0166500D02*
X0201420Y0166500D01*
X0208680Y0180000D02*
X0208920Y0180000D01*
X0205800Y0189880D02*
X0205800Y0190120D01*
X0202800Y0143120D02*
X0202800Y0142880D01*
X0220300Y0135120D02*
X0220300Y0134880D01*
X0208420Y0104000D02*
X0208180Y0104000D01*
X0194420Y0101500D02*
X0194180Y0101500D01*
X0210388Y0085500D02*
X0210390Y0085540D01*
X0210396Y0085580D01*
X0210406Y0085620D01*
X0210419Y0085658D01*
X0210437Y0085694D01*
X0210457Y0085729D01*
X0210482Y0085761D01*
X0210509Y0085791D01*
X0210539Y0085818D01*
X0210571Y0085843D01*
X0210606Y0085863D01*
X0210642Y0085881D01*
X0210680Y0085894D01*
X0210720Y0085904D01*
X0210760Y0085910D01*
X0210800Y0085912D01*
X0210840Y0085910D01*
X0210880Y0085904D01*
X0210920Y0085894D01*
X0210958Y0085881D01*
X0210994Y0085863D01*
X0211029Y0085843D01*
X0211061Y0085818D01*
X0211091Y0085791D01*
X0211118Y0085761D01*
X0211143Y0085729D01*
X0211163Y0085694D01*
X0211181Y0085658D01*
X0211194Y0085620D01*
X0211204Y0085580D01*
X0211210Y0085540D01*
X0211212Y0085500D01*
X0211210Y0085460D01*
X0211204Y0085420D01*
X0211194Y0085380D01*
X0211181Y0085342D01*
X0211163Y0085306D01*
X0211143Y0085271D01*
X0211118Y0085239D01*
X0211091Y0085209D01*
X0211061Y0085182D01*
X0211029Y0085157D01*
X0210994Y0085137D01*
X0210958Y0085119D01*
X0210920Y0085106D01*
X0210880Y0085096D01*
X0210840Y0085090D01*
X0210800Y0085088D01*
X0210760Y0085090D01*
X0210720Y0085096D01*
X0210680Y0085106D01*
X0210642Y0085119D01*
X0210606Y0085137D01*
X0210571Y0085157D01*
X0210539Y0085182D01*
X0210509Y0085209D01*
X0210482Y0085239D01*
X0210457Y0085271D01*
X0210437Y0085306D01*
X0210419Y0085342D01*
X0210406Y0085380D01*
X0210396Y0085420D01*
X0210390Y0085460D01*
X0210388Y0085500D01*
X0240388Y0085500D02*
X0240390Y0085540D01*
X0240396Y0085580D01*
X0240406Y0085620D01*
X0240419Y0085658D01*
X0240437Y0085694D01*
X0240457Y0085729D01*
X0240482Y0085761D01*
X0240509Y0085791D01*
X0240539Y0085818D01*
X0240571Y0085843D01*
X0240606Y0085863D01*
X0240642Y0085881D01*
X0240680Y0085894D01*
X0240720Y0085904D01*
X0240760Y0085910D01*
X0240800Y0085912D01*
X0240840Y0085910D01*
X0240880Y0085904D01*
X0240920Y0085894D01*
X0240958Y0085881D01*
X0240994Y0085863D01*
X0241029Y0085843D01*
X0241061Y0085818D01*
X0241091Y0085791D01*
X0241118Y0085761D01*
X0241143Y0085729D01*
X0241163Y0085694D01*
X0241181Y0085658D01*
X0241194Y0085620D01*
X0241204Y0085580D01*
X0241210Y0085540D01*
X0241212Y0085500D01*
X0241210Y0085460D01*
X0241204Y0085420D01*
X0241194Y0085380D01*
X0241181Y0085342D01*
X0241163Y0085306D01*
X0241143Y0085271D01*
X0241118Y0085239D01*
X0241091Y0085209D01*
X0241061Y0085182D01*
X0241029Y0085157D01*
X0240994Y0085137D01*
X0240958Y0085119D01*
X0240920Y0085106D01*
X0240880Y0085096D01*
X0240840Y0085090D01*
X0240800Y0085088D01*
X0240760Y0085090D01*
X0240720Y0085096D01*
X0240680Y0085106D01*
X0240642Y0085119D01*
X0240606Y0085137D01*
X0240571Y0085157D01*
X0240539Y0085182D01*
X0240509Y0085209D01*
X0240482Y0085239D01*
X0240457Y0085271D01*
X0240437Y0085306D01*
X0240419Y0085342D01*
X0240406Y0085380D01*
X0240396Y0085420D01*
X0240390Y0085460D01*
X0240388Y0085500D01*
X0263680Y0072000D02*
X0263920Y0072000D01*
X0253888Y0055000D02*
X0253890Y0055040D01*
X0253896Y0055080D01*
X0253906Y0055120D01*
X0253919Y0055158D01*
X0253937Y0055194D01*
X0253957Y0055229D01*
X0253982Y0055261D01*
X0254009Y0055291D01*
X0254039Y0055318D01*
X0254071Y0055343D01*
X0254106Y0055363D01*
X0254142Y0055381D01*
X0254180Y0055394D01*
X0254220Y0055404D01*
X0254260Y0055410D01*
X0254300Y0055412D01*
X0254340Y0055410D01*
X0254380Y0055404D01*
X0254420Y0055394D01*
X0254458Y0055381D01*
X0254494Y0055363D01*
X0254529Y0055343D01*
X0254561Y0055318D01*
X0254591Y0055291D01*
X0254618Y0055261D01*
X0254643Y0055229D01*
X0254663Y0055194D01*
X0254681Y0055158D01*
X0254694Y0055120D01*
X0254704Y0055080D01*
X0254710Y0055040D01*
X0254712Y0055000D01*
X0254710Y0054960D01*
X0254704Y0054920D01*
X0254694Y0054880D01*
X0254681Y0054842D01*
X0254663Y0054806D01*
X0254643Y0054771D01*
X0254618Y0054739D01*
X0254591Y0054709D01*
X0254561Y0054682D01*
X0254529Y0054657D01*
X0254494Y0054637D01*
X0254458Y0054619D01*
X0254420Y0054606D01*
X0254380Y0054596D01*
X0254340Y0054590D01*
X0254300Y0054588D01*
X0254260Y0054590D01*
X0254220Y0054596D01*
X0254180Y0054606D01*
X0254142Y0054619D01*
X0254106Y0054637D01*
X0254071Y0054657D01*
X0254039Y0054682D01*
X0254009Y0054709D01*
X0253982Y0054739D01*
X0253957Y0054771D01*
X0253937Y0054806D01*
X0253919Y0054842D01*
X0253906Y0054880D01*
X0253896Y0054920D01*
X0253890Y0054960D01*
X0253888Y0055000D01*
X0232888Y0060000D02*
X0232890Y0060040D01*
X0232896Y0060080D01*
X0232906Y0060120D01*
X0232919Y0060158D01*
X0232937Y0060194D01*
X0232957Y0060229D01*
X0232982Y0060261D01*
X0233009Y0060291D01*
X0233039Y0060318D01*
X0233071Y0060343D01*
X0233106Y0060363D01*
X0233142Y0060381D01*
X0233180Y0060394D01*
X0233220Y0060404D01*
X0233260Y0060410D01*
X0233300Y0060412D01*
X0233340Y0060410D01*
X0233380Y0060404D01*
X0233420Y0060394D01*
X0233458Y0060381D01*
X0233494Y0060363D01*
X0233529Y0060343D01*
X0233561Y0060318D01*
X0233591Y0060291D01*
X0233618Y0060261D01*
X0233643Y0060229D01*
X0233663Y0060194D01*
X0233681Y0060158D01*
X0233694Y0060120D01*
X0233704Y0060080D01*
X0233710Y0060040D01*
X0233712Y0060000D01*
X0233710Y0059960D01*
X0233704Y0059920D01*
X0233694Y0059880D01*
X0233681Y0059842D01*
X0233663Y0059806D01*
X0233643Y0059771D01*
X0233618Y0059739D01*
X0233591Y0059709D01*
X0233561Y0059682D01*
X0233529Y0059657D01*
X0233494Y0059637D01*
X0233458Y0059619D01*
X0233420Y0059606D01*
X0233380Y0059596D01*
X0233340Y0059590D01*
X0233300Y0059588D01*
X0233260Y0059590D01*
X0233220Y0059596D01*
X0233180Y0059606D01*
X0233142Y0059619D01*
X0233106Y0059637D01*
X0233071Y0059657D01*
X0233039Y0059682D01*
X0233009Y0059709D01*
X0232982Y0059739D01*
X0232957Y0059771D01*
X0232937Y0059806D01*
X0232919Y0059842D01*
X0232906Y0059880D01*
X0232896Y0059920D01*
X0232890Y0059960D01*
X0232888Y0060000D01*
X0211888Y0060000D02*
X0211890Y0060040D01*
X0211896Y0060080D01*
X0211906Y0060120D01*
X0211919Y0060158D01*
X0211937Y0060194D01*
X0211957Y0060229D01*
X0211982Y0060261D01*
X0212009Y0060291D01*
X0212039Y0060318D01*
X0212071Y0060343D01*
X0212106Y0060363D01*
X0212142Y0060381D01*
X0212180Y0060394D01*
X0212220Y0060404D01*
X0212260Y0060410D01*
X0212300Y0060412D01*
X0212340Y0060410D01*
X0212380Y0060404D01*
X0212420Y0060394D01*
X0212458Y0060381D01*
X0212494Y0060363D01*
X0212529Y0060343D01*
X0212561Y0060318D01*
X0212591Y0060291D01*
X0212618Y0060261D01*
X0212643Y0060229D01*
X0212663Y0060194D01*
X0212681Y0060158D01*
X0212694Y0060120D01*
X0212704Y0060080D01*
X0212710Y0060040D01*
X0212712Y0060000D01*
X0212710Y0059960D01*
X0212704Y0059920D01*
X0212694Y0059880D01*
X0212681Y0059842D01*
X0212663Y0059806D01*
X0212643Y0059771D01*
X0212618Y0059739D01*
X0212591Y0059709D01*
X0212561Y0059682D01*
X0212529Y0059657D01*
X0212494Y0059637D01*
X0212458Y0059619D01*
X0212420Y0059606D01*
X0212380Y0059596D01*
X0212340Y0059590D01*
X0212300Y0059588D01*
X0212260Y0059590D01*
X0212220Y0059596D01*
X0212180Y0059606D01*
X0212142Y0059619D01*
X0212106Y0059637D01*
X0212071Y0059657D01*
X0212039Y0059682D01*
X0212009Y0059709D01*
X0211982Y0059739D01*
X0211957Y0059771D01*
X0211937Y0059806D01*
X0211919Y0059842D01*
X0211906Y0059880D01*
X0211896Y0059920D01*
X0211890Y0059960D01*
X0211888Y0060000D01*
X0190888Y0060000D02*
X0190890Y0060040D01*
X0190896Y0060080D01*
X0190906Y0060120D01*
X0190919Y0060158D01*
X0190937Y0060194D01*
X0190957Y0060229D01*
X0190982Y0060261D01*
X0191009Y0060291D01*
X0191039Y0060318D01*
X0191071Y0060343D01*
X0191106Y0060363D01*
X0191142Y0060381D01*
X0191180Y0060394D01*
X0191220Y0060404D01*
X0191260Y0060410D01*
X0191300Y0060412D01*
X0191340Y0060410D01*
X0191380Y0060404D01*
X0191420Y0060394D01*
X0191458Y0060381D01*
X0191494Y0060363D01*
X0191529Y0060343D01*
X0191561Y0060318D01*
X0191591Y0060291D01*
X0191618Y0060261D01*
X0191643Y0060229D01*
X0191663Y0060194D01*
X0191681Y0060158D01*
X0191694Y0060120D01*
X0191704Y0060080D01*
X0191710Y0060040D01*
X0191712Y0060000D01*
X0191710Y0059960D01*
X0191704Y0059920D01*
X0191694Y0059880D01*
X0191681Y0059842D01*
X0191663Y0059806D01*
X0191643Y0059771D01*
X0191618Y0059739D01*
X0191591Y0059709D01*
X0191561Y0059682D01*
X0191529Y0059657D01*
X0191494Y0059637D01*
X0191458Y0059619D01*
X0191420Y0059606D01*
X0191380Y0059596D01*
X0191340Y0059590D01*
X0191300Y0059588D01*
X0191260Y0059590D01*
X0191220Y0059596D01*
X0191180Y0059606D01*
X0191142Y0059619D01*
X0191106Y0059637D01*
X0191071Y0059657D01*
X0191039Y0059682D01*
X0191009Y0059709D01*
X0190982Y0059739D01*
X0190957Y0059771D01*
X0190937Y0059806D01*
X0190919Y0059842D01*
X0190906Y0059880D01*
X0190896Y0059920D01*
X0190890Y0059960D01*
X0190888Y0060000D01*
X0169888Y0060000D02*
X0169890Y0060040D01*
X0169896Y0060080D01*
X0169906Y0060120D01*
X0169919Y0060158D01*
X0169937Y0060194D01*
X0169957Y0060229D01*
X0169982Y0060261D01*
X0170009Y0060291D01*
X0170039Y0060318D01*
X0170071Y0060343D01*
X0170106Y0060363D01*
X0170142Y0060381D01*
X0170180Y0060394D01*
X0170220Y0060404D01*
X0170260Y0060410D01*
X0170300Y0060412D01*
X0170340Y0060410D01*
X0170380Y0060404D01*
X0170420Y0060394D01*
X0170458Y0060381D01*
X0170494Y0060363D01*
X0170529Y0060343D01*
X0170561Y0060318D01*
X0170591Y0060291D01*
X0170618Y0060261D01*
X0170643Y0060229D01*
X0170663Y0060194D01*
X0170681Y0060158D01*
X0170694Y0060120D01*
X0170704Y0060080D01*
X0170710Y0060040D01*
X0170712Y0060000D01*
X0170710Y0059960D01*
X0170704Y0059920D01*
X0170694Y0059880D01*
X0170681Y0059842D01*
X0170663Y0059806D01*
X0170643Y0059771D01*
X0170618Y0059739D01*
X0170591Y0059709D01*
X0170561Y0059682D01*
X0170529Y0059657D01*
X0170494Y0059637D01*
X0170458Y0059619D01*
X0170420Y0059606D01*
X0170380Y0059596D01*
X0170340Y0059590D01*
X0170300Y0059588D01*
X0170260Y0059590D01*
X0170220Y0059596D01*
X0170180Y0059606D01*
X0170142Y0059619D01*
X0170106Y0059637D01*
X0170071Y0059657D01*
X0170039Y0059682D01*
X0170009Y0059709D01*
X0169982Y0059739D01*
X0169957Y0059771D01*
X0169937Y0059806D01*
X0169919Y0059842D01*
X0169906Y0059880D01*
X0169896Y0059920D01*
X0169890Y0059960D01*
X0169888Y0060000D01*
X0164420Y0064500D02*
X0164180Y0064500D01*
X0164180Y0072500D02*
X0164420Y0072500D01*
X0154300Y0080880D02*
X0154300Y0081120D01*
X0127920Y0065000D02*
X0127680Y0065000D01*
X0129888Y0048500D02*
X0129890Y0048540D01*
X0129896Y0048580D01*
X0129906Y0048620D01*
X0129919Y0048658D01*
X0129937Y0048694D01*
X0129957Y0048729D01*
X0129982Y0048761D01*
X0130009Y0048791D01*
X0130039Y0048818D01*
X0130071Y0048843D01*
X0130106Y0048863D01*
X0130142Y0048881D01*
X0130180Y0048894D01*
X0130220Y0048904D01*
X0130260Y0048910D01*
X0130300Y0048912D01*
X0130340Y0048910D01*
X0130380Y0048904D01*
X0130420Y0048894D01*
X0130458Y0048881D01*
X0130494Y0048863D01*
X0130529Y0048843D01*
X0130561Y0048818D01*
X0130591Y0048791D01*
X0130618Y0048761D01*
X0130643Y0048729D01*
X0130663Y0048694D01*
X0130681Y0048658D01*
X0130694Y0048620D01*
X0130704Y0048580D01*
X0130710Y0048540D01*
X0130712Y0048500D01*
X0130710Y0048460D01*
X0130704Y0048420D01*
X0130694Y0048380D01*
X0130681Y0048342D01*
X0130663Y0048306D01*
X0130643Y0048271D01*
X0130618Y0048239D01*
X0130591Y0048209D01*
X0130561Y0048182D01*
X0130529Y0048157D01*
X0130494Y0048137D01*
X0130458Y0048119D01*
X0130420Y0048106D01*
X0130380Y0048096D01*
X0130340Y0048090D01*
X0130300Y0048088D01*
X0130260Y0048090D01*
X0130220Y0048096D01*
X0130180Y0048106D01*
X0130142Y0048119D01*
X0130106Y0048137D01*
X0130071Y0048157D01*
X0130039Y0048182D01*
X0130009Y0048209D01*
X0129982Y0048239D01*
X0129957Y0048271D01*
X0129937Y0048306D01*
X0129919Y0048342D01*
X0129906Y0048380D01*
X0129896Y0048420D01*
X0129890Y0048460D01*
X0129888Y0048500D01*
X0105888Y0048500D02*
X0105890Y0048540D01*
X0105896Y0048580D01*
X0105906Y0048620D01*
X0105919Y0048658D01*
X0105937Y0048694D01*
X0105957Y0048729D01*
X0105982Y0048761D01*
X0106009Y0048791D01*
X0106039Y0048818D01*
X0106071Y0048843D01*
X0106106Y0048863D01*
X0106142Y0048881D01*
X0106180Y0048894D01*
X0106220Y0048904D01*
X0106260Y0048910D01*
X0106300Y0048912D01*
X0106340Y0048910D01*
X0106380Y0048904D01*
X0106420Y0048894D01*
X0106458Y0048881D01*
X0106494Y0048863D01*
X0106529Y0048843D01*
X0106561Y0048818D01*
X0106591Y0048791D01*
X0106618Y0048761D01*
X0106643Y0048729D01*
X0106663Y0048694D01*
X0106681Y0048658D01*
X0106694Y0048620D01*
X0106704Y0048580D01*
X0106710Y0048540D01*
X0106712Y0048500D01*
X0106710Y0048460D01*
X0106704Y0048420D01*
X0106694Y0048380D01*
X0106681Y0048342D01*
X0106663Y0048306D01*
X0106643Y0048271D01*
X0106618Y0048239D01*
X0106591Y0048209D01*
X0106561Y0048182D01*
X0106529Y0048157D01*
X0106494Y0048137D01*
X0106458Y0048119D01*
X0106420Y0048106D01*
X0106380Y0048096D01*
X0106340Y0048090D01*
X0106300Y0048088D01*
X0106260Y0048090D01*
X0106220Y0048096D01*
X0106180Y0048106D01*
X0106142Y0048119D01*
X0106106Y0048137D01*
X0106071Y0048157D01*
X0106039Y0048182D01*
X0106009Y0048209D01*
X0105982Y0048239D01*
X0105957Y0048271D01*
X0105937Y0048306D01*
X0105919Y0048342D01*
X0105906Y0048380D01*
X0105896Y0048420D01*
X0105890Y0048460D01*
X0105888Y0048500D01*
X0063388Y0031000D02*
X0063390Y0031040D01*
X0063396Y0031080D01*
X0063406Y0031120D01*
X0063419Y0031158D01*
X0063437Y0031194D01*
X0063457Y0031229D01*
X0063482Y0031261D01*
X0063509Y0031291D01*
X0063539Y0031318D01*
X0063571Y0031343D01*
X0063606Y0031363D01*
X0063642Y0031381D01*
X0063680Y0031394D01*
X0063720Y0031404D01*
X0063760Y0031410D01*
X0063800Y0031412D01*
X0063840Y0031410D01*
X0063880Y0031404D01*
X0063920Y0031394D01*
X0063958Y0031381D01*
X0063994Y0031363D01*
X0064029Y0031343D01*
X0064061Y0031318D01*
X0064091Y0031291D01*
X0064118Y0031261D01*
X0064143Y0031229D01*
X0064163Y0031194D01*
X0064181Y0031158D01*
X0064194Y0031120D01*
X0064204Y0031080D01*
X0064210Y0031040D01*
X0064212Y0031000D01*
X0064210Y0030960D01*
X0064204Y0030920D01*
X0064194Y0030880D01*
X0064181Y0030842D01*
X0064163Y0030806D01*
X0064143Y0030771D01*
X0064118Y0030739D01*
X0064091Y0030709D01*
X0064061Y0030682D01*
X0064029Y0030657D01*
X0063994Y0030637D01*
X0063958Y0030619D01*
X0063920Y0030606D01*
X0063880Y0030596D01*
X0063840Y0030590D01*
X0063800Y0030588D01*
X0063760Y0030590D01*
X0063720Y0030596D01*
X0063680Y0030606D01*
X0063642Y0030619D01*
X0063606Y0030637D01*
X0063571Y0030657D01*
X0063539Y0030682D01*
X0063509Y0030709D01*
X0063482Y0030739D01*
X0063457Y0030771D01*
X0063437Y0030806D01*
X0063419Y0030842D01*
X0063406Y0030880D01*
X0063396Y0030920D01*
X0063390Y0030960D01*
X0063388Y0031000D01*
X0344388Y0150000D02*
X0344390Y0150040D01*
X0344396Y0150080D01*
X0344406Y0150120D01*
X0344419Y0150158D01*
X0344437Y0150194D01*
X0344457Y0150229D01*
X0344482Y0150261D01*
X0344509Y0150291D01*
X0344539Y0150318D01*
X0344571Y0150343D01*
X0344606Y0150363D01*
X0344642Y0150381D01*
X0344680Y0150394D01*
X0344720Y0150404D01*
X0344760Y0150410D01*
X0344800Y0150412D01*
X0344840Y0150410D01*
X0344880Y0150404D01*
X0344920Y0150394D01*
X0344958Y0150381D01*
X0344994Y0150363D01*
X0345029Y0150343D01*
X0345061Y0150318D01*
X0345091Y0150291D01*
X0345118Y0150261D01*
X0345143Y0150229D01*
X0345163Y0150194D01*
X0345181Y0150158D01*
X0345194Y0150120D01*
X0345204Y0150080D01*
X0345210Y0150040D01*
X0345212Y0150000D01*
X0345210Y0149960D01*
X0345204Y0149920D01*
X0345194Y0149880D01*
X0345181Y0149842D01*
X0345163Y0149806D01*
X0345143Y0149771D01*
X0345118Y0149739D01*
X0345091Y0149709D01*
X0345061Y0149682D01*
X0345029Y0149657D01*
X0344994Y0149637D01*
X0344958Y0149619D01*
X0344920Y0149606D01*
X0344880Y0149596D01*
X0344840Y0149590D01*
X0344800Y0149588D01*
X0344760Y0149590D01*
X0344720Y0149596D01*
X0344680Y0149606D01*
X0344642Y0149619D01*
X0344606Y0149637D01*
X0344571Y0149657D01*
X0344539Y0149682D01*
X0344509Y0149709D01*
X0344482Y0149739D01*
X0344457Y0149771D01*
X0344437Y0149806D01*
X0344419Y0149842D01*
X0344406Y0149880D01*
X0344396Y0149920D01*
X0344390Y0149960D01*
X0344388Y0150000D01*
X0344388Y0169000D02*
X0344390Y0169040D01*
X0344396Y0169080D01*
X0344406Y0169120D01*
X0344419Y0169158D01*
X0344437Y0169194D01*
X0344457Y0169229D01*
X0344482Y0169261D01*
X0344509Y0169291D01*
X0344539Y0169318D01*
X0344571Y0169343D01*
X0344606Y0169363D01*
X0344642Y0169381D01*
X0344680Y0169394D01*
X0344720Y0169404D01*
X0344760Y0169410D01*
X0344800Y0169412D01*
X0344840Y0169410D01*
X0344880Y0169404D01*
X0344920Y0169394D01*
X0344958Y0169381D01*
X0344994Y0169363D01*
X0345029Y0169343D01*
X0345061Y0169318D01*
X0345091Y0169291D01*
X0345118Y0169261D01*
X0345143Y0169229D01*
X0345163Y0169194D01*
X0345181Y0169158D01*
X0345194Y0169120D01*
X0345204Y0169080D01*
X0345210Y0169040D01*
X0345212Y0169000D01*
X0345210Y0168960D01*
X0345204Y0168920D01*
X0345194Y0168880D01*
X0345181Y0168842D01*
X0345163Y0168806D01*
X0345143Y0168771D01*
X0345118Y0168739D01*
X0345091Y0168709D01*
X0345061Y0168682D01*
X0345029Y0168657D01*
X0344994Y0168637D01*
X0344958Y0168619D01*
X0344920Y0168606D01*
X0344880Y0168596D01*
X0344840Y0168590D01*
X0344800Y0168588D01*
X0344760Y0168590D01*
X0344720Y0168596D01*
X0344680Y0168606D01*
X0344642Y0168619D01*
X0344606Y0168637D01*
X0344571Y0168657D01*
X0344539Y0168682D01*
X0344509Y0168709D01*
X0344482Y0168739D01*
X0344457Y0168771D01*
X0344437Y0168806D01*
X0344419Y0168842D01*
X0344406Y0168880D01*
X0344396Y0168920D01*
X0344390Y0168960D01*
X0344388Y0169000D01*
D15*
X0278659Y0164851D02*
X0278359Y0165152D01*
X0277759Y0165152D01*
X0277458Y0164851D01*
X0276818Y0164251D02*
X0275617Y0164251D01*
X0276518Y0165152D01*
X0276518Y0163350D01*
X0277458Y0163350D02*
X0278659Y0164551D01*
X0278659Y0164851D01*
X0278659Y0163350D02*
X0277458Y0163350D01*
X0274976Y0163350D02*
X0274376Y0163951D01*
X0274676Y0163951D02*
X0273775Y0163951D01*
X0273775Y0163350D02*
X0273775Y0165152D01*
X0274676Y0165152D01*
X0274976Y0164851D01*
X0274976Y0164251D01*
X0274676Y0163951D01*
X0274676Y0155652D02*
X0274976Y0155351D01*
X0274976Y0154751D01*
X0274676Y0154451D01*
X0273775Y0154451D01*
X0274376Y0154451D02*
X0274976Y0153850D01*
X0275617Y0154751D02*
X0276518Y0155652D01*
X0276518Y0153850D01*
X0277458Y0153850D02*
X0278659Y0153850D01*
X0278059Y0153850D02*
X0278059Y0155652D01*
X0277458Y0155051D01*
X0276818Y0154751D02*
X0275617Y0154751D01*
X0274676Y0155652D02*
X0273775Y0155652D01*
X0273775Y0153850D01*
X0273775Y0151052D02*
X0274676Y0151052D01*
X0274976Y0150751D01*
X0274976Y0150151D01*
X0274676Y0149851D01*
X0273775Y0149851D01*
X0274376Y0149851D02*
X0274976Y0149250D01*
X0275617Y0149550D02*
X0275917Y0149250D01*
X0276518Y0149250D01*
X0276818Y0149550D01*
X0276818Y0150151D01*
X0276518Y0150451D01*
X0276217Y0150451D01*
X0275617Y0150151D01*
X0275617Y0151052D01*
X0276818Y0151052D01*
X0277458Y0150751D02*
X0277759Y0151052D01*
X0278359Y0151052D01*
X0278659Y0150751D01*
X0278659Y0150451D01*
X0278359Y0150151D01*
X0278659Y0149851D01*
X0278659Y0149550D01*
X0278359Y0149250D01*
X0277759Y0149250D01*
X0277458Y0149550D01*
X0278059Y0150151D02*
X0278359Y0150151D01*
X0273775Y0149250D02*
X0273775Y0151052D01*
X0273775Y0145852D02*
X0274676Y0145852D01*
X0274976Y0145551D01*
X0274976Y0144951D01*
X0274676Y0144651D01*
X0273775Y0144651D01*
X0274376Y0144651D02*
X0274976Y0144050D01*
X0275617Y0144951D02*
X0276818Y0144951D01*
X0277458Y0145551D02*
X0277759Y0145852D01*
X0278359Y0145852D01*
X0278659Y0145551D01*
X0277458Y0144350D01*
X0277759Y0144050D01*
X0278359Y0144050D01*
X0278659Y0144350D01*
X0278659Y0145551D01*
X0277458Y0145551D02*
X0277458Y0144350D01*
X0276518Y0144050D02*
X0276518Y0145852D01*
X0275617Y0144951D01*
X0273775Y0144050D02*
X0273775Y0145852D01*
X0273775Y0140852D02*
X0274676Y0140852D01*
X0274976Y0140551D01*
X0274976Y0139951D01*
X0274676Y0139651D01*
X0273775Y0139651D01*
X0274376Y0139651D02*
X0274976Y0139050D01*
X0275617Y0139350D02*
X0275917Y0139050D01*
X0276518Y0139050D01*
X0276818Y0139350D01*
X0276818Y0139951D01*
X0276518Y0140251D01*
X0276217Y0140251D01*
X0275617Y0139951D01*
X0275617Y0140852D01*
X0276818Y0140852D01*
X0277458Y0140551D02*
X0277759Y0140852D01*
X0278359Y0140852D01*
X0278659Y0140551D01*
X0278659Y0140251D01*
X0277458Y0139050D01*
X0278659Y0139050D01*
X0278359Y0135852D02*
X0277759Y0135852D01*
X0277458Y0135551D01*
X0277458Y0135251D01*
X0277759Y0134951D01*
X0278659Y0134951D01*
X0278659Y0135551D02*
X0278659Y0134350D01*
X0278359Y0134050D01*
X0277759Y0134050D01*
X0277458Y0134350D01*
X0276818Y0134350D02*
X0276518Y0134050D01*
X0275917Y0134050D01*
X0275617Y0134350D01*
X0274976Y0134050D02*
X0274376Y0134651D01*
X0274676Y0134651D02*
X0273775Y0134651D01*
X0273775Y0134050D02*
X0273775Y0135852D01*
X0274676Y0135852D01*
X0274976Y0135551D01*
X0274976Y0134951D01*
X0274676Y0134651D01*
X0275617Y0135551D02*
X0275917Y0135852D01*
X0276518Y0135852D01*
X0276818Y0135551D01*
X0276818Y0135251D01*
X0276518Y0134951D01*
X0276818Y0134651D01*
X0276818Y0134350D01*
X0276518Y0134951D02*
X0276217Y0134951D01*
X0278359Y0135852D02*
X0278659Y0135551D01*
X0278259Y0130852D02*
X0278259Y0129050D01*
X0278859Y0129050D02*
X0277658Y0129050D01*
X0277018Y0129350D02*
X0276718Y0129050D01*
X0276117Y0129050D01*
X0275817Y0129350D01*
X0275817Y0129951D02*
X0276417Y0130251D01*
X0276718Y0130251D01*
X0277018Y0129951D01*
X0277018Y0129350D01*
X0277658Y0130251D02*
X0278259Y0130852D01*
X0277018Y0130852D02*
X0275817Y0130852D01*
X0275817Y0129951D01*
X0275176Y0129951D02*
X0274876Y0129651D01*
X0273975Y0129651D01*
X0274576Y0129651D02*
X0275176Y0129050D01*
X0275176Y0129951D02*
X0275176Y0130551D01*
X0274876Y0130852D01*
X0273975Y0130852D01*
X0273975Y0129050D01*
X0273775Y0125852D02*
X0274676Y0125852D01*
X0274976Y0125551D01*
X0274976Y0124951D01*
X0274676Y0124651D01*
X0273775Y0124651D01*
X0274376Y0124651D02*
X0274976Y0124050D01*
X0275617Y0124350D02*
X0275917Y0124050D01*
X0276518Y0124050D01*
X0276818Y0124350D01*
X0276818Y0124651D01*
X0276518Y0124951D01*
X0276217Y0124951D01*
X0276518Y0124951D02*
X0276818Y0125251D01*
X0276818Y0125551D01*
X0276518Y0125852D01*
X0275917Y0125852D01*
X0275617Y0125551D01*
X0277458Y0125551D02*
X0277458Y0125251D01*
X0277759Y0124951D01*
X0278359Y0124951D01*
X0278659Y0124651D01*
X0278659Y0124350D01*
X0278359Y0124050D01*
X0277759Y0124050D01*
X0277458Y0124350D01*
X0277458Y0124651D01*
X0277759Y0124951D01*
X0278359Y0124951D02*
X0278659Y0125251D01*
X0278659Y0125551D01*
X0278359Y0125852D01*
X0277759Y0125852D01*
X0277458Y0125551D01*
X0273775Y0125852D02*
X0273775Y0124050D01*
X0273775Y0120852D02*
X0274676Y0120852D01*
X0274976Y0120551D01*
X0274976Y0119951D01*
X0274676Y0119651D01*
X0273775Y0119651D01*
X0274376Y0119651D02*
X0274976Y0119050D01*
X0275617Y0119350D02*
X0275917Y0119050D01*
X0276518Y0119050D01*
X0276818Y0119350D01*
X0276818Y0119651D01*
X0276518Y0119951D01*
X0276217Y0119951D01*
X0276518Y0119951D02*
X0276818Y0120251D01*
X0276818Y0120551D01*
X0276518Y0120852D01*
X0275917Y0120852D01*
X0275617Y0120551D01*
X0277458Y0120852D02*
X0278659Y0120852D01*
X0278659Y0120551D01*
X0277458Y0119350D01*
X0277458Y0119050D01*
X0277759Y0115852D02*
X0278359Y0115852D01*
X0278659Y0115551D01*
X0277458Y0114350D01*
X0277759Y0114050D01*
X0278359Y0114050D01*
X0278659Y0114350D01*
X0278659Y0115551D01*
X0277759Y0115852D02*
X0277458Y0115551D01*
X0277458Y0114350D01*
X0276818Y0114350D02*
X0276518Y0114050D01*
X0275917Y0114050D01*
X0275617Y0114350D01*
X0275617Y0114951D02*
X0276217Y0115251D01*
X0276518Y0115251D01*
X0276818Y0114951D01*
X0276818Y0114350D01*
X0275617Y0114951D02*
X0275617Y0115852D01*
X0276818Y0115852D01*
X0274976Y0115551D02*
X0274976Y0114951D01*
X0274676Y0114651D01*
X0273775Y0114651D01*
X0274376Y0114651D02*
X0274976Y0114050D01*
X0273775Y0114050D02*
X0273775Y0115852D01*
X0274676Y0115852D01*
X0274976Y0115551D01*
X0273775Y0119050D02*
X0273775Y0120852D01*
X0273775Y0110852D02*
X0274676Y0110852D01*
X0274976Y0110551D01*
X0274976Y0109951D01*
X0274676Y0109651D01*
X0273775Y0109651D01*
X0274376Y0109651D02*
X0274976Y0109050D01*
X0275617Y0109350D02*
X0275917Y0109050D01*
X0276518Y0109050D01*
X0276818Y0109350D01*
X0276818Y0109651D01*
X0276518Y0109951D01*
X0276217Y0109951D01*
X0276518Y0109951D02*
X0276818Y0110251D01*
X0276818Y0110551D01*
X0276518Y0110852D01*
X0275917Y0110852D01*
X0275617Y0110551D01*
X0273775Y0110852D02*
X0273775Y0109050D01*
X0277458Y0109350D02*
X0277759Y0109050D01*
X0278359Y0109050D01*
X0278659Y0109350D01*
X0278659Y0109651D01*
X0278359Y0109951D01*
X0277458Y0109951D01*
X0277458Y0109350D01*
X0277458Y0109951D02*
X0278059Y0110551D01*
X0278659Y0110852D01*
X0255759Y0116900D02*
X0255759Y0118101D01*
X0255459Y0118402D01*
X0254859Y0118402D01*
X0254558Y0118101D01*
X0254558Y0117801D01*
X0254859Y0117501D01*
X0255759Y0117501D01*
X0255759Y0116900D02*
X0255459Y0116600D01*
X0254859Y0116600D01*
X0254558Y0116900D01*
X0253918Y0116900D02*
X0253918Y0118101D01*
X0253618Y0118402D01*
X0252717Y0118402D01*
X0252717Y0116600D01*
X0253618Y0116600D01*
X0253918Y0116900D01*
X0245094Y0116994D02*
X0245094Y0116527D01*
X0244627Y0116060D01*
X0245094Y0115593D01*
X0245094Y0115126D01*
X0244627Y0114659D01*
X0243692Y0114659D01*
X0243225Y0115126D01*
X0242331Y0114659D02*
X0240463Y0114659D01*
X0240463Y0117461D01*
X0243225Y0116994D02*
X0243692Y0117461D01*
X0244627Y0117461D01*
X0245094Y0116994D01*
X0244627Y0116060D02*
X0244159Y0116060D01*
X0216784Y0097351D02*
X0216484Y0097652D01*
X0215883Y0097652D01*
X0215583Y0097351D01*
X0214943Y0097351D02*
X0214642Y0097652D01*
X0214042Y0097652D01*
X0213742Y0097351D01*
X0213101Y0097351D02*
X0212801Y0097652D01*
X0212200Y0097652D01*
X0211900Y0097351D01*
X0211900Y0096150D01*
X0212200Y0095850D01*
X0212801Y0095850D01*
X0213101Y0096150D01*
X0213742Y0095850D02*
X0214943Y0097051D01*
X0214943Y0097351D01*
X0215583Y0096150D02*
X0215883Y0095850D01*
X0216484Y0095850D01*
X0216784Y0096150D01*
X0216784Y0096451D01*
X0216484Y0096751D01*
X0216184Y0096751D01*
X0216484Y0096751D02*
X0216784Y0097051D01*
X0216784Y0097351D01*
X0214943Y0095850D02*
X0213742Y0095850D01*
X0209450Y0095976D02*
X0209150Y0096276D01*
X0209450Y0095976D02*
X0209450Y0095376D01*
X0209150Y0095075D01*
X0207949Y0095075D01*
X0207648Y0095376D01*
X0207648Y0095976D01*
X0207949Y0096276D01*
X0207949Y0096917D02*
X0207648Y0097217D01*
X0207648Y0097818D01*
X0207949Y0098118D01*
X0208249Y0098118D01*
X0209450Y0096917D01*
X0209450Y0098118D01*
X0209450Y0098758D02*
X0209450Y0099959D01*
X0209450Y0099359D02*
X0207648Y0099359D01*
X0208249Y0098758D01*
X0205450Y0099059D02*
X0205450Y0099659D01*
X0205150Y0099959D01*
X0203949Y0099959D01*
X0203648Y0099659D01*
X0203648Y0099059D01*
X0203949Y0098758D01*
X0204249Y0098758D01*
X0204549Y0099059D01*
X0204549Y0099959D01*
X0205450Y0099059D02*
X0205150Y0098758D01*
X0204549Y0098118D02*
X0204549Y0096917D01*
X0203648Y0097818D01*
X0205450Y0097818D01*
X0205450Y0096276D02*
X0204849Y0095676D01*
X0204849Y0095976D02*
X0204849Y0095075D01*
X0205450Y0095075D02*
X0203648Y0095075D01*
X0203648Y0095976D01*
X0203949Y0096276D01*
X0204549Y0096276D01*
X0204849Y0095976D01*
X0201150Y0096276D02*
X0200549Y0095676D01*
X0200549Y0095976D02*
X0200549Y0095075D01*
X0201150Y0095075D02*
X0199348Y0095075D01*
X0199348Y0095976D01*
X0199649Y0096276D01*
X0200249Y0096276D01*
X0200549Y0095976D01*
X0200249Y0096917D02*
X0200249Y0098118D01*
X0199949Y0098758D02*
X0199649Y0098758D01*
X0199348Y0099059D01*
X0199348Y0099659D01*
X0199649Y0099959D01*
X0199949Y0099959D01*
X0200249Y0099659D01*
X0200249Y0099059D01*
X0199949Y0098758D01*
X0200249Y0099059D02*
X0200549Y0098758D01*
X0200850Y0098758D01*
X0201150Y0099059D01*
X0201150Y0099659D01*
X0200850Y0099959D01*
X0200549Y0099959D01*
X0200249Y0099659D01*
X0199348Y0097818D02*
X0200249Y0096917D01*
X0201150Y0097818D02*
X0199348Y0097818D01*
X0197950Y0097876D02*
X0197950Y0098476D01*
X0197650Y0098776D01*
X0197950Y0099417D02*
X0196749Y0100618D01*
X0196449Y0100618D01*
X0196148Y0100318D01*
X0196148Y0099717D01*
X0196449Y0099417D01*
X0196449Y0098776D02*
X0196148Y0098476D01*
X0196148Y0097876D01*
X0196449Y0097575D01*
X0197650Y0097575D01*
X0197950Y0097876D01*
X0197950Y0099417D02*
X0197950Y0100618D01*
X0197049Y0101258D02*
X0197049Y0102459D01*
X0196148Y0102159D02*
X0197049Y0101258D01*
X0197950Y0102159D02*
X0196148Y0102159D01*
X0196148Y0104075D02*
X0196148Y0104976D01*
X0196449Y0105276D01*
X0197049Y0105276D01*
X0197349Y0104976D01*
X0197349Y0104075D01*
X0197349Y0104676D02*
X0197950Y0105276D01*
X0197049Y0105917D02*
X0197049Y0107118D01*
X0197049Y0107758D02*
X0196749Y0108359D01*
X0196749Y0108659D01*
X0197049Y0108959D01*
X0197650Y0108959D01*
X0197950Y0108659D01*
X0197950Y0108059D01*
X0197650Y0107758D01*
X0197049Y0107758D02*
X0196148Y0107758D01*
X0196148Y0108959D01*
X0196148Y0106818D02*
X0197049Y0105917D01*
X0197950Y0106818D02*
X0196148Y0106818D01*
X0196148Y0104075D02*
X0197950Y0104075D01*
X0201700Y0116100D02*
X0202301Y0116100D01*
X0202601Y0116400D01*
X0202601Y0116701D01*
X0202301Y0117001D01*
X0201400Y0117001D01*
X0201400Y0116400D01*
X0201700Y0116100D01*
X0201400Y0117001D02*
X0202001Y0117601D01*
X0202601Y0117902D01*
X0203242Y0117902D02*
X0203242Y0116701D01*
X0203842Y0116100D01*
X0204443Y0116701D01*
X0204443Y0117902D01*
X0205083Y0117902D02*
X0205083Y0116100D01*
X0205083Y0116701D02*
X0205984Y0116701D01*
X0206284Y0117001D01*
X0206284Y0117601D01*
X0205984Y0117902D01*
X0205083Y0117902D01*
X0205684Y0116701D02*
X0206284Y0116100D01*
X0206925Y0116100D02*
X0208126Y0116100D01*
X0208766Y0116400D02*
X0209067Y0116100D01*
X0209667Y0116100D01*
X0209967Y0116400D01*
X0209967Y0117001D01*
X0209367Y0117001D01*
X0209967Y0117601D02*
X0209667Y0117902D01*
X0209067Y0117902D01*
X0208766Y0117601D01*
X0208766Y0116400D01*
X0207525Y0117001D02*
X0206925Y0117001D01*
X0206925Y0117902D02*
X0206925Y0116100D01*
X0206925Y0117902D02*
X0208126Y0117902D01*
X0217676Y0136350D02*
X0218276Y0136350D01*
X0218576Y0136650D01*
X0219217Y0136350D02*
X0220418Y0137551D01*
X0220418Y0137851D01*
X0220118Y0138152D01*
X0219517Y0138152D01*
X0219217Y0137851D01*
X0218576Y0137851D02*
X0218276Y0138152D01*
X0217676Y0138152D01*
X0217375Y0137851D01*
X0217375Y0136650D01*
X0217676Y0136350D01*
X0219217Y0136350D02*
X0220418Y0136350D01*
X0221058Y0136350D02*
X0222259Y0137551D01*
X0222259Y0137851D01*
X0221959Y0138152D01*
X0221359Y0138152D01*
X0221058Y0137851D01*
X0221058Y0136350D02*
X0222259Y0136350D01*
X0211459Y0142450D02*
X0211159Y0142150D01*
X0210559Y0142150D01*
X0210258Y0142450D01*
X0210258Y0143051D02*
X0210859Y0143351D01*
X0211159Y0143351D01*
X0211459Y0143051D01*
X0211459Y0142450D01*
X0210258Y0143051D02*
X0210258Y0143952D01*
X0211459Y0143952D01*
X0209017Y0143952D02*
X0209017Y0142150D01*
X0208417Y0142150D02*
X0209618Y0142150D01*
X0208417Y0143351D02*
X0209017Y0143952D01*
X0207776Y0143651D02*
X0207476Y0143952D01*
X0206876Y0143952D01*
X0206575Y0143651D01*
X0206575Y0142450D01*
X0206876Y0142150D01*
X0207476Y0142150D01*
X0207776Y0142450D01*
X0200284Y0139152D02*
X0200284Y0138851D01*
X0199083Y0137650D01*
X0199083Y0137350D01*
X0198142Y0137350D02*
X0198142Y0139152D01*
X0197242Y0138251D01*
X0198443Y0138251D01*
X0199083Y0139152D02*
X0200284Y0139152D01*
X0196601Y0138851D02*
X0196601Y0138251D01*
X0196301Y0137951D01*
X0195400Y0137951D01*
X0196001Y0137951D02*
X0196601Y0137350D01*
X0195400Y0137350D02*
X0195400Y0139152D01*
X0196301Y0139152D01*
X0196601Y0138851D01*
X0195950Y0143575D02*
X0194148Y0143575D01*
X0194148Y0144476D01*
X0194449Y0144776D01*
X0195049Y0144776D01*
X0195349Y0144476D01*
X0195349Y0143575D01*
X0195349Y0144176D02*
X0195950Y0144776D01*
X0195049Y0145417D02*
X0195049Y0146618D01*
X0195049Y0147258D02*
X0195049Y0148459D01*
X0194148Y0148159D02*
X0195049Y0147258D01*
X0195950Y0148159D02*
X0194148Y0148159D01*
X0194148Y0146318D02*
X0195049Y0145417D01*
X0195950Y0146318D02*
X0194148Y0146318D01*
X0198400Y0151350D02*
X0198400Y0153152D01*
X0199301Y0153152D01*
X0199601Y0152851D01*
X0199601Y0152251D01*
X0199301Y0151951D01*
X0198400Y0151951D01*
X0200242Y0151951D02*
X0201142Y0151951D01*
X0201443Y0152251D01*
X0201443Y0152851D01*
X0201142Y0153152D01*
X0200242Y0153152D01*
X0200242Y0151350D01*
X0200842Y0151951D02*
X0201443Y0151350D01*
X0202083Y0151650D02*
X0202383Y0151350D01*
X0202984Y0151350D01*
X0203284Y0151650D01*
X0203284Y0152851D01*
X0202984Y0153152D01*
X0202383Y0153152D01*
X0202083Y0152851D01*
X0202083Y0151650D01*
X0203925Y0153152D02*
X0205126Y0153152D01*
X0204525Y0153152D02*
X0204525Y0151350D01*
X0204601Y0160850D02*
X0204001Y0161451D01*
X0204301Y0161451D02*
X0203400Y0161451D01*
X0203400Y0160850D02*
X0203400Y0162652D01*
X0204301Y0162652D01*
X0204601Y0162351D01*
X0204601Y0161751D01*
X0204301Y0161451D01*
X0205242Y0161150D02*
X0205542Y0160850D01*
X0206142Y0160850D01*
X0206443Y0161150D01*
X0206443Y0161451D01*
X0206142Y0161751D01*
X0205842Y0161751D01*
X0206142Y0161751D02*
X0206443Y0162051D01*
X0206443Y0162351D01*
X0206142Y0162652D01*
X0205542Y0162652D01*
X0205242Y0162351D01*
X0207083Y0162351D02*
X0207383Y0162652D01*
X0207984Y0162652D01*
X0208284Y0162351D01*
X0207083Y0161150D01*
X0207383Y0160850D01*
X0207984Y0160850D01*
X0208284Y0161150D01*
X0208284Y0162351D01*
X0207083Y0162351D02*
X0207083Y0161150D01*
X0199259Y0162101D02*
X0198058Y0160900D01*
X0198058Y0160600D01*
X0197418Y0160600D02*
X0196217Y0160600D01*
X0196817Y0160600D02*
X0196817Y0162402D01*
X0196217Y0161801D01*
X0195576Y0162101D02*
X0195276Y0162402D01*
X0194676Y0162402D01*
X0194375Y0162101D01*
X0194375Y0160900D01*
X0194676Y0160600D01*
X0195276Y0160600D01*
X0195576Y0160900D01*
X0198058Y0162402D02*
X0199259Y0162402D01*
X0199259Y0162101D01*
X0195984Y0170350D02*
X0195383Y0170350D01*
X0195083Y0170650D01*
X0195083Y0170951D01*
X0195383Y0171251D01*
X0195984Y0171251D01*
X0196284Y0170951D01*
X0196284Y0170650D01*
X0195984Y0170350D01*
X0195984Y0171251D02*
X0196284Y0171551D01*
X0196284Y0171851D01*
X0195984Y0172152D01*
X0195383Y0172152D01*
X0195083Y0171851D01*
X0195083Y0171551D01*
X0195383Y0171251D01*
X0194443Y0171551D02*
X0194443Y0171851D01*
X0194142Y0172152D01*
X0193542Y0172152D01*
X0193242Y0171851D01*
X0192601Y0171851D02*
X0192601Y0171251D01*
X0192301Y0170951D01*
X0191400Y0170951D01*
X0192001Y0170951D02*
X0192601Y0170350D01*
X0193242Y0170350D02*
X0194443Y0171551D01*
X0194443Y0170350D02*
X0193242Y0170350D01*
X0192601Y0171851D02*
X0192301Y0172152D01*
X0191400Y0172152D01*
X0191400Y0170350D01*
X0198900Y0170900D02*
X0199200Y0170600D01*
X0199801Y0170600D01*
X0200101Y0170900D01*
X0200742Y0170600D02*
X0201943Y0170600D01*
X0201342Y0170600D02*
X0201342Y0172402D01*
X0200742Y0171801D01*
X0200101Y0172101D02*
X0199801Y0172402D01*
X0199200Y0172402D01*
X0198900Y0172101D01*
X0198900Y0170900D01*
X0202583Y0170900D02*
X0202583Y0171201D01*
X0202883Y0171501D01*
X0203484Y0171501D01*
X0203784Y0171201D01*
X0203784Y0170900D01*
X0203484Y0170600D01*
X0202883Y0170600D01*
X0202583Y0170900D01*
X0202883Y0171501D02*
X0202583Y0171801D01*
X0202583Y0172101D01*
X0202883Y0172402D01*
X0203484Y0172402D01*
X0203784Y0172101D01*
X0203784Y0171801D01*
X0203484Y0171501D01*
X0207400Y0170951D02*
X0208301Y0170951D01*
X0208601Y0171251D01*
X0208601Y0171851D01*
X0208301Y0172152D01*
X0207400Y0172152D01*
X0207400Y0170350D01*
X0208001Y0170951D02*
X0208601Y0170350D01*
X0209242Y0170350D02*
X0210443Y0171551D01*
X0210443Y0171851D01*
X0210142Y0172152D01*
X0209542Y0172152D01*
X0209242Y0171851D01*
X0209242Y0170350D02*
X0210443Y0170350D01*
X0211083Y0170350D02*
X0211083Y0170650D01*
X0212284Y0171851D01*
X0212284Y0172152D01*
X0211083Y0172152D01*
X0210984Y0174100D02*
X0211284Y0174400D01*
X0211284Y0175601D01*
X0210984Y0175902D01*
X0210383Y0175902D01*
X0210083Y0175601D01*
X0210083Y0175301D01*
X0210383Y0175001D01*
X0211284Y0175001D01*
X0210984Y0174100D02*
X0210383Y0174100D01*
X0210083Y0174400D01*
X0209443Y0174100D02*
X0208242Y0174100D01*
X0208842Y0174100D02*
X0208842Y0175902D01*
X0208242Y0175301D01*
X0207601Y0175601D02*
X0207301Y0175902D01*
X0206700Y0175902D01*
X0206400Y0175601D01*
X0206400Y0174400D01*
X0206700Y0174100D01*
X0207301Y0174100D01*
X0207601Y0174400D01*
X0193200Y0178200D02*
X0193200Y0179101D01*
X0192900Y0179401D01*
X0192599Y0179401D01*
X0192299Y0179101D01*
X0192299Y0178200D01*
X0191398Y0178200D02*
X0191398Y0179101D01*
X0191699Y0179401D01*
X0191999Y0179401D01*
X0192299Y0179101D01*
X0192299Y0180042D02*
X0192299Y0181243D01*
X0191999Y0181243D02*
X0193200Y0181243D01*
X0193200Y0181883D02*
X0193200Y0183084D01*
X0193200Y0181883D02*
X0191398Y0181883D01*
X0191999Y0181243D02*
X0191398Y0180642D01*
X0191999Y0180042D01*
X0193200Y0180042D01*
X0193200Y0178200D02*
X0191398Y0178200D01*
X0195000Y0191550D02*
X0195000Y0193352D01*
X0195901Y0193352D01*
X0196201Y0193051D01*
X0196201Y0192451D01*
X0195901Y0192151D01*
X0195000Y0192151D01*
X0195601Y0192151D02*
X0196201Y0191550D01*
X0196842Y0191850D02*
X0197142Y0191550D01*
X0197742Y0191550D01*
X0198043Y0191850D01*
X0198043Y0192151D01*
X0197742Y0192451D01*
X0197442Y0192451D01*
X0197742Y0192451D02*
X0198043Y0192751D01*
X0198043Y0193051D01*
X0197742Y0193352D01*
X0197142Y0193352D01*
X0196842Y0193051D01*
X0198683Y0192451D02*
X0199884Y0192451D01*
X0199584Y0193352D02*
X0198683Y0192451D01*
X0199584Y0191550D02*
X0199584Y0193352D01*
X0204900Y0193351D02*
X0204900Y0192150D01*
X0205200Y0191850D01*
X0205801Y0191850D01*
X0206101Y0192150D01*
X0206742Y0191850D02*
X0207943Y0191850D01*
X0207342Y0191850D02*
X0207342Y0193652D01*
X0206742Y0193051D01*
X0206101Y0193351D02*
X0205801Y0193652D01*
X0205200Y0193652D01*
X0204900Y0193351D01*
X0142943Y0190251D02*
X0141742Y0190251D01*
X0142642Y0191152D01*
X0142642Y0189350D01*
X0141101Y0189350D02*
X0140501Y0189951D01*
X0140801Y0189951D02*
X0139900Y0189951D01*
X0139900Y0189350D02*
X0139900Y0191152D01*
X0140801Y0191152D01*
X0141101Y0190851D01*
X0141101Y0190251D01*
X0140801Y0189951D01*
X0134892Y0175902D02*
X0134292Y0175902D01*
X0133992Y0175601D01*
X0134892Y0175902D02*
X0135193Y0175601D01*
X0135193Y0175301D01*
X0133992Y0174100D01*
X0135193Y0174100D01*
X0133351Y0174100D02*
X0132150Y0174100D01*
X0132150Y0175902D01*
X0118950Y0165734D02*
X0118950Y0164533D01*
X0117749Y0165734D01*
X0117449Y0165734D01*
X0117148Y0165434D01*
X0117148Y0164833D01*
X0117449Y0164533D01*
X0117148Y0163292D02*
X0118950Y0163292D01*
X0118950Y0162692D02*
X0118950Y0163893D01*
X0117749Y0162692D02*
X0117148Y0163292D01*
X0117449Y0162051D02*
X0117148Y0161751D01*
X0117148Y0161150D01*
X0117449Y0160850D01*
X0118650Y0160850D01*
X0118950Y0161150D01*
X0118950Y0161751D01*
X0118650Y0162051D01*
X0118826Y0155702D02*
X0117892Y0155702D01*
X0117425Y0155235D01*
X0117425Y0153367D01*
X0117892Y0152900D01*
X0118826Y0152900D01*
X0119293Y0153367D01*
X0119293Y0154301D01*
X0118359Y0154301D01*
X0119293Y0155235D02*
X0118826Y0155702D01*
X0120187Y0155702D02*
X0121121Y0155702D01*
X0120654Y0155702D02*
X0120654Y0152900D01*
X0120187Y0152900D02*
X0121121Y0152900D01*
X0122029Y0153367D02*
X0122496Y0152900D01*
X0123430Y0152900D01*
X0123897Y0153367D01*
X0123897Y0155235D02*
X0123430Y0155702D01*
X0122496Y0155702D01*
X0122029Y0155235D01*
X0122029Y0153367D01*
X0116531Y0152900D02*
X0116531Y0155702D01*
X0116531Y0154301D02*
X0114662Y0154301D01*
X0113768Y0153367D02*
X0113301Y0152900D01*
X0112367Y0152900D01*
X0111900Y0153367D01*
X0111900Y0155235D01*
X0112367Y0155702D01*
X0113301Y0155702D01*
X0113768Y0155235D01*
X0114662Y0155702D02*
X0114662Y0152900D01*
X0107492Y0162350D02*
X0107492Y0162650D01*
X0108693Y0163851D01*
X0108693Y0164152D01*
X0107492Y0164152D01*
X0106851Y0163851D02*
X0106551Y0164152D01*
X0105950Y0164152D01*
X0105650Y0163851D01*
X0105650Y0162650D01*
X0105950Y0162350D01*
X0106551Y0162350D01*
X0106851Y0162650D01*
X0103642Y0165850D02*
X0103042Y0165850D01*
X0102742Y0166150D01*
X0102101Y0165850D02*
X0101501Y0166451D01*
X0101801Y0166451D02*
X0100900Y0166451D01*
X0100900Y0165850D02*
X0100900Y0167652D01*
X0101801Y0167652D01*
X0102101Y0167351D01*
X0102101Y0166751D01*
X0101801Y0166451D01*
X0102742Y0167351D02*
X0103042Y0167652D01*
X0103642Y0167652D01*
X0103943Y0167351D01*
X0103943Y0167051D01*
X0103642Y0166751D01*
X0103943Y0166451D01*
X0103943Y0166150D01*
X0103642Y0165850D01*
X0103642Y0166751D02*
X0103342Y0166751D01*
X0092443Y0166251D02*
X0091242Y0166251D01*
X0092142Y0167152D01*
X0092142Y0165350D01*
X0090601Y0165650D02*
X0090601Y0166851D01*
X0090301Y0167152D01*
X0089400Y0167152D01*
X0089400Y0165350D01*
X0090301Y0165350D01*
X0090601Y0165650D01*
X0086950Y0163984D02*
X0086950Y0162783D01*
X0086950Y0163384D02*
X0085148Y0163384D01*
X0085749Y0162783D01*
X0085749Y0162143D02*
X0086049Y0161842D01*
X0086349Y0162143D01*
X0086650Y0162143D01*
X0086950Y0161842D01*
X0086950Y0161242D01*
X0086650Y0160942D01*
X0086950Y0160301D02*
X0086349Y0159701D01*
X0086349Y0160001D02*
X0086349Y0159100D01*
X0086950Y0159100D02*
X0085148Y0159100D01*
X0085148Y0160001D01*
X0085449Y0160301D01*
X0086049Y0160301D01*
X0086349Y0160001D01*
X0085449Y0160942D02*
X0085148Y0161242D01*
X0085148Y0161842D01*
X0085449Y0162143D01*
X0085749Y0162143D01*
X0086049Y0161842D02*
X0086049Y0161542D01*
X0081450Y0160942D02*
X0081450Y0162143D01*
X0081150Y0162783D02*
X0081450Y0163083D01*
X0081450Y0163684D01*
X0081150Y0163984D01*
X0079949Y0163984D01*
X0079648Y0163684D01*
X0079648Y0163083D01*
X0079949Y0162783D01*
X0080249Y0162783D01*
X0080549Y0163083D01*
X0080549Y0163984D01*
X0080249Y0162143D02*
X0079949Y0162143D01*
X0079648Y0161842D01*
X0079648Y0161242D01*
X0079949Y0160942D01*
X0079949Y0160301D02*
X0080549Y0160301D01*
X0080849Y0160001D01*
X0080849Y0159100D01*
X0080849Y0159701D02*
X0081450Y0160301D01*
X0081450Y0160942D02*
X0080249Y0162143D01*
X0079949Y0160301D02*
X0079648Y0160001D01*
X0079648Y0159100D01*
X0081450Y0159100D01*
X0075950Y0159100D02*
X0074148Y0159100D01*
X0074148Y0160001D01*
X0074449Y0160301D01*
X0075049Y0160301D01*
X0075349Y0160001D01*
X0075349Y0159100D01*
X0075349Y0159701D02*
X0075950Y0160301D01*
X0075650Y0160942D02*
X0075950Y0161242D01*
X0075950Y0161842D01*
X0075650Y0162143D01*
X0075349Y0162143D01*
X0075049Y0161842D01*
X0075049Y0161542D01*
X0075049Y0161842D02*
X0074749Y0162143D01*
X0074449Y0162143D01*
X0074148Y0161842D01*
X0074148Y0161242D01*
X0074449Y0160942D01*
X0074449Y0162783D02*
X0074148Y0163083D01*
X0074148Y0163684D01*
X0074449Y0163984D01*
X0074749Y0163984D01*
X0075049Y0163684D01*
X0075349Y0163984D01*
X0075650Y0163984D01*
X0075950Y0163684D01*
X0075950Y0163083D01*
X0075650Y0162783D01*
X0075049Y0163384D02*
X0075049Y0163684D01*
X0076400Y0165350D02*
X0077301Y0165350D01*
X0077601Y0165650D01*
X0077601Y0166851D01*
X0077301Y0167152D01*
X0076400Y0167152D01*
X0076400Y0165350D01*
X0078242Y0165650D02*
X0078242Y0166251D01*
X0079142Y0166251D01*
X0079443Y0165951D01*
X0079443Y0165650D01*
X0079142Y0165350D01*
X0078542Y0165350D01*
X0078242Y0165650D01*
X0078242Y0166251D02*
X0078842Y0166851D01*
X0079443Y0167152D01*
X0082900Y0167152D02*
X0082900Y0165350D01*
X0083801Y0165350D01*
X0084101Y0165650D01*
X0084101Y0166851D01*
X0083801Y0167152D01*
X0082900Y0167152D01*
X0084742Y0167152D02*
X0084742Y0166251D01*
X0085342Y0166551D01*
X0085642Y0166551D01*
X0085943Y0166251D01*
X0085943Y0165650D01*
X0085642Y0165350D01*
X0085042Y0165350D01*
X0084742Y0165650D01*
X0084742Y0167152D02*
X0085943Y0167152D01*
X0072943Y0167152D02*
X0072943Y0166851D01*
X0071742Y0165650D01*
X0071742Y0165350D01*
X0071101Y0165650D02*
X0071101Y0166851D01*
X0070801Y0167152D01*
X0069900Y0167152D01*
X0069900Y0165350D01*
X0070801Y0165350D01*
X0071101Y0165650D01*
X0071742Y0167152D02*
X0072943Y0167152D01*
X0069450Y0163984D02*
X0069450Y0162783D01*
X0068249Y0163984D01*
X0067949Y0163984D01*
X0067648Y0163684D01*
X0067648Y0163083D01*
X0067949Y0162783D01*
X0067949Y0162143D02*
X0068249Y0162143D01*
X0068549Y0161842D01*
X0068849Y0162143D01*
X0069150Y0162143D01*
X0069450Y0161842D01*
X0069450Y0161242D01*
X0069150Y0160942D01*
X0069450Y0160301D02*
X0068849Y0159701D01*
X0068849Y0160001D02*
X0068849Y0159100D01*
X0069450Y0159100D02*
X0067648Y0159100D01*
X0067648Y0160001D01*
X0067949Y0160301D01*
X0068549Y0160301D01*
X0068849Y0160001D01*
X0067949Y0160942D02*
X0067648Y0161242D01*
X0067648Y0161842D01*
X0067949Y0162143D01*
X0068549Y0161842D02*
X0068549Y0161542D01*
X0039700Y0162118D02*
X0039700Y0160917D01*
X0038499Y0162118D01*
X0038199Y0162118D01*
X0037898Y0161818D01*
X0037898Y0161217D01*
X0038199Y0160917D01*
X0038199Y0160276D02*
X0038799Y0160276D01*
X0039099Y0159976D01*
X0039099Y0159075D01*
X0039099Y0159676D02*
X0039700Y0160276D01*
X0039700Y0159075D02*
X0037898Y0159075D01*
X0037898Y0159976D01*
X0038199Y0160276D01*
X0038499Y0162758D02*
X0037898Y0163359D01*
X0039700Y0163359D01*
X0039700Y0163959D02*
X0039700Y0162758D01*
X0039700Y0171575D02*
X0037898Y0171575D01*
X0037898Y0172476D01*
X0038199Y0172776D01*
X0038799Y0172776D01*
X0039099Y0172476D01*
X0039099Y0171575D01*
X0039099Y0172176D02*
X0039700Y0172776D01*
X0039700Y0173417D02*
X0038499Y0174618D01*
X0038199Y0174618D01*
X0037898Y0174318D01*
X0037898Y0173717D01*
X0038199Y0173417D01*
X0039700Y0173417D02*
X0039700Y0174618D01*
X0039700Y0175258D02*
X0038499Y0176459D01*
X0038199Y0176459D01*
X0037898Y0176159D01*
X0037898Y0175559D01*
X0038199Y0175258D01*
X0039700Y0175258D02*
X0039700Y0176459D01*
X0028200Y0176283D02*
X0026398Y0176283D01*
X0028200Y0177484D01*
X0026398Y0177484D01*
X0026699Y0175643D02*
X0027299Y0175643D01*
X0027599Y0175342D01*
X0027599Y0174442D01*
X0027599Y0175042D02*
X0028200Y0175643D01*
X0028200Y0174442D02*
X0026398Y0174442D01*
X0026398Y0175342D01*
X0026699Y0175643D01*
X0026699Y0173801D02*
X0026398Y0173501D01*
X0026398Y0172900D01*
X0026699Y0172600D01*
X0027900Y0172600D01*
X0028200Y0172900D01*
X0028200Y0173501D01*
X0027900Y0173801D01*
X0027299Y0173801D01*
X0027299Y0173201D01*
X0026699Y0164984D02*
X0026398Y0164684D01*
X0026398Y0163783D01*
X0028200Y0163783D01*
X0028200Y0164684D01*
X0027900Y0164984D01*
X0026699Y0164984D01*
X0026398Y0163143D02*
X0026398Y0161942D01*
X0028200Y0161942D01*
X0028200Y0163143D01*
X0027299Y0162542D02*
X0027299Y0161942D01*
X0027299Y0161301D02*
X0027599Y0161001D01*
X0027599Y0160100D01*
X0027599Y0160701D02*
X0028200Y0161301D01*
X0027299Y0161301D02*
X0026699Y0161301D01*
X0026398Y0161001D01*
X0026398Y0160100D01*
X0028200Y0160100D01*
X0090819Y0140938D02*
X0090819Y0139537D01*
X0091520Y0139537D01*
X0091753Y0139771D01*
X0091753Y0140705D01*
X0091520Y0140938D01*
X0090819Y0140938D01*
X0092293Y0140705D02*
X0092526Y0140938D01*
X0092993Y0140938D01*
X0093227Y0140705D01*
X0093227Y0140471D01*
X0092293Y0139537D01*
X0093227Y0139537D01*
X0129717Y0134902D02*
X0130618Y0134902D01*
X0130918Y0134601D01*
X0130918Y0134001D01*
X0130618Y0133701D01*
X0129717Y0133701D01*
X0130317Y0133701D02*
X0130918Y0133100D01*
X0131558Y0133400D02*
X0131859Y0133100D01*
X0132459Y0133100D01*
X0132759Y0133400D01*
X0132759Y0134001D01*
X0132459Y0134301D01*
X0132159Y0134301D01*
X0131558Y0134001D01*
X0131558Y0134902D01*
X0132759Y0134902D01*
X0129717Y0134902D02*
X0129717Y0133100D01*
X0135717Y0140100D02*
X0135717Y0141902D01*
X0136618Y0141902D01*
X0136918Y0141601D01*
X0136918Y0141001D01*
X0136618Y0140701D01*
X0135717Y0140701D01*
X0136317Y0140701D02*
X0136918Y0140100D01*
X0137558Y0140400D02*
X0137859Y0140100D01*
X0138459Y0140100D01*
X0138759Y0140400D01*
X0138759Y0140701D01*
X0138459Y0141001D01*
X0137558Y0141001D01*
X0137558Y0140400D01*
X0137558Y0141001D02*
X0138159Y0141601D01*
X0138759Y0141902D01*
X0137200Y0142900D02*
X0137200Y0143501D01*
X0136900Y0143801D01*
X0137200Y0144442D02*
X0137200Y0145643D01*
X0137200Y0145042D02*
X0135398Y0145042D01*
X0135999Y0144442D01*
X0135699Y0143801D02*
X0135398Y0143501D01*
X0135398Y0142900D01*
X0135699Y0142600D01*
X0136900Y0142600D01*
X0137200Y0142900D01*
X0136900Y0146283D02*
X0135699Y0147484D01*
X0136900Y0147484D01*
X0137200Y0147184D01*
X0137200Y0146583D01*
X0136900Y0146283D01*
X0135699Y0146283D01*
X0135398Y0146583D01*
X0135398Y0147184D01*
X0135699Y0147484D01*
X0133547Y0150600D02*
X0133547Y0152001D01*
X0132847Y0151301D01*
X0133781Y0151301D01*
X0132307Y0150600D02*
X0131373Y0150600D01*
X0131840Y0150600D02*
X0131840Y0152001D01*
X0131373Y0151534D01*
X0130834Y0151768D02*
X0130601Y0152001D01*
X0130134Y0152001D01*
X0129900Y0151768D01*
X0129900Y0150834D01*
X0130134Y0150600D01*
X0130601Y0150600D01*
X0130834Y0150834D01*
X0140200Y0135402D02*
X0139900Y0135101D01*
X0139900Y0133900D01*
X0140200Y0133600D01*
X0140801Y0133600D01*
X0141101Y0133900D01*
X0141742Y0134501D02*
X0142943Y0134501D01*
X0142642Y0135402D02*
X0141742Y0134501D01*
X0141101Y0135101D02*
X0140801Y0135402D01*
X0140200Y0135402D01*
X0142642Y0135402D02*
X0142642Y0133600D01*
X0100112Y0093038D02*
X0100112Y0092738D01*
X0099812Y0092438D01*
X0100112Y0092138D01*
X0100112Y0091837D01*
X0099812Y0091537D01*
X0099211Y0091537D01*
X0098911Y0091837D01*
X0098270Y0091837D02*
X0098270Y0093038D01*
X0097970Y0093339D01*
X0097069Y0093339D01*
X0097069Y0091537D01*
X0097970Y0091537D01*
X0098270Y0091837D01*
X0098911Y0093038D02*
X0099211Y0093339D01*
X0099812Y0093339D01*
X0100112Y0093038D01*
X0099812Y0092438D02*
X0099511Y0092438D01*
X0090511Y0085339D02*
X0090511Y0083537D01*
X0089911Y0083537D02*
X0091112Y0083537D01*
X0089911Y0084738D02*
X0090511Y0085339D01*
X0089270Y0085038D02*
X0088970Y0085339D01*
X0088069Y0085339D01*
X0088069Y0083537D01*
X0088970Y0083537D01*
X0089270Y0083837D01*
X0089270Y0085038D01*
X0088233Y0068858D02*
X0087499Y0068858D01*
X0087499Y0068124D01*
X0086765Y0067390D02*
X0088233Y0067390D01*
X0088600Y0067757D01*
X0088600Y0068491D01*
X0088233Y0068858D01*
X0086765Y0068858D02*
X0086398Y0068491D01*
X0086398Y0067757D01*
X0086765Y0067390D01*
X0086398Y0066648D02*
X0086398Y0065180D01*
X0088600Y0065180D01*
X0088600Y0066648D01*
X0087499Y0065914D02*
X0087499Y0065180D01*
X0087499Y0064438D02*
X0087866Y0064071D01*
X0087866Y0062970D01*
X0088600Y0062970D02*
X0086398Y0062970D01*
X0086398Y0064071D01*
X0086765Y0064438D01*
X0087499Y0064438D01*
X0087866Y0063704D02*
X0088600Y0064438D01*
X0087866Y0062228D02*
X0086398Y0062228D01*
X0086398Y0060760D02*
X0087866Y0060760D01*
X0088600Y0061494D01*
X0087866Y0062228D01*
X0087499Y0060018D02*
X0088233Y0060018D01*
X0088600Y0059652D01*
X0088600Y0058918D01*
X0088233Y0058551D01*
X0087499Y0058551D02*
X0087132Y0059285D01*
X0087132Y0059652D01*
X0087499Y0060018D01*
X0086398Y0060018D02*
X0086398Y0058551D01*
X0087499Y0058551D01*
X0085900Y0050459D02*
X0086200Y0050159D01*
X0086200Y0049559D01*
X0085900Y0049258D01*
X0085900Y0048618D02*
X0086200Y0048318D01*
X0086200Y0047717D01*
X0085900Y0047417D01*
X0084699Y0047417D01*
X0084398Y0047717D01*
X0084398Y0048318D01*
X0084699Y0048618D01*
X0084699Y0049258D02*
X0084398Y0049559D01*
X0084398Y0050159D01*
X0084699Y0050459D01*
X0084999Y0050459D01*
X0085299Y0050159D01*
X0085599Y0050459D01*
X0085900Y0050459D01*
X0085299Y0050159D02*
X0085299Y0049859D01*
X0094150Y0049351D02*
X0094150Y0048150D01*
X0094450Y0047850D01*
X0095051Y0047850D01*
X0095351Y0048150D01*
X0095992Y0048150D02*
X0096292Y0047850D01*
X0096892Y0047850D01*
X0097193Y0048150D01*
X0097193Y0048751D01*
X0096892Y0049051D01*
X0096592Y0049051D01*
X0095992Y0048751D01*
X0095992Y0049652D01*
X0097193Y0049652D01*
X0095351Y0049351D02*
X0095051Y0049652D01*
X0094450Y0049652D01*
X0094150Y0049351D01*
X0093092Y0032652D02*
X0093092Y0030850D01*
X0092492Y0030850D02*
X0093693Y0030850D01*
X0094333Y0031150D02*
X0094633Y0030850D01*
X0095234Y0030850D01*
X0095534Y0031150D01*
X0095534Y0031451D01*
X0095234Y0031751D01*
X0094333Y0031751D01*
X0094333Y0031150D01*
X0094333Y0031751D02*
X0094934Y0032351D01*
X0095534Y0032652D01*
X0093092Y0032652D02*
X0092492Y0032051D01*
X0091851Y0032351D02*
X0091551Y0032652D01*
X0090950Y0032652D01*
X0090650Y0032351D01*
X0090650Y0031150D01*
X0090950Y0030850D01*
X0091551Y0030850D01*
X0091851Y0031150D01*
X0121375Y0043600D02*
X0121375Y0045402D01*
X0122276Y0045402D01*
X0122576Y0045101D01*
X0122576Y0044501D01*
X0122276Y0044201D01*
X0121375Y0044201D01*
X0121976Y0044201D02*
X0122576Y0043600D01*
X0123217Y0043600D02*
X0124418Y0043600D01*
X0123817Y0043600D02*
X0123817Y0045402D01*
X0123217Y0044801D01*
X0125058Y0045101D02*
X0125359Y0045402D01*
X0125959Y0045402D01*
X0126259Y0045101D01*
X0126259Y0044801D01*
X0125058Y0043600D01*
X0126259Y0043600D01*
X0145398Y0043350D02*
X0145398Y0044251D01*
X0145699Y0044551D01*
X0146299Y0044551D01*
X0146599Y0044251D01*
X0146599Y0043350D01*
X0146599Y0043951D02*
X0147200Y0044551D01*
X0147200Y0045192D02*
X0147200Y0046393D01*
X0147200Y0045792D02*
X0145398Y0045792D01*
X0145999Y0045192D01*
X0145699Y0047033D02*
X0145398Y0047333D01*
X0145398Y0047934D01*
X0145699Y0048234D01*
X0145999Y0048234D01*
X0146299Y0047934D01*
X0146599Y0048234D01*
X0146900Y0048234D01*
X0147200Y0047934D01*
X0147200Y0047333D01*
X0146900Y0047033D01*
X0146299Y0047634D02*
X0146299Y0047934D01*
X0147200Y0043350D02*
X0145398Y0043350D01*
X0159950Y0061100D02*
X0160551Y0061100D01*
X0160851Y0061400D01*
X0161492Y0061400D02*
X0161492Y0061701D01*
X0161792Y0062001D01*
X0162392Y0062001D01*
X0162693Y0061701D01*
X0162693Y0061400D01*
X0162392Y0061100D01*
X0161792Y0061100D01*
X0161492Y0061400D01*
X0161792Y0062001D02*
X0161492Y0062301D01*
X0161492Y0062601D01*
X0161792Y0062902D01*
X0162392Y0062902D01*
X0162693Y0062601D01*
X0162693Y0062301D01*
X0162392Y0062001D01*
X0160851Y0062601D02*
X0160551Y0062902D01*
X0159950Y0062902D01*
X0159650Y0062601D01*
X0159650Y0061400D01*
X0159950Y0061100D01*
X0137784Y0071100D02*
X0136583Y0071100D01*
X0137184Y0071100D02*
X0137184Y0072902D01*
X0136583Y0072301D01*
X0135943Y0071100D02*
X0134742Y0071100D01*
X0135342Y0071100D02*
X0135342Y0072902D01*
X0134742Y0072301D01*
X0134101Y0072001D02*
X0133801Y0071701D01*
X0132900Y0071701D01*
X0133501Y0071701D02*
X0134101Y0071100D01*
X0134101Y0072001D02*
X0134101Y0072601D01*
X0133801Y0072902D01*
X0132900Y0072902D01*
X0132900Y0071100D01*
X0131050Y0067159D02*
X0131350Y0066859D01*
X0131350Y0066259D01*
X0131050Y0065958D01*
X0131350Y0065318D02*
X0131350Y0064117D01*
X0131350Y0064717D02*
X0129548Y0064717D01*
X0130149Y0064117D01*
X0129849Y0063476D02*
X0129548Y0063176D01*
X0129548Y0062576D01*
X0129849Y0062275D01*
X0131050Y0062275D01*
X0131350Y0062576D01*
X0131350Y0063176D01*
X0131050Y0063476D01*
X0132625Y0063201D02*
X0133526Y0063201D01*
X0133826Y0063501D01*
X0133826Y0064101D01*
X0133526Y0064402D01*
X0132625Y0064402D01*
X0132625Y0062600D01*
X0133226Y0063201D02*
X0133826Y0062600D01*
X0134467Y0062600D02*
X0135668Y0062600D01*
X0135067Y0062600D02*
X0135067Y0064402D01*
X0134467Y0063801D01*
X0136308Y0064101D02*
X0136609Y0064402D01*
X0137209Y0064402D01*
X0137509Y0064101D01*
X0136308Y0062900D01*
X0136609Y0062600D01*
X0137209Y0062600D01*
X0137509Y0062900D01*
X0137509Y0064101D01*
X0136308Y0064101D02*
X0136308Y0062900D01*
X0131050Y0067159D02*
X0130749Y0067159D01*
X0130449Y0066859D01*
X0130449Y0066559D01*
X0130449Y0066859D02*
X0130149Y0067159D01*
X0129849Y0067159D01*
X0129548Y0066859D01*
X0129548Y0066259D01*
X0129849Y0065958D01*
X0120673Y0072201D02*
X0120306Y0071834D01*
X0119205Y0071834D01*
X0119205Y0071100D02*
X0119205Y0073302D01*
X0120306Y0073302D01*
X0120673Y0072935D01*
X0120673Y0072201D01*
X0118463Y0073302D02*
X0118463Y0071100D01*
X0116995Y0071100D02*
X0116995Y0073302D01*
X0117729Y0072568D01*
X0118463Y0073302D01*
X0116253Y0072935D02*
X0116253Y0072568D01*
X0115886Y0072201D01*
X0114785Y0072201D01*
X0114785Y0071100D02*
X0114785Y0073302D01*
X0115886Y0073302D01*
X0116253Y0072935D01*
X0115886Y0072201D02*
X0116253Y0071834D01*
X0116253Y0071467D01*
X0115886Y0071100D01*
X0114785Y0071100D01*
X0158600Y0079250D02*
X0158900Y0078950D01*
X0159501Y0078950D01*
X0159801Y0079250D01*
X0160442Y0079250D02*
X0160742Y0078950D01*
X0161342Y0078950D01*
X0161643Y0079250D01*
X0161643Y0080451D01*
X0161342Y0080752D01*
X0160742Y0080752D01*
X0160442Y0080451D01*
X0160442Y0080151D01*
X0160742Y0079851D01*
X0161643Y0079851D01*
X0159801Y0080451D02*
X0159501Y0080752D01*
X0158900Y0080752D01*
X0158600Y0080451D01*
X0158600Y0079250D01*
X0162900Y0078101D02*
X0162900Y0076900D01*
X0163200Y0076600D01*
X0163801Y0076600D01*
X0164101Y0076900D01*
X0164742Y0076900D02*
X0165042Y0076600D01*
X0165642Y0076600D01*
X0165943Y0076900D01*
X0165943Y0077201D01*
X0165642Y0077501D01*
X0164742Y0077501D01*
X0164742Y0076900D01*
X0164742Y0077501D02*
X0165342Y0078101D01*
X0165943Y0078402D01*
X0167400Y0078850D02*
X0167400Y0080652D01*
X0168301Y0080652D01*
X0168601Y0080351D01*
X0168601Y0079751D01*
X0168301Y0079451D01*
X0167400Y0079451D01*
X0168001Y0079451D02*
X0168601Y0078850D01*
X0169242Y0078850D02*
X0170443Y0078850D01*
X0169842Y0078850D02*
X0169842Y0080652D01*
X0169242Y0080051D01*
X0164101Y0078101D02*
X0163801Y0078402D01*
X0163200Y0078402D01*
X0162900Y0078101D01*
X0178400Y0078350D02*
X0178400Y0080152D01*
X0179301Y0080152D01*
X0179601Y0079851D01*
X0179601Y0079251D01*
X0179301Y0078951D01*
X0178400Y0078951D01*
X0179001Y0078951D02*
X0179601Y0078350D01*
X0180242Y0078350D02*
X0181443Y0078350D01*
X0180842Y0078350D02*
X0180842Y0080152D01*
X0180242Y0079551D01*
X0182083Y0079251D02*
X0183284Y0079251D01*
X0182984Y0080152D02*
X0182083Y0079251D01*
X0182984Y0078350D02*
X0182984Y0080152D01*
X0265398Y0073592D02*
X0265398Y0072992D01*
X0265699Y0072692D01*
X0265699Y0072051D02*
X0265398Y0071751D01*
X0265398Y0071150D01*
X0265699Y0070850D01*
X0266900Y0070850D01*
X0267200Y0071150D01*
X0267200Y0071751D01*
X0266900Y0072051D01*
X0267200Y0072692D02*
X0265999Y0073893D01*
X0265699Y0073893D01*
X0265398Y0073592D01*
X0267200Y0073893D02*
X0267200Y0072692D01*
X0297260Y0087837D02*
X0297560Y0087537D01*
X0298161Y0087537D01*
X0298461Y0087837D01*
X0299102Y0087537D02*
X0300303Y0087537D01*
X0299702Y0087537D02*
X0299702Y0089339D01*
X0299102Y0088738D01*
X0298461Y0089038D02*
X0298161Y0089339D01*
X0297560Y0089339D01*
X0297260Y0089038D01*
X0297260Y0087837D01*
X0300943Y0087537D02*
X0302144Y0087537D01*
X0301544Y0087537D02*
X0301544Y0089339D01*
X0300943Y0088738D01*
X0273775Y0139050D02*
X0273775Y0140852D01*
X0251884Y0141451D02*
X0250683Y0140250D01*
X0250983Y0139950D01*
X0251584Y0139950D01*
X0251884Y0140250D01*
X0251884Y0141451D01*
X0251584Y0141752D01*
X0250983Y0141752D01*
X0250683Y0141451D01*
X0250683Y0140250D01*
X0250043Y0139950D02*
X0248842Y0139950D01*
X0250043Y0141151D01*
X0250043Y0141451D01*
X0249742Y0141752D01*
X0249142Y0141752D01*
X0248842Y0141451D01*
X0248201Y0141451D02*
X0247901Y0141752D01*
X0247300Y0141752D01*
X0247000Y0141451D01*
X0247000Y0140250D01*
X0247300Y0139950D01*
X0247901Y0139950D01*
X0248201Y0140250D01*
X0271375Y0177350D02*
X0271375Y0179152D01*
X0272276Y0179152D01*
X0272576Y0178851D01*
X0272576Y0178251D01*
X0272276Y0177951D01*
X0271375Y0177951D01*
X0271976Y0177951D02*
X0272576Y0177350D01*
X0273217Y0178251D02*
X0274418Y0178251D01*
X0275058Y0178851D02*
X0275359Y0179152D01*
X0275959Y0179152D01*
X0276259Y0178851D01*
X0276259Y0178551D01*
X0275959Y0178251D01*
X0276259Y0177951D01*
X0276259Y0177650D01*
X0275959Y0177350D01*
X0275359Y0177350D01*
X0275058Y0177650D01*
X0275659Y0178251D02*
X0275959Y0178251D01*
X0274118Y0179152D02*
X0273217Y0178251D01*
X0274118Y0177350D02*
X0274118Y0179152D01*
X0115759Y0186851D02*
X0114558Y0185650D01*
X0114558Y0185350D01*
X0113918Y0185350D02*
X0113317Y0185951D01*
X0113618Y0185951D02*
X0112717Y0185951D01*
X0112717Y0185350D02*
X0112717Y0187152D01*
X0113618Y0187152D01*
X0113918Y0186851D01*
X0113918Y0186251D01*
X0113618Y0185951D01*
X0114558Y0187152D02*
X0115759Y0187152D01*
X0115759Y0186851D01*
X0115142Y0177652D02*
X0115443Y0177351D01*
X0115443Y0177051D01*
X0115142Y0176751D01*
X0114542Y0176751D01*
X0114242Y0177051D01*
X0114242Y0177351D01*
X0114542Y0177652D01*
X0115142Y0177652D01*
X0115142Y0176751D02*
X0115443Y0176451D01*
X0115443Y0176150D01*
X0115142Y0175850D01*
X0114542Y0175850D01*
X0114242Y0176150D01*
X0114242Y0176451D01*
X0114542Y0176751D01*
X0113601Y0176751D02*
X0113301Y0176451D01*
X0112400Y0176451D01*
X0113001Y0176451D02*
X0113601Y0175850D01*
X0113601Y0176751D02*
X0113601Y0177351D01*
X0113301Y0177652D01*
X0112400Y0177652D01*
X0112400Y0175850D01*
X0056920Y0069163D02*
X0056920Y0067361D01*
X0056320Y0067361D02*
X0057521Y0067361D01*
X0056320Y0068562D02*
X0056920Y0069163D01*
X0055679Y0067361D02*
X0054478Y0067361D01*
X0054478Y0069163D01*
X0283398Y0032184D02*
X0283398Y0031583D01*
X0283699Y0031283D01*
X0283999Y0031283D01*
X0284299Y0031583D01*
X0284299Y0032484D01*
X0283699Y0032484D02*
X0283398Y0032184D01*
X0283699Y0032484D02*
X0284900Y0032484D01*
X0285200Y0032184D01*
X0285200Y0031583D01*
X0284900Y0031283D01*
X0285200Y0030643D02*
X0285200Y0029442D01*
X0285200Y0030042D02*
X0283398Y0030042D01*
X0283999Y0029442D01*
X0284299Y0028801D02*
X0284599Y0028501D01*
X0284599Y0027600D01*
X0284599Y0028201D02*
X0285200Y0028801D01*
X0284299Y0028801D02*
X0283699Y0028801D01*
X0283398Y0028501D01*
X0283398Y0027600D01*
X0285200Y0027600D01*
X0293398Y0027575D02*
X0293398Y0028476D01*
X0293699Y0028776D01*
X0294299Y0028776D01*
X0294599Y0028476D01*
X0294599Y0027575D01*
X0294599Y0028176D02*
X0295200Y0028776D01*
X0295200Y0029417D02*
X0293999Y0030618D01*
X0293699Y0030618D01*
X0293398Y0030318D01*
X0293398Y0029717D01*
X0293699Y0029417D01*
X0295200Y0029417D02*
X0295200Y0030618D01*
X0294900Y0031258D02*
X0295200Y0031559D01*
X0295200Y0032159D01*
X0294900Y0032459D01*
X0294299Y0032459D01*
X0293999Y0032159D01*
X0293999Y0031859D01*
X0294299Y0031258D01*
X0293398Y0031258D01*
X0293398Y0032459D01*
X0293398Y0027575D02*
X0295200Y0027575D01*
D16*
X0096938Y0088000D03*
X0085438Y0080000D03*
X0096438Y0137000D03*
D17*
X0100530Y0177850D02*
X0104066Y0177850D01*
X0104950Y0178734D01*
X0104950Y0180502D01*
X0104066Y0181386D01*
X0104950Y0183375D02*
X0099645Y0183375D01*
X0100530Y0181386D02*
X0099645Y0180502D01*
X0099645Y0178734D01*
X0100530Y0177850D01*
X0102298Y0183375D02*
X0102298Y0186911D01*
X0104950Y0186911D02*
X0099645Y0186911D01*
X0100530Y0188899D02*
X0104066Y0188899D01*
X0104950Y0189784D01*
X0104950Y0191552D01*
X0104066Y0192436D01*
X0102298Y0192436D01*
X0102298Y0190668D01*
X0100530Y0192436D02*
X0099645Y0191552D01*
X0099645Y0189784D01*
X0100530Y0188899D01*
X0212645Y0188467D02*
X0213530Y0187583D01*
X0217066Y0187583D01*
X0217950Y0188467D01*
X0217950Y0190235D01*
X0217066Y0191119D01*
X0213530Y0191119D01*
X0212645Y0190235D01*
X0212645Y0188467D01*
X0213530Y0185594D02*
X0215298Y0185594D01*
X0216182Y0184710D01*
X0216182Y0182058D01*
X0217950Y0182058D02*
X0212645Y0182058D01*
X0212645Y0184710D01*
X0213530Y0185594D01*
X0212645Y0180143D02*
X0212645Y0178375D01*
X0212645Y0179259D02*
X0217950Y0179259D01*
X0217950Y0178375D02*
X0217950Y0180143D01*
X0217950Y0176386D02*
X0217950Y0172850D01*
X0212645Y0172850D01*
X0291800Y0187000D02*
X0298800Y0187000D01*
X0295300Y0190500D02*
X0295300Y0183500D01*
X0305300Y0183500D02*
X0305300Y0190500D01*
D18*
X0278300Y0178000D03*
X0209800Y0166500D03*
X0205800Y0166500D03*
X0192800Y0166500D03*
X0192300Y0147500D03*
X0193800Y0135000D03*
X0194300Y0110000D03*
X0200300Y0104000D03*
X0204300Y0104000D03*
X0176300Y0079500D03*
X0172300Y0079500D03*
X0146300Y0038500D03*
X0123800Y0039000D03*
X0287300Y0030000D03*
X0291300Y0030000D03*
X0088800Y0161500D03*
X0083300Y0161500D03*
X0077800Y0161500D03*
X0071300Y0161500D03*
X0098800Y0166500D03*
X0035800Y0161500D03*
X0035800Y0174000D03*
D19*
X0141300Y0187000D03*
D20*
X0113800Y0183500D03*
X0113800Y0179500D03*
X0131800Y0141000D03*
X0131800Y0137000D03*
X0197300Y0190000D03*
X0276300Y0167000D03*
X0276300Y0157500D03*
X0276300Y0147500D03*
X0276300Y0142500D03*
X0276300Y0137500D03*
X0276300Y0132500D03*
X0276300Y0127500D03*
X0276300Y0122500D03*
X0276300Y0117500D03*
X0276300Y0112500D03*
X0276300Y0107500D03*
X0255800Y0131000D03*
X0136300Y0069500D03*
X0136300Y0066000D03*
D21*
X0026410Y0035327D02*
X0026410Y0013673D01*
X0026412Y0013611D01*
X0026418Y0013550D01*
X0026427Y0013489D01*
X0026441Y0013428D01*
X0026458Y0013369D01*
X0026479Y0013311D01*
X0026504Y0013254D01*
X0026532Y0013199D01*
X0026563Y0013146D01*
X0026598Y0013095D01*
X0026636Y0013046D01*
X0026677Y0012999D01*
X0026720Y0012956D01*
X0026767Y0012915D01*
X0026816Y0012877D01*
X0026867Y0012842D01*
X0026920Y0012811D01*
X0026975Y0012783D01*
X0027032Y0012758D01*
X0027090Y0012737D01*
X0027149Y0012720D01*
X0027210Y0012706D01*
X0027271Y0012697D01*
X0027332Y0012691D01*
X0027394Y0012689D01*
X0028969Y0012689D01*
X0037631Y0012689D02*
X0039206Y0012689D01*
X0039268Y0012691D01*
X0039329Y0012697D01*
X0039390Y0012706D01*
X0039451Y0012720D01*
X0039510Y0012737D01*
X0039568Y0012758D01*
X0039625Y0012783D01*
X0039680Y0012811D01*
X0039733Y0012842D01*
X0039784Y0012877D01*
X0039833Y0012915D01*
X0039880Y0012956D01*
X0039923Y0012999D01*
X0039964Y0013046D01*
X0040002Y0013095D01*
X0040037Y0013146D01*
X0040068Y0013199D01*
X0040096Y0013254D01*
X0040121Y0013311D01*
X0040142Y0013369D01*
X0040159Y0013428D01*
X0040173Y0013489D01*
X0040182Y0013550D01*
X0040188Y0013611D01*
X0040190Y0013673D01*
X0040190Y0034933D01*
X0040199Y0035000D01*
X0040204Y0035067D01*
X0040206Y0035134D01*
X0040204Y0035201D01*
X0040198Y0035268D01*
X0040188Y0035334D01*
X0040175Y0035400D01*
X0040158Y0035465D01*
X0040138Y0035529D01*
X0040113Y0035592D01*
X0040086Y0035653D01*
X0040055Y0035712D01*
X0040021Y0035770D01*
X0039983Y0035826D01*
X0039942Y0035879D01*
X0039899Y0035930D01*
X0039853Y0035979D01*
X0039804Y0036025D01*
X0039752Y0036068D01*
X0039699Y0036108D01*
X0039643Y0036146D01*
X0039585Y0036179D01*
X0039525Y0036210D01*
X0039464Y0036237D01*
X0039401Y0036261D01*
X0039337Y0036281D01*
X0039272Y0036298D01*
X0039206Y0036311D01*
X0037631Y0036311D01*
X0041419Y0036289D02*
X0041419Y0033536D01*
X0046924Y0033536D01*
X0045089Y0033536D02*
X0045089Y0036289D01*
X0044172Y0037206D01*
X0042337Y0037206D01*
X0041419Y0036289D01*
X0045089Y0035371D02*
X0046924Y0037206D01*
X0046924Y0031681D02*
X0046924Y0028012D01*
X0041419Y0028012D01*
X0041419Y0031681D01*
X0044172Y0029846D02*
X0044172Y0028012D01*
X0046924Y0026157D02*
X0041419Y0026157D01*
X0041419Y0022487D02*
X0046924Y0022487D01*
X0045089Y0024322D01*
X0046924Y0026157D01*
X0046007Y0020632D02*
X0042337Y0020632D01*
X0041419Y0019714D01*
X0041419Y0017880D01*
X0042337Y0016962D01*
X0046007Y0016962D01*
X0046924Y0017880D01*
X0046924Y0019714D01*
X0046007Y0020632D01*
X0044172Y0015107D02*
X0045089Y0014190D01*
X0045089Y0011437D01*
X0046924Y0011437D02*
X0041419Y0011437D01*
X0041419Y0014190D01*
X0042337Y0015107D01*
X0044172Y0015107D01*
X0036253Y0018594D02*
X0030347Y0018594D01*
X0030347Y0030406D01*
X0036253Y0030406D01*
X0036253Y0018594D01*
X0026410Y0035327D02*
X0026412Y0035389D01*
X0026418Y0035450D01*
X0026427Y0035511D01*
X0026441Y0035572D01*
X0026458Y0035631D01*
X0026479Y0035689D01*
X0026504Y0035746D01*
X0026532Y0035801D01*
X0026563Y0035854D01*
X0026598Y0035905D01*
X0026636Y0035954D01*
X0026677Y0036001D01*
X0026720Y0036044D01*
X0026767Y0036085D01*
X0026816Y0036123D01*
X0026867Y0036158D01*
X0026920Y0036189D01*
X0026975Y0036217D01*
X0027032Y0036242D01*
X0027090Y0036263D01*
X0027149Y0036280D01*
X0027210Y0036294D01*
X0027271Y0036303D01*
X0027332Y0036309D01*
X0027394Y0036311D01*
X0028969Y0036311D01*
X0028969Y0050189D02*
X0027394Y0050189D01*
X0027332Y0050191D01*
X0027271Y0050197D01*
X0027210Y0050206D01*
X0027149Y0050220D01*
X0027090Y0050237D01*
X0027032Y0050258D01*
X0026975Y0050283D01*
X0026920Y0050311D01*
X0026867Y0050342D01*
X0026816Y0050377D01*
X0026767Y0050415D01*
X0026720Y0050456D01*
X0026677Y0050499D01*
X0026636Y0050546D01*
X0026598Y0050595D01*
X0026563Y0050646D01*
X0026532Y0050699D01*
X0026504Y0050754D01*
X0026479Y0050811D01*
X0026458Y0050869D01*
X0026441Y0050928D01*
X0026427Y0050989D01*
X0026418Y0051050D01*
X0026412Y0051111D01*
X0026410Y0051173D01*
X0026410Y0072827D01*
X0026412Y0072889D01*
X0026418Y0072950D01*
X0026427Y0073011D01*
X0026441Y0073072D01*
X0026458Y0073131D01*
X0026479Y0073189D01*
X0026504Y0073246D01*
X0026532Y0073301D01*
X0026563Y0073354D01*
X0026598Y0073405D01*
X0026636Y0073454D01*
X0026677Y0073501D01*
X0026720Y0073544D01*
X0026767Y0073585D01*
X0026816Y0073623D01*
X0026867Y0073658D01*
X0026920Y0073689D01*
X0026975Y0073717D01*
X0027032Y0073742D01*
X0027090Y0073763D01*
X0027149Y0073780D01*
X0027210Y0073794D01*
X0027271Y0073803D01*
X0027332Y0073809D01*
X0027394Y0073811D01*
X0028969Y0073811D01*
X0037631Y0073811D02*
X0039206Y0073811D01*
X0039272Y0073798D01*
X0039337Y0073781D01*
X0039401Y0073761D01*
X0039464Y0073737D01*
X0039525Y0073710D01*
X0039585Y0073679D01*
X0039643Y0073646D01*
X0039699Y0073608D01*
X0039752Y0073568D01*
X0039804Y0073525D01*
X0039853Y0073479D01*
X0039899Y0073430D01*
X0039942Y0073379D01*
X0039983Y0073326D01*
X0040021Y0073270D01*
X0040055Y0073212D01*
X0040086Y0073153D01*
X0040113Y0073092D01*
X0040138Y0073029D01*
X0040158Y0072965D01*
X0040175Y0072900D01*
X0040188Y0072834D01*
X0040198Y0072768D01*
X0040204Y0072701D01*
X0040206Y0072634D01*
X0040204Y0072567D01*
X0040199Y0072500D01*
X0040190Y0072433D01*
X0040190Y0051173D01*
X0040188Y0051111D01*
X0040182Y0051050D01*
X0040173Y0050989D01*
X0040159Y0050928D01*
X0040142Y0050869D01*
X0040121Y0050811D01*
X0040096Y0050754D01*
X0040068Y0050699D01*
X0040037Y0050646D01*
X0040002Y0050595D01*
X0039964Y0050546D01*
X0039923Y0050499D01*
X0039880Y0050456D01*
X0039833Y0050415D01*
X0039784Y0050377D01*
X0039733Y0050342D01*
X0039680Y0050311D01*
X0039625Y0050283D01*
X0039568Y0050258D01*
X0039510Y0050237D01*
X0039451Y0050220D01*
X0039390Y0050206D01*
X0039329Y0050197D01*
X0039268Y0050191D01*
X0039206Y0050189D01*
X0037631Y0050189D01*
X0041919Y0048937D02*
X0041919Y0051690D01*
X0042837Y0052607D01*
X0044672Y0052607D01*
X0045589Y0051690D01*
X0045589Y0048937D01*
X0047424Y0048937D02*
X0041919Y0048937D01*
X0045589Y0050772D02*
X0047424Y0052607D01*
X0047424Y0054462D02*
X0047424Y0058132D01*
X0046507Y0059987D02*
X0047424Y0060904D01*
X0047424Y0062739D01*
X0046507Y0063657D01*
X0045589Y0063657D01*
X0044672Y0062739D01*
X0044672Y0060904D01*
X0043754Y0059987D01*
X0042837Y0059987D01*
X0041919Y0060904D01*
X0041919Y0062739D01*
X0042837Y0063657D01*
X0041919Y0065512D02*
X0047424Y0065512D01*
X0047424Y0069181D01*
X0044672Y0067346D02*
X0044672Y0065512D01*
X0041919Y0065512D02*
X0041919Y0069181D01*
X0041919Y0071036D02*
X0041919Y0074706D01*
X0041919Y0072871D02*
X0047424Y0072871D01*
X0036253Y0067906D02*
X0030347Y0067906D01*
X0030347Y0056094D01*
X0036253Y0056094D01*
X0036253Y0067906D01*
X0041919Y0058132D02*
X0041919Y0054462D01*
X0047424Y0054462D01*
X0044672Y0054462D02*
X0044672Y0056297D01*
X0067045Y0046478D02*
X0067045Y0043725D01*
X0072550Y0043725D01*
X0070715Y0043725D02*
X0070715Y0046478D01*
X0069798Y0047395D01*
X0067963Y0047395D01*
X0067045Y0046478D01*
X0070715Y0045560D02*
X0072550Y0047395D01*
X0072550Y0041870D02*
X0067045Y0041870D01*
X0067045Y0038201D02*
X0072550Y0038201D01*
X0070715Y0040035D01*
X0072550Y0041870D01*
X0069798Y0036346D02*
X0070715Y0035428D01*
X0070715Y0032676D01*
X0072550Y0032676D02*
X0067045Y0032676D01*
X0067045Y0035428D01*
X0067963Y0036346D01*
X0069798Y0036346D01*
X0109150Y0053850D02*
X0112820Y0053850D01*
X0110985Y0056602D02*
X0109150Y0056602D01*
X0109150Y0053850D02*
X0109150Y0059355D01*
X0112820Y0059355D01*
X0114675Y0056602D02*
X0118345Y0056602D01*
X0117427Y0053850D02*
X0117427Y0059355D01*
X0114675Y0056602D01*
X0116363Y0060579D02*
X0124237Y0060579D01*
X0118725Y0061661D02*
X0118727Y0061700D01*
X0118733Y0061739D01*
X0118743Y0061777D01*
X0118756Y0061814D01*
X0118773Y0061849D01*
X0118793Y0061883D01*
X0118817Y0061914D01*
X0118844Y0061943D01*
X0118873Y0061969D01*
X0118905Y0061992D01*
X0118939Y0062012D01*
X0118975Y0062028D01*
X0119012Y0062040D01*
X0119051Y0062049D01*
X0119090Y0062054D01*
X0119129Y0062055D01*
X0119168Y0062052D01*
X0119207Y0062045D01*
X0119244Y0062034D01*
X0119281Y0062020D01*
X0119316Y0062002D01*
X0119349Y0061981D01*
X0119380Y0061956D01*
X0119408Y0061929D01*
X0119433Y0061899D01*
X0119455Y0061866D01*
X0119474Y0061832D01*
X0119489Y0061796D01*
X0119501Y0061758D01*
X0119509Y0061720D01*
X0119513Y0061681D01*
X0119513Y0061641D01*
X0119509Y0061602D01*
X0119501Y0061564D01*
X0119489Y0061526D01*
X0119474Y0061490D01*
X0119455Y0061456D01*
X0119433Y0061423D01*
X0119408Y0061393D01*
X0119380Y0061366D01*
X0119349Y0061341D01*
X0119316Y0061320D01*
X0119281Y0061302D01*
X0119244Y0061288D01*
X0119207Y0061277D01*
X0119168Y0061270D01*
X0119129Y0061267D01*
X0119090Y0061268D01*
X0119051Y0061273D01*
X0119012Y0061282D01*
X0118975Y0061294D01*
X0118939Y0061310D01*
X0118905Y0061330D01*
X0118873Y0061353D01*
X0118844Y0061379D01*
X0118817Y0061408D01*
X0118793Y0061439D01*
X0118773Y0061473D01*
X0118756Y0061508D01*
X0118743Y0061545D01*
X0118733Y0061583D01*
X0118727Y0061622D01*
X0118725Y0061661D01*
X0116363Y0070421D02*
X0124237Y0070421D01*
X0146894Y0066276D02*
X0146894Y0065882D01*
X0147682Y0065094D01*
X0157918Y0065094D02*
X0158706Y0065094D01*
X0158706Y0066276D01*
X0169050Y0066167D02*
X0169050Y0069837D01*
X0169967Y0070755D01*
X0171802Y0070755D01*
X0172720Y0069837D01*
X0172720Y0068002D02*
X0170885Y0068002D01*
X0172720Y0068002D02*
X0172720Y0066167D01*
X0171802Y0065250D01*
X0169967Y0065250D01*
X0169050Y0066167D01*
X0174575Y0065250D02*
X0174575Y0070755D01*
X0177327Y0070755D01*
X0178245Y0069837D01*
X0178245Y0068002D01*
X0177327Y0067085D01*
X0174575Y0067085D01*
X0180099Y0066167D02*
X0181017Y0065250D01*
X0182852Y0065250D01*
X0183769Y0066167D01*
X0183769Y0067085D01*
X0182852Y0068002D01*
X0181017Y0068002D01*
X0180099Y0068920D01*
X0180099Y0069837D01*
X0181017Y0070755D01*
X0182852Y0070755D01*
X0183769Y0069837D01*
X0158706Y0076118D02*
X0158706Y0076906D01*
X0157918Y0076906D01*
X0148076Y0076906D02*
X0146894Y0076906D01*
X0146894Y0076118D01*
X0149600Y0050900D02*
X0149600Y0027500D01*
X0163400Y0027500D01*
X0163400Y0050900D01*
X0149600Y0050900D01*
X0189050Y0089667D02*
X0189967Y0088750D01*
X0191802Y0088750D01*
X0192720Y0089667D01*
X0192720Y0094255D01*
X0194575Y0092420D02*
X0196410Y0094255D01*
X0198245Y0092420D01*
X0198245Y0088750D01*
X0200099Y0088750D02*
X0200099Y0094255D01*
X0202852Y0094255D01*
X0203769Y0093337D01*
X0203769Y0091502D01*
X0202852Y0090585D01*
X0200099Y0090585D01*
X0201934Y0090585D02*
X0203769Y0088750D01*
X0207459Y0088750D02*
X0207459Y0094255D01*
X0205624Y0094255D02*
X0209294Y0094255D01*
X0211149Y0092420D02*
X0212984Y0094255D01*
X0212984Y0088750D01*
X0211149Y0088750D02*
X0214819Y0088750D01*
X0220550Y0089667D02*
X0220550Y0094255D01*
X0224220Y0094255D02*
X0224220Y0089667D01*
X0223302Y0088750D01*
X0221467Y0088750D01*
X0220550Y0089667D01*
X0226075Y0088750D02*
X0226075Y0092420D01*
X0227910Y0094255D01*
X0229745Y0092420D01*
X0229745Y0088750D01*
X0231599Y0088750D02*
X0231599Y0094255D01*
X0234352Y0094255D01*
X0235269Y0093337D01*
X0235269Y0091502D01*
X0234352Y0090585D01*
X0231599Y0090585D01*
X0233434Y0090585D02*
X0235269Y0088750D01*
X0238959Y0088750D02*
X0238959Y0094255D01*
X0237124Y0094255D02*
X0240794Y0094255D01*
X0242649Y0094255D02*
X0242649Y0091502D01*
X0244484Y0092420D01*
X0245401Y0092420D01*
X0246319Y0091502D01*
X0246319Y0089667D01*
X0245401Y0088750D01*
X0243566Y0088750D01*
X0242649Y0089667D01*
X0242649Y0094255D02*
X0246319Y0094255D01*
X0229745Y0091502D02*
X0226075Y0091502D01*
X0198245Y0091502D02*
X0194575Y0091502D01*
X0194575Y0092420D02*
X0194575Y0088750D01*
X0189050Y0089667D02*
X0189050Y0094255D01*
X0232050Y0068920D02*
X0233885Y0070755D01*
X0235720Y0068920D01*
X0235720Y0065250D01*
X0237575Y0065250D02*
X0240327Y0065250D01*
X0241245Y0066167D01*
X0241245Y0069837D01*
X0240327Y0070755D01*
X0237575Y0070755D01*
X0237575Y0065250D01*
X0235720Y0068002D02*
X0232050Y0068002D01*
X0232050Y0068920D02*
X0232050Y0065250D01*
X0243099Y0066167D02*
X0244017Y0065250D01*
X0245852Y0065250D01*
X0246769Y0066167D01*
X0243099Y0066167D02*
X0243099Y0069837D01*
X0244017Y0070755D01*
X0245852Y0070755D01*
X0246769Y0069837D01*
X0258350Y0066255D02*
X0258350Y0060750D01*
X0262020Y0060750D01*
X0263875Y0060750D02*
X0267545Y0060750D01*
X0265710Y0060750D02*
X0265710Y0066255D01*
X0263875Y0064420D01*
X0262020Y0066255D02*
X0258350Y0066255D01*
X0258350Y0063502D02*
X0260185Y0063502D01*
X0271500Y0082000D02*
X0271502Y0082077D01*
X0271508Y0082154D01*
X0271518Y0082231D01*
X0271532Y0082307D01*
X0271549Y0082382D01*
X0271571Y0082456D01*
X0271596Y0082529D01*
X0271626Y0082601D01*
X0271658Y0082671D01*
X0271695Y0082739D01*
X0271734Y0082805D01*
X0271777Y0082869D01*
X0271824Y0082931D01*
X0271873Y0082990D01*
X0271926Y0083047D01*
X0271981Y0083101D01*
X0272039Y0083152D01*
X0272100Y0083200D01*
X0272163Y0083245D01*
X0272228Y0083286D01*
X0272295Y0083324D01*
X0272364Y0083359D01*
X0272435Y0083389D01*
X0272507Y0083417D01*
X0272581Y0083440D01*
X0272655Y0083460D01*
X0272731Y0083476D01*
X0272807Y0083488D01*
X0272884Y0083496D01*
X0272961Y0083500D01*
X0273039Y0083500D01*
X0273116Y0083496D01*
X0273193Y0083488D01*
X0273269Y0083476D01*
X0273345Y0083460D01*
X0273419Y0083440D01*
X0273493Y0083417D01*
X0273565Y0083389D01*
X0273636Y0083359D01*
X0273705Y0083324D01*
X0273772Y0083286D01*
X0273837Y0083245D01*
X0273900Y0083200D01*
X0273961Y0083152D01*
X0274019Y0083101D01*
X0274074Y0083047D01*
X0274127Y0082990D01*
X0274176Y0082931D01*
X0274223Y0082869D01*
X0274266Y0082805D01*
X0274305Y0082739D01*
X0274342Y0082671D01*
X0274374Y0082601D01*
X0274404Y0082529D01*
X0274429Y0082456D01*
X0274451Y0082382D01*
X0274468Y0082307D01*
X0274482Y0082231D01*
X0274492Y0082154D01*
X0274498Y0082077D01*
X0274500Y0082000D01*
X0274498Y0081923D01*
X0274492Y0081846D01*
X0274482Y0081769D01*
X0274468Y0081693D01*
X0274451Y0081618D01*
X0274429Y0081544D01*
X0274404Y0081471D01*
X0274374Y0081399D01*
X0274342Y0081329D01*
X0274305Y0081261D01*
X0274266Y0081195D01*
X0274223Y0081131D01*
X0274176Y0081069D01*
X0274127Y0081010D01*
X0274074Y0080953D01*
X0274019Y0080899D01*
X0273961Y0080848D01*
X0273900Y0080800D01*
X0273837Y0080755D01*
X0273772Y0080714D01*
X0273705Y0080676D01*
X0273636Y0080641D01*
X0273565Y0080611D01*
X0273493Y0080583D01*
X0273419Y0080560D01*
X0273345Y0080540D01*
X0273269Y0080524D01*
X0273193Y0080512D01*
X0273116Y0080504D01*
X0273039Y0080500D01*
X0272961Y0080500D01*
X0272884Y0080504D01*
X0272807Y0080512D01*
X0272731Y0080524D01*
X0272655Y0080540D01*
X0272581Y0080560D01*
X0272507Y0080583D01*
X0272435Y0080611D01*
X0272364Y0080641D01*
X0272295Y0080676D01*
X0272228Y0080714D01*
X0272163Y0080755D01*
X0272100Y0080800D01*
X0272039Y0080848D01*
X0271981Y0080899D01*
X0271926Y0080953D01*
X0271873Y0081010D01*
X0271824Y0081069D01*
X0271777Y0081131D01*
X0271734Y0081195D01*
X0271695Y0081261D01*
X0271658Y0081329D01*
X0271626Y0081399D01*
X0271596Y0081471D01*
X0271571Y0081544D01*
X0271549Y0081618D01*
X0271532Y0081693D01*
X0271518Y0081769D01*
X0271508Y0081846D01*
X0271502Y0081923D01*
X0271500Y0082000D01*
X0280300Y0102500D02*
X0280300Y0112500D01*
X0310300Y0112500D01*
X0310300Y0122500D01*
X0280300Y0122500D01*
X0280300Y0132500D01*
X0310300Y0132500D01*
X0310300Y0142500D01*
X0280300Y0142500D01*
X0280300Y0132500D01*
X0280300Y0122500D02*
X0280300Y0112500D01*
X0280300Y0102500D02*
X0310300Y0102500D01*
X0310300Y0112500D01*
X0310300Y0122500D02*
X0310300Y0132500D01*
X0314298Y0134225D02*
X0314298Y0137895D01*
X0317050Y0136978D02*
X0311545Y0136978D01*
X0314298Y0134225D01*
X0315215Y0128395D02*
X0316133Y0128395D01*
X0317050Y0127478D01*
X0317050Y0125643D01*
X0316133Y0124725D01*
X0314298Y0126560D02*
X0314298Y0127478D01*
X0315215Y0128395D01*
X0314298Y0127478D02*
X0313380Y0128395D01*
X0312463Y0128395D01*
X0311545Y0127478D01*
X0311545Y0125643D01*
X0312463Y0124725D01*
X0330101Y0129450D02*
X0333770Y0129450D01*
X0335625Y0129450D02*
X0339295Y0133120D01*
X0339295Y0134037D01*
X0338378Y0134955D01*
X0336543Y0134955D01*
X0335625Y0134037D01*
X0333770Y0134955D02*
X0330101Y0134955D01*
X0330101Y0129450D01*
X0330101Y0132202D02*
X0331935Y0132202D01*
X0335625Y0129450D02*
X0339295Y0129450D01*
X0317050Y0145143D02*
X0316133Y0144225D01*
X0317050Y0145143D02*
X0317050Y0146978D01*
X0316133Y0147895D01*
X0314298Y0147895D01*
X0313380Y0146978D01*
X0313380Y0146060D01*
X0314298Y0144225D01*
X0311545Y0144225D01*
X0311545Y0147895D01*
X0310300Y0152500D02*
X0310300Y0142500D01*
X0310300Y0152500D02*
X0310300Y0162500D01*
X0280300Y0162500D01*
X0280300Y0152500D01*
X0310300Y0152500D01*
X0312463Y0156060D02*
X0314298Y0154225D01*
X0314298Y0156978D01*
X0315215Y0157895D01*
X0316133Y0157895D01*
X0317050Y0156978D01*
X0317050Y0155143D01*
X0316133Y0154225D01*
X0314298Y0154225D01*
X0312463Y0156060D02*
X0311545Y0157895D01*
X0310300Y0162500D02*
X0310300Y0172500D01*
X0280300Y0172500D01*
X0280300Y0162500D01*
X0280300Y0172500D02*
X0280300Y0182500D01*
X0310300Y0182500D01*
X0310300Y0172500D01*
X0312463Y0174725D02*
X0313380Y0174725D01*
X0314298Y0175643D01*
X0314298Y0177478D01*
X0315215Y0178395D01*
X0316133Y0178395D01*
X0317050Y0177478D01*
X0317050Y0175643D01*
X0316133Y0174725D01*
X0315215Y0174725D01*
X0314298Y0175643D01*
X0314298Y0177478D02*
X0313380Y0178395D01*
X0312463Y0178395D01*
X0311545Y0177478D01*
X0311545Y0175643D01*
X0312463Y0174725D01*
X0312463Y0168395D02*
X0316133Y0164725D01*
X0317050Y0164725D01*
X0311545Y0164725D02*
X0311545Y0168395D01*
X0312463Y0168395D01*
X0329050Y0172250D02*
X0332720Y0172250D01*
X0334575Y0173167D02*
X0335492Y0172250D01*
X0337327Y0172250D01*
X0338245Y0173167D01*
X0338245Y0174085D01*
X0337327Y0175002D01*
X0336410Y0175002D01*
X0337327Y0175002D02*
X0338245Y0175920D01*
X0338245Y0176837D01*
X0337327Y0177755D01*
X0335492Y0177755D01*
X0334575Y0176837D01*
X0332720Y0177755D02*
X0329050Y0177755D01*
X0329050Y0172250D01*
X0329050Y0175002D02*
X0330885Y0175002D01*
X0286800Y0183500D02*
X0286800Y0185500D01*
X0283800Y0185500D01*
X0283800Y0189000D01*
X0286800Y0189000D01*
X0286800Y0191000D01*
X0260800Y0192900D02*
X0220800Y0192900D01*
X0220800Y0170250D01*
X0260800Y0170250D01*
X0260800Y0192900D01*
X0205700Y0185900D02*
X0205700Y0174100D01*
X0193900Y0174100D01*
X0193900Y0185900D01*
X0205700Y0185900D01*
X0193666Y0173063D02*
X0193668Y0173090D01*
X0193674Y0173117D01*
X0193683Y0173143D01*
X0193696Y0173167D01*
X0193712Y0173190D01*
X0193731Y0173209D01*
X0193753Y0173226D01*
X0193777Y0173240D01*
X0193802Y0173250D01*
X0193829Y0173257D01*
X0193856Y0173260D01*
X0193884Y0173259D01*
X0193911Y0173254D01*
X0193937Y0173246D01*
X0193961Y0173234D01*
X0193984Y0173218D01*
X0194005Y0173200D01*
X0194022Y0173179D01*
X0194037Y0173155D01*
X0194048Y0173130D01*
X0194056Y0173104D01*
X0194060Y0173077D01*
X0194060Y0173049D01*
X0194056Y0173022D01*
X0194048Y0172996D01*
X0194037Y0172971D01*
X0194022Y0172947D01*
X0194005Y0172926D01*
X0193984Y0172908D01*
X0193962Y0172892D01*
X0193937Y0172880D01*
X0193911Y0172872D01*
X0193884Y0172867D01*
X0193856Y0172866D01*
X0193829Y0172869D01*
X0193802Y0172876D01*
X0193777Y0172886D01*
X0193753Y0172900D01*
X0193731Y0172917D01*
X0193712Y0172936D01*
X0193696Y0172959D01*
X0193683Y0172983D01*
X0193674Y0173009D01*
X0193668Y0173036D01*
X0193666Y0173063D01*
X0219342Y0158003D02*
X0220093Y0158754D01*
X0221594Y0158754D01*
X0222345Y0158003D01*
X0222345Y0155001D01*
X0221594Y0154250D01*
X0220093Y0154250D01*
X0219342Y0155001D01*
X0219342Y0158003D01*
X0220843Y0155751D02*
X0222345Y0154250D01*
X0223946Y0155001D02*
X0224697Y0154250D01*
X0226198Y0154250D01*
X0226949Y0155001D01*
X0226949Y0155751D01*
X0226198Y0156502D01*
X0225447Y0156502D01*
X0226198Y0156502D02*
X0226949Y0157253D01*
X0226949Y0158003D01*
X0226198Y0158754D01*
X0224697Y0158754D01*
X0223946Y0158003D01*
X0280300Y0152500D02*
X0280300Y0142500D01*
X0321050Y0086755D02*
X0322885Y0084920D01*
X0324720Y0086755D01*
X0324720Y0081250D01*
X0326575Y0082167D02*
X0327492Y0081250D01*
X0329327Y0081250D01*
X0330245Y0082167D01*
X0330245Y0083085D01*
X0329327Y0084002D01*
X0328410Y0084002D01*
X0329327Y0084002D02*
X0330245Y0084920D01*
X0330245Y0085837D01*
X0329327Y0086755D01*
X0327492Y0086755D01*
X0326575Y0085837D01*
X0321050Y0086755D02*
X0321050Y0081250D01*
X0319600Y0080360D02*
X0319600Y0062640D01*
X0333400Y0062640D01*
X0333400Y0080360D01*
X0330300Y0080370D01*
X0319600Y0080360D01*
X0334600Y0080360D02*
X0334600Y0062640D01*
X0348400Y0062640D01*
X0348400Y0080360D01*
X0345300Y0080370D01*
X0334600Y0080360D01*
X0337550Y0081250D02*
X0337550Y0086755D01*
X0339385Y0084920D01*
X0341220Y0086755D01*
X0341220Y0081250D01*
X0343075Y0084002D02*
X0346745Y0084002D01*
X0345827Y0081250D02*
X0345827Y0086755D01*
X0343075Y0084002D01*
X0345300Y0061370D02*
X0334600Y0061360D01*
X0334600Y0043640D01*
X0348400Y0043640D01*
X0348400Y0061360D01*
X0345300Y0061370D01*
X0333400Y0061360D02*
X0333400Y0043640D01*
X0319600Y0043640D01*
X0319600Y0061360D01*
X0330300Y0061370D01*
X0333400Y0061360D01*
X0330527Y0042155D02*
X0328692Y0042155D01*
X0327775Y0041237D01*
X0325920Y0042155D02*
X0325920Y0036650D01*
X0327775Y0036650D02*
X0331445Y0040320D01*
X0331445Y0041237D01*
X0330527Y0042155D01*
X0325920Y0042155D02*
X0324085Y0040320D01*
X0322250Y0042155D01*
X0322250Y0036650D01*
X0327775Y0036650D02*
X0331445Y0036650D01*
X0337950Y0036650D02*
X0337950Y0042155D01*
X0339785Y0040320D01*
X0341620Y0042155D01*
X0341620Y0036650D01*
X0343475Y0036650D02*
X0347145Y0036650D01*
X0345310Y0036650D02*
X0345310Y0042155D01*
X0343475Y0040320D01*
X0055690Y0163173D02*
X0055690Y0184433D01*
X0055699Y0184500D01*
X0055704Y0184567D01*
X0055706Y0184634D01*
X0055704Y0184701D01*
X0055698Y0184768D01*
X0055688Y0184834D01*
X0055675Y0184900D01*
X0055658Y0184965D01*
X0055638Y0185029D01*
X0055613Y0185092D01*
X0055586Y0185153D01*
X0055555Y0185212D01*
X0055521Y0185270D01*
X0055483Y0185326D01*
X0055442Y0185379D01*
X0055399Y0185430D01*
X0055353Y0185479D01*
X0055304Y0185525D01*
X0055252Y0185568D01*
X0055199Y0185608D01*
X0055143Y0185646D01*
X0055085Y0185679D01*
X0055025Y0185710D01*
X0054964Y0185737D01*
X0054901Y0185761D01*
X0054837Y0185781D01*
X0054772Y0185798D01*
X0054706Y0185811D01*
X0053131Y0185811D01*
X0051753Y0179906D02*
X0045847Y0179906D01*
X0045847Y0168094D01*
X0051753Y0168094D01*
X0051753Y0179906D01*
X0044469Y0185811D02*
X0042894Y0185811D01*
X0042832Y0185809D01*
X0042771Y0185803D01*
X0042710Y0185794D01*
X0042649Y0185780D01*
X0042590Y0185763D01*
X0042532Y0185742D01*
X0042475Y0185717D01*
X0042420Y0185689D01*
X0042367Y0185658D01*
X0042316Y0185623D01*
X0042267Y0185585D01*
X0042220Y0185544D01*
X0042177Y0185501D01*
X0042136Y0185454D01*
X0042098Y0185405D01*
X0042063Y0185354D01*
X0042032Y0185301D01*
X0042004Y0185246D01*
X0041979Y0185189D01*
X0041958Y0185131D01*
X0041941Y0185072D01*
X0041927Y0185011D01*
X0041918Y0184950D01*
X0041912Y0184889D01*
X0041910Y0184827D01*
X0041910Y0163173D01*
X0041912Y0163111D01*
X0041918Y0163050D01*
X0041927Y0162989D01*
X0041941Y0162928D01*
X0041958Y0162869D01*
X0041979Y0162811D01*
X0042004Y0162754D01*
X0042032Y0162699D01*
X0042063Y0162646D01*
X0042098Y0162595D01*
X0042136Y0162546D01*
X0042177Y0162499D01*
X0042220Y0162456D01*
X0042267Y0162415D01*
X0042316Y0162377D01*
X0042367Y0162342D01*
X0042420Y0162311D01*
X0042475Y0162283D01*
X0042532Y0162258D01*
X0042590Y0162237D01*
X0042649Y0162220D01*
X0042710Y0162206D01*
X0042771Y0162197D01*
X0042832Y0162191D01*
X0042894Y0162189D01*
X0044469Y0162189D01*
X0053131Y0162189D02*
X0054706Y0162189D01*
X0054768Y0162191D01*
X0054829Y0162197D01*
X0054890Y0162206D01*
X0054951Y0162220D01*
X0055010Y0162237D01*
X0055068Y0162258D01*
X0055125Y0162283D01*
X0055180Y0162311D01*
X0055233Y0162342D01*
X0055284Y0162377D01*
X0055333Y0162415D01*
X0055380Y0162456D01*
X0055423Y0162499D01*
X0055464Y0162546D01*
X0055502Y0162595D01*
X0055537Y0162646D01*
X0055568Y0162699D01*
X0055596Y0162754D01*
X0055621Y0162811D01*
X0055642Y0162869D01*
X0055659Y0162928D01*
X0055673Y0162989D01*
X0055682Y0163050D01*
X0055688Y0163111D01*
X0055690Y0163173D01*
X0042206Y0187189D02*
X0040631Y0187189D01*
X0042206Y0187189D02*
X0042268Y0187191D01*
X0042329Y0187197D01*
X0042390Y0187206D01*
X0042451Y0187220D01*
X0042510Y0187237D01*
X0042568Y0187258D01*
X0042625Y0187283D01*
X0042680Y0187311D01*
X0042733Y0187342D01*
X0042784Y0187377D01*
X0042833Y0187415D01*
X0042880Y0187456D01*
X0042923Y0187499D01*
X0042964Y0187546D01*
X0043002Y0187595D01*
X0043037Y0187646D01*
X0043068Y0187699D01*
X0043096Y0187754D01*
X0043121Y0187811D01*
X0043142Y0187869D01*
X0043159Y0187928D01*
X0043173Y0187989D01*
X0043182Y0188050D01*
X0043188Y0188111D01*
X0043190Y0188173D01*
X0043190Y0209827D01*
X0043188Y0209889D01*
X0043182Y0209950D01*
X0043173Y0210011D01*
X0043159Y0210072D01*
X0043142Y0210131D01*
X0043121Y0210189D01*
X0043096Y0210246D01*
X0043068Y0210301D01*
X0043037Y0210354D01*
X0043002Y0210405D01*
X0042964Y0210454D01*
X0042923Y0210501D01*
X0042880Y0210544D01*
X0042833Y0210585D01*
X0042784Y0210623D01*
X0042733Y0210658D01*
X0042680Y0210689D01*
X0042625Y0210717D01*
X0042568Y0210742D01*
X0042510Y0210763D01*
X0042451Y0210780D01*
X0042390Y0210794D01*
X0042329Y0210803D01*
X0042268Y0210809D01*
X0042206Y0210811D01*
X0040631Y0210811D01*
X0031969Y0210811D02*
X0030394Y0210811D01*
X0030332Y0210809D01*
X0030271Y0210803D01*
X0030210Y0210794D01*
X0030149Y0210780D01*
X0030090Y0210763D01*
X0030032Y0210742D01*
X0029975Y0210717D01*
X0029920Y0210689D01*
X0029867Y0210658D01*
X0029816Y0210623D01*
X0029767Y0210585D01*
X0029720Y0210544D01*
X0029677Y0210501D01*
X0029636Y0210454D01*
X0029598Y0210405D01*
X0029563Y0210354D01*
X0029532Y0210301D01*
X0029504Y0210246D01*
X0029479Y0210189D01*
X0029458Y0210131D01*
X0029441Y0210072D01*
X0029427Y0210011D01*
X0029418Y0209950D01*
X0029412Y0209889D01*
X0029410Y0209827D01*
X0029410Y0188567D01*
X0029401Y0188500D01*
X0029396Y0188433D01*
X0029394Y0188366D01*
X0029396Y0188299D01*
X0029402Y0188232D01*
X0029412Y0188166D01*
X0029425Y0188100D01*
X0029442Y0188035D01*
X0029462Y0187971D01*
X0029487Y0187908D01*
X0029514Y0187847D01*
X0029545Y0187788D01*
X0029579Y0187730D01*
X0029617Y0187674D01*
X0029658Y0187621D01*
X0029701Y0187570D01*
X0029747Y0187521D01*
X0029796Y0187475D01*
X0029848Y0187432D01*
X0029901Y0187392D01*
X0029957Y0187354D01*
X0030015Y0187321D01*
X0030075Y0187290D01*
X0030136Y0187263D01*
X0030199Y0187239D01*
X0030263Y0187219D01*
X0030328Y0187202D01*
X0030394Y0187189D01*
X0031969Y0187189D01*
X0033347Y0193094D02*
X0039253Y0193094D01*
X0039253Y0204906D01*
X0033347Y0204906D01*
X0033347Y0193094D01*
D22*
X0128500Y0058304D02*
X0130035Y0058304D01*
X0129267Y0058304D02*
X0129267Y0053700D01*
X0128500Y0053700D02*
X0130035Y0053700D01*
X0131569Y0053700D02*
X0134639Y0056769D01*
X0134639Y0057537D01*
X0133871Y0058304D01*
X0132337Y0058304D01*
X0131569Y0057537D01*
X0131569Y0053700D02*
X0134639Y0053700D01*
X0136173Y0054467D02*
X0136941Y0053700D01*
X0138475Y0053700D01*
X0139242Y0054467D01*
X0140777Y0053700D02*
X0143846Y0053700D01*
X0142312Y0053700D02*
X0142312Y0058304D01*
X0140777Y0056769D01*
X0139242Y0057537D02*
X0138475Y0058304D01*
X0136941Y0058304D01*
X0136173Y0057537D01*
X0136173Y0054467D01*
X0148500Y0052200D02*
X0150802Y0052200D01*
X0151569Y0052967D01*
X0151569Y0056037D01*
X0150802Y0056804D01*
X0148500Y0056804D01*
X0148500Y0052200D01*
X0153104Y0052967D02*
X0153871Y0052200D01*
X0155406Y0052200D01*
X0156173Y0052967D01*
X0156173Y0053735D01*
X0155406Y0054502D01*
X0153871Y0054502D01*
X0153104Y0055269D01*
X0153104Y0056037D01*
X0153871Y0056804D01*
X0155406Y0056804D01*
X0156173Y0056037D01*
X0157708Y0056804D02*
X0159242Y0055269D01*
X0160777Y0056804D01*
X0160777Y0052200D01*
X0162312Y0052200D02*
X0165381Y0055269D01*
X0165381Y0056037D01*
X0164614Y0056804D01*
X0163079Y0056804D01*
X0162312Y0056037D01*
X0162312Y0052200D02*
X0165381Y0052200D01*
X0157708Y0052200D02*
X0157708Y0056804D01*
X0251300Y0107600D02*
X0251300Y0125400D01*
X0266300Y0125400D02*
X0266300Y0107600D01*
X0287005Y0094102D02*
X0293698Y0100795D01*
X0312595Y0100795D01*
X0312595Y0091740D01*
X0312595Y0084260D02*
X0312595Y0075205D01*
X0293698Y0075205D01*
X0287005Y0081898D01*
X0287005Y0084260D01*
X0287005Y0091740D02*
X0287005Y0094102D01*
D23*
X0288021Y0084186D02*
X0288363Y0084296D01*
X0288457Y0084018D01*
X0288557Y0083742D01*
X0288665Y0083469D01*
X0288779Y0083198D01*
X0288899Y0082930D01*
X0289026Y0082666D01*
X0289160Y0082404D01*
X0289299Y0082146D01*
X0289446Y0081892D01*
X0289598Y0081641D01*
X0289756Y0081393D01*
X0289920Y0081150D01*
X0290091Y0080911D01*
X0290267Y0080676D01*
X0290448Y0080445D01*
X0290635Y0080219D01*
X0290828Y0079998D01*
X0291026Y0079781D01*
X0291230Y0079569D01*
X0291438Y0079363D01*
X0291651Y0079161D01*
X0291870Y0078965D01*
X0292093Y0078774D01*
X0292320Y0078588D01*
X0292552Y0078408D01*
X0292789Y0078234D01*
X0293029Y0078066D01*
X0293274Y0077904D01*
X0293522Y0077747D01*
X0293774Y0077597D01*
X0294030Y0077453D01*
X0294289Y0077315D01*
X0294552Y0077184D01*
X0294818Y0077059D01*
X0295086Y0076941D01*
X0295358Y0076829D01*
X0295632Y0076724D01*
X0295908Y0076625D01*
X0296187Y0076534D01*
X0296468Y0076449D01*
X0296751Y0076371D01*
X0297036Y0076300D01*
X0297323Y0076236D01*
X0297611Y0076179D01*
X0297900Y0076129D01*
X0298190Y0076086D01*
X0298482Y0076051D01*
X0298774Y0076022D01*
X0299067Y0076000D01*
X0299360Y0075986D01*
X0299653Y0075979D01*
X0299947Y0075979D01*
X0300240Y0075986D01*
X0300533Y0076000D01*
X0300826Y0076022D01*
X0301118Y0076051D01*
X0301410Y0076086D01*
X0301700Y0076129D01*
X0301989Y0076179D01*
X0302277Y0076236D01*
X0302564Y0076300D01*
X0302849Y0076371D01*
X0303132Y0076449D01*
X0303413Y0076534D01*
X0303692Y0076625D01*
X0303968Y0076724D01*
X0304242Y0076829D01*
X0304514Y0076941D01*
X0304782Y0077059D01*
X0305048Y0077184D01*
X0305311Y0077315D01*
X0305570Y0077453D01*
X0305826Y0077597D01*
X0306078Y0077747D01*
X0306326Y0077904D01*
X0306571Y0078066D01*
X0306811Y0078234D01*
X0307048Y0078408D01*
X0307280Y0078588D01*
X0307507Y0078774D01*
X0307730Y0078965D01*
X0307949Y0079161D01*
X0308162Y0079363D01*
X0308370Y0079569D01*
X0308574Y0079781D01*
X0308772Y0079998D01*
X0308965Y0080219D01*
X0309152Y0080445D01*
X0309333Y0080676D01*
X0309509Y0080911D01*
X0309680Y0081150D01*
X0309844Y0081393D01*
X0310002Y0081641D01*
X0310154Y0081892D01*
X0310301Y0082146D01*
X0310440Y0082404D01*
X0310574Y0082666D01*
X0310701Y0082930D01*
X0310821Y0083198D01*
X0310935Y0083469D01*
X0311043Y0083742D01*
X0311143Y0084018D01*
X0311237Y0084296D01*
X0311579Y0084186D01*
X0311580Y0084185D01*
X0311483Y0083899D01*
X0311380Y0083615D01*
X0311269Y0083334D01*
X0311152Y0083055D01*
X0311027Y0082779D01*
X0310897Y0082507D01*
X0310759Y0082237D01*
X0310615Y0081971D01*
X0310465Y0081709D01*
X0310308Y0081451D01*
X0310145Y0081196D01*
X0309976Y0080945D01*
X0309800Y0080699D01*
X0309619Y0080457D01*
X0309432Y0080219D01*
X0309239Y0079987D01*
X0309041Y0079758D01*
X0308837Y0079535D01*
X0308627Y0079317D01*
X0308413Y0079104D01*
X0308193Y0078897D01*
X0307968Y0078694D01*
X0307738Y0078498D01*
X0307504Y0078307D01*
X0307265Y0078121D01*
X0307022Y0077942D01*
X0306774Y0077769D01*
X0306522Y0077602D01*
X0306266Y0077440D01*
X0306006Y0077286D01*
X0305743Y0077137D01*
X0305476Y0076996D01*
X0305205Y0076860D01*
X0304932Y0076732D01*
X0304655Y0076610D01*
X0304376Y0076494D01*
X0304093Y0076386D01*
X0303808Y0076285D01*
X0303521Y0076190D01*
X0303232Y0076103D01*
X0302940Y0076023D01*
X0302647Y0075950D01*
X0302352Y0075884D01*
X0302055Y0075825D01*
X0301757Y0075774D01*
X0301458Y0075730D01*
X0301158Y0075693D01*
X0300857Y0075663D01*
X0300555Y0075641D01*
X0300253Y0075626D01*
X0299951Y0075619D01*
X0299649Y0075619D01*
X0299347Y0075626D01*
X0299045Y0075641D01*
X0298743Y0075663D01*
X0298442Y0075693D01*
X0298142Y0075730D01*
X0297843Y0075774D01*
X0297545Y0075825D01*
X0297248Y0075884D01*
X0296953Y0075950D01*
X0296660Y0076023D01*
X0296368Y0076103D01*
X0296079Y0076190D01*
X0295792Y0076285D01*
X0295507Y0076386D01*
X0295224Y0076494D01*
X0294945Y0076610D01*
X0294668Y0076732D01*
X0294395Y0076860D01*
X0294124Y0076996D01*
X0293857Y0077137D01*
X0293594Y0077286D01*
X0293334Y0077440D01*
X0293078Y0077602D01*
X0292826Y0077769D01*
X0292578Y0077942D01*
X0292335Y0078121D01*
X0292096Y0078307D01*
X0291862Y0078498D01*
X0291632Y0078694D01*
X0291407Y0078897D01*
X0291187Y0079104D01*
X0290973Y0079317D01*
X0290763Y0079535D01*
X0290559Y0079758D01*
X0290361Y0079987D01*
X0290168Y0080219D01*
X0289981Y0080457D01*
X0289800Y0080699D01*
X0289624Y0080945D01*
X0289455Y0081196D01*
X0289292Y0081451D01*
X0289135Y0081709D01*
X0288985Y0081971D01*
X0288841Y0082237D01*
X0288703Y0082507D01*
X0288573Y0082779D01*
X0288448Y0083055D01*
X0288331Y0083334D01*
X0288220Y0083615D01*
X0288117Y0083899D01*
X0288020Y0084185D01*
X0288055Y0084197D01*
X0288152Y0083911D01*
X0288255Y0083628D01*
X0288365Y0083347D01*
X0288482Y0083070D01*
X0288606Y0082795D01*
X0288737Y0082523D01*
X0288874Y0082254D01*
X0289017Y0081989D01*
X0289167Y0081728D01*
X0289323Y0081470D01*
X0289486Y0081216D01*
X0289655Y0080966D01*
X0289829Y0080721D01*
X0290010Y0080479D01*
X0290197Y0080243D01*
X0290389Y0080010D01*
X0290587Y0079783D01*
X0290790Y0079561D01*
X0290999Y0079343D01*
X0291213Y0079131D01*
X0291432Y0078924D01*
X0291656Y0078722D01*
X0291885Y0078526D01*
X0292119Y0078336D01*
X0292357Y0078151D01*
X0292600Y0077972D01*
X0292847Y0077799D01*
X0293098Y0077633D01*
X0293353Y0077472D01*
X0293612Y0077318D01*
X0293875Y0077170D01*
X0294141Y0077028D01*
X0294411Y0076894D01*
X0294683Y0076765D01*
X0294959Y0076644D01*
X0295238Y0076529D01*
X0295520Y0076421D01*
X0295804Y0076320D01*
X0296090Y0076226D01*
X0296379Y0076139D01*
X0296669Y0076059D01*
X0296962Y0075986D01*
X0297256Y0075920D01*
X0297552Y0075861D01*
X0297849Y0075810D01*
X0298147Y0075766D01*
X0298446Y0075729D01*
X0298746Y0075700D01*
X0299047Y0075678D01*
X0299348Y0075663D01*
X0299649Y0075656D01*
X0299951Y0075656D01*
X0300252Y0075663D01*
X0300553Y0075678D01*
X0300854Y0075700D01*
X0301154Y0075729D01*
X0301453Y0075766D01*
X0301751Y0075810D01*
X0302048Y0075861D01*
X0302344Y0075920D01*
X0302638Y0075986D01*
X0302931Y0076059D01*
X0303221Y0076139D01*
X0303510Y0076226D01*
X0303796Y0076320D01*
X0304080Y0076421D01*
X0304362Y0076529D01*
X0304641Y0076644D01*
X0304917Y0076765D01*
X0305189Y0076894D01*
X0305459Y0077028D01*
X0305725Y0077170D01*
X0305988Y0077318D01*
X0306247Y0077472D01*
X0306502Y0077633D01*
X0306753Y0077799D01*
X0307000Y0077972D01*
X0307243Y0078151D01*
X0307481Y0078336D01*
X0307715Y0078526D01*
X0307944Y0078722D01*
X0308168Y0078924D01*
X0308387Y0079131D01*
X0308601Y0079343D01*
X0308810Y0079561D01*
X0309013Y0079783D01*
X0309211Y0080010D01*
X0309403Y0080243D01*
X0309590Y0080479D01*
X0309771Y0080721D01*
X0309945Y0080966D01*
X0310114Y0081216D01*
X0310277Y0081470D01*
X0310433Y0081728D01*
X0310583Y0081989D01*
X0310726Y0082254D01*
X0310863Y0082523D01*
X0310994Y0082795D01*
X0311118Y0083070D01*
X0311235Y0083347D01*
X0311345Y0083628D01*
X0311448Y0083911D01*
X0311545Y0084197D01*
X0311509Y0084208D01*
X0311413Y0083923D01*
X0311310Y0083641D01*
X0311200Y0083361D01*
X0311084Y0083084D01*
X0310960Y0082810D01*
X0310830Y0082539D01*
X0310694Y0082272D01*
X0310551Y0082007D01*
X0310401Y0081747D01*
X0310245Y0081490D01*
X0310083Y0081236D01*
X0309915Y0080987D01*
X0309741Y0080743D01*
X0309560Y0080502D01*
X0309374Y0080266D01*
X0309183Y0080034D01*
X0308985Y0079808D01*
X0308783Y0079586D01*
X0308575Y0079369D01*
X0308361Y0079157D01*
X0308143Y0078951D01*
X0307919Y0078750D01*
X0307691Y0078554D01*
X0307458Y0078365D01*
X0307220Y0078180D01*
X0306978Y0078002D01*
X0306732Y0077830D01*
X0306482Y0077664D01*
X0306227Y0077504D01*
X0305969Y0077350D01*
X0305707Y0077202D01*
X0305442Y0077061D01*
X0305173Y0076927D01*
X0304901Y0076799D01*
X0304626Y0076678D01*
X0304348Y0076563D01*
X0304068Y0076456D01*
X0303784Y0076355D01*
X0303499Y0076261D01*
X0303211Y0076174D01*
X0302921Y0076094D01*
X0302630Y0076022D01*
X0302336Y0075956D01*
X0302042Y0075898D01*
X0301745Y0075847D01*
X0301448Y0075803D01*
X0301150Y0075766D01*
X0300851Y0075737D01*
X0300551Y0075715D01*
X0300251Y0075700D01*
X0299950Y0075693D01*
X0299650Y0075693D01*
X0299349Y0075700D01*
X0299049Y0075715D01*
X0298749Y0075737D01*
X0298450Y0075766D01*
X0298152Y0075803D01*
X0297855Y0075847D01*
X0297558Y0075898D01*
X0297264Y0075956D01*
X0296970Y0076022D01*
X0296679Y0076094D01*
X0296389Y0076174D01*
X0296101Y0076261D01*
X0295816Y0076355D01*
X0295532Y0076456D01*
X0295252Y0076563D01*
X0294974Y0076678D01*
X0294699Y0076799D01*
X0294427Y0076927D01*
X0294158Y0077061D01*
X0293893Y0077202D01*
X0293631Y0077350D01*
X0293373Y0077504D01*
X0293118Y0077664D01*
X0292868Y0077830D01*
X0292622Y0078002D01*
X0292380Y0078180D01*
X0292142Y0078365D01*
X0291909Y0078554D01*
X0291681Y0078750D01*
X0291457Y0078951D01*
X0291239Y0079157D01*
X0291025Y0079369D01*
X0290817Y0079586D01*
X0290615Y0079808D01*
X0290417Y0080034D01*
X0290226Y0080266D01*
X0290040Y0080502D01*
X0289859Y0080743D01*
X0289685Y0080987D01*
X0289517Y0081236D01*
X0289355Y0081490D01*
X0289199Y0081747D01*
X0289049Y0082007D01*
X0288906Y0082272D01*
X0288770Y0082539D01*
X0288640Y0082810D01*
X0288516Y0083084D01*
X0288400Y0083361D01*
X0288290Y0083641D01*
X0288187Y0083923D01*
X0288091Y0084208D01*
X0288126Y0084220D01*
X0288222Y0083936D01*
X0288324Y0083654D01*
X0288434Y0083375D01*
X0288550Y0083099D01*
X0288673Y0082826D01*
X0288803Y0082556D01*
X0288939Y0082289D01*
X0289082Y0082025D01*
X0289231Y0081765D01*
X0289386Y0081509D01*
X0289548Y0081257D01*
X0289716Y0081008D01*
X0289889Y0080764D01*
X0290069Y0080524D01*
X0290254Y0080289D01*
X0290445Y0080058D01*
X0290642Y0079832D01*
X0290844Y0079611D01*
X0291052Y0079395D01*
X0291265Y0079184D01*
X0291482Y0078978D01*
X0291705Y0078778D01*
X0291933Y0078583D01*
X0292165Y0078394D01*
X0292402Y0078210D01*
X0292643Y0078032D01*
X0292889Y0077860D01*
X0293138Y0077695D01*
X0293392Y0077535D01*
X0293649Y0077382D01*
X0293910Y0077235D01*
X0294175Y0077094D01*
X0294443Y0076960D01*
X0294714Y0076833D01*
X0294988Y0076712D01*
X0295265Y0076598D01*
X0295545Y0076490D01*
X0295828Y0076390D01*
X0296112Y0076296D01*
X0296399Y0076210D01*
X0296688Y0076130D01*
X0296979Y0076058D01*
X0297271Y0075992D01*
X0297565Y0075934D01*
X0297860Y0075883D01*
X0298157Y0075840D01*
X0298454Y0075803D01*
X0298752Y0075774D01*
X0299051Y0075752D01*
X0299351Y0075737D01*
X0299650Y0075730D01*
X0299950Y0075730D01*
X0300249Y0075737D01*
X0300549Y0075752D01*
X0300848Y0075774D01*
X0301146Y0075803D01*
X0301443Y0075840D01*
X0301740Y0075883D01*
X0302035Y0075934D01*
X0302329Y0075992D01*
X0302621Y0076058D01*
X0302912Y0076130D01*
X0303201Y0076210D01*
X0303488Y0076296D01*
X0303772Y0076390D01*
X0304055Y0076490D01*
X0304335Y0076598D01*
X0304612Y0076712D01*
X0304886Y0076833D01*
X0305157Y0076960D01*
X0305425Y0077094D01*
X0305690Y0077235D01*
X0305951Y0077382D01*
X0306208Y0077535D01*
X0306462Y0077695D01*
X0306711Y0077860D01*
X0306957Y0078032D01*
X0307198Y0078210D01*
X0307435Y0078394D01*
X0307667Y0078583D01*
X0307895Y0078778D01*
X0308118Y0078978D01*
X0308335Y0079184D01*
X0308548Y0079395D01*
X0308756Y0079611D01*
X0308958Y0079832D01*
X0309155Y0080058D01*
X0309346Y0080289D01*
X0309531Y0080524D01*
X0309711Y0080764D01*
X0309884Y0081008D01*
X0310052Y0081257D01*
X0310214Y0081509D01*
X0310369Y0081765D01*
X0310518Y0082025D01*
X0310661Y0082289D01*
X0310797Y0082556D01*
X0310927Y0082826D01*
X0311050Y0083099D01*
X0311166Y0083375D01*
X0311276Y0083654D01*
X0311378Y0083936D01*
X0311474Y0084220D01*
X0311439Y0084231D01*
X0311343Y0083948D01*
X0311241Y0083667D01*
X0311132Y0083389D01*
X0311016Y0083114D01*
X0310893Y0082841D01*
X0310764Y0082572D01*
X0310628Y0082306D01*
X0310486Y0082043D01*
X0310337Y0081784D01*
X0310182Y0081529D01*
X0310021Y0081277D01*
X0309854Y0081030D01*
X0309681Y0080786D01*
X0309502Y0080547D01*
X0309317Y0080312D01*
X0309126Y0080082D01*
X0308930Y0079857D01*
X0308729Y0079636D01*
X0308522Y0079421D01*
X0308310Y0079210D01*
X0308093Y0079005D01*
X0307870Y0078805D01*
X0307644Y0078611D01*
X0307412Y0078422D01*
X0307176Y0078239D01*
X0306935Y0078062D01*
X0306690Y0077891D01*
X0306442Y0077726D01*
X0306189Y0077567D01*
X0305932Y0077414D01*
X0305672Y0077267D01*
X0305408Y0077127D01*
X0305141Y0076993D01*
X0304870Y0076866D01*
X0304597Y0076746D01*
X0304321Y0076632D01*
X0304042Y0076525D01*
X0303760Y0076425D01*
X0303477Y0076332D01*
X0303191Y0076245D01*
X0302903Y0076166D01*
X0302613Y0076094D01*
X0302321Y0076029D01*
X0302028Y0075971D01*
X0301734Y0075920D01*
X0301438Y0075876D01*
X0301142Y0075840D01*
X0300844Y0075811D01*
X0300546Y0075789D01*
X0300248Y0075774D01*
X0299949Y0075767D01*
X0299651Y0075767D01*
X0299352Y0075774D01*
X0299054Y0075789D01*
X0298756Y0075811D01*
X0298458Y0075840D01*
X0298162Y0075876D01*
X0297866Y0075920D01*
X0297572Y0075971D01*
X0297279Y0076029D01*
X0296987Y0076094D01*
X0296697Y0076166D01*
X0296409Y0076245D01*
X0296123Y0076332D01*
X0295840Y0076425D01*
X0295558Y0076525D01*
X0295279Y0076632D01*
X0295003Y0076746D01*
X0294730Y0076866D01*
X0294459Y0076993D01*
X0294192Y0077127D01*
X0293928Y0077267D01*
X0293668Y0077414D01*
X0293411Y0077567D01*
X0293158Y0077726D01*
X0292910Y0077891D01*
X0292665Y0078062D01*
X0292424Y0078239D01*
X0292188Y0078422D01*
X0291956Y0078611D01*
X0291730Y0078805D01*
X0291507Y0079005D01*
X0291290Y0079210D01*
X0291078Y0079421D01*
X0290871Y0079636D01*
X0290670Y0079857D01*
X0290474Y0080082D01*
X0290283Y0080312D01*
X0290098Y0080547D01*
X0289919Y0080786D01*
X0289746Y0081030D01*
X0289579Y0081277D01*
X0289418Y0081529D01*
X0289263Y0081784D01*
X0289114Y0082043D01*
X0288972Y0082306D01*
X0288836Y0082572D01*
X0288707Y0082841D01*
X0288584Y0083114D01*
X0288468Y0083389D01*
X0288359Y0083667D01*
X0288257Y0083948D01*
X0288161Y0084231D01*
X0288196Y0084242D01*
X0288292Y0083960D01*
X0288394Y0083680D01*
X0288502Y0083403D01*
X0288618Y0083128D01*
X0288740Y0082857D01*
X0288869Y0082588D01*
X0289005Y0082323D01*
X0289146Y0082061D01*
X0289295Y0081803D01*
X0289449Y0081548D01*
X0289610Y0081297D01*
X0289776Y0081051D01*
X0289949Y0080808D01*
X0290128Y0080569D01*
X0290312Y0080336D01*
X0290502Y0080106D01*
X0290697Y0079881D01*
X0290898Y0079662D01*
X0291105Y0079447D01*
X0291316Y0079237D01*
X0291533Y0079032D01*
X0291754Y0078833D01*
X0291980Y0078640D01*
X0292211Y0078451D01*
X0292447Y0078269D01*
X0292686Y0078092D01*
X0292930Y0077922D01*
X0293179Y0077757D01*
X0293431Y0077598D01*
X0293686Y0077446D01*
X0293946Y0077300D01*
X0294209Y0077160D01*
X0294475Y0077027D01*
X0294745Y0076900D01*
X0295017Y0076780D01*
X0295293Y0076666D01*
X0295571Y0076560D01*
X0295852Y0076460D01*
X0296134Y0076367D01*
X0296420Y0076281D01*
X0296707Y0076202D01*
X0296996Y0076130D01*
X0297286Y0076065D01*
X0297579Y0076007D01*
X0297872Y0075956D01*
X0298167Y0075913D01*
X0298462Y0075877D01*
X0298759Y0075848D01*
X0299056Y0075826D01*
X0299353Y0075811D01*
X0299651Y0075804D01*
X0299949Y0075804D01*
X0300247Y0075811D01*
X0300544Y0075826D01*
X0300841Y0075848D01*
X0301138Y0075877D01*
X0301433Y0075913D01*
X0301728Y0075956D01*
X0302021Y0076007D01*
X0302314Y0076065D01*
X0302604Y0076130D01*
X0302893Y0076202D01*
X0303180Y0076281D01*
X0303466Y0076367D01*
X0303748Y0076460D01*
X0304029Y0076560D01*
X0304307Y0076666D01*
X0304583Y0076780D01*
X0304855Y0076900D01*
X0305125Y0077027D01*
X0305391Y0077160D01*
X0305654Y0077300D01*
X0305914Y0077446D01*
X0306169Y0077598D01*
X0306421Y0077757D01*
X0306670Y0077922D01*
X0306914Y0078092D01*
X0307153Y0078269D01*
X0307389Y0078451D01*
X0307620Y0078640D01*
X0307846Y0078833D01*
X0308067Y0079032D01*
X0308284Y0079237D01*
X0308495Y0079447D01*
X0308702Y0079662D01*
X0308903Y0079881D01*
X0309098Y0080106D01*
X0309288Y0080336D01*
X0309472Y0080569D01*
X0309651Y0080808D01*
X0309824Y0081051D01*
X0309990Y0081297D01*
X0310151Y0081548D01*
X0310305Y0081803D01*
X0310454Y0082061D01*
X0310595Y0082323D01*
X0310731Y0082588D01*
X0310860Y0082857D01*
X0310982Y0083128D01*
X0311098Y0083403D01*
X0311206Y0083680D01*
X0311308Y0083960D01*
X0311404Y0084242D01*
X0311368Y0084254D01*
X0311274Y0083972D01*
X0311172Y0083693D01*
X0311063Y0083417D01*
X0310948Y0083143D01*
X0310826Y0082872D01*
X0310698Y0082605D01*
X0310563Y0082340D01*
X0310421Y0082079D01*
X0310273Y0081822D01*
X0310119Y0081568D01*
X0309959Y0081318D01*
X0309793Y0081072D01*
X0309621Y0080830D01*
X0309443Y0080592D01*
X0309259Y0080359D01*
X0309070Y0080130D01*
X0308875Y0079906D01*
X0308675Y0079687D01*
X0308469Y0079473D01*
X0308258Y0079264D01*
X0308042Y0079060D01*
X0307822Y0078861D01*
X0307596Y0078668D01*
X0307366Y0078480D01*
X0307131Y0078298D01*
X0306892Y0078122D01*
X0306649Y0077952D01*
X0306401Y0077788D01*
X0306150Y0077630D01*
X0305895Y0077478D01*
X0305636Y0077332D01*
X0305374Y0077193D01*
X0305108Y0077060D01*
X0304840Y0076934D01*
X0304568Y0076814D01*
X0304293Y0076701D01*
X0304016Y0076594D01*
X0303736Y0076495D01*
X0303454Y0076402D01*
X0303170Y0076316D01*
X0302884Y0076238D01*
X0302596Y0076166D01*
X0302306Y0076101D01*
X0302015Y0076043D01*
X0301722Y0075993D01*
X0301428Y0075950D01*
X0301134Y0075913D01*
X0300838Y0075884D01*
X0300542Y0075863D01*
X0300245Y0075848D01*
X0299948Y0075841D01*
X0299652Y0075841D01*
X0299355Y0075848D01*
X0299058Y0075863D01*
X0298762Y0075884D01*
X0298466Y0075913D01*
X0298172Y0075950D01*
X0297878Y0075993D01*
X0297585Y0076043D01*
X0297294Y0076101D01*
X0297004Y0076166D01*
X0296716Y0076238D01*
X0296430Y0076316D01*
X0296146Y0076402D01*
X0295864Y0076495D01*
X0295584Y0076594D01*
X0295307Y0076701D01*
X0295032Y0076814D01*
X0294760Y0076934D01*
X0294492Y0077060D01*
X0294226Y0077193D01*
X0293964Y0077332D01*
X0293705Y0077478D01*
X0293450Y0077630D01*
X0293199Y0077788D01*
X0292951Y0077952D01*
X0292708Y0078122D01*
X0292469Y0078298D01*
X0292234Y0078480D01*
X0292004Y0078668D01*
X0291778Y0078861D01*
X0291558Y0079060D01*
X0291342Y0079264D01*
X0291131Y0079473D01*
X0290925Y0079687D01*
X0290725Y0079906D01*
X0290530Y0080130D01*
X0290341Y0080359D01*
X0290157Y0080592D01*
X0289979Y0080830D01*
X0289807Y0081072D01*
X0289641Y0081318D01*
X0289481Y0081568D01*
X0289327Y0081822D01*
X0289179Y0082079D01*
X0289037Y0082340D01*
X0288902Y0082605D01*
X0288774Y0082872D01*
X0288652Y0083143D01*
X0288537Y0083417D01*
X0288428Y0083693D01*
X0288326Y0083972D01*
X0288232Y0084254D01*
X0288267Y0084265D01*
X0288361Y0083984D01*
X0288463Y0083706D01*
X0288571Y0083431D01*
X0288686Y0083158D01*
X0288808Y0082888D01*
X0288936Y0082621D01*
X0289070Y0082357D01*
X0289211Y0082097D01*
X0289358Y0081840D01*
X0289512Y0081587D01*
X0289672Y0081338D01*
X0289837Y0081093D01*
X0290009Y0080851D01*
X0290186Y0080615D01*
X0290370Y0080382D01*
X0290558Y0080154D01*
X0290753Y0079931D01*
X0290952Y0079712D01*
X0291157Y0079499D01*
X0291368Y0079290D01*
X0291583Y0079087D01*
X0291803Y0078889D01*
X0292028Y0078696D01*
X0292257Y0078509D01*
X0292491Y0078328D01*
X0292730Y0078152D01*
X0292972Y0077983D01*
X0293219Y0077819D01*
X0293469Y0077661D01*
X0293724Y0077510D01*
X0293982Y0077365D01*
X0294243Y0077226D01*
X0294508Y0077093D01*
X0294776Y0076967D01*
X0295046Y0076848D01*
X0295320Y0076735D01*
X0295597Y0076629D01*
X0295876Y0076530D01*
X0296157Y0076437D01*
X0296440Y0076352D01*
X0296726Y0076273D01*
X0297013Y0076202D01*
X0297302Y0076137D01*
X0297592Y0076080D01*
X0297884Y0076029D01*
X0298177Y0075986D01*
X0298471Y0075950D01*
X0298765Y0075921D01*
X0299060Y0075900D01*
X0299356Y0075885D01*
X0299652Y0075878D01*
X0299948Y0075878D01*
X0300244Y0075885D01*
X0300540Y0075900D01*
X0300835Y0075921D01*
X0301129Y0075950D01*
X0301423Y0075986D01*
X0301716Y0076029D01*
X0302008Y0076080D01*
X0302298Y0076137D01*
X0302587Y0076202D01*
X0302874Y0076273D01*
X0303160Y0076352D01*
X0303443Y0076437D01*
X0303724Y0076530D01*
X0304003Y0076629D01*
X0304280Y0076735D01*
X0304554Y0076848D01*
X0304824Y0076967D01*
X0305092Y0077093D01*
X0305357Y0077226D01*
X0305618Y0077365D01*
X0305876Y0077510D01*
X0306131Y0077661D01*
X0306381Y0077819D01*
X0306628Y0077983D01*
X0306870Y0078152D01*
X0307109Y0078328D01*
X0307343Y0078509D01*
X0307572Y0078696D01*
X0307797Y0078889D01*
X0308017Y0079087D01*
X0308232Y0079290D01*
X0308443Y0079499D01*
X0308648Y0079712D01*
X0308847Y0079931D01*
X0309042Y0080154D01*
X0309230Y0080382D01*
X0309414Y0080615D01*
X0309591Y0080851D01*
X0309763Y0081093D01*
X0309928Y0081338D01*
X0310088Y0081587D01*
X0310242Y0081840D01*
X0310389Y0082097D01*
X0310530Y0082357D01*
X0310664Y0082621D01*
X0310792Y0082888D01*
X0310914Y0083158D01*
X0311029Y0083431D01*
X0311137Y0083706D01*
X0311239Y0083984D01*
X0311333Y0084265D01*
X0311298Y0084276D01*
X0311204Y0083997D01*
X0311103Y0083719D01*
X0310995Y0083445D01*
X0310880Y0083173D01*
X0310759Y0082904D01*
X0310631Y0082638D01*
X0310497Y0082375D01*
X0310356Y0082115D01*
X0310210Y0081859D01*
X0310057Y0081607D01*
X0309897Y0081358D01*
X0309732Y0081114D01*
X0309561Y0080873D01*
X0309384Y0080637D01*
X0309202Y0080405D01*
X0309013Y0080178D01*
X0308820Y0079955D01*
X0308621Y0079737D01*
X0308416Y0079525D01*
X0308207Y0079317D01*
X0307992Y0079114D01*
X0307773Y0078917D01*
X0307549Y0078725D01*
X0307320Y0078538D01*
X0307086Y0078357D01*
X0306849Y0078182D01*
X0306607Y0078013D01*
X0306361Y0077850D01*
X0306111Y0077693D01*
X0305858Y0077542D01*
X0305601Y0077397D01*
X0305340Y0077259D01*
X0305076Y0077126D01*
X0304809Y0077001D01*
X0304539Y0076882D01*
X0304266Y0076769D01*
X0303991Y0076664D01*
X0303713Y0076565D01*
X0303432Y0076473D01*
X0303150Y0076387D01*
X0302865Y0076309D01*
X0302579Y0076238D01*
X0302291Y0076173D01*
X0302001Y0076116D01*
X0301710Y0076066D01*
X0301418Y0076023D01*
X0301125Y0075987D01*
X0300832Y0075958D01*
X0300537Y0075937D01*
X0300243Y0075922D01*
X0299948Y0075915D01*
X0299652Y0075915D01*
X0299357Y0075922D01*
X0299063Y0075937D01*
X0298768Y0075958D01*
X0298475Y0075987D01*
X0298182Y0076023D01*
X0297890Y0076066D01*
X0297599Y0076116D01*
X0297309Y0076173D01*
X0297021Y0076238D01*
X0296735Y0076309D01*
X0296450Y0076387D01*
X0296168Y0076473D01*
X0295887Y0076565D01*
X0295609Y0076664D01*
X0295334Y0076769D01*
X0295061Y0076882D01*
X0294791Y0077001D01*
X0294524Y0077126D01*
X0294260Y0077259D01*
X0293999Y0077397D01*
X0293742Y0077542D01*
X0293489Y0077693D01*
X0293239Y0077850D01*
X0292993Y0078013D01*
X0292751Y0078182D01*
X0292514Y0078357D01*
X0292280Y0078538D01*
X0292051Y0078725D01*
X0291827Y0078917D01*
X0291608Y0079114D01*
X0291393Y0079317D01*
X0291184Y0079525D01*
X0290979Y0079737D01*
X0290780Y0079955D01*
X0290587Y0080178D01*
X0290398Y0080405D01*
X0290216Y0080637D01*
X0290039Y0080873D01*
X0289868Y0081114D01*
X0289703Y0081358D01*
X0289543Y0081607D01*
X0289390Y0081859D01*
X0289244Y0082115D01*
X0289103Y0082375D01*
X0288969Y0082638D01*
X0288841Y0082904D01*
X0288720Y0083173D01*
X0288605Y0083445D01*
X0288497Y0083719D01*
X0288396Y0083997D01*
X0288302Y0084276D01*
X0288337Y0084288D01*
X0288431Y0084009D01*
X0288532Y0083732D01*
X0288640Y0083459D01*
X0288754Y0083187D01*
X0288875Y0082919D01*
X0289002Y0082654D01*
X0289136Y0082392D01*
X0289276Y0082133D01*
X0289422Y0081878D01*
X0289575Y0081626D01*
X0289733Y0081379D01*
X0289898Y0081135D01*
X0290069Y0080895D01*
X0290245Y0080660D01*
X0290427Y0080428D01*
X0290615Y0080202D01*
X0290808Y0079980D01*
X0291007Y0079763D01*
X0291210Y0079550D01*
X0291419Y0079343D01*
X0291633Y0079141D01*
X0291852Y0078944D01*
X0292075Y0078753D01*
X0292303Y0078567D01*
X0292536Y0078387D01*
X0292773Y0078212D01*
X0293014Y0078044D01*
X0293259Y0077881D01*
X0293508Y0077724D01*
X0293761Y0077574D01*
X0294017Y0077429D01*
X0294277Y0077291D01*
X0294540Y0077160D01*
X0294806Y0077035D01*
X0295076Y0076916D01*
X0295348Y0076804D01*
X0295622Y0076698D01*
X0295899Y0076600D01*
X0296179Y0076508D01*
X0296461Y0076423D01*
X0296744Y0076345D01*
X0297030Y0076274D01*
X0297317Y0076210D01*
X0297606Y0076153D01*
X0297896Y0076102D01*
X0298187Y0076060D01*
X0298479Y0076024D01*
X0298771Y0075995D01*
X0299065Y0075973D01*
X0299359Y0075959D01*
X0299653Y0075952D01*
X0299947Y0075952D01*
X0300241Y0075959D01*
X0300535Y0075973D01*
X0300829Y0075995D01*
X0301121Y0076024D01*
X0301413Y0076060D01*
X0301704Y0076102D01*
X0301994Y0076153D01*
X0302283Y0076210D01*
X0302570Y0076274D01*
X0302856Y0076345D01*
X0303139Y0076423D01*
X0303421Y0076508D01*
X0303701Y0076600D01*
X0303978Y0076698D01*
X0304252Y0076804D01*
X0304524Y0076916D01*
X0304794Y0077035D01*
X0305060Y0077160D01*
X0305323Y0077291D01*
X0305583Y0077429D01*
X0305839Y0077574D01*
X0306092Y0077724D01*
X0306341Y0077881D01*
X0306586Y0078044D01*
X0306827Y0078212D01*
X0307064Y0078387D01*
X0307297Y0078567D01*
X0307525Y0078753D01*
X0307748Y0078944D01*
X0307967Y0079141D01*
X0308181Y0079343D01*
X0308390Y0079550D01*
X0308593Y0079763D01*
X0308792Y0079980D01*
X0308985Y0080202D01*
X0309173Y0080428D01*
X0309355Y0080660D01*
X0309531Y0080895D01*
X0309702Y0081135D01*
X0309867Y0081379D01*
X0310025Y0081626D01*
X0310178Y0081878D01*
X0310324Y0082133D01*
X0310464Y0082392D01*
X0310598Y0082654D01*
X0310725Y0082919D01*
X0310846Y0083187D01*
X0310960Y0083459D01*
X0311068Y0083732D01*
X0311169Y0084009D01*
X0311263Y0084288D01*
X0311579Y0091814D02*
X0311237Y0091704D01*
X0311143Y0091982D01*
X0311043Y0092258D01*
X0310935Y0092531D01*
X0310821Y0092802D01*
X0310701Y0093070D01*
X0310574Y0093334D01*
X0310440Y0093596D01*
X0310301Y0093854D01*
X0310154Y0094108D01*
X0310002Y0094359D01*
X0309844Y0094607D01*
X0309680Y0094850D01*
X0309509Y0095089D01*
X0309333Y0095324D01*
X0309152Y0095555D01*
X0308965Y0095781D01*
X0308772Y0096002D01*
X0308574Y0096219D01*
X0308370Y0096431D01*
X0308162Y0096637D01*
X0307949Y0096839D01*
X0307730Y0097035D01*
X0307507Y0097226D01*
X0307280Y0097412D01*
X0307048Y0097592D01*
X0306811Y0097766D01*
X0306571Y0097934D01*
X0306326Y0098096D01*
X0306078Y0098253D01*
X0305826Y0098403D01*
X0305570Y0098547D01*
X0305311Y0098685D01*
X0305048Y0098816D01*
X0304782Y0098941D01*
X0304514Y0099059D01*
X0304242Y0099171D01*
X0303968Y0099276D01*
X0303692Y0099375D01*
X0303413Y0099466D01*
X0303132Y0099551D01*
X0302849Y0099629D01*
X0302564Y0099700D01*
X0302277Y0099764D01*
X0301989Y0099821D01*
X0301700Y0099871D01*
X0301410Y0099914D01*
X0301118Y0099949D01*
X0300826Y0099978D01*
X0300533Y0100000D01*
X0300240Y0100014D01*
X0299947Y0100021D01*
X0299653Y0100021D01*
X0299360Y0100014D01*
X0299067Y0100000D01*
X0298774Y0099978D01*
X0298482Y0099949D01*
X0298190Y0099914D01*
X0297900Y0099871D01*
X0297611Y0099821D01*
X0297323Y0099764D01*
X0297036Y0099700D01*
X0296751Y0099629D01*
X0296468Y0099551D01*
X0296187Y0099466D01*
X0295908Y0099375D01*
X0295632Y0099276D01*
X0295358Y0099171D01*
X0295086Y0099059D01*
X0294818Y0098941D01*
X0294552Y0098816D01*
X0294289Y0098685D01*
X0294030Y0098547D01*
X0293774Y0098403D01*
X0293522Y0098253D01*
X0293274Y0098096D01*
X0293029Y0097934D01*
X0292789Y0097766D01*
X0292552Y0097592D01*
X0292320Y0097412D01*
X0292093Y0097226D01*
X0291870Y0097035D01*
X0291651Y0096839D01*
X0291438Y0096637D01*
X0291230Y0096431D01*
X0291026Y0096219D01*
X0290828Y0096002D01*
X0290635Y0095781D01*
X0290448Y0095555D01*
X0290267Y0095324D01*
X0290091Y0095089D01*
X0289920Y0094850D01*
X0289756Y0094607D01*
X0289598Y0094359D01*
X0289446Y0094108D01*
X0289299Y0093854D01*
X0289160Y0093596D01*
X0289026Y0093334D01*
X0288899Y0093070D01*
X0288779Y0092802D01*
X0288665Y0092531D01*
X0288557Y0092258D01*
X0288457Y0091982D01*
X0288363Y0091704D01*
X0288021Y0091814D01*
X0288020Y0091815D01*
X0288117Y0092101D01*
X0288220Y0092385D01*
X0288331Y0092666D01*
X0288448Y0092945D01*
X0288573Y0093221D01*
X0288703Y0093493D01*
X0288841Y0093763D01*
X0288985Y0094029D01*
X0289135Y0094291D01*
X0289292Y0094549D01*
X0289455Y0094804D01*
X0289624Y0095055D01*
X0289800Y0095301D01*
X0289981Y0095543D01*
X0290168Y0095781D01*
X0290361Y0096013D01*
X0290559Y0096242D01*
X0290763Y0096465D01*
X0290973Y0096683D01*
X0291187Y0096896D01*
X0291407Y0097103D01*
X0291632Y0097306D01*
X0291862Y0097502D01*
X0292096Y0097693D01*
X0292335Y0097879D01*
X0292578Y0098058D01*
X0292826Y0098231D01*
X0293078Y0098398D01*
X0293334Y0098560D01*
X0293594Y0098714D01*
X0293857Y0098863D01*
X0294124Y0099004D01*
X0294395Y0099140D01*
X0294668Y0099268D01*
X0294945Y0099390D01*
X0295224Y0099506D01*
X0295507Y0099614D01*
X0295792Y0099715D01*
X0296079Y0099810D01*
X0296368Y0099897D01*
X0296660Y0099977D01*
X0296953Y0100050D01*
X0297248Y0100116D01*
X0297545Y0100175D01*
X0297843Y0100226D01*
X0298142Y0100270D01*
X0298442Y0100307D01*
X0298743Y0100337D01*
X0299045Y0100359D01*
X0299347Y0100374D01*
X0299649Y0100381D01*
X0299951Y0100381D01*
X0300253Y0100374D01*
X0300555Y0100359D01*
X0300857Y0100337D01*
X0301158Y0100307D01*
X0301458Y0100270D01*
X0301757Y0100226D01*
X0302055Y0100175D01*
X0302352Y0100116D01*
X0302647Y0100050D01*
X0302940Y0099977D01*
X0303232Y0099897D01*
X0303521Y0099810D01*
X0303808Y0099715D01*
X0304093Y0099614D01*
X0304376Y0099506D01*
X0304655Y0099390D01*
X0304932Y0099268D01*
X0305205Y0099140D01*
X0305476Y0099004D01*
X0305743Y0098863D01*
X0306006Y0098714D01*
X0306266Y0098560D01*
X0306522Y0098398D01*
X0306774Y0098231D01*
X0307022Y0098058D01*
X0307265Y0097879D01*
X0307504Y0097693D01*
X0307738Y0097502D01*
X0307968Y0097306D01*
X0308193Y0097103D01*
X0308413Y0096896D01*
X0308627Y0096683D01*
X0308837Y0096465D01*
X0309041Y0096242D01*
X0309239Y0096013D01*
X0309432Y0095781D01*
X0309619Y0095543D01*
X0309800Y0095301D01*
X0309976Y0095055D01*
X0310145Y0094804D01*
X0310308Y0094549D01*
X0310465Y0094291D01*
X0310615Y0094029D01*
X0310759Y0093763D01*
X0310897Y0093493D01*
X0311027Y0093221D01*
X0311152Y0092945D01*
X0311269Y0092666D01*
X0311380Y0092385D01*
X0311483Y0092101D01*
X0311580Y0091815D01*
X0311545Y0091803D01*
X0311448Y0092089D01*
X0311345Y0092372D01*
X0311235Y0092653D01*
X0311118Y0092930D01*
X0310994Y0093205D01*
X0310863Y0093477D01*
X0310726Y0093746D01*
X0310583Y0094011D01*
X0310433Y0094272D01*
X0310277Y0094530D01*
X0310114Y0094784D01*
X0309945Y0095034D01*
X0309771Y0095279D01*
X0309590Y0095521D01*
X0309403Y0095757D01*
X0309211Y0095990D01*
X0309013Y0096217D01*
X0308810Y0096439D01*
X0308601Y0096657D01*
X0308387Y0096869D01*
X0308168Y0097076D01*
X0307944Y0097278D01*
X0307715Y0097474D01*
X0307481Y0097664D01*
X0307243Y0097849D01*
X0307000Y0098028D01*
X0306753Y0098201D01*
X0306502Y0098367D01*
X0306247Y0098528D01*
X0305988Y0098682D01*
X0305725Y0098830D01*
X0305459Y0098972D01*
X0305189Y0099106D01*
X0304917Y0099235D01*
X0304641Y0099356D01*
X0304362Y0099471D01*
X0304080Y0099579D01*
X0303796Y0099680D01*
X0303510Y0099774D01*
X0303221Y0099861D01*
X0302931Y0099941D01*
X0302638Y0100014D01*
X0302344Y0100080D01*
X0302048Y0100139D01*
X0301751Y0100190D01*
X0301453Y0100234D01*
X0301154Y0100271D01*
X0300854Y0100300D01*
X0300553Y0100322D01*
X0300252Y0100337D01*
X0299951Y0100344D01*
X0299649Y0100344D01*
X0299348Y0100337D01*
X0299047Y0100322D01*
X0298746Y0100300D01*
X0298446Y0100271D01*
X0298147Y0100234D01*
X0297849Y0100190D01*
X0297552Y0100139D01*
X0297256Y0100080D01*
X0296962Y0100014D01*
X0296669Y0099941D01*
X0296379Y0099861D01*
X0296090Y0099774D01*
X0295804Y0099680D01*
X0295520Y0099579D01*
X0295238Y0099471D01*
X0294959Y0099356D01*
X0294683Y0099235D01*
X0294411Y0099106D01*
X0294141Y0098972D01*
X0293875Y0098830D01*
X0293612Y0098682D01*
X0293353Y0098528D01*
X0293098Y0098367D01*
X0292847Y0098201D01*
X0292600Y0098028D01*
X0292357Y0097849D01*
X0292119Y0097664D01*
X0291885Y0097474D01*
X0291656Y0097278D01*
X0291432Y0097076D01*
X0291213Y0096869D01*
X0290999Y0096657D01*
X0290790Y0096439D01*
X0290587Y0096217D01*
X0290389Y0095990D01*
X0290197Y0095757D01*
X0290010Y0095521D01*
X0289829Y0095279D01*
X0289655Y0095034D01*
X0289486Y0094784D01*
X0289323Y0094530D01*
X0289167Y0094272D01*
X0289017Y0094011D01*
X0288874Y0093746D01*
X0288737Y0093477D01*
X0288606Y0093205D01*
X0288482Y0092930D01*
X0288365Y0092653D01*
X0288255Y0092372D01*
X0288152Y0092089D01*
X0288055Y0091803D01*
X0288091Y0091792D01*
X0288187Y0092077D01*
X0288290Y0092359D01*
X0288400Y0092639D01*
X0288516Y0092916D01*
X0288640Y0093190D01*
X0288770Y0093461D01*
X0288906Y0093728D01*
X0289049Y0093993D01*
X0289199Y0094253D01*
X0289355Y0094510D01*
X0289517Y0094764D01*
X0289685Y0095013D01*
X0289859Y0095257D01*
X0290040Y0095498D01*
X0290226Y0095734D01*
X0290417Y0095966D01*
X0290615Y0096192D01*
X0290817Y0096414D01*
X0291025Y0096631D01*
X0291239Y0096843D01*
X0291457Y0097049D01*
X0291681Y0097250D01*
X0291909Y0097446D01*
X0292142Y0097635D01*
X0292380Y0097820D01*
X0292622Y0097998D01*
X0292868Y0098170D01*
X0293118Y0098336D01*
X0293373Y0098496D01*
X0293631Y0098650D01*
X0293893Y0098798D01*
X0294158Y0098939D01*
X0294427Y0099073D01*
X0294699Y0099201D01*
X0294974Y0099322D01*
X0295252Y0099437D01*
X0295532Y0099544D01*
X0295816Y0099645D01*
X0296101Y0099739D01*
X0296389Y0099826D01*
X0296679Y0099906D01*
X0296970Y0099978D01*
X0297264Y0100044D01*
X0297558Y0100102D01*
X0297855Y0100153D01*
X0298152Y0100197D01*
X0298450Y0100234D01*
X0298749Y0100263D01*
X0299049Y0100285D01*
X0299349Y0100300D01*
X0299650Y0100307D01*
X0299950Y0100307D01*
X0300251Y0100300D01*
X0300551Y0100285D01*
X0300851Y0100263D01*
X0301150Y0100234D01*
X0301448Y0100197D01*
X0301745Y0100153D01*
X0302042Y0100102D01*
X0302336Y0100044D01*
X0302630Y0099978D01*
X0302921Y0099906D01*
X0303211Y0099826D01*
X0303499Y0099739D01*
X0303784Y0099645D01*
X0304068Y0099544D01*
X0304348Y0099437D01*
X0304626Y0099322D01*
X0304901Y0099201D01*
X0305173Y0099073D01*
X0305442Y0098939D01*
X0305707Y0098798D01*
X0305969Y0098650D01*
X0306227Y0098496D01*
X0306482Y0098336D01*
X0306732Y0098170D01*
X0306978Y0097998D01*
X0307220Y0097820D01*
X0307458Y0097635D01*
X0307691Y0097446D01*
X0307919Y0097250D01*
X0308143Y0097049D01*
X0308361Y0096843D01*
X0308575Y0096631D01*
X0308783Y0096414D01*
X0308985Y0096192D01*
X0309183Y0095966D01*
X0309374Y0095734D01*
X0309560Y0095498D01*
X0309741Y0095257D01*
X0309915Y0095013D01*
X0310083Y0094764D01*
X0310245Y0094510D01*
X0310401Y0094253D01*
X0310551Y0093993D01*
X0310694Y0093728D01*
X0310830Y0093461D01*
X0310960Y0093190D01*
X0311084Y0092916D01*
X0311200Y0092639D01*
X0311310Y0092359D01*
X0311413Y0092077D01*
X0311509Y0091792D01*
X0311474Y0091780D01*
X0311378Y0092064D01*
X0311276Y0092346D01*
X0311166Y0092625D01*
X0311050Y0092901D01*
X0310927Y0093174D01*
X0310797Y0093444D01*
X0310661Y0093711D01*
X0310518Y0093975D01*
X0310369Y0094235D01*
X0310214Y0094491D01*
X0310052Y0094743D01*
X0309884Y0094992D01*
X0309711Y0095236D01*
X0309531Y0095476D01*
X0309346Y0095711D01*
X0309155Y0095942D01*
X0308958Y0096168D01*
X0308756Y0096389D01*
X0308548Y0096605D01*
X0308335Y0096816D01*
X0308118Y0097022D01*
X0307895Y0097222D01*
X0307667Y0097417D01*
X0307435Y0097606D01*
X0307198Y0097790D01*
X0306957Y0097968D01*
X0306711Y0098140D01*
X0306462Y0098305D01*
X0306208Y0098465D01*
X0305951Y0098618D01*
X0305690Y0098765D01*
X0305425Y0098906D01*
X0305157Y0099040D01*
X0304886Y0099167D01*
X0304612Y0099288D01*
X0304335Y0099402D01*
X0304055Y0099510D01*
X0303772Y0099610D01*
X0303488Y0099704D01*
X0303201Y0099790D01*
X0302912Y0099870D01*
X0302621Y0099942D01*
X0302329Y0100008D01*
X0302035Y0100066D01*
X0301740Y0100117D01*
X0301443Y0100160D01*
X0301146Y0100197D01*
X0300848Y0100226D01*
X0300549Y0100248D01*
X0300249Y0100263D01*
X0299950Y0100270D01*
X0299650Y0100270D01*
X0299351Y0100263D01*
X0299051Y0100248D01*
X0298752Y0100226D01*
X0298454Y0100197D01*
X0298157Y0100160D01*
X0297860Y0100117D01*
X0297565Y0100066D01*
X0297271Y0100008D01*
X0296979Y0099942D01*
X0296688Y0099870D01*
X0296399Y0099790D01*
X0296112Y0099704D01*
X0295828Y0099610D01*
X0295545Y0099510D01*
X0295265Y0099402D01*
X0294988Y0099288D01*
X0294714Y0099167D01*
X0294443Y0099040D01*
X0294175Y0098906D01*
X0293910Y0098765D01*
X0293649Y0098618D01*
X0293392Y0098465D01*
X0293138Y0098305D01*
X0292889Y0098140D01*
X0292643Y0097968D01*
X0292402Y0097790D01*
X0292165Y0097606D01*
X0291933Y0097417D01*
X0291705Y0097222D01*
X0291482Y0097022D01*
X0291265Y0096816D01*
X0291052Y0096605D01*
X0290844Y0096389D01*
X0290642Y0096168D01*
X0290445Y0095942D01*
X0290254Y0095711D01*
X0290069Y0095476D01*
X0289889Y0095236D01*
X0289716Y0094992D01*
X0289548Y0094743D01*
X0289386Y0094491D01*
X0289231Y0094235D01*
X0289082Y0093975D01*
X0288939Y0093711D01*
X0288803Y0093444D01*
X0288673Y0093174D01*
X0288550Y0092901D01*
X0288434Y0092625D01*
X0288324Y0092346D01*
X0288222Y0092064D01*
X0288126Y0091780D01*
X0288161Y0091769D01*
X0288257Y0092052D01*
X0288359Y0092333D01*
X0288468Y0092611D01*
X0288584Y0092886D01*
X0288707Y0093159D01*
X0288836Y0093428D01*
X0288972Y0093694D01*
X0289114Y0093957D01*
X0289263Y0094216D01*
X0289418Y0094471D01*
X0289579Y0094723D01*
X0289746Y0094970D01*
X0289919Y0095214D01*
X0290098Y0095453D01*
X0290283Y0095688D01*
X0290474Y0095918D01*
X0290670Y0096143D01*
X0290871Y0096364D01*
X0291078Y0096579D01*
X0291290Y0096790D01*
X0291507Y0096995D01*
X0291730Y0097195D01*
X0291956Y0097389D01*
X0292188Y0097578D01*
X0292424Y0097761D01*
X0292665Y0097938D01*
X0292910Y0098109D01*
X0293158Y0098274D01*
X0293411Y0098433D01*
X0293668Y0098586D01*
X0293928Y0098733D01*
X0294192Y0098873D01*
X0294459Y0099007D01*
X0294730Y0099134D01*
X0295003Y0099254D01*
X0295279Y0099368D01*
X0295558Y0099475D01*
X0295840Y0099575D01*
X0296123Y0099668D01*
X0296409Y0099755D01*
X0296697Y0099834D01*
X0296987Y0099906D01*
X0297279Y0099971D01*
X0297572Y0100029D01*
X0297866Y0100080D01*
X0298162Y0100124D01*
X0298458Y0100160D01*
X0298756Y0100189D01*
X0299054Y0100211D01*
X0299352Y0100226D01*
X0299651Y0100233D01*
X0299949Y0100233D01*
X0300248Y0100226D01*
X0300546Y0100211D01*
X0300844Y0100189D01*
X0301142Y0100160D01*
X0301438Y0100124D01*
X0301734Y0100080D01*
X0302028Y0100029D01*
X0302321Y0099971D01*
X0302613Y0099906D01*
X0302903Y0099834D01*
X0303191Y0099755D01*
X0303477Y0099668D01*
X0303760Y0099575D01*
X0304042Y0099475D01*
X0304321Y0099368D01*
X0304597Y0099254D01*
X0304870Y0099134D01*
X0305141Y0099007D01*
X0305408Y0098873D01*
X0305672Y0098733D01*
X0305932Y0098586D01*
X0306189Y0098433D01*
X0306442Y0098274D01*
X0306690Y0098109D01*
X0306935Y0097938D01*
X0307176Y0097761D01*
X0307412Y0097578D01*
X0307644Y0097389D01*
X0307870Y0097195D01*
X0308093Y0096995D01*
X0308310Y0096790D01*
X0308522Y0096579D01*
X0308729Y0096364D01*
X0308930Y0096143D01*
X0309126Y0095918D01*
X0309317Y0095688D01*
X0309502Y0095453D01*
X0309681Y0095214D01*
X0309854Y0094970D01*
X0310021Y0094723D01*
X0310182Y0094471D01*
X0310337Y0094216D01*
X0310486Y0093957D01*
X0310628Y0093694D01*
X0310764Y0093428D01*
X0310893Y0093159D01*
X0311016Y0092886D01*
X0311132Y0092611D01*
X0311241Y0092333D01*
X0311343Y0092052D01*
X0311439Y0091769D01*
X0311404Y0091758D01*
X0311308Y0092040D01*
X0311206Y0092320D01*
X0311098Y0092597D01*
X0310982Y0092872D01*
X0310860Y0093143D01*
X0310731Y0093412D01*
X0310595Y0093677D01*
X0310454Y0093939D01*
X0310305Y0094197D01*
X0310151Y0094452D01*
X0309990Y0094703D01*
X0309824Y0094949D01*
X0309651Y0095192D01*
X0309472Y0095431D01*
X0309288Y0095664D01*
X0309098Y0095894D01*
X0308903Y0096119D01*
X0308702Y0096338D01*
X0308495Y0096553D01*
X0308284Y0096763D01*
X0308067Y0096968D01*
X0307846Y0097167D01*
X0307620Y0097360D01*
X0307389Y0097549D01*
X0307153Y0097731D01*
X0306914Y0097908D01*
X0306670Y0098078D01*
X0306421Y0098243D01*
X0306169Y0098402D01*
X0305914Y0098554D01*
X0305654Y0098700D01*
X0305391Y0098840D01*
X0305125Y0098973D01*
X0304855Y0099100D01*
X0304583Y0099220D01*
X0304307Y0099334D01*
X0304029Y0099440D01*
X0303748Y0099540D01*
X0303466Y0099633D01*
X0303180Y0099719D01*
X0302893Y0099798D01*
X0302604Y0099870D01*
X0302314Y0099935D01*
X0302021Y0099993D01*
X0301728Y0100044D01*
X0301433Y0100087D01*
X0301138Y0100123D01*
X0300841Y0100152D01*
X0300544Y0100174D01*
X0300247Y0100189D01*
X0299949Y0100196D01*
X0299651Y0100196D01*
X0299353Y0100189D01*
X0299056Y0100174D01*
X0298759Y0100152D01*
X0298462Y0100123D01*
X0298167Y0100087D01*
X0297872Y0100044D01*
X0297579Y0099993D01*
X0297286Y0099935D01*
X0296996Y0099870D01*
X0296707Y0099798D01*
X0296420Y0099719D01*
X0296134Y0099633D01*
X0295852Y0099540D01*
X0295571Y0099440D01*
X0295293Y0099334D01*
X0295017Y0099220D01*
X0294745Y0099100D01*
X0294475Y0098973D01*
X0294209Y0098840D01*
X0293946Y0098700D01*
X0293686Y0098554D01*
X0293431Y0098402D01*
X0293179Y0098243D01*
X0292930Y0098078D01*
X0292686Y0097908D01*
X0292447Y0097731D01*
X0292211Y0097549D01*
X0291980Y0097360D01*
X0291754Y0097167D01*
X0291533Y0096968D01*
X0291316Y0096763D01*
X0291105Y0096553D01*
X0290898Y0096338D01*
X0290697Y0096119D01*
X0290502Y0095894D01*
X0290312Y0095664D01*
X0290128Y0095431D01*
X0289949Y0095192D01*
X0289776Y0094949D01*
X0289610Y0094703D01*
X0289449Y0094452D01*
X0289295Y0094197D01*
X0289146Y0093939D01*
X0289005Y0093677D01*
X0288869Y0093412D01*
X0288740Y0093143D01*
X0288618Y0092872D01*
X0288502Y0092597D01*
X0288394Y0092320D01*
X0288292Y0092040D01*
X0288196Y0091758D01*
X0288232Y0091746D01*
X0288326Y0092028D01*
X0288428Y0092307D01*
X0288537Y0092583D01*
X0288652Y0092857D01*
X0288774Y0093128D01*
X0288902Y0093395D01*
X0289037Y0093660D01*
X0289179Y0093921D01*
X0289327Y0094178D01*
X0289481Y0094432D01*
X0289641Y0094682D01*
X0289807Y0094928D01*
X0289979Y0095170D01*
X0290157Y0095408D01*
X0290341Y0095641D01*
X0290530Y0095870D01*
X0290725Y0096094D01*
X0290925Y0096313D01*
X0291131Y0096527D01*
X0291342Y0096736D01*
X0291558Y0096940D01*
X0291778Y0097139D01*
X0292004Y0097332D01*
X0292234Y0097520D01*
X0292469Y0097702D01*
X0292708Y0097878D01*
X0292951Y0098048D01*
X0293199Y0098212D01*
X0293450Y0098370D01*
X0293705Y0098522D01*
X0293964Y0098668D01*
X0294226Y0098807D01*
X0294492Y0098940D01*
X0294760Y0099066D01*
X0295032Y0099186D01*
X0295307Y0099299D01*
X0295584Y0099406D01*
X0295864Y0099505D01*
X0296146Y0099598D01*
X0296430Y0099684D01*
X0296716Y0099762D01*
X0297004Y0099834D01*
X0297294Y0099899D01*
X0297585Y0099957D01*
X0297878Y0100007D01*
X0298172Y0100050D01*
X0298466Y0100087D01*
X0298762Y0100116D01*
X0299058Y0100137D01*
X0299355Y0100152D01*
X0299652Y0100159D01*
X0299948Y0100159D01*
X0300245Y0100152D01*
X0300542Y0100137D01*
X0300838Y0100116D01*
X0301134Y0100087D01*
X0301428Y0100050D01*
X0301722Y0100007D01*
X0302015Y0099957D01*
X0302306Y0099899D01*
X0302596Y0099834D01*
X0302884Y0099762D01*
X0303170Y0099684D01*
X0303454Y0099598D01*
X0303736Y0099505D01*
X0304016Y0099406D01*
X0304293Y0099299D01*
X0304568Y0099186D01*
X0304840Y0099066D01*
X0305108Y0098940D01*
X0305374Y0098807D01*
X0305636Y0098668D01*
X0305895Y0098522D01*
X0306150Y0098370D01*
X0306401Y0098212D01*
X0306649Y0098048D01*
X0306892Y0097878D01*
X0307131Y0097702D01*
X0307366Y0097520D01*
X0307596Y0097332D01*
X0307822Y0097139D01*
X0308042Y0096940D01*
X0308258Y0096736D01*
X0308469Y0096527D01*
X0308675Y0096313D01*
X0308875Y0096094D01*
X0309070Y0095870D01*
X0309259Y0095641D01*
X0309443Y0095408D01*
X0309621Y0095170D01*
X0309793Y0094928D01*
X0309959Y0094682D01*
X0310119Y0094432D01*
X0310273Y0094178D01*
X0310421Y0093921D01*
X0310563Y0093660D01*
X0310698Y0093395D01*
X0310826Y0093128D01*
X0310948Y0092857D01*
X0311063Y0092583D01*
X0311172Y0092307D01*
X0311274Y0092028D01*
X0311368Y0091746D01*
X0311333Y0091735D01*
X0311239Y0092016D01*
X0311137Y0092294D01*
X0311029Y0092569D01*
X0310914Y0092842D01*
X0310792Y0093112D01*
X0310664Y0093379D01*
X0310530Y0093643D01*
X0310389Y0093903D01*
X0310242Y0094160D01*
X0310088Y0094413D01*
X0309928Y0094662D01*
X0309763Y0094907D01*
X0309591Y0095149D01*
X0309414Y0095385D01*
X0309230Y0095618D01*
X0309042Y0095846D01*
X0308847Y0096069D01*
X0308648Y0096288D01*
X0308443Y0096501D01*
X0308232Y0096710D01*
X0308017Y0096913D01*
X0307797Y0097111D01*
X0307572Y0097304D01*
X0307343Y0097491D01*
X0307109Y0097672D01*
X0306870Y0097848D01*
X0306628Y0098017D01*
X0306381Y0098181D01*
X0306131Y0098339D01*
X0305876Y0098490D01*
X0305618Y0098635D01*
X0305357Y0098774D01*
X0305092Y0098907D01*
X0304824Y0099033D01*
X0304554Y0099152D01*
X0304280Y0099265D01*
X0304003Y0099371D01*
X0303724Y0099470D01*
X0303443Y0099563D01*
X0303160Y0099648D01*
X0302874Y0099727D01*
X0302587Y0099798D01*
X0302298Y0099863D01*
X0302008Y0099920D01*
X0301716Y0099971D01*
X0301423Y0100014D01*
X0301129Y0100050D01*
X0300835Y0100079D01*
X0300540Y0100100D01*
X0300244Y0100115D01*
X0299948Y0100122D01*
X0299652Y0100122D01*
X0299356Y0100115D01*
X0299060Y0100100D01*
X0298765Y0100079D01*
X0298471Y0100050D01*
X0298177Y0100014D01*
X0297884Y0099971D01*
X0297592Y0099920D01*
X0297302Y0099863D01*
X0297013Y0099798D01*
X0296726Y0099727D01*
X0296440Y0099648D01*
X0296157Y0099563D01*
X0295876Y0099470D01*
X0295597Y0099371D01*
X0295320Y0099265D01*
X0295046Y0099152D01*
X0294776Y0099033D01*
X0294508Y0098907D01*
X0294243Y0098774D01*
X0293982Y0098635D01*
X0293724Y0098490D01*
X0293469Y0098339D01*
X0293219Y0098181D01*
X0292972Y0098017D01*
X0292730Y0097848D01*
X0292491Y0097672D01*
X0292257Y0097491D01*
X0292028Y0097304D01*
X0291803Y0097111D01*
X0291583Y0096913D01*
X0291368Y0096710D01*
X0291157Y0096501D01*
X0290952Y0096288D01*
X0290753Y0096069D01*
X0290558Y0095846D01*
X0290370Y0095618D01*
X0290186Y0095385D01*
X0290009Y0095149D01*
X0289837Y0094907D01*
X0289672Y0094662D01*
X0289512Y0094413D01*
X0289358Y0094160D01*
X0289211Y0093903D01*
X0289070Y0093643D01*
X0288936Y0093379D01*
X0288808Y0093112D01*
X0288686Y0092842D01*
X0288571Y0092569D01*
X0288463Y0092294D01*
X0288361Y0092016D01*
X0288267Y0091735D01*
X0288302Y0091724D01*
X0288396Y0092003D01*
X0288497Y0092281D01*
X0288605Y0092555D01*
X0288720Y0092827D01*
X0288841Y0093096D01*
X0288969Y0093362D01*
X0289103Y0093625D01*
X0289244Y0093885D01*
X0289390Y0094141D01*
X0289543Y0094393D01*
X0289703Y0094642D01*
X0289868Y0094886D01*
X0290039Y0095127D01*
X0290216Y0095363D01*
X0290398Y0095595D01*
X0290587Y0095822D01*
X0290780Y0096045D01*
X0290979Y0096263D01*
X0291184Y0096475D01*
X0291393Y0096683D01*
X0291608Y0096886D01*
X0291827Y0097083D01*
X0292051Y0097275D01*
X0292280Y0097462D01*
X0292514Y0097643D01*
X0292751Y0097818D01*
X0292993Y0097987D01*
X0293239Y0098150D01*
X0293489Y0098307D01*
X0293742Y0098458D01*
X0293999Y0098603D01*
X0294260Y0098741D01*
X0294524Y0098874D01*
X0294791Y0098999D01*
X0295061Y0099118D01*
X0295334Y0099231D01*
X0295609Y0099336D01*
X0295887Y0099435D01*
X0296168Y0099527D01*
X0296450Y0099613D01*
X0296735Y0099691D01*
X0297021Y0099762D01*
X0297309Y0099827D01*
X0297599Y0099884D01*
X0297890Y0099934D01*
X0298182Y0099977D01*
X0298475Y0100013D01*
X0298768Y0100042D01*
X0299063Y0100063D01*
X0299357Y0100078D01*
X0299652Y0100085D01*
X0299948Y0100085D01*
X0300243Y0100078D01*
X0300537Y0100063D01*
X0300832Y0100042D01*
X0301125Y0100013D01*
X0301418Y0099977D01*
X0301710Y0099934D01*
X0302001Y0099884D01*
X0302291Y0099827D01*
X0302579Y0099762D01*
X0302865Y0099691D01*
X0303150Y0099613D01*
X0303432Y0099527D01*
X0303713Y0099435D01*
X0303991Y0099336D01*
X0304266Y0099231D01*
X0304539Y0099118D01*
X0304809Y0098999D01*
X0305076Y0098874D01*
X0305340Y0098741D01*
X0305601Y0098603D01*
X0305858Y0098458D01*
X0306111Y0098307D01*
X0306361Y0098150D01*
X0306607Y0097987D01*
X0306849Y0097818D01*
X0307086Y0097643D01*
X0307320Y0097462D01*
X0307549Y0097275D01*
X0307773Y0097083D01*
X0307992Y0096886D01*
X0308207Y0096683D01*
X0308416Y0096475D01*
X0308621Y0096263D01*
X0308820Y0096045D01*
X0309013Y0095822D01*
X0309202Y0095595D01*
X0309384Y0095363D01*
X0309561Y0095127D01*
X0309732Y0094886D01*
X0309897Y0094642D01*
X0310057Y0094393D01*
X0310210Y0094141D01*
X0310356Y0093885D01*
X0310497Y0093625D01*
X0310631Y0093362D01*
X0310759Y0093096D01*
X0310880Y0092827D01*
X0310995Y0092555D01*
X0311103Y0092281D01*
X0311204Y0092003D01*
X0311298Y0091724D01*
X0311263Y0091712D01*
X0311169Y0091991D01*
X0311068Y0092268D01*
X0310960Y0092541D01*
X0310846Y0092813D01*
X0310725Y0093081D01*
X0310598Y0093346D01*
X0310464Y0093608D01*
X0310324Y0093867D01*
X0310178Y0094122D01*
X0310025Y0094374D01*
X0309867Y0094621D01*
X0309702Y0094865D01*
X0309531Y0095105D01*
X0309355Y0095340D01*
X0309173Y0095572D01*
X0308985Y0095798D01*
X0308792Y0096020D01*
X0308593Y0096237D01*
X0308390Y0096450D01*
X0308181Y0096657D01*
X0307967Y0096859D01*
X0307748Y0097056D01*
X0307525Y0097247D01*
X0307297Y0097433D01*
X0307064Y0097613D01*
X0306827Y0097788D01*
X0306586Y0097956D01*
X0306341Y0098119D01*
X0306092Y0098276D01*
X0305839Y0098426D01*
X0305583Y0098571D01*
X0305323Y0098709D01*
X0305060Y0098840D01*
X0304794Y0098965D01*
X0304524Y0099084D01*
X0304252Y0099196D01*
X0303978Y0099302D01*
X0303701Y0099400D01*
X0303421Y0099492D01*
X0303139Y0099577D01*
X0302856Y0099655D01*
X0302570Y0099726D01*
X0302283Y0099790D01*
X0301994Y0099847D01*
X0301704Y0099898D01*
X0301413Y0099940D01*
X0301121Y0099976D01*
X0300829Y0100005D01*
X0300535Y0100027D01*
X0300241Y0100041D01*
X0299947Y0100048D01*
X0299653Y0100048D01*
X0299359Y0100041D01*
X0299065Y0100027D01*
X0298771Y0100005D01*
X0298479Y0099976D01*
X0298187Y0099940D01*
X0297896Y0099898D01*
X0297606Y0099847D01*
X0297317Y0099790D01*
X0297030Y0099726D01*
X0296744Y0099655D01*
X0296461Y0099577D01*
X0296179Y0099492D01*
X0295899Y0099400D01*
X0295622Y0099302D01*
X0295348Y0099196D01*
X0295076Y0099084D01*
X0294806Y0098965D01*
X0294540Y0098840D01*
X0294277Y0098709D01*
X0294017Y0098571D01*
X0293761Y0098426D01*
X0293508Y0098276D01*
X0293259Y0098119D01*
X0293014Y0097956D01*
X0292773Y0097788D01*
X0292536Y0097613D01*
X0292303Y0097433D01*
X0292075Y0097247D01*
X0291852Y0097056D01*
X0291633Y0096859D01*
X0291419Y0096657D01*
X0291210Y0096450D01*
X0291007Y0096237D01*
X0290808Y0096020D01*
X0290615Y0095798D01*
X0290427Y0095572D01*
X0290245Y0095340D01*
X0290069Y0095105D01*
X0289898Y0094865D01*
X0289733Y0094621D01*
X0289575Y0094374D01*
X0289422Y0094122D01*
X0289276Y0093867D01*
X0289136Y0093608D01*
X0289002Y0093346D01*
X0288875Y0093081D01*
X0288754Y0092813D01*
X0288640Y0092541D01*
X0288532Y0092268D01*
X0288431Y0091991D01*
X0288337Y0091712D01*
D24*
X0277500Y0098500D02*
X0276500Y0102000D01*
X0275500Y0098500D01*
X0277500Y0098500D01*
X0276500Y0102000D02*
X0276500Y0078500D01*
X0252500Y0078500D01*
X0256500Y0079500D01*
X0256500Y0077500D01*
X0252500Y0078500D01*
X0237800Y0072500D02*
X0225800Y0072500D01*
X0207800Y0072500D02*
X0195800Y0072500D01*
X0204300Y0057000D02*
X0204300Y0037000D01*
X0183300Y0037000D02*
X0183300Y0057000D01*
X0163800Y0051000D02*
X0163800Y0048000D01*
X0163800Y0051000D02*
X0160300Y0051000D01*
X0143300Y0045500D02*
X0143300Y0033500D01*
X0119300Y0033500D02*
X0119300Y0045500D01*
X0050800Y0046000D02*
X0050800Y0034000D01*
X0225300Y0037000D02*
X0225300Y0057000D01*
X0246300Y0057000D02*
X0246300Y0037000D01*
X0267300Y0040000D02*
X0267300Y0052000D01*
X0272850Y0082000D02*
X0272852Y0082024D01*
X0272858Y0082048D01*
X0272867Y0082070D01*
X0272880Y0082090D01*
X0272896Y0082108D01*
X0272915Y0082123D01*
X0272936Y0082136D01*
X0272958Y0082144D01*
X0272982Y0082149D01*
X0273006Y0082150D01*
X0273030Y0082147D01*
X0273053Y0082140D01*
X0273075Y0082130D01*
X0273095Y0082116D01*
X0273112Y0082099D01*
X0273127Y0082080D01*
X0273138Y0082059D01*
X0273146Y0082036D01*
X0273150Y0082012D01*
X0273150Y0081988D01*
X0273146Y0081964D01*
X0273138Y0081941D01*
X0273127Y0081920D01*
X0273112Y0081901D01*
X0273095Y0081884D01*
X0273075Y0081870D01*
X0273053Y0081860D01*
X0273030Y0081853D01*
X0273006Y0081850D01*
X0272982Y0081851D01*
X0272958Y0081856D01*
X0272936Y0081864D01*
X0272915Y0081877D01*
X0272896Y0081892D01*
X0272880Y0081910D01*
X0272867Y0081930D01*
X0272858Y0081952D01*
X0272852Y0081976D01*
X0272850Y0082000D01*
X0330300Y0080370D02*
X0333800Y0080370D01*
X0333800Y0077500D01*
X0345300Y0080370D02*
X0348800Y0080370D01*
X0348800Y0077500D01*
X0348800Y0061370D02*
X0345300Y0061370D01*
X0348800Y0061370D02*
X0348800Y0058500D01*
X0333800Y0058500D02*
X0333800Y0061370D01*
X0330300Y0061370D01*
X0329800Y0137000D02*
X0341800Y0137000D01*
X0341800Y0156000D02*
X0329800Y0156000D01*
X0206300Y0154000D02*
X0206300Y0154000D01*
X0206300Y0154000D01*
X0206300Y0154000D01*
X0206300Y0154000D01*
X0206300Y0154000D01*
X0206300Y0154000D01*
X0206300Y0154000D01*
X0206300Y0154000D01*
X0093800Y0168500D02*
X0093800Y0180500D01*
X0068300Y0180500D01*
X0068300Y0176500D01*
X0066800Y0176500D01*
X0066800Y0172500D01*
X0068300Y0172500D01*
X0068300Y0168500D01*
X0093800Y0168500D01*
D25*
X0146875Y0063500D03*
D26*
X0255150Y0132800D02*
X0255150Y0134301D01*
X0255901Y0134301D01*
X0256151Y0134051D01*
X0256151Y0133551D01*
X0255901Y0133300D01*
X0255150Y0133300D01*
X0255650Y0133300D02*
X0256151Y0132800D01*
X0256623Y0133551D02*
X0257624Y0133551D01*
X0258097Y0133551D02*
X0258847Y0133551D01*
X0259097Y0133300D01*
X0259097Y0133050D01*
X0258847Y0132800D01*
X0258347Y0132800D01*
X0258097Y0133050D01*
X0258097Y0133551D01*
X0258597Y0134051D01*
X0259097Y0134301D01*
X0257374Y0134301D02*
X0257374Y0132800D01*
X0256623Y0133551D02*
X0257374Y0134301D01*
X0146297Y0140050D02*
X0146047Y0139800D01*
X0145547Y0139800D01*
X0145297Y0140050D01*
X0145297Y0140551D02*
X0145797Y0140801D01*
X0146047Y0140801D01*
X0146297Y0140551D01*
X0146297Y0140050D01*
X0145297Y0140551D02*
X0145297Y0141301D01*
X0146297Y0141301D01*
X0144824Y0141051D02*
X0144574Y0141301D01*
X0144073Y0141301D01*
X0143823Y0141051D01*
X0143351Y0141051D02*
X0143101Y0141301D01*
X0142600Y0141301D01*
X0142350Y0141051D01*
X0142350Y0140050D01*
X0142600Y0139800D01*
X0143101Y0139800D01*
X0143351Y0140050D01*
X0143823Y0139800D02*
X0144824Y0140801D01*
X0144824Y0141051D01*
X0144824Y0139800D02*
X0143823Y0139800D01*
X0143601Y0154800D02*
X0143851Y0155050D01*
X0143601Y0154800D02*
X0143100Y0154800D01*
X0142850Y0155050D01*
X0142850Y0156051D01*
X0143100Y0156301D01*
X0143601Y0156301D01*
X0143851Y0156051D01*
X0144323Y0156051D02*
X0144573Y0156301D01*
X0145074Y0156301D01*
X0145324Y0156051D01*
X0145324Y0155801D01*
X0144323Y0154800D01*
X0145324Y0154800D01*
X0145797Y0155050D02*
X0146047Y0154800D01*
X0146547Y0154800D01*
X0146797Y0155050D01*
X0146797Y0155300D01*
X0146547Y0155551D01*
X0145797Y0155551D01*
X0145797Y0155050D01*
X0145797Y0155551D02*
X0146297Y0156051D01*
X0146797Y0156301D01*
M02*
